<svg width="24" height="24" viewBox="0 0 24 24" fill="none" xmlns="http://www.w3.org/2000/svg">
<path d="M12 4C6.86912 4 2.40029 7.2226 0 12.0001C2.40029 16.7785 6.86912 20.0002 12 20.0002C17.1309 20.0002 21.5997 16.7785 24 12.0001C21.5997 7.2226 17.1309 4 12 4ZM12 17.0002C9.23818 17.0002 6.9999 14.7619 6.9999 12.0001C6.9999 9.23828 9.23818 7 12 7C14.7618 7 17.0001 9.23828 17.0001 12.0001C17.0001 14.7619 14.7618 17.0002 12 17.0002Z" fill="#AE1DB0"/>
<path d="M12 15C13.6569 15 15 13.6569 15 12C15 10.3431 13.6569 9 12 9C10.3431 9 9 10.3431 9 12C9 13.6569 10.3431 15 12 15Z" fill="#AE1DB0"/>
</svg>
