<svg width="279" height="38" viewBox="0 0 279 38" fill="none" xmlns="http://www.w3.org/2000/svg">
<rect x="1.04965" y="1.04965" width="276.901" height="35.9007" rx="6.95035" fill="url(#paint0_linear_4153_226762)" stroke="url(#paint1_linear_4153_226762)" stroke-width="2.09931"/>
<path d="M99.7706 13.928V25H98.3146V16.744L94.6346 25H93.6106L89.9146 16.728V25H88.4586V13.928H90.0266L94.1226 23.08L98.2186 13.928H99.7706ZM102.992 14.808C102.714 14.808 102.48 14.712 102.288 14.52C102.096 14.328 102 14.0933 102 13.816C102 13.5387 102.096 13.304 102.288 13.112C102.48 12.92 102.714 12.824 102.992 12.824C103.258 12.824 103.482 12.92 103.664 13.112C103.856 13.304 103.952 13.5387 103.952 13.816C103.952 14.0933 103.856 14.328 103.664 14.52C103.482 14.712 103.258 14.808 102.992 14.808ZM103.696 16.232V25H102.24V16.232H103.696ZM110.449 16.072C111.516 16.072 112.38 16.3973 113.041 17.048C113.703 17.688 114.033 18.616 114.033 19.832V25H112.593V20.04C112.593 19.1653 112.375 18.4987 111.937 18.04C111.5 17.5707 110.903 17.336 110.145 17.336C109.377 17.336 108.764 17.576 108.305 18.056C107.857 18.536 107.633 19.2347 107.633 20.152V25H106.177V16.232H107.633V17.48C107.921 17.032 108.311 16.6853 108.801 16.44C109.303 16.1947 109.852 16.072 110.449 16.072ZM118.188 17.432V22.6C118.188 23.0267 118.278 23.3307 118.46 23.512C118.641 23.6827 118.956 23.768 119.404 23.768H120.476V25H119.164C118.353 25 117.745 24.8133 117.34 24.44C116.934 24.0667 116.732 23.4533 116.732 22.6V17.432H115.596V16.232H116.732V14.024H118.188V16.232H120.476V17.432H118.188ZM132.585 18.52V19.752H126.201V18.52H132.585ZM143.12 25.112C142.384 25.112 141.722 24.984 141.136 24.728C140.56 24.4613 140.106 24.0987 139.776 23.64C139.445 23.1707 139.274 22.632 139.264 22.024H140.816C140.869 22.5467 141.082 22.9893 141.456 23.352C141.84 23.704 142.394 23.88 143.12 23.88C143.813 23.88 144.357 23.7093 144.752 23.368C145.157 23.016 145.36 22.568 145.36 22.024C145.36 21.5973 145.242 21.2507 145.008 20.984C144.773 20.7173 144.48 20.5147 144.128 20.376C143.776 20.2373 143.301 20.088 142.704 19.928C141.968 19.736 141.376 19.544 140.928 19.352C140.49 19.16 140.112 18.8613 139.792 18.456C139.482 18.04 139.328 17.4853 139.328 16.792C139.328 16.184 139.482 15.6453 139.792 15.176C140.101 14.7067 140.533 14.344 141.088 14.088C141.653 13.832 142.298 13.704 143.024 13.704C144.069 13.704 144.922 13.9653 145.584 14.488C146.256 15.0107 146.634 15.704 146.72 16.568H145.12C145.066 16.1413 144.842 15.768 144.448 15.448C144.053 15.1173 143.53 14.952 142.88 14.952C142.272 14.952 141.776 15.112 141.392 15.432C141.008 15.7413 140.816 16.1787 140.816 16.744C140.816 17.1493 140.928 17.48 141.152 17.736C141.386 17.992 141.669 18.1893 142 18.328C142.341 18.456 142.816 18.6053 143.424 18.776C144.16 18.9787 144.752 19.1813 145.2 19.384C145.648 19.576 146.032 19.88 146.352 20.296C146.672 20.7013 146.832 21.256 146.832 21.96C146.832 22.504 146.688 23.016 146.4 23.496C146.112 23.976 145.685 24.3653 145.12 24.664C144.554 24.9627 143.888 25.112 143.12 25.112ZM150.75 17.432V22.6C150.75 23.0267 150.841 23.3307 151.022 23.512C151.204 23.6827 151.518 23.768 151.966 23.768H153.038V25H151.726C150.916 25 150.308 24.8133 149.902 24.44C149.497 24.0667 149.294 23.4533 149.294 22.6V17.432H148.158V16.232H149.294V14.024H150.75V16.232H153.038V17.432H150.75ZM162.802 20.28C162.802 20.5573 162.786 20.8507 162.754 21.16H155.746C155.8 22.024 156.093 22.7013 156.626 23.192C157.17 23.672 157.826 23.912 158.594 23.912C159.224 23.912 159.746 23.768 160.162 23.48C160.589 23.1813 160.888 22.7867 161.058 22.296H162.626C162.392 23.1387 161.922 23.8267 161.218 24.36C160.514 24.8827 159.64 25.144 158.594 25.144C157.762 25.144 157.016 24.9573 156.354 24.584C155.704 24.2107 155.192 23.6827 154.818 23C154.445 22.3067 154.258 21.5067 154.258 20.6C154.258 19.6933 154.44 18.8987 154.802 18.216C155.165 17.5333 155.672 17.0107 156.322 16.648C156.984 16.2747 157.741 16.088 158.594 16.088C159.426 16.088 160.162 16.2693 160.802 16.632C161.442 16.9947 161.933 17.496 162.274 18.136C162.626 18.7653 162.802 19.48 162.802 20.28ZM161.298 19.976C161.298 19.4213 161.176 18.9467 160.93 18.552C160.685 18.1467 160.349 17.8427 159.922 17.64C159.506 17.4267 159.042 17.32 158.53 17.32C157.794 17.32 157.165 17.5547 156.642 18.024C156.13 18.4933 155.837 19.144 155.762 19.976H161.298ZM166.18 17.848C166.468 17.3467 166.895 16.9307 167.46 16.6C168.036 16.2587 168.703 16.088 169.46 16.088C170.239 16.088 170.943 16.2747 171.572 16.648C172.212 17.0213 172.714 17.5493 173.076 18.232C173.439 18.904 173.62 19.688 173.62 20.584C173.62 21.4693 173.439 22.2587 173.076 22.952C172.714 23.6453 172.212 24.184 171.572 24.568C170.943 24.952 170.239 25.144 169.46 25.144C168.714 25.144 168.052 24.9787 167.476 24.648C166.911 24.3067 166.479 23.8853 166.18 23.384V29.16H164.724V16.232H166.18V17.848ZM172.132 20.584C172.132 19.9227 171.999 19.3467 171.732 18.856C171.466 18.3653 171.103 17.992 170.644 17.736C170.196 17.48 169.7 17.352 169.156 17.352C168.623 17.352 168.127 17.4853 167.668 17.752C167.22 18.008 166.858 18.3867 166.58 18.888C166.314 19.3787 166.18 19.9493 166.18 20.6C166.18 21.2613 166.314 21.8427 166.58 22.344C166.858 22.8347 167.22 23.2133 167.668 23.48C168.127 23.736 168.623 23.864 169.156 23.864C169.7 23.864 170.196 23.736 170.644 23.48C171.103 23.2133 171.466 22.8347 171.732 22.344C171.999 21.8427 172.132 21.256 172.132 20.584ZM179.386 23.832C180.741 22.744 181.802 21.8533 182.57 21.16C183.338 20.456 183.984 19.7253 184.506 18.968C185.04 18.2 185.306 17.448 185.306 16.712C185.306 16.0187 185.136 15.4747 184.794 15.08C184.464 14.6747 183.925 14.472 183.178 14.472C182.453 14.472 181.888 14.7013 181.482 15.16C181.088 15.608 180.874 16.2107 180.842 16.968H179.434C179.477 15.7733 179.84 14.8507 180.522 14.2C181.205 13.5493 182.085 13.224 183.162 13.224C184.261 13.224 185.13 13.528 185.77 14.136C186.421 14.744 186.746 15.5813 186.746 16.648C186.746 17.5333 186.48 18.3973 185.946 19.24C185.424 20.072 184.826 20.808 184.154 21.448C183.482 22.0773 182.624 22.8133 181.578 23.656H187.082V24.872H179.386V23.832Z" fill="white"/>
<defs>
<linearGradient id="paint0_linear_4153_226762" x1="-49.5225" y1="17.5605" x2="296.354" y2="23.9604" gradientUnits="userSpaceOnUse">
<stop stop-color="#6400FF" stop-opacity="0.88"/>
<stop offset="0.523958" stop-color="#874691" stop-opacity="0.86"/>
<stop offset="1" stop-color="#FF03F5" stop-opacity="0.67"/>
</linearGradient>
<linearGradient id="paint1_linear_4153_226762" x1="0" y1="19" x2="286.208" y2="19" gradientUnits="userSpaceOnUse">
<stop stop-color="#131BB0"/>
<stop offset="0.482292" stop-color="#B84C93"/>
<stop offset="1" stop-color="#FF00F5"/>
<stop offset="1" stop-color="#DB34CA"/>
</linearGradient>
</defs>
</svg>
