<svg width="279" height="38" viewBox="0 0 279 38" fill="none" xmlns="http://www.w3.org/2000/svg">
<rect x="1.04965" y="1.04965" width="276.901" height="35.9007" rx="9.44689" fill="url(#paint0_linear_3328_209617)" stroke="url(#paint1_linear_3328_209617)" stroke-width="2.09931"/>
<path d="M113.716 13.928V25H112.26V16.744L108.58 25H107.556L103.86 16.728V25H102.404V13.928H103.972L108.068 23.08L112.164 13.928H113.716ZM116.937 14.808C116.66 14.808 116.425 14.712 116.233 14.52C116.041 14.328 115.945 14.0933 115.945 13.816C115.945 13.5387 116.041 13.304 116.233 13.112C116.425 12.92 116.66 12.824 116.937 12.824C117.204 12.824 117.428 12.92 117.609 13.112C117.801 13.304 117.897 13.5387 117.897 13.816C117.897 14.0933 117.801 14.328 117.609 14.52C117.428 14.712 117.204 14.808 116.937 14.808ZM117.641 16.232V25H116.185V16.232H117.641ZM124.395 16.072C125.461 16.072 126.325 16.3973 126.987 17.048C127.648 17.688 127.979 18.616 127.979 19.832V25H126.539V20.04C126.539 19.1653 126.32 18.4987 125.883 18.04C125.445 17.5707 124.848 17.336 124.091 17.336C123.323 17.336 122.709 17.576 122.251 18.056C121.803 18.536 121.579 19.2347 121.579 20.152V25H120.123V16.232H121.579V17.48C121.867 17.032 122.256 16.6853 122.747 16.44C123.248 16.1947 123.797 16.072 124.395 16.072ZM132.133 17.432V22.6C132.133 23.0267 132.224 23.3307 132.405 23.512C132.586 23.6827 132.901 23.768 133.349 23.768H134.421V25H133.109C132.298 25 131.69 24.8133 131.285 24.44C130.88 24.0667 130.677 23.4533 130.677 22.6V17.432H129.541V16.232H130.677V14.024H132.133V16.232H134.421V17.432H132.133ZM149.219 25H147.763L141.907 16.12V25H140.451V13.832H141.907L147.763 22.696V13.832H149.219V25ZM155.525 25.144C154.703 25.144 153.957 24.9573 153.285 24.584C152.623 24.2107 152.101 23.6827 151.717 23C151.343 22.3067 151.157 21.5067 151.157 20.6C151.157 19.704 151.349 18.9147 151.733 18.232C152.127 17.5387 152.661 17.0107 153.333 16.648C154.005 16.2747 154.757 16.088 155.589 16.088C156.421 16.088 157.173 16.2747 157.845 16.648C158.517 17.0107 159.045 17.5333 159.429 18.216C159.823 18.8987 160.021 19.6933 160.021 20.6C160.021 21.5067 159.818 22.3067 159.413 23C159.018 23.6827 158.479 24.2107 157.797 24.584C157.114 24.9573 156.357 25.144 155.525 25.144ZM155.525 23.864C156.047 23.864 156.538 23.7413 156.997 23.496C157.455 23.2507 157.823 22.8827 158.101 22.392C158.389 21.9013 158.533 21.304 158.533 20.6C158.533 19.896 158.394 19.2987 158.117 18.808C157.839 18.3173 157.477 17.9547 157.029 17.72C156.581 17.4747 156.095 17.352 155.573 17.352C155.039 17.352 154.549 17.4747 154.101 17.72C153.663 17.9547 153.311 18.3173 153.045 18.808C152.778 19.2987 152.645 19.896 152.645 20.6C152.645 21.3147 152.773 21.9173 153.029 22.408C153.295 22.8987 153.647 23.2667 154.085 23.512C154.522 23.7467 155.002 23.864 155.525 23.864ZM173.615 16.232L170.879 25H169.375L167.263 18.04L165.151 25H163.647L160.895 16.232H162.383L164.399 23.592L166.575 16.232H168.063L170.191 23.608L172.175 16.232H173.615Z" fill="white"/>
<defs>
<linearGradient id="paint0_linear_3328_209617" x1="-49.5225" y1="17.5605" x2="296.354" y2="23.9604" gradientUnits="userSpaceOnUse">
<stop stop-color="#6400FF" stop-opacity="0.88"/>
<stop offset="0.523958" stop-color="#874691" stop-opacity="0.86"/>
<stop offset="1" stop-color="#FF03F5" stop-opacity="0.67"/>
</linearGradient>
<linearGradient id="paint1_linear_3328_209617" x1="0" y1="19" x2="286.208" y2="19" gradientUnits="userSpaceOnUse">
<stop stop-color="#131BB0"/>
<stop offset="0.482292" stop-color="#B84C93"/>
<stop offset="1" stop-color="#FF00F5"/>
<stop offset="1" stop-color="#DB34CA"/>
</linearGradient>
</defs>
</svg>
