<svg width="279" height="38" viewBox="0 0 279 38" fill="none" xmlns="http://www.w3.org/2000/svg">
<rect x="1.04965" y="1.04965" width="276.901" height="35.9007" rx="6.95035" fill="url(#paint0_linear_4116_226762)" stroke="url(#paint1_linear_4116_226762)" stroke-width="2.09931"/>
<path d="M101.81 13.928V25H100.354V16.744L96.6736 25H95.6496L91.9536 16.728V25H90.4976V13.928H92.0656L96.1616 23.08L100.258 13.928H101.81ZM105.031 14.808C104.754 14.808 104.519 14.712 104.327 14.52C104.135 14.328 104.039 14.0933 104.039 13.816C104.039 13.5387 104.135 13.304 104.327 13.112C104.519 12.92 104.754 12.824 105.031 12.824C105.298 12.824 105.522 12.92 105.703 13.112C105.895 13.304 105.991 13.5387 105.991 13.816C105.991 14.0933 105.895 14.328 105.703 14.52C105.522 14.712 105.298 14.808 105.031 14.808ZM105.735 16.232V25H104.279V16.232H105.735ZM112.488 16.072C113.555 16.072 114.419 16.3973 115.08 17.048C115.742 17.688 116.072 18.616 116.072 19.832V25H114.632V20.04C114.632 19.1653 114.414 18.4987 113.976 18.04C113.539 17.5707 112.942 17.336 112.184 17.336C111.416 17.336 110.803 17.576 110.344 18.056C109.896 18.536 109.672 19.2347 109.672 20.152V25H108.216V16.232H109.672V17.48C109.96 17.032 110.35 16.6853 110.84 16.44C111.342 16.1947 111.891 16.072 112.488 16.072ZM120.227 17.432V22.6C120.227 23.0267 120.317 23.3307 120.499 23.512C120.68 23.6827 120.995 23.768 121.443 23.768H122.515V25H121.203C120.392 25 119.784 24.8133 119.379 24.44C118.973 24.0667 118.771 23.4533 118.771 22.6V17.432H117.635V16.232H118.771V14.024H120.227V16.232H122.515V17.432H120.227ZM134.625 18.52V19.752H128.241V18.52H134.625ZM145.159 25.112C144.423 25.112 143.761 24.984 143.175 24.728C142.599 24.4613 142.145 24.0987 141.815 23.64C141.484 23.1707 141.313 22.632 141.303 22.024H142.855C142.908 22.5467 143.121 22.9893 143.495 23.352C143.879 23.704 144.433 23.88 145.159 23.88C145.852 23.88 146.396 23.7093 146.791 23.368C147.196 23.016 147.399 22.568 147.399 22.024C147.399 21.5973 147.281 21.2507 147.047 20.984C146.812 20.7173 146.519 20.5147 146.167 20.376C145.815 20.2373 145.34 20.088 144.743 19.928C144.007 19.736 143.415 19.544 142.967 19.352C142.529 19.16 142.151 18.8613 141.831 18.456C141.521 18.04 141.367 17.4853 141.367 16.792C141.367 16.184 141.521 15.6453 141.831 15.176C142.14 14.7067 142.572 14.344 143.127 14.088C143.692 13.832 144.337 13.704 145.063 13.704C146.108 13.704 146.961 13.9653 147.623 14.488C148.295 15.0107 148.673 15.704 148.759 16.568H147.159C147.105 16.1413 146.881 15.768 146.487 15.448C146.092 15.1173 145.569 14.952 144.919 14.952C144.311 14.952 143.815 15.112 143.431 15.432C143.047 15.7413 142.855 16.1787 142.855 16.744C142.855 17.1493 142.967 17.48 143.191 17.736C143.425 17.992 143.708 18.1893 144.039 18.328C144.38 18.456 144.855 18.6053 145.463 18.776C146.199 18.9787 146.791 19.1813 147.239 19.384C147.687 19.576 148.071 19.88 148.391 20.296C148.711 20.7013 148.871 21.256 148.871 21.96C148.871 22.504 148.727 23.016 148.439 23.496C148.151 23.976 147.724 24.3653 147.159 24.664C146.593 24.9627 145.927 25.112 145.159 25.112ZM152.789 17.432V22.6C152.789 23.0267 152.88 23.3307 153.061 23.512C153.243 23.6827 153.557 23.768 154.005 23.768H155.077V25H153.765C152.955 25 152.347 24.8133 151.941 24.44C151.536 24.0667 151.333 23.4533 151.333 22.6V17.432H150.197V16.232H151.333V14.024H152.789V16.232H155.077V17.432H152.789ZM164.841 20.28C164.841 20.5573 164.825 20.8507 164.793 21.16H157.785C157.839 22.024 158.132 22.7013 158.665 23.192C159.209 23.672 159.865 23.912 160.633 23.912C161.263 23.912 161.785 23.768 162.201 23.48C162.628 23.1813 162.927 22.7867 163.097 22.296H164.665C164.431 23.1387 163.961 23.8267 163.257 24.36C162.553 24.8827 161.679 25.144 160.633 25.144C159.801 25.144 159.055 24.9573 158.393 24.584C157.743 24.2107 157.231 23.6827 156.857 23C156.484 22.3067 156.297 21.5067 156.297 20.6C156.297 19.6933 156.479 18.8987 156.841 18.216C157.204 17.5333 157.711 17.0107 158.361 16.648C159.023 16.2747 159.78 16.088 160.633 16.088C161.465 16.088 162.201 16.2693 162.841 16.632C163.481 16.9947 163.972 17.496 164.313 18.136C164.665 18.7653 164.841 19.48 164.841 20.28ZM163.337 19.976C163.337 19.4213 163.215 18.9467 162.969 18.552C162.724 18.1467 162.388 17.8427 161.961 17.64C161.545 17.4267 161.081 17.32 160.569 17.32C159.833 17.32 159.204 17.5547 158.681 18.024C158.169 18.4933 157.876 19.144 157.801 19.976H163.337ZM168.219 17.848C168.507 17.3467 168.934 16.9307 169.499 16.6C170.075 16.2587 170.742 16.088 171.499 16.088C172.278 16.088 172.982 16.2747 173.611 16.648C174.251 17.0213 174.753 17.5493 175.115 18.232C175.478 18.904 175.659 19.688 175.659 20.584C175.659 21.4693 175.478 22.2587 175.115 22.952C174.753 23.6453 174.251 24.184 173.611 24.568C172.982 24.952 172.278 25.144 171.499 25.144C170.753 25.144 170.091 24.9787 169.515 24.648C168.95 24.3067 168.518 23.8853 168.219 23.384V29.16H166.763V16.232H168.219V17.848ZM174.171 20.584C174.171 19.9227 174.038 19.3467 173.771 18.856C173.505 18.3653 173.142 17.992 172.683 17.736C172.235 17.48 171.739 17.352 171.195 17.352C170.662 17.352 170.166 17.4853 169.707 17.752C169.259 18.008 168.897 18.3867 168.619 18.888C168.353 19.3787 168.219 19.9493 168.219 20.6C168.219 21.2613 168.353 21.8427 168.619 22.344C168.897 22.8347 169.259 23.2133 169.707 23.48C170.166 23.736 170.662 23.864 171.195 23.864C171.739 23.864 172.235 23.736 172.683 23.48C173.142 23.2133 173.505 22.8347 173.771 22.344C174.038 21.8427 174.171 21.256 174.171 20.584ZM181.217 14.76V13.432H184.225V25H182.753V14.76H181.217Z" fill="white"/>
<defs>
<linearGradient id="paint0_linear_4116_226762" x1="-49.5225" y1="17.5605" x2="296.354" y2="23.9604" gradientUnits="userSpaceOnUse">
<stop stop-color="#6400FF" stop-opacity="0.88"/>
<stop offset="0.523958" stop-color="#874691" stop-opacity="0.86"/>
<stop offset="1" stop-color="#FF03F5" stop-opacity="0.67"/>
</linearGradient>
<linearGradient id="paint1_linear_4116_226762" x1="0" y1="19" x2="286.208" y2="19" gradientUnits="userSpaceOnUse">
<stop stop-color="#131BB0"/>
<stop offset="0.482292" stop-color="#B84C93"/>
<stop offset="1" stop-color="#FF00F5"/>
<stop offset="1" stop-color="#DB34CA"/>
</linearGradient>
</defs>
</svg>
