<svg width="131" height="45" viewBox="0 0 131 45" fill="none" xmlns="http://www.w3.org/2000/svg">
<g filter="url(#filter0_d_3945_226370)">
<rect x="4.5" y="1.5" width="122" height="36" rx="6.5" fill="url(#paint0_linear_3945_226370)" stroke="url(#paint1_linear_3945_226370)" stroke-width="3"/>
</g>
<path opacity="0.7" d="M40.9481 14.16V28H39.1281V17.68L34.5281 28H33.2481L28.6281 17.66V28H26.8081V14.16H28.7681L33.8881 25.6L39.0081 14.16H40.9481ZM53.4747 17.04L46.8747 33.16H44.9947L47.1547 27.88L42.7347 17.04H44.7547L48.1947 25.92L51.5947 17.04H53.4747ZM71.5963 28H69.7763L62.4563 16.9V28H60.6363V14.04H62.4563L69.7763 25.12V14.04H71.5963V28ZM82.5788 14.06V15.54H76.5188V20.24H81.4388V21.72H76.5188V28H74.6988V14.06H82.5788ZM93.3569 14.06V15.54H89.5569V28H87.7369V15.54H83.9169V14.06H93.3569ZM99.4772 28.18C98.6372 28.18 97.8839 28.04 97.2172 27.76C96.5505 27.4667 96.0239 27.0667 95.6372 26.56C95.2505 26.04 95.0372 25.4467 94.9972 24.78H96.8772C96.9305 25.3267 97.1839 25.7733 97.6372 26.12C98.1039 26.4667 98.7105 26.64 99.4572 26.64C100.151 26.64 100.697 26.4867 101.097 26.18C101.497 25.8733 101.697 25.4867 101.697 25.02C101.697 24.54 101.484 24.1867 101.057 23.96C100.631 23.72 99.9705 23.4867 99.0772 23.26C98.2639 23.0467 97.5972 22.8333 97.0772 22.62C96.5705 22.3933 96.1305 22.0667 95.7572 21.64C95.3972 21.2 95.2172 20.6267 95.2172 19.92C95.2172 19.36 95.3839 18.8467 95.7172 18.38C96.0505 17.9133 96.5239 17.5467 97.1372 17.28C97.7505 17 98.4505 16.86 99.2372 16.86C100.451 16.86 101.431 17.1667 102.177 17.78C102.924 18.3933 103.324 19.2333 103.377 20.3H101.557C101.517 19.7267 101.284 19.2667 100.857 18.92C100.444 18.5733 99.8839 18.4 99.1772 18.4C98.5239 18.4 98.0039 18.54 97.6172 18.82C97.2305 19.1 97.0372 19.4667 97.0372 19.92C97.0372 20.28 97.1505 20.58 97.3772 20.82C97.6172 21.0467 97.9105 21.2333 98.2572 21.38C98.6172 21.5133 99.1105 21.6667 99.7372 21.84C100.524 22.0533 101.164 22.2667 101.657 22.48C102.151 22.68 102.571 22.9867 102.917 23.4C103.277 23.8133 103.464 24.3533 103.477 25.02C103.477 25.62 103.311 26.16 102.977 26.64C102.644 27.12 102.171 27.5 101.557 27.78C100.957 28.0467 100.264 28.18 99.4772 28.18Z" fill="white"/>
<defs>
<filter id="filter0_d_3945_226370" x="0.130742" y="0" width="130.739" height="44.7385" filterUnits="userSpaceOnUse" color-interpolation-filters="sRGB">
<feFlood flood-opacity="0" result="BackgroundImageFix"/>
<feColorMatrix in="SourceAlpha" type="matrix" values="0 0 0 0 0 0 0 0 0 0 0 0 0 0 0 0 0 0 127 0" result="hardAlpha"/>
<feOffset dy="2.86926"/>
<feGaussianBlur stdDeviation="1.43463"/>
<feComposite in2="hardAlpha" operator="out"/>
<feColorMatrix type="matrix" values="0 0 0 0 0 0 0 0 0 0 0 0 0 0 0 0 0 0 0.25 0"/>
<feBlend mode="normal" in2="BackgroundImageFix" result="effect1_dropShadow_3945_226370"/>
<feBlend mode="normal" in="SourceGraphic" in2="effect1_dropShadow_3945_226370" result="shape"/>
</filter>
<linearGradient id="paint0_linear_3945_226370" x1="-19.1875" y1="18.0226" x2="135.818" y2="19.2747" gradientUnits="userSpaceOnUse">
<stop stop-color="#6400FF" stop-opacity="0.88"/>
<stop offset="0.523958" stop-color="#874691" stop-opacity="0.86"/>
<stop offset="1" stop-color="#FF03F5" stop-opacity="0.67"/>
</linearGradient>
<linearGradient id="paint1_linear_3945_226370" x1="3" y1="19.5" x2="131.229" y2="19.5" gradientUnits="userSpaceOnUse">
<stop stop-color="#131BB0"/>
<stop offset="0.482292" stop-color="#B84C93"/>
<stop offset="1" stop-color="#FF00F5"/>
<stop offset="1" stop-color="#DB34CA"/>
</linearGradient>
</defs>
</svg>
