<svg width="279" height="38" viewBox="0 0 279 38" fill="none" xmlns="http://www.w3.org/2000/svg">
<rect x="1.04965" y="1.04965" width="276.901" height="35.9007" rx="6.95035" fill="url(#paint0_linear_4003_226751)" stroke="url(#paint1_linear_4003_226751)" stroke-width="2.09931"/>
<path d="M139.71 25.112C138.675 25.112 137.731 24.872 136.878 24.392C136.025 23.9013 135.347 23.224 134.846 22.36C134.355 21.4853 134.11 20.504 134.11 19.416C134.11 18.328 134.355 17.352 134.846 16.488C135.347 15.6133 136.025 14.936 136.878 14.456C137.731 13.9653 138.675 13.72 139.71 13.72C140.755 13.72 141.705 13.9653 142.558 14.456C143.411 14.936 144.083 15.608 144.574 16.472C145.065 17.336 145.31 18.3173 145.31 19.416C145.31 20.5147 145.065 21.496 144.574 22.36C144.083 23.224 143.411 23.9013 142.558 24.392C141.705 24.872 140.755 25.112 139.71 25.112ZM139.71 23.848C140.489 23.848 141.187 23.6667 141.806 23.304C142.435 22.9413 142.926 22.424 143.278 21.752C143.641 21.08 143.822 20.3013 143.822 19.416C143.822 18.52 143.641 17.7413 143.278 17.08C142.926 16.408 142.441 15.8907 141.822 15.528C141.203 15.1653 140.499 14.984 139.71 14.984C138.921 14.984 138.217 15.1653 137.598 15.528C136.979 15.8907 136.489 16.408 136.126 17.08C135.774 17.7413 135.598 18.52 135.598 19.416C135.598 20.3013 135.774 21.08 136.126 21.752C136.489 22.424 136.979 22.9413 137.598 23.304C138.227 23.6667 138.931 23.848 139.71 23.848ZM153.28 25L148.688 19.912V25H147.232V13.848H148.688V19.016L153.296 13.848H155.136L150.08 19.432L155.184 25H153.28Z" fill="white"/>
<defs>
<linearGradient id="paint0_linear_4003_226751" x1="-49.5225" y1="17.5605" x2="296.354" y2="23.9604" gradientUnits="userSpaceOnUse">
<stop stop-color="#6400FF" stop-opacity="0.88"/>
<stop offset="0.523958" stop-color="#874691" stop-opacity="0.86"/>
<stop offset="1" stop-color="#FF03F5" stop-opacity="0.67"/>
</linearGradient>
<linearGradient id="paint1_linear_4003_226751" x1="0" y1="19" x2="286.208" y2="19" gradientUnits="userSpaceOnUse">
<stop stop-color="#131BB0"/>
<stop offset="0.482292" stop-color="#B84C93"/>
<stop offset="1" stop-color="#FF00F5"/>
<stop offset="1" stop-color="#DB34CA"/>
</linearGradient>
</defs>
</svg>
