<svg width="279" height="38" viewBox="0 0 279 38" fill="none" xmlns="http://www.w3.org/2000/svg">
<rect x="1.04965" y="1.04965" width="276.901" height="35.9007" rx="6.95035" fill="url(#paint0_linear_4153_226763)" stroke="url(#paint1_linear_4153_226763)" stroke-width="2.09931"/>
<path d="M70.8989 17.112C70.8989 18.04 70.5789 18.8133 69.9389 19.432C69.3096 20.04 68.3443 20.344 67.0429 20.344H64.8989V25H63.4429V13.848H67.0429C68.3016 13.848 69.2563 14.152 69.9069 14.76C70.5683 15.368 70.8989 16.152 70.8989 17.112ZM67.0429 19.144C67.8536 19.144 68.4509 18.968 68.8349 18.616C69.2189 18.264 69.4109 17.7627 69.4109 17.112C69.4109 15.736 68.6216 15.048 67.0429 15.048H64.8989V19.144H67.0429ZM74.1646 17.656C74.4206 17.1547 74.7832 16.7653 75.2526 16.488C75.7326 16.2107 76.3139 16.072 76.9966 16.072V17.576H76.6126C74.9806 17.576 74.1646 18.4613 74.1646 20.232V25H72.7086V16.232H74.1646V17.656ZM82.5013 25.144C81.68 25.144 80.9333 24.9573 80.2613 24.584C79.6 24.2107 79.0773 23.6827 78.6933 23C78.32 22.3067 78.1333 21.5067 78.1333 20.6C78.1333 19.704 78.3253 18.9147 78.7093 18.232C79.104 17.5387 79.6373 17.0107 80.3093 16.648C80.9813 16.2747 81.7333 16.088 82.5653 16.088C83.3973 16.088 84.1493 16.2747 84.8213 16.648C85.4933 17.0107 86.0213 17.5333 86.4053 18.216C86.8 18.8987 86.9973 19.6933 86.9973 20.6C86.9973 21.5067 86.7946 22.3067 86.3893 23C85.9946 23.6827 85.456 24.2107 84.7733 24.584C84.0906 24.9573 83.3333 25.144 82.5013 25.144ZM82.5013 23.864C83.024 23.864 83.5146 23.7413 83.9733 23.496C84.432 23.2507 84.8 22.8827 85.0773 22.392C85.3653 21.9013 85.5093 21.304 85.5093 20.6C85.5093 19.896 85.3706 19.2987 85.0933 18.808C84.816 18.3173 84.4533 17.9547 84.0053 17.72C83.5573 17.4747 83.072 17.352 82.5493 17.352C82.016 17.352 81.5253 17.4747 81.0773 17.72C80.64 17.9547 80.288 18.3173 80.0213 18.808C79.7546 19.2987 79.6213 19.896 79.6213 20.6C79.6213 21.3147 79.7493 21.9173 80.0053 22.408C80.272 22.8987 80.624 23.2667 81.0613 23.512C81.4986 23.7467 81.9786 23.864 82.5013 23.864ZM88.3677 20.6C88.3677 19.6933 88.549 18.904 88.9117 18.232C89.2744 17.5493 89.7757 17.0213 90.4157 16.648C91.0664 16.2747 91.8077 16.088 92.6397 16.088C93.717 16.088 94.6024 16.3493 95.2957 16.872C95.9997 17.3947 96.4637 18.12 96.6877 19.048H95.1197C94.9704 18.5147 94.677 18.0933 94.2397 17.784C93.813 17.4747 93.2797 17.32 92.6397 17.32C91.8077 17.32 91.1357 17.608 90.6237 18.184C90.1117 18.7493 89.8557 19.5547 89.8557 20.6C89.8557 21.656 90.1117 22.472 90.6237 23.048C91.1357 23.624 91.8077 23.912 92.6397 23.912C93.2797 23.912 93.813 23.7627 94.2397 23.464C94.6664 23.1653 94.9597 22.7387 95.1197 22.184H96.6877C96.453 23.08 95.9837 23.8 95.2797 24.344C94.5757 24.8773 93.6957 25.144 92.6397 25.144C91.8077 25.144 91.0664 24.9573 90.4157 24.584C89.7757 24.2107 89.2744 23.6827 88.9117 23C88.549 22.3173 88.3677 21.5173 88.3677 20.6ZM106.63 20.28C106.63 20.5573 106.614 20.8507 106.582 21.16H99.5744C99.6278 22.024 99.9211 22.7013 100.454 23.192C100.998 23.672 101.654 23.912 102.422 23.912C103.052 23.912 103.574 23.768 103.99 23.48C104.417 23.1813 104.716 22.7867 104.886 22.296H106.454C106.22 23.1387 105.75 23.8267 105.046 24.36C104.342 24.8827 103.468 25.144 102.422 25.144C101.59 25.144 100.844 24.9573 100.182 24.584C99.5318 24.2107 99.0198 23.6827 98.6464 23C98.2731 22.3067 98.0864 21.5067 98.0864 20.6C98.0864 19.6933 98.2678 18.8987 98.6304 18.216C98.9931 17.5333 99.4998 17.0107 100.15 16.648C100.812 16.2747 101.569 16.088 102.422 16.088C103.254 16.088 103.99 16.2693 104.63 16.632C105.27 16.9947 105.761 17.496 106.102 18.136C106.454 18.7653 106.63 19.48 106.63 20.28ZM105.126 19.976C105.126 19.4213 105.004 18.9467 104.758 18.552C104.513 18.1467 104.177 17.8427 103.75 17.64C103.334 17.4267 102.87 17.32 102.358 17.32C101.622 17.32 100.993 17.5547 100.47 18.024C99.9584 18.4933 99.6651 19.144 99.5904 19.976H105.126ZM111.656 25.144C110.984 25.144 110.382 25.032 109.848 24.808C109.315 24.5733 108.894 24.2533 108.584 23.848C108.275 23.432 108.104 22.9573 108.072 22.424H109.576C109.619 22.8613 109.822 23.2187 110.184 23.496C110.558 23.7733 111.043 23.912 111.64 23.912C112.195 23.912 112.632 23.7893 112.952 23.544C113.272 23.2987 113.432 22.9893 113.432 22.616C113.432 22.232 113.262 21.9493 112.92 21.768C112.579 21.576 112.051 21.3893 111.336 21.208C110.686 21.0373 110.152 20.8667 109.736 20.696C109.331 20.5147 108.979 20.2533 108.68 19.912C108.392 19.56 108.248 19.1013 108.248 18.536C108.248 18.088 108.382 17.6773 108.648 17.304C108.915 16.9307 109.294 16.6373 109.784 16.424C110.275 16.2 110.835 16.088 111.464 16.088C112.435 16.088 113.219 16.3333 113.816 16.824C114.414 17.3147 114.734 17.9867 114.776 18.84H113.32C113.288 18.3813 113.102 18.0133 112.76 17.736C112.43 17.4587 111.982 17.32 111.416 17.32C110.894 17.32 110.478 17.432 110.168 17.656C109.859 17.88 109.704 18.1733 109.704 18.536C109.704 18.824 109.795 19.064 109.976 19.256C110.168 19.4373 110.403 19.5867 110.68 19.704C110.968 19.8107 111.363 19.9333 111.864 20.072C112.494 20.2427 113.006 20.4133 113.4 20.584C113.795 20.744 114.131 20.9893 114.408 21.32C114.696 21.6507 114.846 22.0827 114.856 22.616C114.856 23.096 114.723 23.528 114.456 23.912C114.19 24.296 113.811 24.6 113.32 24.824C112.84 25.0373 112.286 25.144 111.656 25.144ZM120.016 25.144C119.344 25.144 118.741 25.032 118.208 24.808C117.674 24.5733 117.253 24.2533 116.944 23.848C116.634 23.432 116.464 22.9573 116.432 22.424H117.936C117.978 22.8613 118.181 23.2187 118.544 23.496C118.917 23.7733 119.402 23.912 120 23.912C120.554 23.912 120.992 23.7893 121.312 23.544C121.632 23.2987 121.792 22.9893 121.792 22.616C121.792 22.232 121.621 21.9493 121.28 21.768C120.938 21.576 120.41 21.3893 119.696 21.208C119.045 21.0373 118.512 20.8667 118.096 20.696C117.69 20.5147 117.338 20.2533 117.04 19.912C116.752 19.56 116.608 19.1013 116.608 18.536C116.608 18.088 116.741 17.6773 117.008 17.304C117.274 16.9307 117.653 16.6373 118.144 16.424C118.634 16.2 119.194 16.088 119.824 16.088C120.794 16.088 121.578 16.3333 122.176 16.824C122.773 17.3147 123.093 17.9867 123.136 18.84H121.68C121.648 18.3813 121.461 18.0133 121.12 17.736C120.789 17.4587 120.341 17.32 119.776 17.32C119.253 17.32 118.837 17.432 118.528 17.656C118.218 17.88 118.064 18.1733 118.064 18.536C118.064 18.824 118.154 19.064 118.336 19.256C118.528 19.4373 118.762 19.5867 119.04 19.704C119.328 19.8107 119.722 19.9333 120.224 20.072C120.853 20.2427 121.365 20.4133 121.76 20.584C122.154 20.744 122.49 20.9893 122.768 21.32C123.056 21.6507 123.205 22.0827 123.216 22.616C123.216 23.096 123.082 23.528 122.816 23.912C122.549 24.296 122.17 24.6 121.68 24.824C121.2 25.0373 120.645 25.144 120.016 25.144ZM126.023 14.808C125.746 14.808 125.511 14.712 125.319 14.52C125.127 14.328 125.031 14.0933 125.031 13.816C125.031 13.5387 125.127 13.304 125.319 13.112C125.511 12.92 125.746 12.824 126.023 12.824C126.29 12.824 126.514 12.92 126.695 13.112C126.887 13.304 126.983 13.5387 126.983 13.816C126.983 14.0933 126.887 14.328 126.695 14.52C126.514 14.712 126.29 14.808 126.023 14.808ZM126.727 16.232V25H125.271V16.232H126.727ZM133.481 16.072C134.547 16.072 135.411 16.3973 136.073 17.048C136.734 17.688 137.065 18.616 137.065 19.832V25H135.625V20.04C135.625 19.1653 135.406 18.4987 134.969 18.04C134.531 17.5707 133.934 17.336 133.177 17.336C132.409 17.336 131.795 17.576 131.337 18.056C130.889 18.536 130.665 19.2347 130.665 20.152V25H129.209V16.232H130.665V17.48C130.953 17.032 131.342 16.6853 131.833 16.44C132.334 16.1947 132.883 16.072 133.481 16.072ZM143.059 16.088C143.816 16.088 144.478 16.2533 145.043 16.584C145.619 16.9147 146.046 17.3307 146.323 17.832V16.232H147.795V25.192C147.795 25.992 147.624 26.7013 147.283 27.32C146.942 27.9493 146.451 28.44 145.811 28.792C145.182 29.144 144.446 29.32 143.603 29.32C142.451 29.32 141.491 29.048 140.723 28.504C139.955 27.96 139.502 27.2187 139.363 26.28H140.803C140.963 26.8133 141.294 27.24 141.795 27.56C142.296 27.8907 142.899 28.056 143.603 28.056C144.403 28.056 145.054 27.8053 145.555 27.304C146.067 26.8027 146.323 26.0987 146.323 25.192V23.352C146.035 23.864 145.608 24.2907 145.043 24.632C144.478 24.9733 143.816 25.144 143.059 25.144C142.28 25.144 141.571 24.952 140.931 24.568C140.302 24.184 139.806 23.6453 139.443 22.952C139.08 22.2587 138.899 21.4693 138.899 20.584C138.899 19.688 139.08 18.904 139.443 18.232C139.806 17.5493 140.302 17.0213 140.931 16.648C141.571 16.2747 142.28 16.088 143.059 16.088ZM146.323 20.6C146.323 19.9387 146.19 19.3627 145.923 18.872C145.656 18.3813 145.294 18.008 144.835 17.752C144.387 17.4853 143.891 17.352 143.347 17.352C142.803 17.352 142.307 17.48 141.859 17.736C141.411 17.992 141.054 18.3653 140.787 18.856C140.52 19.3467 140.387 19.9227 140.387 20.584C140.387 21.256 140.52 21.8427 140.787 22.344C141.054 22.8347 141.411 23.2133 141.859 23.48C142.307 23.736 142.803 23.864 143.347 23.864C143.891 23.864 144.387 23.736 144.835 23.48C145.294 23.2133 145.656 22.8347 145.923 22.344C146.19 21.8427 146.323 21.2613 146.323 20.6ZM150.719 25.096C150.442 25.096 150.207 25 150.015 24.808C149.823 24.616 149.727 24.3813 149.727 24.104C149.727 23.8267 149.823 23.592 150.015 23.4C150.207 23.208 150.442 23.112 150.719 23.112C150.986 23.112 151.21 23.208 151.391 23.4C151.583 23.592 151.679 23.8267 151.679 24.104C151.679 24.3813 151.583 24.616 151.391 24.808C151.21 25 150.986 25.096 150.719 25.096ZM154.079 25.096C153.801 25.096 153.567 25 153.375 24.808C153.183 24.616 153.087 24.3813 153.087 24.104C153.087 23.8267 153.183 23.592 153.375 23.4C153.567 23.208 153.801 23.112 154.079 23.112C154.345 23.112 154.569 23.208 154.751 23.4C154.943 23.592 155.039 23.8267 155.039 24.104C155.039 24.3813 154.943 24.616 154.751 24.808C154.569 25 154.345 25.096 154.079 25.096ZM157.438 25.096C157.161 25.096 156.926 25 156.734 24.808C156.542 24.616 156.446 24.3813 156.446 24.104C156.446 23.8267 156.542 23.592 156.734 23.4C156.926 23.208 157.161 23.112 157.438 23.112C157.705 23.112 157.929 23.208 158.11 23.4C158.302 23.592 158.398 23.8267 158.398 24.104C158.398 24.3813 158.302 24.616 158.11 24.808C157.929 25 157.705 25.096 157.438 25.096ZM168.135 25.112C167.399 25.112 166.738 24.984 166.151 24.728C165.575 24.4613 165.122 24.0987 164.791 23.64C164.461 23.1707 164.29 22.632 164.279 22.024H165.831C165.885 22.5467 166.098 22.9893 166.471 23.352C166.855 23.704 167.41 23.88 168.135 23.88C168.829 23.88 169.373 23.7093 169.767 23.368C170.173 23.016 170.375 22.568 170.375 22.024C170.375 21.5973 170.258 21.2507 170.023 20.984C169.789 20.7173 169.495 20.5147 169.143 20.376C168.791 20.2373 168.317 20.088 167.719 19.928C166.983 19.736 166.391 19.544 165.943 19.352C165.506 19.16 165.127 18.8613 164.807 18.456C164.498 18.04 164.343 17.4853 164.343 16.792C164.343 16.184 164.498 15.6453 164.807 15.176C165.117 14.7067 165.549 14.344 166.103 14.088C166.669 13.832 167.314 13.704 168.039 13.704C169.085 13.704 169.938 13.9653 170.599 14.488C171.271 15.0107 171.65 15.704 171.735 16.568H170.135C170.082 16.1413 169.858 15.768 169.463 15.448C169.069 15.1173 168.546 14.952 167.895 14.952C167.287 14.952 166.791 15.112 166.407 15.432C166.023 15.7413 165.831 16.1787 165.831 16.744C165.831 17.1493 165.943 17.48 166.167 17.736C166.402 17.992 166.685 18.1893 167.015 18.328C167.357 18.456 167.831 18.6053 168.439 18.776C169.175 18.9787 169.767 19.1813 170.215 19.384C170.663 19.576 171.047 19.88 171.367 20.296C171.687 20.7013 171.847 21.256 171.847 21.96C171.847 22.504 171.703 23.016 171.415 23.496C171.127 23.976 170.701 24.3653 170.135 24.664C169.57 24.9627 168.903 25.112 168.135 25.112ZM175.766 17.432V22.6C175.766 23.0267 175.856 23.3307 176.038 23.512C176.219 23.6827 176.534 23.768 176.982 23.768H178.054V25H176.742C175.931 25 175.323 24.8133 174.918 24.44C174.512 24.0667 174.31 23.4533 174.31 22.6V17.432H173.174V16.232H174.31V14.024H175.766V16.232H178.054V17.432H175.766ZM187.818 20.28C187.818 20.5573 187.802 20.8507 187.77 21.16H180.762C180.815 22.024 181.109 22.7013 181.642 23.192C182.186 23.672 182.842 23.912 183.61 23.912C184.239 23.912 184.762 23.768 185.178 23.48C185.605 23.1813 185.903 22.7867 186.074 22.296H187.642C187.407 23.1387 186.938 23.8267 186.234 24.36C185.53 24.8827 184.655 25.144 183.61 25.144C182.778 25.144 182.031 24.9573 181.37 24.584C180.719 24.2107 180.207 23.6827 179.834 23C179.461 22.3067 179.274 21.5067 179.274 20.6C179.274 19.6933 179.455 18.8987 179.818 18.216C180.181 17.5333 180.687 17.0107 181.338 16.648C181.999 16.2747 182.757 16.088 183.61 16.088C184.442 16.088 185.178 16.2693 185.818 16.632C186.458 16.9947 186.949 17.496 187.29 18.136C187.642 18.7653 187.818 19.48 187.818 20.28ZM186.314 19.976C186.314 19.4213 186.191 18.9467 185.946 18.552C185.701 18.1467 185.365 17.8427 184.938 17.64C184.522 17.4267 184.058 17.32 183.546 17.32C182.81 17.32 182.181 17.5547 181.658 18.024C181.146 18.4933 180.853 19.144 180.778 19.976H186.314ZM191.196 17.848C191.484 17.3467 191.91 16.9307 192.476 16.6C193.052 16.2587 193.718 16.088 194.476 16.088C195.254 16.088 195.958 16.2747 196.588 16.648C197.228 17.0213 197.729 17.5493 198.092 18.232C198.454 18.904 198.636 19.688 198.636 20.584C198.636 21.4693 198.454 22.2587 198.092 22.952C197.729 23.6453 197.228 24.184 196.588 24.568C195.958 24.952 195.254 25.144 194.476 25.144C193.729 25.144 193.068 24.9787 192.492 24.648C191.926 24.3067 191.494 23.8853 191.196 23.384V29.16H189.74V16.232H191.196V17.848ZM197.148 20.584C197.148 19.9227 197.014 19.3467 196.748 18.856C196.481 18.3653 196.118 17.992 195.66 17.736C195.212 17.48 194.716 17.352 194.172 17.352C193.638 17.352 193.142 17.4853 192.684 17.752C192.236 18.008 191.873 18.3867 191.596 18.888C191.329 19.3787 191.196 19.9493 191.196 20.6C191.196 21.2613 191.329 21.8427 191.596 22.344C191.873 22.8347 192.236 23.2133 192.684 23.48C193.142 23.736 193.638 23.864 194.172 23.864C194.716 23.864 195.212 23.736 195.66 23.48C196.118 23.2133 196.481 22.8347 196.748 22.344C197.014 21.8427 197.148 21.256 197.148 20.584ZM204.402 23.832C205.757 22.744 206.818 21.8533 207.586 21.16C208.354 20.456 208.999 19.7253 209.522 18.968C210.055 18.2 210.322 17.448 210.322 16.712C210.322 16.0187 210.151 15.4747 209.81 15.08C209.479 14.6747 208.941 14.472 208.194 14.472C207.469 14.472 206.903 14.7013 206.498 15.16C206.103 15.608 205.89 16.2107 205.858 16.968H204.45C204.493 15.7733 204.855 14.8507 205.538 14.2C206.221 13.5493 207.101 13.224 208.178 13.224C209.277 13.224 210.146 13.528 210.786 14.136C211.437 14.744 211.762 15.5813 211.762 16.648C211.762 17.5333 211.495 18.3973 210.962 19.24C210.439 20.072 209.842 20.808 209.17 21.448C208.498 22.0773 207.639 22.8133 206.594 23.656H212.098V24.872H204.402V23.832Z" fill="white"/>
<defs>
<linearGradient id="paint0_linear_4153_226763" x1="-49.5225" y1="17.5605" x2="296.354" y2="23.9604" gradientUnits="userSpaceOnUse">
<stop stop-color="#6400FF" stop-opacity="0.88"/>
<stop offset="0.523958" stop-color="#874691" stop-opacity="0.86"/>
<stop offset="1" stop-color="#FF03F5" stop-opacity="0.67"/>
</linearGradient>
<linearGradient id="paint1_linear_4153_226763" x1="0" y1="19" x2="286.208" y2="19" gradientUnits="userSpaceOnUse">
<stop stop-color="#131BB0"/>
<stop offset="0.482292" stop-color="#B84C93"/>
<stop offset="1" stop-color="#FF00F5"/>
<stop offset="1" stop-color="#DB34CA"/>
</linearGradient>
</defs>
</svg>
