<svg width="279" height="38" viewBox="0 0 279 38" fill="none" xmlns="http://www.w3.org/2000/svg">
<rect x="1.04965" y="1.04965" width="276.901" height="35.9007" rx="6.95035" fill="url(#paint0_linear_4120_226763)" stroke="url(#paint1_linear_4120_226763)" stroke-width="2.09931"/>
<path d="M72.938 17.112C72.938 18.04 72.618 18.8133 71.978 19.432C71.3487 20.04 70.3833 20.344 69.082 20.344H66.938V25H65.482V13.848H69.082C70.3407 13.848 71.2953 14.152 71.946 14.76C72.6073 15.368 72.938 16.152 72.938 17.112ZM69.082 19.144C69.8927 19.144 70.49 18.968 70.874 18.616C71.258 18.264 71.45 17.7627 71.45 17.112C71.45 15.736 70.6607 15.048 69.082 15.048H66.938V19.144H69.082ZM76.2036 17.656C76.4596 17.1547 76.8223 16.7653 77.2916 16.488C77.7716 16.2107 78.353 16.072 79.0356 16.072V17.576H78.6516C77.0196 17.576 76.2036 18.4613 76.2036 20.232V25H74.7476V16.232H76.2036V17.656ZM84.5404 25.144C83.719 25.144 82.9724 24.9573 82.3004 24.584C81.639 24.2107 81.1164 23.6827 80.7324 23C80.359 22.3067 80.1724 21.5067 80.1724 20.6C80.1724 19.704 80.3644 18.9147 80.7484 18.232C81.143 17.5387 81.6764 17.0107 82.3484 16.648C83.0204 16.2747 83.7724 16.088 84.6044 16.088C85.4364 16.088 86.1884 16.2747 86.8604 16.648C87.5324 17.0107 88.0604 17.5333 88.4444 18.216C88.839 18.8987 89.0364 19.6933 89.0364 20.6C89.0364 21.5067 88.8337 22.3067 88.4284 23C88.0337 23.6827 87.495 24.2107 86.8124 24.584C86.1297 24.9573 85.3724 25.144 84.5404 25.144ZM84.5404 23.864C85.063 23.864 85.5537 23.7413 86.0124 23.496C86.471 23.2507 86.839 22.8827 87.1164 22.392C87.4044 21.9013 87.5484 21.304 87.5484 20.6C87.5484 19.896 87.4097 19.2987 87.1324 18.808C86.855 18.3173 86.4924 17.9547 86.0444 17.72C85.5964 17.4747 85.111 17.352 84.5884 17.352C84.055 17.352 83.5644 17.4747 83.1164 17.72C82.679 17.9547 82.327 18.3173 82.0604 18.808C81.7937 19.2987 81.6604 19.896 81.6604 20.6C81.6604 21.3147 81.7884 21.9173 82.0444 22.408C82.311 22.8987 82.663 23.2667 83.1004 23.512C83.5377 23.7467 84.0177 23.864 84.5404 23.864ZM90.4068 20.6C90.4068 19.6933 90.5881 18.904 90.9508 18.232C91.3134 17.5493 91.8148 17.0213 92.4548 16.648C93.1054 16.2747 93.8468 16.088 94.6788 16.088C95.7561 16.088 96.6414 16.3493 97.3348 16.872C98.0388 17.3947 98.5028 18.12 98.7268 19.048H97.1588C97.0094 18.5147 96.7161 18.0933 96.2788 17.784C95.8521 17.4747 95.3188 17.32 94.6788 17.32C93.8468 17.32 93.1748 17.608 92.6628 18.184C92.1508 18.7493 91.8948 19.5547 91.8948 20.6C91.8948 21.656 92.1508 22.472 92.6628 23.048C93.1748 23.624 93.8468 23.912 94.6788 23.912C95.3188 23.912 95.8521 23.7627 96.2788 23.464C96.7054 23.1653 96.9988 22.7387 97.1588 22.184H98.7268C98.4921 23.08 98.0228 23.8 97.3188 24.344C96.6148 24.8773 95.7348 25.144 94.6788 25.144C93.8468 25.144 93.1054 24.9573 92.4548 24.584C91.8148 24.2107 91.3134 23.6827 90.9508 23C90.5881 22.3173 90.4068 21.5173 90.4068 20.6ZM108.67 20.28C108.67 20.5573 108.654 20.8507 108.622 21.16H101.614C101.667 22.024 101.96 22.7013 102.494 23.192C103.038 23.672 103.694 23.912 104.462 23.912C105.091 23.912 105.614 23.768 106.03 23.48C106.456 23.1813 106.755 22.7867 106.926 22.296H108.494C108.259 23.1387 107.79 23.8267 107.086 24.36C106.382 24.8827 105.507 25.144 104.462 25.144C103.63 25.144 102.883 24.9573 102.222 24.584C101.571 24.2107 101.059 23.6827 100.686 23C100.312 22.3067 100.126 21.5067 100.126 20.6C100.126 19.6933 100.307 18.8987 100.67 18.216C101.032 17.5333 101.539 17.0107 102.19 16.648C102.851 16.2747 103.608 16.088 104.462 16.088C105.294 16.088 106.03 16.2693 106.67 16.632C107.31 16.9947 107.8 17.496 108.142 18.136C108.494 18.7653 108.67 19.48 108.67 20.28ZM107.166 19.976C107.166 19.4213 107.043 18.9467 106.798 18.552C106.552 18.1467 106.216 17.8427 105.79 17.64C105.374 17.4267 104.91 17.32 104.398 17.32C103.662 17.32 103.032 17.5547 102.51 18.024C101.998 18.4933 101.704 19.144 101.63 19.976H107.166ZM113.695 25.144C113.023 25.144 112.421 25.032 111.887 24.808C111.354 24.5733 110.933 24.2533 110.623 23.848C110.314 23.432 110.143 22.9573 110.111 22.424H111.615C111.658 22.8613 111.861 23.2187 112.223 23.496C112.597 23.7733 113.082 23.912 113.679 23.912C114.234 23.912 114.671 23.7893 114.991 23.544C115.311 23.2987 115.471 22.9893 115.471 22.616C115.471 22.232 115.301 21.9493 114.959 21.768C114.618 21.576 114.09 21.3893 113.375 21.208C112.725 21.0373 112.191 20.8667 111.775 20.696C111.37 20.5147 111.018 20.2533 110.719 19.912C110.431 19.56 110.287 19.1013 110.287 18.536C110.287 18.088 110.421 17.6773 110.687 17.304C110.954 16.9307 111.333 16.6373 111.823 16.424C112.314 16.2 112.874 16.088 113.503 16.088C114.474 16.088 115.258 16.3333 115.855 16.824C116.453 17.3147 116.773 17.9867 116.815 18.84H115.359C115.327 18.3813 115.141 18.0133 114.799 17.736C114.469 17.4587 114.021 17.32 113.455 17.32C112.933 17.32 112.517 17.432 112.207 17.656C111.898 17.88 111.743 18.1733 111.743 18.536C111.743 18.824 111.834 19.064 112.015 19.256C112.207 19.4373 112.442 19.5867 112.719 19.704C113.007 19.8107 113.402 19.9333 113.903 20.072C114.533 20.2427 115.045 20.4133 115.439 20.584C115.834 20.744 116.17 20.9893 116.447 21.32C116.735 21.6507 116.885 22.0827 116.895 22.616C116.895 23.096 116.762 23.528 116.495 23.912C116.229 24.296 115.85 24.6 115.359 24.824C114.879 25.0373 114.325 25.144 113.695 25.144ZM122.055 25.144C121.383 25.144 120.78 25.032 120.247 24.808C119.713 24.5733 119.292 24.2533 118.983 23.848C118.673 23.432 118.503 22.9573 118.471 22.424H119.975C120.017 22.8613 120.22 23.2187 120.583 23.496C120.956 23.7733 121.441 23.912 122.039 23.912C122.593 23.912 123.031 23.7893 123.351 23.544C123.671 23.2987 123.831 22.9893 123.831 22.616C123.831 22.232 123.66 21.9493 123.319 21.768C122.977 21.576 122.449 21.3893 121.735 21.208C121.084 21.0373 120.551 20.8667 120.135 20.696C119.729 20.5147 119.377 20.2533 119.079 19.912C118.791 19.56 118.647 19.1013 118.647 18.536C118.647 18.088 118.78 17.6773 119.047 17.304C119.313 16.9307 119.692 16.6373 120.183 16.424C120.673 16.2 121.233 16.088 121.863 16.088C122.833 16.088 123.617 16.3333 124.215 16.824C124.812 17.3147 125.132 17.9867 125.175 18.84H123.719C123.687 18.3813 123.5 18.0133 123.159 17.736C122.828 17.4587 122.38 17.32 121.815 17.32C121.292 17.32 120.876 17.432 120.567 17.656C120.257 17.88 120.103 18.1733 120.103 18.536C120.103 18.824 120.193 19.064 120.375 19.256C120.567 19.4373 120.801 19.5867 121.079 19.704C121.367 19.8107 121.761 19.9333 122.263 20.072C122.892 20.2427 123.404 20.4133 123.799 20.584C124.193 20.744 124.529 20.9893 124.807 21.32C125.095 21.6507 125.244 22.0827 125.255 22.616C125.255 23.096 125.121 23.528 124.855 23.912C124.588 24.296 124.209 24.6 123.719 24.824C123.239 25.0373 122.684 25.144 122.055 25.144ZM128.062 14.808C127.785 14.808 127.55 14.712 127.358 14.52C127.166 14.328 127.07 14.0933 127.07 13.816C127.07 13.5387 127.166 13.304 127.358 13.112C127.55 12.92 127.785 12.824 128.062 12.824C128.329 12.824 128.553 12.92 128.734 13.112C128.926 13.304 129.022 13.5387 129.022 13.816C129.022 14.0933 128.926 14.328 128.734 14.52C128.553 14.712 128.329 14.808 128.062 14.808ZM128.766 16.232V25H127.31V16.232H128.766ZM135.52 16.072C136.586 16.072 137.45 16.3973 138.112 17.048C138.773 17.688 139.104 18.616 139.104 19.832V25H137.664V20.04C137.664 19.1653 137.445 18.4987 137.008 18.04C136.57 17.5707 135.973 17.336 135.216 17.336C134.448 17.336 133.834 17.576 133.376 18.056C132.928 18.536 132.704 19.2347 132.704 20.152V25H131.248V16.232H132.704V17.48C132.992 17.032 133.381 16.6853 133.872 16.44C134.373 16.1947 134.922 16.072 135.52 16.072ZM145.098 16.088C145.855 16.088 146.517 16.2533 147.082 16.584C147.658 16.9147 148.085 17.3307 148.362 17.832V16.232H149.834V25.192C149.834 25.992 149.663 26.7013 149.322 27.32C148.981 27.9493 148.49 28.44 147.85 28.792C147.221 29.144 146.485 29.32 145.642 29.32C144.49 29.32 143.53 29.048 142.762 28.504C141.994 27.96 141.541 27.2187 141.402 26.28H142.842C143.002 26.8133 143.333 27.24 143.834 27.56C144.335 27.8907 144.938 28.056 145.642 28.056C146.442 28.056 147.093 27.8053 147.594 27.304C148.106 26.8027 148.362 26.0987 148.362 25.192V23.352C148.074 23.864 147.647 24.2907 147.082 24.632C146.517 24.9733 145.855 25.144 145.098 25.144C144.319 25.144 143.61 24.952 142.97 24.568C142.341 24.184 141.845 23.6453 141.482 22.952C141.119 22.2587 140.938 21.4693 140.938 20.584C140.938 19.688 141.119 18.904 141.482 18.232C141.845 17.5493 142.341 17.0213 142.97 16.648C143.61 16.2747 144.319 16.088 145.098 16.088ZM148.362 20.6C148.362 19.9387 148.229 19.3627 147.962 18.872C147.695 18.3813 147.333 18.008 146.874 17.752C146.426 17.4853 145.93 17.352 145.386 17.352C144.842 17.352 144.346 17.48 143.898 17.736C143.45 17.992 143.093 18.3653 142.826 18.856C142.559 19.3467 142.426 19.9227 142.426 20.584C142.426 21.256 142.559 21.8427 142.826 22.344C143.093 22.8347 143.45 23.2133 143.898 23.48C144.346 23.736 144.842 23.864 145.386 23.864C145.93 23.864 146.426 23.736 146.874 23.48C147.333 23.2133 147.695 22.8347 147.962 22.344C148.229 21.8427 148.362 21.2613 148.362 20.6ZM152.759 25.096C152.481 25.096 152.247 25 152.055 24.808C151.863 24.616 151.767 24.3813 151.767 24.104C151.767 23.8267 151.863 23.592 152.055 23.4C152.247 23.208 152.481 23.112 152.759 23.112C153.025 23.112 153.249 23.208 153.431 23.4C153.623 23.592 153.719 23.8267 153.719 24.104C153.719 24.3813 153.623 24.616 153.431 24.808C153.249 25 153.025 25.096 152.759 25.096ZM156.118 25.096C155.841 25.096 155.606 25 155.414 24.808C155.222 24.616 155.126 24.3813 155.126 24.104C155.126 23.8267 155.222 23.592 155.414 23.4C155.606 23.208 155.841 23.112 156.118 23.112C156.385 23.112 156.609 23.208 156.79 23.4C156.982 23.592 157.078 23.8267 157.078 24.104C157.078 24.3813 156.982 24.616 156.79 24.808C156.609 25 156.385 25.096 156.118 25.096ZM159.477 25.096C159.2 25.096 158.965 25 158.773 24.808C158.581 24.616 158.485 24.3813 158.485 24.104C158.485 23.8267 158.581 23.592 158.773 23.4C158.965 23.208 159.2 23.112 159.477 23.112C159.744 23.112 159.968 23.208 160.149 23.4C160.341 23.592 160.437 23.8267 160.437 24.104C160.437 24.3813 160.341 24.616 160.149 24.808C159.968 25 159.744 25.096 159.477 25.096ZM170.174 25.112C169.438 25.112 168.777 24.984 168.19 24.728C167.614 24.4613 167.161 24.0987 166.83 23.64C166.5 23.1707 166.329 22.632 166.318 22.024H167.87C167.924 22.5467 168.137 22.9893 168.51 23.352C168.894 23.704 169.449 23.88 170.174 23.88C170.868 23.88 171.412 23.7093 171.806 23.368C172.212 23.016 172.414 22.568 172.414 22.024C172.414 21.5973 172.297 21.2507 172.062 20.984C171.828 20.7173 171.534 20.5147 171.182 20.376C170.83 20.2373 170.356 20.088 169.758 19.928C169.022 19.736 168.43 19.544 167.982 19.352C167.545 19.16 167.166 18.8613 166.846 18.456C166.537 18.04 166.382 17.4853 166.382 16.792C166.382 16.184 166.537 15.6453 166.846 15.176C167.156 14.7067 167.588 14.344 168.142 14.088C168.708 13.832 169.353 13.704 170.078 13.704C171.124 13.704 171.977 13.9653 172.638 14.488C173.31 15.0107 173.689 15.704 173.774 16.568H172.174C172.121 16.1413 171.897 15.768 171.502 15.448C171.108 15.1173 170.585 14.952 169.934 14.952C169.326 14.952 168.83 15.112 168.446 15.432C168.062 15.7413 167.87 16.1787 167.87 16.744C167.87 17.1493 167.982 17.48 168.206 17.736C168.441 17.992 168.724 18.1893 169.054 18.328C169.396 18.456 169.87 18.6053 170.478 18.776C171.214 18.9787 171.806 19.1813 172.254 19.384C172.702 19.576 173.086 19.88 173.406 20.296C173.726 20.7013 173.886 21.256 173.886 21.96C173.886 22.504 173.742 23.016 173.454 23.496C173.166 23.976 172.74 24.3653 172.174 24.664C171.609 24.9627 170.942 25.112 170.174 25.112ZM177.805 17.432V22.6C177.805 23.0267 177.896 23.3307 178.077 23.512C178.258 23.6827 178.573 23.768 179.021 23.768H180.093V25H178.781C177.97 25 177.362 24.8133 176.957 24.44C176.552 24.0667 176.349 23.4533 176.349 22.6V17.432H175.213V16.232H176.349V14.024H177.805V16.232H180.093V17.432H177.805ZM189.857 20.28C189.857 20.5573 189.841 20.8507 189.809 21.16H182.801C182.854 22.024 183.148 22.7013 183.681 23.192C184.225 23.672 184.881 23.912 185.649 23.912C186.278 23.912 186.801 23.768 187.217 23.48C187.644 23.1813 187.942 22.7867 188.113 22.296H189.681C189.446 23.1387 188.977 23.8267 188.273 24.36C187.569 24.8827 186.694 25.144 185.649 25.144C184.817 25.144 184.07 24.9573 183.409 24.584C182.758 24.2107 182.246 23.6827 181.873 23C181.5 22.3067 181.313 21.5067 181.313 20.6C181.313 19.6933 181.494 18.8987 181.857 18.216C182.22 17.5333 182.726 17.0107 183.377 16.648C184.038 16.2747 184.796 16.088 185.649 16.088C186.481 16.088 187.217 16.2693 187.857 16.632C188.497 16.9947 188.988 17.496 189.329 18.136C189.681 18.7653 189.857 19.48 189.857 20.28ZM188.353 19.976C188.353 19.4213 188.23 18.9467 187.985 18.552C187.74 18.1467 187.404 17.8427 186.977 17.64C186.561 17.4267 186.097 17.32 185.585 17.32C184.849 17.32 184.22 17.5547 183.697 18.024C183.185 18.4933 182.892 19.144 182.817 19.976H188.353ZM193.235 17.848C193.523 17.3467 193.95 16.9307 194.515 16.6C195.091 16.2587 195.758 16.088 196.515 16.088C197.294 16.088 197.998 16.2747 198.627 16.648C199.267 17.0213 199.768 17.5493 200.131 18.232C200.494 18.904 200.675 19.688 200.675 20.584C200.675 21.4693 200.494 22.2587 200.131 22.952C199.768 23.6453 199.267 24.184 198.627 24.568C197.998 24.952 197.294 25.144 196.515 25.144C195.768 25.144 195.107 24.9787 194.531 24.648C193.966 24.3067 193.534 23.8853 193.235 23.384V29.16H191.779V16.232H193.235V17.848ZM199.187 20.584C199.187 19.9227 199.054 19.3467 198.787 18.856C198.52 18.3653 198.158 17.992 197.699 17.736C197.251 17.48 196.755 17.352 196.211 17.352C195.678 17.352 195.182 17.4853 194.723 17.752C194.275 18.008 193.912 18.3867 193.635 18.888C193.368 19.3787 193.235 19.9493 193.235 20.6C193.235 21.2613 193.368 21.8427 193.635 22.344C193.912 22.8347 194.275 23.2133 194.723 23.48C195.182 23.736 195.678 23.864 196.211 23.864C196.755 23.864 197.251 23.736 197.699 23.48C198.158 23.2133 198.52 22.8347 198.787 22.344C199.054 21.8427 199.187 21.256 199.187 20.584ZM206.233 14.76V13.432H209.241V25H207.769V14.76H206.233Z" fill="white"/>
<defs>
<linearGradient id="paint0_linear_4120_226763" x1="-49.5225" y1="17.5605" x2="296.354" y2="23.9604" gradientUnits="userSpaceOnUse">
<stop stop-color="#6400FF" stop-opacity="0.88"/>
<stop offset="0.523958" stop-color="#874691" stop-opacity="0.86"/>
<stop offset="1" stop-color="#FF03F5" stop-opacity="0.67"/>
</linearGradient>
<linearGradient id="paint1_linear_4120_226763" x1="0" y1="19" x2="286.208" y2="19" gradientUnits="userSpaceOnUse">
<stop stop-color="#131BB0"/>
<stop offset="0.482292" stop-color="#B84C93"/>
<stop offset="1" stop-color="#FF00F5"/>
<stop offset="1" stop-color="#DB34CA"/>
</linearGradient>
</defs>
</svg>
