<svg width="279" height="38" viewBox="0 0 279 38" fill="none" xmlns="http://www.w3.org/2000/svg">
<rect x="1.04965" y="1.04965" width="276.901" height="35.9007" rx="6.95035" fill="black" stroke="url(#paint0_linear_4120_226763)" stroke-width="2.09931"/>
<path d="M97.7427 17.112C97.7427 18.04 97.4227 18.8133 96.7827 19.432C96.1534 20.04 95.188 20.344 93.8867 20.344H91.7427V25H90.2867V13.848H93.8867C95.1454 13.848 96.1 14.152 96.7507 14.76C97.412 15.368 97.7427 16.152 97.7427 17.112ZM93.8867 19.144C94.6974 19.144 95.2947 18.968 95.6787 18.616C96.0627 18.264 96.2547 17.7627 96.2547 17.112C96.2547 15.736 95.4654 15.048 93.8867 15.048H91.7427V19.144H93.8867ZM101.008 17.656C101.264 17.1547 101.627 16.7653 102.096 16.488C102.576 16.2107 103.158 16.072 103.84 16.072V17.576H103.456C101.824 17.576 101.008 18.4613 101.008 20.232V25H99.5523V16.232H101.008V17.656ZM109.345 25.144C108.524 25.144 107.777 24.9573 107.105 24.584C106.444 24.2107 105.921 23.6827 105.537 23C105.164 22.3067 104.977 21.5067 104.977 20.6C104.977 19.704 105.169 18.9147 105.553 18.232C105.948 17.5387 106.481 17.0107 107.153 16.648C107.825 16.2747 108.577 16.088 109.409 16.088C110.241 16.088 110.993 16.2747 111.665 16.648C112.337 17.0107 112.865 17.5333 113.249 18.216C113.644 18.8987 113.841 19.6933 113.841 20.6C113.841 21.5067 113.638 22.3067 113.233 23C112.838 23.6827 112.3 24.2107 111.617 24.584C110.934 24.9573 110.177 25.144 109.345 25.144ZM109.345 23.864C109.868 23.864 110.358 23.7413 110.817 23.496C111.276 23.2507 111.644 22.8827 111.921 22.392C112.209 21.9013 112.353 21.304 112.353 20.6C112.353 19.896 112.214 19.2987 111.937 18.808C111.66 18.3173 111.297 17.9547 110.849 17.72C110.401 17.4747 109.916 17.352 109.393 17.352C108.86 17.352 108.369 17.4747 107.921 17.72C107.484 17.9547 107.132 18.3173 106.865 18.808C106.598 19.2987 106.465 19.896 106.465 20.6C106.465 21.3147 106.593 21.9173 106.849 22.408C107.116 22.8987 107.468 23.2667 107.905 23.512C108.342 23.7467 108.822 23.864 109.345 23.864ZM115.211 20.6C115.211 19.6933 115.393 18.904 115.755 18.232C116.118 17.5493 116.619 17.0213 117.259 16.648C117.91 16.2747 118.651 16.088 119.483 16.088C120.561 16.088 121.446 16.3493 122.139 16.872C122.843 17.3947 123.307 18.12 123.531 19.048H121.963C121.814 18.5147 121.521 18.0933 121.083 17.784C120.657 17.4747 120.123 17.32 119.483 17.32C118.651 17.32 117.979 17.608 117.467 18.184C116.955 18.7493 116.699 19.5547 116.699 20.6C116.699 21.656 116.955 22.472 117.467 23.048C117.979 23.624 118.651 23.912 119.483 23.912C120.123 23.912 120.657 23.7627 121.083 23.464C121.51 23.1653 121.803 22.7387 121.963 22.184H123.531C123.297 23.08 122.827 23.8 122.123 24.344C121.419 24.8773 120.539 25.144 119.483 25.144C118.651 25.144 117.91 24.9573 117.259 24.584C116.619 24.2107 116.118 23.6827 115.755 23C115.393 22.3173 115.211 21.5173 115.211 20.6ZM133.474 20.28C133.474 20.5573 133.458 20.8507 133.426 21.16H126.418C126.472 22.024 126.765 22.7013 127.298 23.192C127.842 23.672 128.498 23.912 129.266 23.912C129.896 23.912 130.418 23.768 130.834 23.48C131.261 23.1813 131.56 22.7867 131.73 22.296H133.298C133.064 23.1387 132.594 23.8267 131.89 24.36C131.186 24.8827 130.312 25.144 129.266 25.144C128.434 25.144 127.688 24.9573 127.026 24.584C126.376 24.2107 125.864 23.6827 125.49 23C125.117 22.3067 124.93 21.5067 124.93 20.6C124.93 19.6933 125.112 18.8987 125.474 18.216C125.837 17.5333 126.344 17.0107 126.994 16.648C127.656 16.2747 128.413 16.088 129.266 16.088C130.098 16.088 130.834 16.2693 131.474 16.632C132.114 16.9947 132.605 17.496 132.946 18.136C133.298 18.7653 133.474 19.48 133.474 20.28ZM131.97 19.976C131.97 19.4213 131.848 18.9467 131.602 18.552C131.357 18.1467 131.021 17.8427 130.594 17.64C130.178 17.4267 129.714 17.32 129.202 17.32C128.466 17.32 127.837 17.5547 127.314 18.024C126.802 18.4933 126.509 19.144 126.434 19.976H131.97ZM138.5 25.144C137.828 25.144 137.225 25.032 136.692 24.808C136.159 24.5733 135.737 24.2533 135.428 23.848C135.119 23.432 134.948 22.9573 134.916 22.424H136.42C136.463 22.8613 136.665 23.2187 137.028 23.496C137.401 23.7733 137.887 23.912 138.484 23.912C139.039 23.912 139.476 23.7893 139.796 23.544C140.116 23.2987 140.276 22.9893 140.276 22.616C140.276 22.232 140.105 21.9493 139.764 21.768C139.423 21.576 138.895 21.3893 138.18 21.208C137.529 21.0373 136.996 20.8667 136.58 20.696C136.175 20.5147 135.823 20.2533 135.524 19.912C135.236 19.56 135.092 19.1013 135.092 18.536C135.092 18.088 135.225 17.6773 135.492 17.304C135.759 16.9307 136.137 16.6373 136.628 16.424C137.119 16.2 137.679 16.088 138.308 16.088C139.279 16.088 140.063 16.3333 140.66 16.824C141.257 17.3147 141.577 17.9867 141.62 18.84H140.164C140.132 18.3813 139.945 18.0133 139.604 17.736C139.273 17.4587 138.825 17.32 138.26 17.32C137.737 17.32 137.321 17.432 137.012 17.656C136.703 17.88 136.548 18.1733 136.548 18.536C136.548 18.824 136.639 19.064 136.82 19.256C137.012 19.4373 137.247 19.5867 137.524 19.704C137.812 19.8107 138.207 19.9333 138.708 20.072C139.337 20.2427 139.849 20.4133 140.244 20.584C140.639 20.744 140.975 20.9893 141.252 21.32C141.54 21.6507 141.689 22.0827 141.7 22.616C141.7 23.096 141.567 23.528 141.3 23.912C141.033 24.296 140.655 24.6 140.164 24.824C139.684 25.0373 139.129 25.144 138.5 25.144ZM146.859 25.144C146.187 25.144 145.585 25.032 145.051 24.808C144.518 24.5733 144.097 24.2533 143.787 23.848C143.478 23.432 143.307 22.9573 143.275 22.424H144.779C144.822 22.8613 145.025 23.2187 145.387 23.496C145.761 23.7733 146.246 23.912 146.843 23.912C147.398 23.912 147.835 23.7893 148.155 23.544C148.475 23.2987 148.635 22.9893 148.635 22.616C148.635 22.232 148.465 21.9493 148.123 21.768C147.782 21.576 147.254 21.3893 146.539 21.208C145.889 21.0373 145.355 20.8667 144.939 20.696C144.534 20.5147 144.182 20.2533 143.883 19.912C143.595 19.56 143.451 19.1013 143.451 18.536C143.451 18.088 143.585 17.6773 143.851 17.304C144.118 16.9307 144.497 16.6373 144.987 16.424C145.478 16.2 146.038 16.088 146.667 16.088C147.638 16.088 148.422 16.3333 149.019 16.824C149.617 17.3147 149.937 17.9867 149.979 18.84H148.523C148.491 18.3813 148.305 18.0133 147.963 17.736C147.633 17.4587 147.185 17.32 146.619 17.32C146.097 17.32 145.681 17.432 145.371 17.656C145.062 17.88 144.907 18.1733 144.907 18.536C144.907 18.824 144.998 19.064 145.179 19.256C145.371 19.4373 145.606 19.5867 145.883 19.704C146.171 19.8107 146.566 19.9333 147.067 20.072C147.697 20.2427 148.209 20.4133 148.603 20.584C148.998 20.744 149.334 20.9893 149.611 21.32C149.899 21.6507 150.049 22.0827 150.059 22.616C150.059 23.096 149.926 23.528 149.659 23.912C149.393 24.296 149.014 24.6 148.523 24.824C148.043 25.0373 147.489 25.144 146.859 25.144ZM152.867 14.808C152.589 14.808 152.355 14.712 152.163 14.52C151.971 14.328 151.875 14.0933 151.875 13.816C151.875 13.5387 151.971 13.304 152.163 13.112C152.355 12.92 152.589 12.824 152.867 12.824C153.133 12.824 153.357 12.92 153.539 13.112C153.731 13.304 153.827 13.5387 153.827 13.816C153.827 14.0933 153.731 14.328 153.539 14.52C153.357 14.712 153.133 14.808 152.867 14.808ZM153.571 16.232V25H152.115V16.232H153.571ZM160.324 16.072C161.391 16.072 162.255 16.3973 162.916 17.048C163.578 17.688 163.908 18.616 163.908 19.832V25H162.468V20.04C162.468 19.1653 162.25 18.4987 161.812 18.04C161.375 17.5707 160.778 17.336 160.02 17.336C159.252 17.336 158.639 17.576 158.18 18.056C157.732 18.536 157.508 19.2347 157.508 20.152V25H156.052V16.232H157.508V17.48C157.796 17.032 158.186 16.6853 158.676 16.44C159.178 16.1947 159.727 16.072 160.324 16.072ZM169.903 16.088C170.66 16.088 171.321 16.2533 171.887 16.584C172.463 16.9147 172.889 17.3307 173.167 17.832V16.232H174.639V25.192C174.639 25.992 174.468 26.7013 174.127 27.32C173.785 27.9493 173.295 28.44 172.655 28.792C172.025 29.144 171.289 29.32 170.447 29.32C169.295 29.32 168.335 29.048 167.567 28.504C166.799 27.96 166.345 27.2187 166.207 26.28H167.647C167.807 26.8133 168.137 27.24 168.639 27.56C169.14 27.8907 169.743 28.056 170.447 28.056C171.247 28.056 171.897 27.8053 172.399 27.304C172.911 26.8027 173.167 26.0987 173.167 25.192V23.352C172.879 23.864 172.452 24.2907 171.887 24.632C171.321 24.9733 170.66 25.144 169.903 25.144C169.124 25.144 168.415 24.952 167.775 24.568C167.145 24.184 166.649 23.6453 166.287 22.952C165.924 22.2587 165.743 21.4693 165.743 20.584C165.743 19.688 165.924 18.904 166.287 18.232C166.649 17.5493 167.145 17.0213 167.775 16.648C168.415 16.2747 169.124 16.088 169.903 16.088ZM173.167 20.6C173.167 19.9387 173.033 19.3627 172.767 18.872C172.5 18.3813 172.137 18.008 171.679 17.752C171.231 17.4853 170.735 17.352 170.191 17.352C169.647 17.352 169.151 17.48 168.703 17.736C168.255 17.992 167.897 18.3653 167.631 18.856C167.364 19.3467 167.231 19.9227 167.231 20.584C167.231 21.256 167.364 21.8427 167.631 22.344C167.897 22.8347 168.255 23.2133 168.703 23.48C169.151 23.736 169.647 23.864 170.191 23.864C170.735 23.864 171.231 23.736 171.679 23.48C172.137 23.2133 172.5 22.8347 172.767 22.344C173.033 21.8427 173.167 21.2613 173.167 20.6ZM177.563 25.096C177.286 25.096 177.051 25 176.859 24.808C176.667 24.616 176.571 24.3813 176.571 24.104C176.571 23.8267 176.667 23.592 176.859 23.4C177.051 23.208 177.286 23.112 177.563 23.112C177.83 23.112 178.054 23.208 178.235 23.4C178.427 23.592 178.523 23.8267 178.523 24.104C178.523 24.3813 178.427 24.616 178.235 24.808C178.054 25 177.83 25.096 177.563 25.096ZM180.923 25.096C180.645 25.096 180.411 25 180.219 24.808C180.027 24.616 179.931 24.3813 179.931 24.104C179.931 23.8267 180.027 23.592 180.219 23.4C180.411 23.208 180.645 23.112 180.923 23.112C181.189 23.112 181.413 23.208 181.595 23.4C181.787 23.592 181.883 23.8267 181.883 24.104C181.883 24.3813 181.787 24.616 181.595 24.808C181.413 25 181.189 25.096 180.923 25.096ZM184.282 25.096C184.005 25.096 183.77 25 183.578 24.808C183.386 24.616 183.29 24.3813 183.29 24.104C183.29 23.8267 183.386 23.592 183.578 23.4C183.77 23.208 184.005 23.112 184.282 23.112C184.549 23.112 184.773 23.208 184.954 23.4C185.146 23.592 185.242 23.8267 185.242 24.104C185.242 24.3813 185.146 24.616 184.954 24.808C184.773 25 184.549 25.096 184.282 25.096Z" fill="white"/>
<defs>
<linearGradient id="paint0_linear_4120_226763" x1="0" y1="19" x2="286.208" y2="19" gradientUnits="userSpaceOnUse">
<stop stop-color="#131BB0"/>
<stop offset="0.482292" stop-color="#B84C93"/>
<stop offset="1" stop-color="#FF00F5"/>
<stop offset="1" stop-color="#DB34CA"/>
</linearGradient>
</defs>
</svg>
