<svg width="279" height="38" viewBox="0 0 279 38" fill="none" xmlns="http://www.w3.org/2000/svg">
<rect x="1.04965" y="1.04965" width="276.901" height="35.9007" rx="9.44689" fill="url(#paint0_linear_3652_225671)" stroke="url(#paint1_linear_3652_225671)" stroke-width="2.09931"/>
<path d="M97.1743 25.112C96.4383 25.112 95.7769 24.984 95.1903 24.728C94.6143 24.4613 94.1609 24.0987 93.8303 23.64C93.4996 23.1707 93.3289 22.632 93.3183 22.024H94.8703C94.9236 22.5467 95.1369 22.9893 95.5103 23.352C95.8943 23.704 96.4489 23.88 97.1743 23.88C97.8676 23.88 98.4116 23.7093 98.8063 23.368C99.2116 23.016 99.4143 22.568 99.4143 22.024C99.4143 21.5973 99.2969 21.2507 99.0623 20.984C98.8276 20.7173 98.5343 20.5147 98.1823 20.376C97.8303 20.2373 97.3556 20.088 96.7583 19.928C96.0223 19.736 95.4303 19.544 94.9823 19.352C94.5449 19.16 94.1663 18.8613 93.8463 18.456C93.5369 18.04 93.3823 17.4853 93.3823 16.792C93.3823 16.184 93.5369 15.6453 93.8463 15.176C94.1556 14.7067 94.5876 14.344 95.1423 14.088C95.7076 13.832 96.3529 13.704 97.0783 13.704C98.1236 13.704 98.9769 13.9653 99.6383 14.488C100.31 15.0107 100.689 15.704 100.774 16.568H99.1743C99.1209 16.1413 98.8969 15.768 98.5023 15.448C98.1076 15.1173 97.5849 14.952 96.9343 14.952C96.3263 14.952 95.8303 15.112 95.4463 15.432C95.0623 15.7413 94.8703 16.1787 94.8703 16.744C94.8703 17.1493 94.9823 17.48 95.2063 17.736C95.4409 17.992 95.7236 18.1893 96.0543 18.328C96.3956 18.456 96.8703 18.6053 97.4783 18.776C98.2143 18.9787 98.8063 19.1813 99.2543 19.384C99.7023 19.576 100.086 19.88 100.406 20.296C100.726 20.7013 100.886 21.256 100.886 21.96C100.886 22.504 100.742 23.016 100.454 23.496C100.166 23.976 99.7396 24.3653 99.1743 24.664C98.6089 24.9627 97.9423 25.112 97.1743 25.112ZM111.029 20.28C111.029 20.5573 111.013 20.8507 110.981 21.16H103.973C104.026 22.024 104.32 22.7013 104.853 23.192C105.397 23.672 106.053 23.912 106.821 23.912C107.45 23.912 107.973 23.768 108.389 23.48C108.816 23.1813 109.114 22.7867 109.285 22.296H110.853C110.618 23.1387 110.149 23.8267 109.445 24.36C108.741 24.8827 107.866 25.144 106.821 25.144C105.989 25.144 105.242 24.9573 104.581 24.584C103.93 24.2107 103.418 23.6827 103.045 23C102.672 22.3067 102.485 21.5067 102.485 20.6C102.485 19.6933 102.666 18.8987 103.029 18.216C103.392 17.5333 103.898 17.0107 104.549 16.648C105.21 16.2747 105.968 16.088 106.821 16.088C107.653 16.088 108.389 16.2693 109.029 16.632C109.669 16.9947 110.16 17.496 110.501 18.136C110.853 18.7653 111.029 19.48 111.029 20.28ZM109.525 19.976C109.525 19.4213 109.402 18.9467 109.157 18.552C108.912 18.1467 108.576 17.8427 108.149 17.64C107.733 17.4267 107.269 17.32 106.757 17.32C106.021 17.32 105.392 17.5547 104.869 18.024C104.357 18.4933 104.064 19.144 103.989 19.976H109.525ZM114.407 13.16V25H112.951V13.16H114.407ZM118.344 13.16V25H116.888V13.16H118.344ZM135.635 16.072C136.318 16.072 136.926 16.216 137.459 16.504C137.993 16.7813 138.414 17.2027 138.723 17.768C139.033 18.3333 139.187 19.0213 139.187 19.832V25H137.747V20.04C137.747 19.1653 137.529 18.4987 137.091 18.04C136.665 17.5707 136.083 17.336 135.347 17.336C134.59 17.336 133.987 17.5813 133.539 18.072C133.091 18.552 132.867 19.2507 132.867 20.168V25H131.427V20.04C131.427 19.1653 131.209 18.4987 130.771 18.04C130.345 17.5707 129.763 17.336 129.027 17.336C128.27 17.336 127.667 17.5813 127.219 18.072C126.771 18.552 126.547 19.2507 126.547 20.168V25H125.091V16.232H126.547V17.496C126.835 17.0373 127.219 16.6853 127.699 16.44C128.19 16.1947 128.729 16.072 129.315 16.072C130.051 16.072 130.702 16.2373 131.267 16.568C131.833 16.8987 132.254 17.384 132.531 18.024C132.777 17.4053 133.182 16.9253 133.747 16.584C134.313 16.2427 134.942 16.072 135.635 16.072ZM149.128 16.232L143.848 29.128H142.344L144.072 24.904L140.536 16.232H142.152L144.904 23.336L147.624 16.232H149.128ZM163.625 25H162.169L156.313 16.12V25H154.857V13.832H156.313L162.169 22.696V13.832H163.625V25ZM172.411 13.848V15.032H167.563V18.792H171.499V19.976H167.563V25H166.107V13.848H172.411ZM181.034 13.848V15.032H177.994V25H176.538V15.032H173.482V13.848H181.034Z" fill="white"/>
<defs>
<linearGradient id="paint0_linear_3652_225671" x1="-49.5225" y1="17.5605" x2="296.354" y2="23.9604" gradientUnits="userSpaceOnUse">
<stop stop-color="#6400FF" stop-opacity="0.88"/>
<stop offset="0.523958" stop-color="#874691" stop-opacity="0.86"/>
<stop offset="1" stop-color="#FF03F5" stop-opacity="0.67"/>
</linearGradient>
<linearGradient id="paint1_linear_3652_225671" x1="0" y1="19" x2="286.208" y2="19" gradientUnits="userSpaceOnUse">
<stop stop-color="#131BB0"/>
<stop offset="0.482292" stop-color="#B84C93"/>
<stop offset="1" stop-color="#FF00F5"/>
<stop offset="1" stop-color="#DB34CA"/>
</linearGradient>
</defs>
</svg>
