<svg width="368" height="93" viewBox="0 0 368 93" fill="none" xmlns="http://www.w3.org/2000/svg">
<rect width="368" height="93" rx="8" fill="#FF0000" fill-opacity="0.15"/>
<path fill-rule="evenodd" clip-rule="evenodd" d="M39.9993 57.168C45.8904 57.168 50.666 52.3923 50.666 46.5013C50.666 40.6103 45.8904 35.8346 39.9993 35.8346C34.1083 35.8346 29.3327 40.6103 29.3327 46.5013C29.3327 52.3923 34.1083 57.168 39.9993 57.168ZM39.9993 59.8346C47.3631 59.8346 53.3327 53.8651 53.3327 46.5013C53.3327 39.1375 47.3631 33.168 39.9993 33.168C32.6356 33.168 26.666 39.1375 26.666 46.5013C26.666 53.8651 32.6356 59.8346 39.9993 59.8346Z" fill="#FF0A12"/>
<path fill-rule="evenodd" clip-rule="evenodd" d="M39.9993 39.832C39.263 39.832 38.666 40.429 38.666 41.1654C38.666 41.9017 39.263 42.4987 39.9993 42.4987C40.7357 42.4987 41.3327 41.9017 41.3327 41.1654C41.3327 40.429 40.7357 39.832 39.9993 39.832ZM39.9993 45.1654C39.263 45.1654 38.666 45.7623 38.666 46.4987V51.832C38.666 52.5684 39.263 53.1654 39.9993 53.1654C40.7357 53.1654 41.3327 52.5684 41.3327 51.832V46.4987C41.3327 45.7623 40.7357 45.1654 39.9993 45.1654Z" fill="#FF0A12"/>
<path d="M70.7266 37.9766C70.7266 37.7995 70.7005 37.6406 70.6484 37.5C70.5964 37.3542 70.5 37.2188 70.3594 37.0938C70.2188 36.9688 70.0156 36.8438 69.75 36.7188C69.4896 36.5885 69.1458 36.4531 68.7188 36.3125C68.2188 36.1458 67.737 35.9583 67.2734 35.75C66.8099 35.5365 66.3958 35.2891 66.0312 35.0078C65.6667 34.7214 65.3776 34.388 65.1641 34.0078C64.9505 33.6224 64.8438 33.1745 64.8438 32.6641C64.8438 32.1745 64.9531 31.7344 65.1719 31.3438C65.3906 30.9479 65.6953 30.612 66.0859 30.3359C66.4818 30.0547 66.9453 29.8411 67.4766 29.6953C68.0078 29.5443 68.5885 29.4688 69.2188 29.4688C70.0521 29.4688 70.7865 29.6146 71.4219 29.9062C72.0625 30.1927 72.5625 30.6016 72.9219 31.1328C73.2865 31.6589 73.4688 32.2812 73.4688 33H70.7422C70.7422 32.7135 70.6823 32.4609 70.5625 32.2422C70.4479 32.0234 70.2734 31.8516 70.0391 31.7266C69.8047 31.6016 69.5104 31.5391 69.1562 31.5391C68.8125 31.5391 68.5234 31.5911 68.2891 31.6953C68.0547 31.7995 67.8776 31.9401 67.7578 32.1172C67.638 32.2891 67.5781 32.4792 67.5781 32.6875C67.5781 32.8594 67.625 33.0156 67.7188 33.1562C67.8177 33.2917 67.9557 33.4193 68.1328 33.5391C68.3151 33.6589 68.5339 33.7734 68.7891 33.8828C69.0495 33.9922 69.3411 34.099 69.6641 34.2031C70.2682 34.3958 70.8047 34.612 71.2734 34.8516C71.7474 35.0859 72.1458 35.3542 72.4688 35.6562C72.7969 35.9531 73.0443 36.2917 73.2109 36.6719C73.3828 37.0521 73.4688 37.4818 73.4688 37.9609C73.4688 38.4714 73.3698 38.9245 73.1719 39.3203C72.974 39.7161 72.6901 40.0521 72.3203 40.3281C71.9505 40.599 71.5078 40.8047 70.9922 40.9453C70.4766 41.0859 69.901 41.1562 69.2656 41.1562C68.6823 41.1562 68.1068 41.0833 67.5391 40.9375C66.9766 40.7865 66.4661 40.5573 66.0078 40.25C65.5495 39.9375 65.1823 39.5391 64.9062 39.0547C64.6354 38.5651 64.5 37.9844 64.5 37.3125H67.25C67.25 37.6458 67.2943 37.9271 67.3828 38.1562C67.4714 38.3854 67.6016 38.5703 67.7734 38.7109C67.9453 38.8464 68.1562 38.9453 68.4062 39.0078C68.6562 39.0651 68.9427 39.0938 69.2656 39.0938C69.6146 39.0938 69.8958 39.0443 70.1094 38.9453C70.3229 38.8411 70.4792 38.7057 70.5781 38.5391C70.6771 38.3672 70.7266 38.1797 70.7266 37.9766ZM78.8516 41.1562C78.1641 41.1562 77.5495 41.0495 77.0078 40.8359C76.4661 40.6172 76.0078 40.3177 75.6328 39.9375C75.263 39.5573 74.9792 39.1198 74.7812 38.625C74.5885 38.1302 74.4922 37.6068 74.4922 37.0547V36.7578C74.4922 36.138 74.5781 35.5651 74.75 35.0391C74.9219 34.5078 75.1771 34.0443 75.5156 33.6484C75.8542 33.2526 76.2786 32.9453 76.7891 32.7266C77.2995 32.5026 77.8932 32.3906 78.5703 32.3906C79.1693 32.3906 79.7057 32.487 80.1797 32.6797C80.6536 32.8724 81.0547 33.1484 81.3828 33.5078C81.7161 33.8672 81.9688 34.3021 82.1406 34.8125C82.3177 35.3229 82.4062 35.8958 82.4062 36.5312V37.6016H75.5V35.9531H79.8359V35.75C79.8411 35.4688 79.7917 35.2292 79.6875 35.0312C79.5885 34.8333 79.4427 34.6823 79.25 34.5781C79.0573 34.474 78.8229 34.4219 78.5469 34.4219C78.2604 34.4219 78.0234 34.4844 77.8359 34.6094C77.6536 34.7344 77.5104 34.9062 77.4062 35.125C77.3073 35.3385 77.237 35.5859 77.1953 35.8672C77.1536 36.1484 77.1328 36.4453 77.1328 36.7578V37.0547C77.1328 37.3672 77.1745 37.651 77.2578 37.9062C77.3464 38.1615 77.4714 38.3802 77.6328 38.5625C77.7995 38.7396 77.9974 38.8776 78.2266 38.9766C78.4609 39.0755 78.7266 39.125 79.0234 39.125C79.3828 39.125 79.737 39.0573 80.0859 38.9219C80.4349 38.7865 80.7344 38.5625 80.9844 38.25L82.1797 39.6719C82.0078 39.9167 81.763 40.1536 81.4453 40.3828C81.1328 40.612 80.7578 40.7995 80.3203 40.9453C79.8828 41.0859 79.3932 41.1562 78.8516 41.1562ZM86.2578 29V41H83.6172V29H86.2578ZM90.6641 29V41H88.0234V29H90.6641ZM98.9297 34.3359V41H96.2969V32.5469H98.7656L98.9297 34.3359ZM98.6094 36.4844L98.0078 36.5C98.0078 35.9062 98.0781 35.3594 98.2188 34.8594C98.3594 34.3594 98.5677 33.9245 98.8438 33.5547C99.1198 33.1849 99.4583 32.8984 99.8594 32.6953C100.266 32.4922 100.734 32.3906 101.266 32.3906C101.635 32.3906 101.971 32.4479 102.273 32.5625C102.576 32.6719 102.836 32.8464 103.055 33.0859C103.273 33.3203 103.44 33.6276 103.555 34.0078C103.674 34.3828 103.734 34.8333 103.734 35.3594V41H101.102V35.6953C101.102 35.3359 101.06 35.0651 100.977 34.8828C100.898 34.7005 100.784 34.5781 100.633 34.5156C100.482 34.4531 100.297 34.4219 100.078 34.4219C99.849 34.4219 99.6432 34.474 99.4609 34.5781C99.2786 34.6823 99.1224 34.8281 98.9922 35.0156C98.8672 35.1979 98.7708 35.4141 98.7031 35.6641C98.6406 35.9141 98.6094 36.1875 98.6094 36.4844ZM103.438 36.4844L102.703 36.5C102.703 35.9062 102.768 35.3594 102.898 34.8594C103.034 34.3594 103.234 33.9245 103.5 33.5547C103.771 33.1849 104.107 32.8984 104.508 32.6953C104.909 32.4922 105.375 32.3906 105.906 32.3906C106.292 32.3906 106.646 32.4479 106.969 32.5625C107.292 32.6771 107.57 32.862 107.805 33.1172C108.039 33.3724 108.221 33.7109 108.352 34.1328C108.482 34.5495 108.547 35.0651 108.547 35.6797V41H105.906V35.6797C105.906 35.3307 105.865 35.0677 105.781 34.8906C105.703 34.7083 105.589 34.5859 105.438 34.5234C105.286 34.4557 105.107 34.4219 104.898 34.4219C104.648 34.4219 104.432 34.474 104.25 34.5781C104.068 34.6823 103.914 34.8281 103.789 35.0156C103.669 35.1979 103.581 35.4141 103.523 35.6641C103.466 35.9141 103.438 36.1875 103.438 36.4844ZM112.648 40.0078L114.836 32.5469H117.664L114.266 42.2578C114.193 42.4714 114.096 42.7005 113.977 42.9453C113.857 43.1953 113.693 43.4323 113.484 43.6562C113.276 43.8802 113.008 44.0625 112.68 44.2031C112.357 44.3438 111.956 44.4141 111.477 44.4141C111.221 44.4141 111.034 44.401 110.914 44.375C110.799 44.3542 110.622 44.3151 110.383 44.2578V42.375C110.451 42.375 110.508 42.375 110.555 42.375C110.607 42.375 110.664 42.375 110.727 42.375C111.008 42.375 111.232 42.3464 111.398 42.2891C111.57 42.2318 111.701 42.1484 111.789 42.0391C111.883 41.9297 111.956 41.7969 112.008 41.6406L112.648 40.0078ZM112.094 32.5469L113.758 38.4609L114.047 41.25H112.281L109.273 32.5469H112.094ZM131.961 29.625V41H129.227L125.203 33.9219V41H122.461V29.625H125.203L129.227 36.7031V29.625H131.961ZM136.438 29.625V41H133.695V29.625H136.438ZM140.859 34.3594V36.4688H135.656V34.3594H140.859ZM141.305 29.625V31.7422H135.656V29.625H141.305ZM148.109 29.625V41H145.367V29.625H148.109ZM151.531 29.625V31.7422H142.023V29.625H151.531Z" fill="#FF0A12"/>
<path d="M67.576 63.084C67.024 63.084 66.528 62.988 66.088 62.796C65.656 62.596 65.316 62.324 65.068 61.98C64.82 61.628 64.692 61.224 64.684 60.768H65.848C65.888 61.16 66.048 61.492 66.328 61.764C66.616 62.028 67.032 62.16 67.576 62.16C68.096 62.16 68.504 62.032 68.8 61.776C69.104 61.512 69.256 61.176 69.256 60.768C69.256 60.448 69.168 60.188 68.992 59.988C68.816 59.788 68.596 59.636 68.332 59.532C68.068 59.428 67.712 59.316 67.264 59.196C66.712 59.052 66.268 58.908 65.932 58.764C65.604 58.62 65.32 58.396 65.08 58.092C64.848 57.78 64.732 57.364 64.732 56.844C64.732 56.388 64.848 55.984 65.08 55.632C65.312 55.28 65.636 55.008 66.052 54.816C66.476 54.624 66.96 54.528 67.504 54.528C68.288 54.528 68.928 54.724 69.424 55.116C69.928 55.508 70.212 56.028 70.276 56.676H69.076C69.036 56.356 68.868 56.076 68.572 55.836C68.276 55.588 67.884 55.464 67.396 55.464C66.94 55.464 66.568 55.584 66.28 55.824C65.992 56.056 65.848 56.384 65.848 56.808C65.848 57.112 65.932 57.36 66.1 57.552C66.276 57.744 66.488 57.892 66.736 57.996C66.992 58.092 67.348 58.204 67.804 58.332C68.356 58.484 68.8 58.636 69.136 58.788C69.472 58.932 69.76 59.16 70 59.472C70.24 59.776 70.36 60.192 70.36 60.72C70.36 61.128 70.252 61.512 70.036 61.872C69.82 62.232 69.5 62.524 69.076 62.748C68.652 62.972 68.152 63.084 67.576 63.084ZM71.559 59.688C71.559 59.016 71.695 58.428 71.967 57.924C72.239 57.412 72.611 57.016 73.083 56.736C73.563 56.456 74.095 56.316 74.679 56.316C75.255 56.316 75.755 56.44 76.179 56.688C76.603 56.936 76.919 57.248 77.127 57.624V56.424H78.231V63H77.127V61.776C76.911 62.16 76.587 62.48 76.155 62.736C75.731 62.984 75.235 63.108 74.667 63.108C74.083 63.108 73.555 62.964 73.083 62.676C72.611 62.388 72.239 61.984 71.967 61.464C71.695 60.944 71.559 60.352 71.559 59.688ZM77.127 59.7C77.127 59.204 77.027 58.772 76.827 58.404C76.627 58.036 76.355 57.756 76.011 57.564C75.675 57.364 75.303 57.264 74.895 57.264C74.487 57.264 74.115 57.36 73.779 57.552C73.443 57.744 73.175 58.024 72.975 58.392C72.775 58.76 72.675 59.192 72.675 59.688C72.675 60.192 72.775 60.632 72.975 61.008C73.175 61.376 73.443 61.66 73.779 61.86C74.115 62.052 74.487 62.148 74.895 62.148C75.303 62.148 75.675 62.052 76.011 61.86C76.355 61.66 76.627 61.376 76.827 61.008C77.027 60.632 77.127 60.196 77.127 59.7ZM81.1683 54.12V63H80.0763V54.12H81.1683ZM89.0295 59.46C89.0295 59.668 89.0175 59.888 88.9935 60.12H83.7375C83.7775 60.768 83.9975 61.276 84.3975 61.644C84.8055 62.004 85.2975 62.184 85.8735 62.184C86.3455 62.184 86.7375 62.076 87.0495 61.86C87.3695 61.636 87.5935 61.34 87.7215 60.972H88.8975C88.7215 61.604 88.3695 62.12 87.8415 62.52C87.3135 62.912 86.6575 63.108 85.8735 63.108C85.2495 63.108 84.6895 62.968 84.1935 62.688C83.7055 62.408 83.3215 62.012 83.0415 61.5C82.7615 60.98 82.6215 60.38 82.6215 59.7C82.6215 59.02 82.7575 58.424 83.0295 57.912C83.3015 57.4 83.6815 57.008 84.1695 56.736C84.6655 56.456 85.2335 56.316 85.8735 56.316C86.4975 56.316 87.0495 56.452 87.5295 56.724C88.0095 56.996 88.3775 57.372 88.6335 57.852C88.8975 58.324 89.0295 58.86 89.0295 59.46ZM87.9015 59.232C87.9015 58.816 87.8095 58.46 87.6255 58.164C87.4415 57.86 87.1895 57.632 86.8695 57.48C86.5575 57.32 86.2095 57.24 85.8255 57.24C85.2735 57.24 84.8015 57.416 84.4095 57.768C84.0255 58.12 83.8055 58.608 83.7495 59.232H87.9015ZM96.3461 57.324H94.9661V63H93.8741V57.324H93.0221V56.424H93.8741V55.956C93.8741 55.22 94.0621 54.684 94.4381 54.348C94.8221 54.004 95.4341 53.832 96.2741 53.832V54.744C95.7941 54.744 95.4541 54.84 95.2541 55.032C95.0621 55.216 94.9661 55.524 94.9661 55.956V56.424H96.3461V57.324ZM103.451 56.424V63H102.359V62.028C102.151 62.364 101.859 62.628 101.483 62.82C101.115 63.004 100.707 63.096 100.259 63.096C99.7473 63.096 99.2873 62.992 98.8793 62.784C98.4713 62.568 98.1473 62.248 97.9073 61.824C97.6753 61.4 97.5593 60.884 97.5593 60.276V56.424H98.6393V60.132C98.6393 60.78 98.8033 61.28 99.1313 61.632C99.4593 61.976 99.9073 62.148 100.475 62.148C101.059 62.148 101.519 61.968 101.855 61.608C102.191 61.248 102.359 60.724 102.359 60.036V56.424H103.451ZM108.499 56.304C109.299 56.304 109.947 56.548 110.443 57.036C110.939 57.516 111.187 58.212 111.187 59.124V63H110.107V59.28C110.107 58.624 109.943 58.124 109.615 57.78C109.287 57.428 108.839 57.252 108.271 57.252C107.695 57.252 107.235 57.432 106.891 57.792C106.555 58.152 106.387 58.676 106.387 59.364V63H105.295V56.424H106.387V57.36C106.603 57.024 106.895 56.764 107.263 56.58C107.639 56.396 108.051 56.304 108.499 56.304ZM112.563 59.7C112.563 59.02 112.699 58.428 112.971 57.924C113.243 57.412 113.619 57.016 114.099 56.736C114.587 56.456 115.143 56.316 115.767 56.316C116.575 56.316 117.239 56.512 117.759 56.904C118.287 57.296 118.635 57.84 118.803 58.536H117.627C117.515 58.136 117.295 57.82 116.967 57.588C116.647 57.356 116.247 57.24 115.767 57.24C115.143 57.24 114.639 57.456 114.255 57.888C113.871 58.312 113.679 58.916 113.679 59.7C113.679 60.492 113.871 61.104 114.255 61.536C114.639 61.968 115.143 62.184 115.767 62.184C116.247 62.184 116.647 62.072 116.967 61.848C117.287 61.624 117.507 61.304 117.627 60.888H118.803C118.627 61.56 118.275 62.1 117.747 62.508C117.219 62.908 116.559 63.108 115.767 63.108C115.143 63.108 114.587 62.968 114.099 62.688C113.619 62.408 113.243 62.012 112.971 61.5C112.699 60.988 112.563 60.388 112.563 59.7ZM121.592 57.324V61.2C121.592 61.52 121.66 61.748 121.796 61.884C121.932 62.012 122.168 62.076 122.504 62.076H123.308V63H122.324C121.716 63 121.26 62.86 120.956 62.58C120.652 62.3 120.5 61.84 120.5 61.2V57.324H119.648V56.424H120.5V54.768H121.592V56.424H123.308V57.324H121.592ZM125.195 55.356C124.987 55.356 124.811 55.284 124.667 55.14C124.523 54.996 124.451 54.82 124.451 54.612C124.451 54.404 124.523 54.228 124.667 54.084C124.811 53.94 124.987 53.868 125.195 53.868C125.395 53.868 125.563 53.94 125.699 54.084C125.843 54.228 125.915 54.404 125.915 54.612C125.915 54.82 125.843 54.996 125.699 55.14C125.563 55.284 125.395 55.356 125.195 55.356ZM125.723 56.424V63H124.631V56.424H125.723ZM130.452 63.108C129.836 63.108 129.276 62.968 128.772 62.688C128.276 62.408 127.884 62.012 127.596 61.5C127.316 60.98 127.176 60.38 127.176 59.7C127.176 59.028 127.32 58.436 127.608 57.924C127.904 57.404 128.304 57.008 128.808 56.736C129.312 56.456 129.876 56.316 130.5 56.316C131.124 56.316 131.688 56.456 132.192 56.736C132.696 57.008 133.092 57.4 133.38 57.912C133.676 58.424 133.824 59.02 133.824 59.7C133.824 60.38 133.672 60.98 133.368 61.5C133.072 62.012 132.668 62.408 132.156 62.688C131.644 62.968 131.076 63.108 130.452 63.108ZM130.452 62.148C130.844 62.148 131.212 62.056 131.556 61.872C131.9 61.688 132.176 61.412 132.384 61.044C132.6 60.676 132.708 60.228 132.708 59.7C132.708 59.172 132.604 58.724 132.396 58.356C132.188 57.988 131.916 57.716 131.58 57.54C131.244 57.356 130.88 57.264 130.488 57.264C130.088 57.264 129.72 57.356 129.384 57.54C129.056 57.716 128.792 57.988 128.592 58.356C128.392 58.724 128.292 59.172 128.292 59.7C128.292 60.236 128.388 60.688 128.58 61.056C128.78 61.424 129.044 61.7 129.372 61.884C129.7 62.06 130.06 62.148 130.452 62.148ZM138.464 56.304C139.264 56.304 139.912 56.548 140.408 57.036C140.904 57.516 141.152 58.212 141.152 59.124V63H140.072V59.28C140.072 58.624 139.908 58.124 139.58 57.78C139.252 57.428 138.804 57.252 138.236 57.252C137.66 57.252 137.2 57.432 136.856 57.792C136.52 58.152 136.352 58.676 136.352 59.364V63H135.26V56.424H136.352V57.36C136.568 57.024 136.86 56.764 137.228 56.58C137.604 56.396 138.016 56.304 138.464 56.304ZM146.699 55.356C146.491 55.356 146.315 55.284 146.171 55.14C146.027 54.996 145.955 54.82 145.955 54.612C145.955 54.404 146.027 54.228 146.171 54.084C146.315 53.94 146.491 53.868 146.699 53.868C146.899 53.868 147.067 53.94 147.203 54.084C147.347 54.228 147.419 54.404 147.419 54.612C147.419 54.82 147.347 54.996 147.203 55.14C147.067 55.284 146.899 55.356 146.699 55.356ZM147.227 56.424V63H146.135V56.424H147.227ZM151.416 63.108C150.912 63.108 150.46 63.024 150.06 62.856C149.66 62.68 149.344 62.44 149.112 62.136C148.88 61.824 148.752 61.468 148.728 61.068H149.856C149.888 61.396 150.04 61.664 150.312 61.872C150.592 62.08 150.956 62.184 151.404 62.184C151.82 62.184 152.148 62.092 152.388 61.908C152.628 61.724 152.748 61.492 152.748 61.212C152.748 60.924 152.62 60.712 152.364 60.576C152.108 60.432 151.712 60.292 151.176 60.156C150.688 60.028 150.288 59.9 149.976 59.772C149.672 59.636 149.408 59.44 149.184 59.184C148.968 58.92 148.86 58.576 148.86 58.152C148.86 57.816 148.96 57.508 149.16 57.228C149.36 56.948 149.644 56.728 150.012 56.568C150.38 56.4 150.8 56.316 151.272 56.316C152 56.316 152.588 56.5 153.036 56.868C153.484 57.236 153.724 57.74 153.756 58.38H152.664C152.64 58.036 152.5 57.76 152.244 57.552C151.996 57.344 151.66 57.24 151.236 57.24C150.844 57.24 150.532 57.324 150.3 57.492C150.068 57.66 149.952 57.88 149.952 58.152C149.952 58.368 150.02 58.548 150.156 58.692C150.3 58.828 150.476 58.94 150.684 59.028C150.9 59.108 151.196 59.2 151.572 59.304C152.044 59.432 152.428 59.56 152.724 59.688C153.02 59.808 153.272 59.992 153.48 60.24C153.696 60.488 153.808 60.812 153.816 61.212C153.816 61.572 153.716 61.896 153.516 62.184C153.316 62.472 153.032 62.7 152.664 62.868C152.304 63.028 151.888 63.108 151.416 63.108ZM159.121 55.356C158.913 55.356 158.737 55.284 158.593 55.14C158.449 54.996 158.377 54.82 158.377 54.612C158.377 54.404 158.449 54.228 158.593 54.084C158.737 53.94 158.913 53.868 159.121 53.868C159.321 53.868 159.489 53.94 159.625 54.084C159.769 54.228 159.841 54.404 159.841 54.612C159.841 54.82 159.769 54.996 159.625 55.14C159.489 55.284 159.321 55.356 159.121 55.356ZM159.649 56.424V63H158.557V56.424H159.649ZM164.714 56.304C165.514 56.304 166.162 56.548 166.658 57.036C167.154 57.516 167.402 58.212 167.402 59.124V63H166.322V59.28C166.322 58.624 166.158 58.124 165.83 57.78C165.502 57.428 165.054 57.252 164.486 57.252C163.91 57.252 163.45 57.432 163.106 57.792C162.77 58.152 162.602 58.676 162.602 59.364V63H161.51V56.424H162.602V57.36C162.818 57.024 163.11 56.764 163.478 56.58C163.854 56.396 164.266 56.304 164.714 56.304ZM171.977 59.688C171.977 59.016 172.113 58.428 172.385 57.924C172.657 57.412 173.029 57.016 173.501 56.736C173.981 56.456 174.517 56.316 175.109 56.316C175.621 56.316 176.097 56.436 176.537 56.676C176.977 56.908 177.313 57.216 177.545 57.6V54.12H178.649V63H177.545V61.764C177.329 62.156 177.009 62.48 176.585 62.736C176.161 62.984 175.665 63.108 175.097 63.108C174.513 63.108 173.981 62.964 173.501 62.676C173.029 62.388 172.657 61.984 172.385 61.464C172.113 60.944 171.977 60.352 171.977 59.688ZM177.545 59.7C177.545 59.204 177.445 58.772 177.245 58.404C177.045 58.036 176.773 57.756 176.429 57.564C176.093 57.364 175.721 57.264 175.313 57.264C174.905 57.264 174.533 57.36 174.197 57.552C173.861 57.744 173.593 58.024 173.393 58.392C173.193 58.76 173.093 59.192 173.093 59.688C173.093 60.192 173.193 60.632 173.393 61.008C173.593 61.376 173.861 61.66 174.197 61.86C174.533 62.052 174.905 62.148 175.313 62.148C175.721 62.148 176.093 62.052 176.429 61.86C176.773 61.66 177.045 61.376 177.245 61.008C177.445 60.632 177.545 60.196 177.545 59.7ZM186.494 59.46C186.494 59.668 186.482 59.888 186.458 60.12H181.202C181.242 60.768 181.462 61.276 181.862 61.644C182.27 62.004 182.762 62.184 183.338 62.184C183.81 62.184 184.202 62.076 184.514 61.86C184.834 61.636 185.058 61.34 185.186 60.972H186.362C186.186 61.604 185.834 62.12 185.306 62.52C184.778 62.912 184.122 63.108 183.338 63.108C182.714 63.108 182.154 62.968 181.658 62.688C181.17 62.408 180.786 62.012 180.506 61.5C180.226 60.98 180.086 60.38 180.086 59.7C180.086 59.02 180.222 58.424 180.494 57.912C180.766 57.4 181.146 57.008 181.634 56.736C182.13 56.456 182.698 56.316 183.338 56.316C183.962 56.316 184.514 56.452 184.994 56.724C185.474 56.996 185.842 57.372 186.098 57.852C186.362 58.324 186.494 58.86 186.494 59.46ZM185.366 59.232C185.366 58.816 185.274 58.46 185.09 58.164C184.906 57.86 184.654 57.632 184.334 57.48C184.022 57.32 183.674 57.24 183.29 57.24C182.738 57.24 182.266 57.416 181.874 57.768C181.49 58.12 181.27 58.608 181.214 59.232H185.366ZM190.384 61.992L192.424 56.424H193.588L191.008 63H189.736L187.156 56.424H188.332L190.384 61.992ZM200.662 59.46C200.662 59.668 200.65 59.888 200.626 60.12H195.37C195.41 60.768 195.63 61.276 196.03 61.644C196.438 62.004 196.93 62.184 197.506 62.184C197.978 62.184 198.37 62.076 198.682 61.86C199.002 61.636 199.226 61.34 199.354 60.972H200.53C200.354 61.604 200.002 62.12 199.474 62.52C198.946 62.912 198.29 63.108 197.506 63.108C196.882 63.108 196.322 62.968 195.826 62.688C195.338 62.408 194.954 62.012 194.674 61.5C194.394 60.98 194.254 60.38 194.254 59.7C194.254 59.02 194.39 58.424 194.662 57.912C194.934 57.4 195.314 57.008 195.802 56.736C196.298 56.456 196.866 56.316 197.506 56.316C198.13 56.316 198.682 56.452 199.162 56.724C199.642 56.996 200.01 57.372 200.266 57.852C200.53 58.324 200.662 58.86 200.662 59.46ZM199.534 59.232C199.534 58.816 199.442 58.46 199.258 58.164C199.074 57.86 198.822 57.632 198.502 57.48C198.19 57.32 197.842 57.24 197.458 57.24C196.906 57.24 196.434 57.416 196.042 57.768C195.658 58.12 195.438 58.608 195.382 59.232H199.534ZM203.196 54.12V63H202.104V54.12H203.196ZM207.925 63.108C207.309 63.108 206.749 62.968 206.245 62.688C205.749 62.408 205.357 62.012 205.069 61.5C204.789 60.98 204.649 60.38 204.649 59.7C204.649 59.028 204.793 58.436 205.081 57.924C205.377 57.404 205.777 57.008 206.281 56.736C206.785 56.456 207.349 56.316 207.973 56.316C208.597 56.316 209.161 56.456 209.665 56.736C210.169 57.008 210.565 57.4 210.853 57.912C211.149 58.424 211.297 59.02 211.297 59.7C211.297 60.38 211.145 60.98 210.841 61.5C210.545 62.012 210.141 62.408 209.629 62.688C209.117 62.968 208.549 63.108 207.925 63.108ZM207.925 62.148C208.317 62.148 208.685 62.056 209.029 61.872C209.373 61.688 209.649 61.412 209.857 61.044C210.073 60.676 210.181 60.228 210.181 59.7C210.181 59.172 210.077 58.724 209.869 58.356C209.661 57.988 209.389 57.716 209.053 57.54C208.717 57.356 208.353 57.264 207.961 57.264C207.561 57.264 207.193 57.356 206.857 57.54C206.529 57.716 206.265 57.988 206.065 58.356C205.865 58.724 205.765 59.172 205.765 59.7C205.765 60.236 205.861 60.688 206.053 61.056C206.253 61.424 206.517 61.7 206.845 61.884C207.173 62.06 207.533 62.148 207.925 62.148ZM213.825 57.636C214.041 57.26 214.361 56.948 214.785 56.7C215.217 56.444 215.717 56.316 216.285 56.316C216.869 56.316 217.397 56.456 217.869 56.736C218.349 57.016 218.725 57.412 218.997 57.924C219.269 58.428 219.405 59.016 219.405 59.688C219.405 60.352 219.269 60.944 218.997 61.464C218.725 61.984 218.349 62.388 217.869 62.676C217.397 62.964 216.869 63.108 216.285 63.108C215.725 63.108 215.229 62.984 214.797 62.736C214.373 62.48 214.049 62.164 213.825 61.788V66.12H212.733V56.424H213.825V57.636ZM218.289 59.688C218.289 59.192 218.189 58.76 217.989 58.392C217.789 58.024 217.517 57.744 217.173 57.552C216.837 57.36 216.465 57.264 216.057 57.264C215.657 57.264 215.285 57.364 214.941 57.564C214.605 57.756 214.333 58.04 214.125 58.416C213.925 58.784 213.825 59.212 213.825 59.7C213.825 60.196 213.925 60.632 214.125 61.008C214.333 61.376 214.605 61.66 214.941 61.86C215.285 62.052 215.657 62.148 216.057 62.148C216.465 62.148 216.837 62.052 217.173 61.86C217.517 61.66 217.789 61.376 217.989 61.008C218.189 60.632 218.289 60.192 218.289 59.688ZM228.75 56.304C229.262 56.304 229.718 56.412 230.118 56.628C230.518 56.836 230.834 57.152 231.066 57.576C231.298 58 231.414 58.516 231.414 59.124V63H230.334V59.28C230.334 58.624 230.17 58.124 229.842 57.78C229.522 57.428 229.086 57.252 228.534 57.252C227.966 57.252 227.514 57.436 227.178 57.804C226.842 58.164 226.674 58.688 226.674 59.376V63H225.594V59.28C225.594 58.624 225.43 58.124 225.102 57.78C224.782 57.428 224.346 57.252 223.794 57.252C223.226 57.252 222.774 57.436 222.438 57.804C222.102 58.164 221.934 58.688 221.934 59.376V63H220.842V56.424H221.934V57.372C222.15 57.028 222.438 56.764 222.798 56.58C223.166 56.396 223.57 56.304 224.01 56.304C224.562 56.304 225.05 56.428 225.474 56.676C225.898 56.924 226.214 57.288 226.422 57.768C226.606 57.304 226.91 56.944 227.334 56.688C227.758 56.432 228.23 56.304 228.75 56.304ZM239.205 59.46C239.205 59.668 239.193 59.888 239.169 60.12H233.913C233.953 60.768 234.173 61.276 234.573 61.644C234.981 62.004 235.473 62.184 236.049 62.184C236.521 62.184 236.913 62.076 237.225 61.86C237.545 61.636 237.769 61.34 237.897 60.972H239.073C238.897 61.604 238.545 62.12 238.017 62.52C237.489 62.912 236.833 63.108 236.049 63.108C235.425 63.108 234.865 62.968 234.369 62.688C233.881 62.408 233.497 62.012 233.217 61.5C232.937 60.98 232.797 60.38 232.797 59.7C232.797 59.02 232.933 58.424 233.205 57.912C233.477 57.4 233.857 57.008 234.345 56.736C234.841 56.456 235.409 56.316 236.049 56.316C236.673 56.316 237.225 56.452 237.705 56.724C238.185 56.996 238.553 57.372 238.809 57.852C239.073 58.324 239.205 58.86 239.205 59.46ZM238.077 59.232C238.077 58.816 237.985 58.46 237.801 58.164C237.617 57.86 237.365 57.632 237.045 57.48C236.733 57.32 236.385 57.24 236.001 57.24C235.449 57.24 234.977 57.416 234.585 57.768C234.201 58.12 233.981 58.608 233.925 59.232H238.077ZM243.851 56.304C244.651 56.304 245.299 56.548 245.795 57.036C246.291 57.516 246.539 58.212 246.539 59.124V63H245.459V59.28C245.459 58.624 245.295 58.124 244.967 57.78C244.639 57.428 244.191 57.252 243.623 57.252C243.047 57.252 242.587 57.432 242.243 57.792C241.907 58.152 241.739 58.676 241.739 59.364V63H240.647V56.424H241.739V57.36C241.955 57.024 242.247 56.764 242.615 56.58C242.991 56.396 243.403 56.304 243.851 56.304ZM249.654 57.324V61.2C249.654 61.52 249.722 61.748 249.858 61.884C249.994 62.012 250.23 62.076 250.566 62.076H251.37V63H250.386C249.778 63 249.322 62.86 249.018 62.58C248.714 62.3 248.562 61.84 248.562 61.2V57.324H247.71V56.424H248.562V54.768H249.654V56.424H251.37V57.324H249.654ZM253.042 63.072C252.834 63.072 252.658 63 252.514 62.856C252.37 62.712 252.298 62.536 252.298 62.328C252.298 62.12 252.37 61.944 252.514 61.8C252.658 61.656 252.834 61.584 253.042 61.584C253.242 61.584 253.41 61.656 253.546 61.8C253.69 61.944 253.762 62.12 253.762 62.328C253.762 62.536 253.69 62.712 253.546 62.856C253.41 63 253.242 63.072 253.042 63.072Z" fill="#FF0A12"/>
</svg>
