<svg width="368" height="93" viewBox="0 0 368 93" fill="none" xmlns="http://www.w3.org/2000/svg">
<rect width="368" height="93" rx="8" fill="#FF0000" fill-opacity="0.15"/>
<path fill-rule="evenodd" clip-rule="evenodd" d="M40.0013 57.168C45.8923 57.168 50.668 52.3923 50.668 46.5013C50.668 40.6103 45.8923 35.8346 40.0013 35.8346C34.1103 35.8346 29.3346 40.6103 29.3346 46.5013C29.3346 52.3923 34.1103 57.168 40.0013 57.168ZM40.0013 59.8346C47.3651 59.8346 53.3346 53.8651 53.3346 46.5013C53.3346 39.1375 47.3651 33.168 40.0013 33.168C32.6375 33.168 26.668 39.1375 26.668 46.5013C26.668 53.8651 32.6375 59.8346 40.0013 59.8346Z" fill="#FF0A12"/>
<path fill-rule="evenodd" clip-rule="evenodd" d="M40.0013 39.832C39.2649 39.832 38.668 40.429 38.668 41.1654C38.668 41.9017 39.2649 42.4987 40.0013 42.4987C40.7377 42.4987 41.3346 41.9017 41.3346 41.1654C41.3346 40.429 40.7377 39.832 40.0013 39.832ZM40.0013 45.1654C39.2649 45.1654 38.668 45.7623 38.668 46.4987V51.832C38.668 52.5684 39.2649 53.1654 40.0013 53.1654C40.7377 53.1654 41.3346 52.5684 41.3346 51.832V46.4987C41.3346 45.7623 40.7377 45.1654 40.0013 45.1654Z" fill="#FF0A12"/>
<path d="M70.375 29.625V41H67.6328V29.625H70.375ZM73.7969 29.625V31.7422H64.2891V29.625H73.7969ZM76.9766 34.6406V41H74.3438V32.5469H76.8047L76.9766 34.6406ZM79.4766 32.4844L79.4297 34.9297C79.3255 34.9193 79.1849 34.9062 79.0078 34.8906C78.8307 34.875 78.6823 34.8672 78.5625 34.8672C78.2552 34.8672 77.9896 34.9036 77.7656 34.9766C77.5469 35.0443 77.3646 35.1484 77.2188 35.2891C77.0781 35.4245 76.974 35.5964 76.9062 35.8047C76.8438 36.013 76.8151 36.2552 76.8203 36.5312L76.3438 36.2188C76.3438 35.651 76.3984 35.1354 76.5078 34.6719C76.6224 34.2031 76.7839 33.7995 76.9922 33.4609C77.2005 33.1172 77.4531 32.8542 77.75 32.6719C78.0469 32.4844 78.3802 32.3906 78.75 32.3906C78.8802 32.3906 79.0078 32.3984 79.1328 32.4141C79.263 32.4297 79.3776 32.4531 79.4766 32.4844ZM84.5391 38.875V35.3906C84.5391 35.151 84.5052 34.9453 84.4375 34.7734C84.3698 34.6016 84.263 34.4688 84.1172 34.375C83.9714 34.276 83.776 34.2266 83.5312 34.2266C83.3333 34.2266 83.1641 34.2604 83.0234 34.3281C82.8828 34.3958 82.776 34.4974 82.7031 34.6328C82.6302 34.7682 82.5938 34.9401 82.5938 35.1484H79.9609C79.9609 34.7578 80.0469 34.3958 80.2188 34.0625C80.3958 33.724 80.6458 33.4297 80.9688 33.1797C81.2969 32.9297 81.6875 32.737 82.1406 32.6016C82.599 32.4609 83.1094 32.3906 83.6719 32.3906C84.3438 32.3906 84.9427 32.5026 85.4688 32.7266C86 32.9505 86.4193 33.2865 86.7266 33.7344C87.0339 34.1771 87.1875 34.7344 87.1875 35.4062V38.8672C87.1875 39.4193 87.2188 39.8385 87.2812 40.125C87.3438 40.4062 87.4323 40.6536 87.5469 40.8672V41H84.9062C84.7812 40.7396 84.6875 40.4219 84.625 40.0469C84.5677 39.6667 84.5391 39.276 84.5391 38.875ZM84.8594 35.8359L84.875 37.2422H83.7109C83.4661 37.2422 83.2578 37.276 83.0859 37.3438C82.9193 37.4115 82.7839 37.5052 82.6797 37.625C82.5807 37.7396 82.5078 37.8698 82.4609 38.0156C82.4193 38.1615 82.3984 38.3151 82.3984 38.4766C82.3984 38.6328 82.4349 38.7734 82.5078 38.8984C82.5859 39.0182 82.6901 39.112 82.8203 39.1797C82.9505 39.2474 83.0964 39.2812 83.2578 39.2812C83.5495 39.2812 83.7969 39.2266 84 39.1172C84.2083 39.0026 84.3672 38.8646 84.4766 38.7031C84.5859 38.5417 84.6406 38.3906 84.6406 38.25L85.2188 39.3281C85.1146 39.5365 84.9948 39.7474 84.8594 39.9609C84.7292 40.1745 84.5651 40.3724 84.3672 40.5547C84.1745 40.7318 83.9375 40.8776 83.6562 40.9922C83.375 41.1016 83.0339 41.1562 82.6328 41.1562C82.112 41.1562 81.6328 41.0495 81.1953 40.8359C80.763 40.6224 80.4167 40.3255 80.1562 39.9453C79.8958 39.5599 79.7656 39.1172 79.7656 38.6172C79.7656 38.1797 79.8438 37.7891 80 37.4453C80.1615 37.1016 80.4036 36.8099 80.7266 36.5703C81.0495 36.3307 81.4609 36.1484 81.9609 36.0234C82.4609 35.8984 83.0495 35.8359 83.7266 35.8359H84.8594ZM91.2344 34.3516V41H88.6016V32.5469H91.0703L91.2344 34.3516ZM90.9219 36.4844L90.3047 36.5C90.3047 35.8542 90.3828 35.2786 90.5391 34.7734C90.6953 34.263 90.9167 33.8307 91.2031 33.4766C91.4896 33.1224 91.8307 32.8542 92.2266 32.6719C92.6276 32.4844 93.0729 32.3906 93.5625 32.3906C93.9531 32.3906 94.3099 32.4479 94.6328 32.5625C94.9609 32.6771 95.2422 32.862 95.4766 33.1172C95.7161 33.3724 95.8984 33.7109 96.0234 34.1328C96.1536 34.5495 96.2188 35.0651 96.2188 35.6797V41H93.5703V35.6719C93.5703 35.3333 93.5234 35.0755 93.4297 34.8984C93.3359 34.7161 93.2005 34.5911 93.0234 34.5234C92.8464 34.4557 92.6302 34.4219 92.375 34.4219C92.1042 34.4219 91.875 34.474 91.6875 34.5781C91.5 34.6823 91.349 34.8281 91.2344 35.0156C91.125 35.1979 91.0443 35.4141 90.9922 35.6641C90.9453 35.9141 90.9219 36.1875 90.9219 36.4844ZM102.109 38.625C102.109 38.4792 102.06 38.3542 101.961 38.25C101.867 38.1406 101.701 38.0417 101.461 37.9531C101.221 37.8594 100.885 37.7656 100.453 37.6719C100.042 37.5833 99.6536 37.4661 99.2891 37.3203C98.9297 37.1745 98.6146 36.9974 98.3438 36.7891C98.0729 36.5807 97.8594 36.3333 97.7031 36.0469C97.5521 35.7604 97.4766 35.4323 97.4766 35.0625C97.4766 34.7031 97.5521 34.3646 97.7031 34.0469C97.8594 33.724 98.0859 33.4401 98.3828 33.1953C98.6849 32.9453 99.0521 32.75 99.4844 32.6094C99.9167 32.4635 100.409 32.3906 100.961 32.3906C101.721 32.3906 102.378 32.5078 102.93 32.7422C103.482 32.9714 103.906 33.2943 104.203 33.7109C104.505 34.1224 104.656 34.599 104.656 35.1406H102.023C102.023 34.9271 101.987 34.7448 101.914 34.5938C101.846 34.4427 101.734 34.3281 101.578 34.25C101.422 34.1667 101.214 34.125 100.953 34.125C100.771 34.125 100.604 34.1589 100.453 34.2266C100.307 34.2943 100.19 34.388 100.102 34.5078C100.013 34.6276 99.9688 34.7682 99.9688 34.9297C99.9688 35.0443 99.9948 35.1484 100.047 35.2422C100.104 35.3307 100.19 35.4141 100.305 35.4922C100.419 35.5651 100.565 35.6328 100.742 35.6953C100.919 35.7526 101.133 35.8047 101.383 35.8516C101.951 35.9557 102.482 36.1042 102.977 36.2969C103.471 36.4896 103.872 36.763 104.18 37.1172C104.492 37.4714 104.648 37.9479 104.648 38.5469C104.648 38.9219 104.562 39.2682 104.391 39.5859C104.219 39.8984 103.971 40.1745 103.648 40.4141C103.326 40.6484 102.938 40.8307 102.484 40.9609C102.031 41.0911 101.521 41.1562 100.953 41.1562C100.146 41.1562 99.4635 41.013 98.9062 40.7266C98.349 40.4349 97.9271 40.0703 97.6406 39.6328C97.3594 39.1901 97.2188 38.7422 97.2188 38.2891H99.6719C99.6823 38.5495 99.7448 38.763 99.8594 38.9297C99.9792 39.0964 100.138 39.2188 100.336 39.2969C100.534 39.375 100.763 39.4141 101.023 39.4141C101.263 39.4141 101.461 39.3802 101.617 39.3125C101.779 39.2448 101.901 39.1536 101.984 39.0391C102.068 38.9193 102.109 38.7812 102.109 38.625ZM110.273 38.875V35.3906C110.273 35.151 110.24 34.9453 110.172 34.7734C110.104 34.6016 109.997 34.4688 109.852 34.375C109.706 34.276 109.51 34.2266 109.266 34.2266C109.068 34.2266 108.898 34.2604 108.758 34.3281C108.617 34.3958 108.51 34.4974 108.438 34.6328C108.365 34.7682 108.328 34.9401 108.328 35.1484H105.695C105.695 34.7578 105.781 34.3958 105.953 34.0625C106.13 33.724 106.38 33.4297 106.703 33.1797C107.031 32.9297 107.422 32.737 107.875 32.6016C108.333 32.4609 108.844 32.3906 109.406 32.3906C110.078 32.3906 110.677 32.5026 111.203 32.7266C111.734 32.9505 112.154 33.2865 112.461 33.7344C112.768 34.1771 112.922 34.7344 112.922 35.4062V38.8672C112.922 39.4193 112.953 39.8385 113.016 40.125C113.078 40.4062 113.167 40.6536 113.281 40.8672V41H110.641C110.516 40.7396 110.422 40.4219 110.359 40.0469C110.302 39.6667 110.273 39.276 110.273 38.875ZM110.594 35.8359L110.609 37.2422H109.445C109.201 37.2422 108.992 37.276 108.82 37.3438C108.654 37.4115 108.518 37.5052 108.414 37.625C108.315 37.7396 108.242 37.8698 108.195 38.0156C108.154 38.1615 108.133 38.3151 108.133 38.4766C108.133 38.6328 108.169 38.7734 108.242 38.8984C108.32 39.0182 108.424 39.112 108.555 39.1797C108.685 39.2474 108.831 39.2812 108.992 39.2812C109.284 39.2812 109.531 39.2266 109.734 39.1172C109.943 39.0026 110.102 38.8646 110.211 38.7031C110.32 38.5417 110.375 38.3906 110.375 38.25L110.953 39.3281C110.849 39.5365 110.729 39.7474 110.594 39.9609C110.464 40.1745 110.299 40.3724 110.102 40.5547C109.909 40.7318 109.672 40.8776 109.391 40.9922C109.109 41.1016 108.768 41.1562 108.367 41.1562C107.846 41.1562 107.367 41.0495 106.93 40.8359C106.497 40.6224 106.151 40.3255 105.891 39.9453C105.63 39.5599 105.5 39.1172 105.5 38.6172C105.5 38.1797 105.578 37.7891 105.734 37.4453C105.896 37.1016 106.138 36.8099 106.461 36.5703C106.784 36.3307 107.195 36.1484 107.695 36.0234C108.195 35.8984 108.784 35.8359 109.461 35.8359H110.594ZM117.953 39.125C118.198 39.125 118.406 39.0807 118.578 38.9922C118.755 38.8984 118.888 38.7682 118.977 38.6016C119.07 38.4297 119.115 38.224 119.109 37.9844H121.586C121.591 38.6198 121.435 39.1771 121.117 39.6562C120.805 40.1302 120.378 40.5 119.836 40.7656C119.299 41.026 118.693 41.1562 118.016 41.1562C117.354 41.1562 116.776 41.0495 116.281 40.8359C115.786 40.6172 115.372 40.3151 115.039 39.9297C114.711 39.5391 114.464 39.0833 114.297 38.5625C114.135 38.0417 114.055 37.4766 114.055 36.8672V36.6875C114.055 36.0781 114.135 35.513 114.297 34.9922C114.464 34.4661 114.711 34.0104 115.039 33.625C115.372 33.2344 115.784 32.9323 116.273 32.7188C116.768 32.5 117.344 32.3906 118 32.3906C118.703 32.3906 119.323 32.5234 119.859 32.7891C120.401 33.0547 120.826 33.4401 121.133 33.9453C121.44 34.4505 121.591 35.0625 121.586 35.7812H119.109C119.115 35.526 119.076 35.2969 118.992 35.0938C118.909 34.8906 118.779 34.7292 118.602 34.6094C118.43 34.4844 118.208 34.4219 117.938 34.4219C117.667 34.4219 117.448 34.4818 117.281 34.6016C117.115 34.7214 116.987 34.888 116.898 35.1016C116.815 35.3099 116.758 35.5495 116.727 35.8203C116.701 36.0911 116.688 36.3802 116.688 36.6875V36.8672C116.688 37.1797 116.701 37.474 116.727 37.75C116.758 38.0208 116.818 38.2604 116.906 38.4688C116.995 38.6719 117.122 38.8333 117.289 38.9531C117.456 39.0677 117.677 39.125 117.953 39.125ZM127.164 32.5469V34.375H122.07V32.5469H127.164ZM123.141 30.4453H125.773V38.2422C125.773 38.4661 125.799 38.6406 125.852 38.7656C125.904 38.8854 125.992 38.9714 126.117 39.0234C126.247 39.0703 126.419 39.0938 126.633 39.0938C126.784 39.0938 126.909 39.0911 127.008 39.0859C127.107 39.0755 127.201 39.0625 127.289 39.0469V40.9297C127.065 41.0026 126.831 41.0573 126.586 41.0938C126.341 41.1354 126.081 41.1562 125.805 41.1562C125.242 41.1562 124.76 41.0677 124.359 40.8906C123.964 40.7135 123.661 40.4349 123.453 40.0547C123.245 39.6745 123.141 39.1797 123.141 38.5703V30.4453ZM130.992 32.5469V41H128.352V32.5469H130.992ZM128.195 30.3672C128.195 29.9922 128.331 29.6849 128.602 29.4453C128.872 29.2057 129.224 29.0859 129.656 29.0859C130.089 29.0859 130.44 29.2057 130.711 29.4453C130.982 29.6849 131.117 29.9922 131.117 30.3672C131.117 30.7422 130.982 31.0495 130.711 31.2891C130.44 31.5286 130.089 31.6484 129.656 31.6484C129.224 31.6484 128.872 31.5286 128.602 31.2891C128.331 31.0495 128.195 30.7422 128.195 30.3672ZM132.289 36.8594V36.6953C132.289 36.0755 132.378 35.5052 132.555 34.9844C132.732 34.4583 132.992 34.0026 133.336 33.6172C133.68 33.2318 134.104 32.9323 134.609 32.7188C135.115 32.5 135.698 32.3906 136.359 32.3906C137.026 32.3906 137.612 32.5 138.117 32.7188C138.628 32.9323 139.055 33.2318 139.398 33.6172C139.742 34.0026 140.003 34.4583 140.18 34.9844C140.357 35.5052 140.445 36.0755 140.445 36.6953V36.8594C140.445 37.474 140.357 38.0443 140.18 38.5703C140.003 39.0911 139.742 39.5469 139.398 39.9375C139.055 40.3229 138.63 40.6224 138.125 40.8359C137.62 41.0495 137.036 41.1562 136.375 41.1562C135.714 41.1562 135.128 41.0495 134.617 40.8359C134.107 40.6224 133.68 40.3229 133.336 39.9375C132.992 39.5469 132.732 39.0911 132.555 38.5703C132.378 38.0443 132.289 37.474 132.289 36.8594ZM134.922 36.6953V36.8594C134.922 37.1771 134.945 37.474 134.992 37.75C135.039 38.026 135.117 38.2682 135.227 38.4766C135.336 38.6797 135.484 38.8385 135.672 38.9531C135.859 39.0677 136.094 39.125 136.375 39.125C136.651 39.125 136.88 39.0677 137.062 38.9531C137.25 38.8385 137.398 38.6797 137.508 38.4766C137.617 38.2682 137.695 38.026 137.742 37.75C137.789 37.474 137.812 37.1771 137.812 36.8594V36.6953C137.812 36.388 137.789 36.099 137.742 35.8281C137.695 35.5521 137.617 35.3099 137.508 35.1016C137.398 34.888 137.25 34.7214 137.062 34.6016C136.875 34.4818 136.641 34.4219 136.359 34.4219C136.083 34.4219 135.852 34.4818 135.664 34.6016C135.482 34.7214 135.336 34.888 135.227 35.1016C135.117 35.3099 135.039 35.5521 134.992 35.8281C134.945 36.099 134.922 36.388 134.922 36.6953ZM144.203 34.3516V41H141.57V32.5469H144.039L144.203 34.3516ZM143.891 36.4844L143.273 36.5C143.273 35.8542 143.352 35.2786 143.508 34.7734C143.664 34.263 143.885 33.8307 144.172 33.4766C144.458 33.1224 144.799 32.8542 145.195 32.6719C145.596 32.4844 146.042 32.3906 146.531 32.3906C146.922 32.3906 147.279 32.4479 147.602 32.5625C147.93 32.6771 148.211 32.862 148.445 33.1172C148.685 33.3724 148.867 33.7109 148.992 34.1328C149.122 34.5495 149.188 35.0651 149.188 35.6797V41H146.539V35.6719C146.539 35.3333 146.492 35.0755 146.398 34.8984C146.305 34.7161 146.169 34.5911 145.992 34.5234C145.815 34.4557 145.599 34.4219 145.344 34.4219C145.073 34.4219 144.844 34.474 144.656 34.5781C144.469 34.6823 144.318 34.8281 144.203 35.0156C144.094 35.1979 144.013 35.4141 143.961 35.6641C143.914 35.9141 143.891 36.1875 143.891 36.4844ZM157.5 29.625V41H154.758V29.625H157.5ZM161.922 34.3594V36.4688H156.719V34.3594H161.922ZM162.367 29.625V31.7422H156.719V29.625H162.367ZM167.508 38.875V35.3906C167.508 35.151 167.474 34.9453 167.406 34.7734C167.339 34.6016 167.232 34.4688 167.086 34.375C166.94 34.276 166.745 34.2266 166.5 34.2266C166.302 34.2266 166.133 34.2604 165.992 34.3281C165.852 34.3958 165.745 34.4974 165.672 34.6328C165.599 34.7682 165.562 34.9401 165.562 35.1484H162.93C162.93 34.7578 163.016 34.3958 163.188 34.0625C163.365 33.724 163.615 33.4297 163.938 33.1797C164.266 32.9297 164.656 32.737 165.109 32.6016C165.568 32.4609 166.078 32.3906 166.641 32.3906C167.312 32.3906 167.911 32.5026 168.438 32.7266C168.969 32.9505 169.388 33.2865 169.695 33.7344C170.003 34.1771 170.156 34.7344 170.156 35.4062V38.8672C170.156 39.4193 170.188 39.8385 170.25 40.125C170.312 40.4062 170.401 40.6536 170.516 40.8672V41H167.875C167.75 40.7396 167.656 40.4219 167.594 40.0469C167.536 39.6667 167.508 39.276 167.508 38.875ZM167.828 35.8359L167.844 37.2422H166.68C166.435 37.2422 166.227 37.276 166.055 37.3438C165.888 37.4115 165.753 37.5052 165.648 37.625C165.549 37.7396 165.477 37.8698 165.43 38.0156C165.388 38.1615 165.367 38.3151 165.367 38.4766C165.367 38.6328 165.404 38.7734 165.477 38.8984C165.555 39.0182 165.659 39.112 165.789 39.1797C165.919 39.2474 166.065 39.2812 166.227 39.2812C166.518 39.2812 166.766 39.2266 166.969 39.1172C167.177 39.0026 167.336 38.8646 167.445 38.7031C167.555 38.5417 167.609 38.3906 167.609 38.25L168.188 39.3281C168.083 39.5365 167.964 39.7474 167.828 39.9609C167.698 40.1745 167.534 40.3724 167.336 40.5547C167.143 40.7318 166.906 40.8776 166.625 40.9922C166.344 41.1016 166.003 41.1562 165.602 41.1562C165.081 41.1562 164.602 41.0495 164.164 40.8359C163.732 40.6224 163.385 40.3255 163.125 39.9453C162.865 39.5599 162.734 39.1172 162.734 38.6172C162.734 38.1797 162.812 37.7891 162.969 37.4453C163.13 37.1016 163.372 36.8099 163.695 36.5703C164.018 36.3307 164.43 36.1484 164.93 36.0234C165.43 35.8984 166.018 35.8359 166.695 35.8359H167.828ZM174.398 32.5469V41H171.758V32.5469H174.398ZM171.602 30.3672C171.602 29.9922 171.737 29.6849 172.008 29.4453C172.279 29.2057 172.63 29.0859 173.062 29.0859C173.495 29.0859 173.846 29.2057 174.117 29.4453C174.388 29.6849 174.523 29.9922 174.523 30.3672C174.523 30.7422 174.388 31.0495 174.117 31.2891C173.846 31.5286 173.495 31.6484 173.062 31.6484C172.63 31.6484 172.279 31.5286 172.008 31.2891C171.737 31.0495 171.602 30.7422 171.602 30.3672ZM178.805 29V41H176.164V29H178.805ZM184.523 41.1562C183.836 41.1562 183.221 41.0495 182.68 40.8359C182.138 40.6172 181.68 40.3177 181.305 39.9375C180.935 39.5573 180.651 39.1198 180.453 38.625C180.26 38.1302 180.164 37.6068 180.164 37.0547V36.7578C180.164 36.138 180.25 35.5651 180.422 35.0391C180.594 34.5078 180.849 34.0443 181.188 33.6484C181.526 33.2526 181.951 32.9453 182.461 32.7266C182.971 32.5026 183.565 32.3906 184.242 32.3906C184.841 32.3906 185.378 32.487 185.852 32.6797C186.326 32.8724 186.727 33.1484 187.055 33.5078C187.388 33.8672 187.641 34.3021 187.812 34.8125C187.99 35.3229 188.078 35.8958 188.078 36.5312V37.6016H181.172V35.9531H185.508V35.75C185.513 35.4688 185.464 35.2292 185.359 35.0312C185.26 34.8333 185.115 34.6823 184.922 34.5781C184.729 34.474 184.495 34.4219 184.219 34.4219C183.932 34.4219 183.695 34.4844 183.508 34.6094C183.326 34.7344 183.182 34.9062 183.078 35.125C182.979 35.3385 182.909 35.5859 182.867 35.8672C182.826 36.1484 182.805 36.4453 182.805 36.7578V37.0547C182.805 37.3672 182.846 37.651 182.93 37.9062C183.018 38.1615 183.143 38.3802 183.305 38.5625C183.471 38.7396 183.669 38.8776 183.898 38.9766C184.133 39.0755 184.398 39.125 184.695 39.125C185.055 39.125 185.409 39.0573 185.758 38.9219C186.107 38.7865 186.406 38.5625 186.656 38.25L187.852 39.6719C187.68 39.9167 187.435 40.1536 187.117 40.3828C186.805 40.612 186.43 40.7995 185.992 40.9453C185.555 41.0859 185.065 41.1562 184.523 41.1562ZM194.008 39.0625V29H196.656V41H194.281L194.008 39.0625ZM188.82 36.875V36.7109C188.82 36.0703 188.891 35.487 189.031 34.9609C189.172 34.4297 189.38 33.974 189.656 33.5938C189.932 33.2083 190.276 32.9115 190.688 32.7031C191.099 32.4948 191.573 32.3906 192.109 32.3906C192.589 32.3906 193.008 32.5026 193.367 32.7266C193.727 32.9453 194.034 33.2526 194.289 33.6484C194.544 34.0443 194.753 34.5078 194.914 35.0391C195.076 35.5651 195.198 36.1328 195.281 36.7422V36.9375C195.198 37.5104 195.076 38.0521 194.914 38.5625C194.753 39.0677 194.544 39.5156 194.289 39.9062C194.034 40.2969 193.724 40.6042 193.359 40.8281C193 41.0469 192.578 41.1562 192.094 41.1562C191.557 41.1562 191.083 41.0495 190.672 40.8359C190.266 40.6224 189.924 40.3229 189.648 39.9375C189.378 39.5521 189.172 39.099 189.031 38.5781C188.891 38.0573 188.82 37.4896 188.82 36.875ZM191.453 36.7109V36.875C191.453 37.1927 191.474 37.487 191.516 37.7578C191.557 38.0286 191.628 38.2682 191.727 38.4766C191.831 38.6797 191.966 38.8385 192.133 38.9531C192.305 39.0677 192.516 39.125 192.766 39.125C193.104 39.125 193.383 39.0443 193.602 38.8828C193.826 38.7214 193.99 38.4922 194.094 38.1953C194.203 37.8984 194.25 37.5495 194.234 37.1484V36.5312C194.245 36.1875 194.221 35.8854 194.164 35.625C194.107 35.3594 194.016 35.138 193.891 34.9609C193.771 34.7839 193.617 34.651 193.43 34.5625C193.247 34.4688 193.031 34.4219 192.781 34.4219C192.536 34.4219 192.328 34.4792 192.156 34.5938C191.99 34.7083 191.854 34.8698 191.75 35.0781C191.646 35.2812 191.57 35.5234 191.523 35.8047C191.477 36.0807 191.453 36.3828 191.453 36.7109Z" fill="#FF0A12"/>
<path d="M70.516 57.084C70.516 57.78 70.276 58.36 69.796 58.824C69.324 59.28 68.6 59.508 67.624 59.508H66.016V63H64.924V54.636H67.624C68.568 54.636 69.284 54.864 69.772 55.32C70.268 55.776 70.516 56.364 70.516 57.084ZM67.624 58.608C68.232 58.608 68.68 58.476 68.968 58.212C69.256 57.948 69.4 57.572 69.4 57.084C69.4 56.052 68.808 55.536 67.624 55.536H66.016V58.608H67.624ZM72.9652 54.12V63H71.8732V54.12H72.9652ZM80.8263 59.46C80.8263 59.668 80.8143 59.888 80.7903 60.12H75.5343C75.5743 60.768 75.7943 61.276 76.1943 61.644C76.6023 62.004 77.0943 62.184 77.6703 62.184C78.1423 62.184 78.5343 62.076 78.8463 61.86C79.1663 61.636 79.3903 61.34 79.5183 60.972H80.6943C80.5183 61.604 80.1663 62.12 79.6383 62.52C79.1103 62.912 78.4543 63.108 77.6703 63.108C77.0463 63.108 76.4863 62.968 75.9903 62.688C75.5023 62.408 75.1183 62.012 74.8383 61.5C74.5583 60.98 74.4183 60.38 74.4183 59.7C74.4183 59.02 74.5543 58.424 74.8263 57.912C75.0983 57.4 75.4783 57.008 75.9663 56.736C76.4623 56.456 77.0303 56.316 77.6703 56.316C78.2943 56.316 78.8463 56.452 79.3263 56.724C79.8063 56.996 80.1743 57.372 80.4303 57.852C80.6943 58.324 80.8263 58.86 80.8263 59.46ZM79.6983 59.232C79.6983 58.816 79.6063 58.46 79.4223 58.164C79.2383 57.86 78.9863 57.632 78.6663 57.48C78.3543 57.32 78.0063 57.24 77.6223 57.24C77.0703 57.24 76.5983 57.416 76.2063 57.768C75.8223 58.12 75.6023 58.608 75.5463 59.232H79.6983ZM81.8598 59.688C81.8598 59.016 81.9958 58.428 82.2678 57.924C82.5398 57.412 82.9118 57.016 83.3838 56.736C83.8638 56.456 84.3958 56.316 84.9798 56.316C85.5558 56.316 86.0558 56.44 86.4798 56.688C86.9038 56.936 87.2198 57.248 87.4278 57.624V56.424H88.5318V63H87.4278V61.776C87.2118 62.16 86.8878 62.48 86.4558 62.736C86.0318 62.984 85.5358 63.108 84.9678 63.108C84.3838 63.108 83.8558 62.964 83.3838 62.676C82.9118 62.388 82.5398 61.984 82.2678 61.464C81.9958 60.944 81.8598 60.352 81.8598 59.688ZM87.4278 59.7C87.4278 59.204 87.3278 58.772 87.1278 58.404C86.9278 58.036 86.6558 57.756 86.3118 57.564C85.9758 57.364 85.6038 57.264 85.1958 57.264C84.7878 57.264 84.4158 57.36 84.0798 57.552C83.7438 57.744 83.4758 58.024 83.2758 58.392C83.0758 58.76 82.9758 59.192 82.9758 59.688C82.9758 60.192 83.0758 60.632 83.2758 61.008C83.4758 61.376 83.7438 61.66 84.0798 61.86C84.4158 62.052 84.7878 62.148 85.1958 62.148C85.6038 62.148 85.9758 62.052 86.3118 61.86C86.6558 61.66 86.9278 61.376 87.1278 61.008C87.3278 60.632 87.4278 60.196 87.4278 59.7ZM92.7051 63.108C92.2011 63.108 91.7491 63.024 91.3491 62.856C90.9491 62.68 90.6331 62.44 90.4011 62.136C90.1691 61.824 90.0411 61.468 90.0171 61.068H91.1451C91.1771 61.396 91.3291 61.664 91.6011 61.872C91.8811 62.08 92.2451 62.184 92.6931 62.184C93.1091 62.184 93.4371 62.092 93.6771 61.908C93.9171 61.724 94.0371 61.492 94.0371 61.212C94.0371 60.924 93.9091 60.712 93.6531 60.576C93.3971 60.432 93.0011 60.292 92.4651 60.156C91.9771 60.028 91.5771 59.9 91.2651 59.772C90.9611 59.636 90.6971 59.44 90.4731 59.184C90.2571 58.92 90.1491 58.576 90.1491 58.152C90.1491 57.816 90.2491 57.508 90.4491 57.228C90.6491 56.948 90.9331 56.728 91.3011 56.568C91.6691 56.4 92.0891 56.316 92.5611 56.316C93.2891 56.316 93.8771 56.5 94.3251 56.868C94.7731 57.236 95.0131 57.74 95.0451 58.38H93.9531C93.9291 58.036 93.7891 57.76 93.5331 57.552C93.2851 57.344 92.9491 57.24 92.5251 57.24C92.1331 57.24 91.8211 57.324 91.5891 57.492C91.3571 57.66 91.2411 57.88 91.2411 58.152C91.2411 58.368 91.3091 58.548 91.4451 58.692C91.5891 58.828 91.7651 58.94 91.9731 59.028C92.1891 59.108 92.4851 59.2 92.8611 59.304C93.3331 59.432 93.7171 59.56 94.0131 59.688C94.3091 59.808 94.5611 59.992 94.7691 60.24C94.9851 60.488 95.0971 60.812 95.1051 61.212C95.1051 61.572 95.0051 61.896 94.8051 62.184C94.6051 62.472 94.3211 62.7 93.9531 62.868C93.5931 63.028 93.1771 63.108 92.7051 63.108ZM102.647 59.46C102.647 59.668 102.635 59.888 102.611 60.12H97.3547C97.3947 60.768 97.6147 61.276 98.0147 61.644C98.4227 62.004 98.9147 62.184 99.4907 62.184C99.9627 62.184 100.355 62.076 100.667 61.86C100.987 61.636 101.211 61.34 101.339 60.972H102.515C102.339 61.604 101.987 62.12 101.459 62.52C100.931 62.912 100.275 63.108 99.4907 63.108C98.8667 63.108 98.3067 62.968 97.8107 62.688C97.3227 62.408 96.9387 62.012 96.6587 61.5C96.3787 60.98 96.2387 60.38 96.2387 59.7C96.2387 59.02 96.3747 58.424 96.6467 57.912C96.9187 57.4 97.2987 57.008 97.7867 56.736C98.2827 56.456 98.8507 56.316 99.4907 56.316C100.115 56.316 100.667 56.452 101.147 56.724C101.627 56.996 101.995 57.372 102.251 57.852C102.515 58.324 102.647 58.86 102.647 59.46ZM101.519 59.232C101.519 58.816 101.427 58.46 101.243 58.164C101.059 57.86 100.807 57.632 100.487 57.48C100.175 57.32 99.8267 57.24 99.4427 57.24C98.8907 57.24 98.4187 57.416 98.0267 57.768C97.6427 58.12 97.4227 58.608 97.3667 59.232H101.519ZM108.619 57.324V61.2C108.619 61.52 108.687 61.748 108.823 61.884C108.959 62.012 109.195 62.076 109.531 62.076H110.335V63H109.351C108.743 63 108.287 62.86 107.983 62.58C107.679 62.3 107.527 61.84 107.527 61.2V57.324H106.675V56.424H107.527V54.768H108.619V56.424H110.335V57.324H108.619ZM112.75 57.492C112.942 57.116 113.214 56.824 113.566 56.616C113.926 56.408 114.362 56.304 114.874 56.304V57.432H114.586C113.362 57.432 112.75 58.096 112.75 59.424V63H111.658V56.424H112.75V57.492ZM121.799 56.424L117.839 66.096H116.711L118.007 62.928L115.355 56.424H116.567L118.631 61.752L120.671 56.424H121.799ZM125.688 59.688C125.688 59.016 125.824 58.428 126.096 57.924C126.368 57.412 126.74 57.016 127.212 56.736C127.692 56.456 128.224 56.316 128.808 56.316C129.384 56.316 129.884 56.44 130.308 56.688C130.732 56.936 131.048 57.248 131.256 57.624V56.424H132.36V63H131.256V61.776C131.04 62.16 130.716 62.48 130.284 62.736C129.86 62.984 129.364 63.108 128.796 63.108C128.212 63.108 127.684 62.964 127.212 62.676C126.74 62.388 126.368 61.984 126.096 61.464C125.824 60.944 125.688 60.352 125.688 59.688ZM131.256 59.7C131.256 59.204 131.156 58.772 130.956 58.404C130.756 58.036 130.484 57.756 130.14 57.564C129.804 57.364 129.432 57.264 129.024 57.264C128.616 57.264 128.244 57.36 127.908 57.552C127.572 57.744 127.304 58.024 127.104 58.392C126.904 58.76 126.804 59.192 126.804 59.688C126.804 60.192 126.904 60.632 127.104 61.008C127.304 61.376 127.572 61.66 127.908 61.86C128.244 62.052 128.616 62.148 129.024 62.148C129.432 62.148 129.804 62.052 130.14 61.86C130.484 61.66 130.756 61.376 130.956 61.008C131.156 60.632 131.256 60.196 131.256 59.7ZM136.917 56.316C137.485 56.316 137.981 56.44 138.405 56.688C138.837 56.936 139.157 57.248 139.365 57.624V56.424H140.469V63.144C140.469 63.744 140.341 64.276 140.085 64.74C139.829 65.212 139.461 65.58 138.981 65.844C138.509 66.108 137.957 66.24 137.325 66.24C136.461 66.24 135.741 66.036 135.165 65.628C134.589 65.22 134.249 64.664 134.145 63.96H135.225C135.345 64.36 135.593 64.68 135.969 64.92C136.345 65.168 136.797 65.292 137.325 65.292C137.925 65.292 138.413 65.104 138.789 64.728C139.173 64.352 139.365 63.824 139.365 63.144V61.764C139.149 62.148 138.829 62.468 138.405 62.724C137.981 62.98 137.485 63.108 136.917 63.108C136.333 63.108 135.801 62.964 135.321 62.676C134.849 62.388 134.477 61.984 134.205 61.464C133.933 60.944 133.797 60.352 133.797 59.688C133.797 59.016 133.933 58.428 134.205 57.924C134.477 57.412 134.849 57.016 135.321 56.736C135.801 56.456 136.333 56.316 136.917 56.316ZM139.365 59.7C139.365 59.204 139.265 58.772 139.065 58.404C138.865 58.036 138.593 57.756 138.249 57.564C137.913 57.364 137.541 57.264 137.133 57.264C136.725 57.264 136.353 57.36 136.017 57.552C135.681 57.744 135.413 58.024 135.213 58.392C135.013 58.76 134.913 59.192 134.913 59.688C134.913 60.192 135.013 60.632 135.213 61.008C135.413 61.376 135.681 61.66 136.017 61.86C136.353 62.052 136.725 62.148 137.133 62.148C137.541 62.148 137.913 62.052 138.249 61.86C138.593 61.66 138.865 61.376 139.065 61.008C139.265 60.632 139.365 60.196 139.365 59.7ZM141.907 59.688C141.907 59.016 142.043 58.428 142.315 57.924C142.587 57.412 142.959 57.016 143.431 56.736C143.911 56.456 144.443 56.316 145.027 56.316C145.603 56.316 146.103 56.44 146.527 56.688C146.951 56.936 147.267 57.248 147.475 57.624V56.424H148.579V63H147.475V61.776C147.259 62.16 146.935 62.48 146.503 62.736C146.079 62.984 145.583 63.108 145.015 63.108C144.431 63.108 143.903 62.964 143.431 62.676C142.959 62.388 142.587 61.984 142.315 61.464C142.043 60.944 141.907 60.352 141.907 59.688ZM147.475 59.7C147.475 59.204 147.375 58.772 147.175 58.404C146.975 58.036 146.703 57.756 146.359 57.564C146.023 57.364 145.651 57.264 145.243 57.264C144.835 57.264 144.463 57.36 144.127 57.552C143.791 57.744 143.523 58.024 143.323 58.392C143.123 58.76 143.023 59.192 143.023 59.688C143.023 60.192 143.123 60.632 143.323 61.008C143.523 61.376 143.791 61.66 144.127 61.86C144.463 62.052 144.835 62.148 145.243 62.148C145.651 62.148 146.023 62.052 146.359 61.86C146.703 61.66 146.975 61.376 147.175 61.008C147.375 60.632 147.475 60.196 147.475 59.7ZM150.988 55.356C150.78 55.356 150.604 55.284 150.46 55.14C150.316 54.996 150.244 54.82 150.244 54.612C150.244 54.404 150.316 54.228 150.46 54.084C150.604 53.94 150.78 53.868 150.988 53.868C151.188 53.868 151.356 53.94 151.492 54.084C151.636 54.228 151.708 54.404 151.708 54.612C151.708 54.82 151.636 54.996 151.492 55.14C151.356 55.284 151.188 55.356 150.988 55.356ZM151.516 56.424V63H150.424V56.424H151.516ZM156.581 56.304C157.381 56.304 158.029 56.548 158.525 57.036C159.021 57.516 159.269 58.212 159.269 59.124V63H158.189V59.28C158.189 58.624 158.025 58.124 157.697 57.78C157.369 57.428 156.921 57.252 156.353 57.252C155.777 57.252 155.317 57.432 154.973 57.792C154.637 58.152 154.469 58.676 154.469 59.364V63H153.377V56.424H154.469V57.36C154.685 57.024 154.977 56.764 155.345 56.58C155.721 56.396 156.133 56.304 156.581 56.304ZM161.401 63.072C161.193 63.072 161.017 63 160.873 62.856C160.729 62.712 160.657 62.536 160.657 62.328C160.657 62.12 160.729 61.944 160.873 61.8C161.017 61.656 161.193 61.584 161.401 61.584C161.601 61.584 161.769 61.656 161.905 61.8C162.049 61.944 162.121 62.12 162.121 62.328C162.121 62.536 162.049 62.712 161.905 62.856C161.769 63 161.601 63.072 161.401 63.072Z" fill="#FF0A12"/>
</svg>
