<svg width="279" height="38" viewBox="0 0 279 38" fill="none" xmlns="http://www.w3.org/2000/svg">
<rect x="1.04965" y="1.04965" width="276.901" height="35.9007" rx="9.44689" fill="url(#paint0_linear_3652_225672)" stroke="url(#paint1_linear_3652_225672)" stroke-width="2.09931"/>
<path d="M112.502 13.848V15.032H109.462V25H108.006V15.032H104.95V13.848H112.502ZM115.751 17.656C116.007 17.1547 116.369 16.7653 116.839 16.488C117.319 16.2107 117.9 16.072 118.583 16.072V17.576H118.199C116.567 17.576 115.751 18.4613 115.751 20.232V25H114.295V16.232H115.751V17.656ZM119.719 20.584C119.719 19.688 119.901 18.904 120.263 18.232C120.626 17.5493 121.122 17.0213 121.751 16.648C122.391 16.2747 123.101 16.088 123.879 16.088C124.647 16.088 125.314 16.2533 125.879 16.584C126.445 16.9147 126.866 17.3307 127.143 17.832V16.232H128.615V25H127.143V23.368C126.855 23.88 126.423 24.3067 125.847 24.648C125.282 24.9787 124.621 25.144 123.863 25.144C123.085 25.144 122.381 24.952 121.751 24.568C121.122 24.184 120.626 23.6453 120.263 22.952C119.901 22.2587 119.719 21.4693 119.719 20.584ZM127.143 20.6C127.143 19.9387 127.01 19.3627 126.743 18.872C126.477 18.3813 126.114 18.008 125.655 17.752C125.207 17.4853 124.711 17.352 124.167 17.352C123.623 17.352 123.127 17.48 122.679 17.736C122.231 17.992 121.874 18.3653 121.607 18.856C121.341 19.3467 121.207 19.9227 121.207 20.584C121.207 21.256 121.341 21.8427 121.607 22.344C121.874 22.8347 122.231 23.2133 122.679 23.48C123.127 23.736 123.623 23.864 124.167 23.864C124.711 23.864 125.207 23.736 125.655 23.48C126.114 23.2133 126.477 22.8347 126.743 22.344C127.01 21.8427 127.143 21.2613 127.143 20.6ZM135.348 16.072C136.414 16.072 137.278 16.3973 137.94 17.048C138.601 17.688 138.932 18.616 138.932 19.832V25H137.492V20.04C137.492 19.1653 137.273 18.4987 136.836 18.04C136.398 17.5707 135.801 17.336 135.044 17.336C134.276 17.336 133.662 17.576 133.204 18.056C132.756 18.536 132.532 19.2347 132.532 20.152V25H131.076V16.232H132.532V17.48C132.82 17.032 133.209 16.6853 133.7 16.44C134.201 16.1947 134.75 16.072 135.348 16.072ZM144.414 25.144C143.742 25.144 143.139 25.032 142.606 24.808C142.073 24.5733 141.651 24.2533 141.342 23.848C141.033 23.432 140.862 22.9573 140.83 22.424H142.334C142.377 22.8613 142.579 23.2187 142.942 23.496C143.315 23.7733 143.801 23.912 144.398 23.912C144.953 23.912 145.39 23.7893 145.71 23.544C146.03 23.2987 146.19 22.9893 146.19 22.616C146.19 22.232 146.019 21.9493 145.678 21.768C145.337 21.576 144.809 21.3893 144.094 21.208C143.443 21.0373 142.91 20.8667 142.494 20.696C142.089 20.5147 141.737 20.2533 141.438 19.912C141.15 19.56 141.006 19.1013 141.006 18.536C141.006 18.088 141.139 17.6773 141.406 17.304C141.673 16.9307 142.051 16.6373 142.542 16.424C143.033 16.2 143.593 16.088 144.222 16.088C145.193 16.088 145.977 16.3333 146.574 16.824C147.171 17.3147 147.491 17.9867 147.534 18.84H146.078C146.046 18.3813 145.859 18.0133 145.518 17.736C145.187 17.4587 144.739 17.32 144.174 17.32C143.651 17.32 143.235 17.432 142.926 17.656C142.617 17.88 142.462 18.1733 142.462 18.536C142.462 18.824 142.553 19.064 142.734 19.256C142.926 19.4373 143.161 19.5867 143.438 19.704C143.726 19.8107 144.121 19.9333 144.622 20.072C145.251 20.2427 145.763 20.4133 146.158 20.584C146.553 20.744 146.889 20.9893 147.166 21.32C147.454 21.6507 147.603 22.0827 147.614 22.616C147.614 23.096 147.481 23.528 147.214 23.912C146.947 24.296 146.569 24.6 146.078 24.824C145.598 25.0373 145.043 25.144 144.414 25.144ZM153.238 17.432H151.398V25H149.942V17.432H148.806V16.232H149.942V15.608C149.942 14.6267 150.192 13.912 150.694 13.464C151.206 13.0053 152.022 12.776 153.141 12.776V13.992C152.502 13.992 152.048 14.12 151.782 14.376C151.526 14.6213 151.398 15.032 151.398 15.608V16.232H153.238V17.432ZM162.935 20.28C162.935 20.5573 162.919 20.8507 162.887 21.16H155.879C155.932 22.024 156.226 22.7013 156.759 23.192C157.303 23.672 157.959 23.912 158.727 23.912C159.356 23.912 159.879 23.768 160.295 23.48C160.722 23.1813 161.02 22.7867 161.191 22.296H162.759C162.524 23.1387 162.055 23.8267 161.351 24.36C160.647 24.8827 159.772 25.144 158.727 25.144C157.895 25.144 157.148 24.9573 156.487 24.584C155.836 24.2107 155.324 23.6827 154.951 23C154.578 22.3067 154.391 21.5067 154.391 20.6C154.391 19.6933 154.572 18.8987 154.935 18.216C155.298 17.5333 155.804 17.0107 156.455 16.648C157.116 16.2747 157.874 16.088 158.727 16.088C159.559 16.088 160.295 16.2693 160.935 16.632C161.575 16.9947 162.066 17.496 162.407 18.136C162.759 18.7653 162.935 19.48 162.935 20.28ZM161.431 19.976C161.431 19.4213 161.308 18.9467 161.063 18.552C160.818 18.1467 160.482 17.8427 160.055 17.64C159.639 17.4267 159.175 17.32 158.663 17.32C157.927 17.32 157.298 17.5547 156.775 18.024C156.263 18.4933 155.97 19.144 155.895 19.976H161.431ZM166.313 17.656C166.569 17.1547 166.932 16.7653 167.401 16.488C167.881 16.2107 168.462 16.072 169.145 16.072V17.576H168.761C167.129 17.576 166.313 18.4613 166.313 20.232V25H164.857V16.232H166.313V17.656Z" fill="white"/>
<defs>
<linearGradient id="paint0_linear_3652_225672" x1="-49.5225" y1="17.5605" x2="296.354" y2="23.9604" gradientUnits="userSpaceOnUse">
<stop stop-color="#6400FF" stop-opacity="0.88"/>
<stop offset="0.523958" stop-color="#874691" stop-opacity="0.86"/>
<stop offset="1" stop-color="#FF03F5" stop-opacity="0.67"/>
</linearGradient>
<linearGradient id="paint1_linear_3652_225672" x1="0" y1="19" x2="286.208" y2="19" gradientUnits="userSpaceOnUse">
<stop stop-color="#131BB0"/>
<stop offset="0.482292" stop-color="#B84C93"/>
<stop offset="1" stop-color="#FF00F5"/>
<stop offset="1" stop-color="#DB34CA"/>
</linearGradient>
</defs>
</svg>
