<svg width="368" height="93" viewBox="0 0 368 93" fill="none" xmlns="http://www.w3.org/2000/svg">
<rect width="368" height="93" rx="8" fill="#FF0000" fill-opacity="0.15"/>
<path fill-rule="evenodd" clip-rule="evenodd" d="M39.9993 57.168C45.8904 57.168 50.666 52.3923 50.666 46.5013C50.666 40.6103 45.8904 35.8346 39.9993 35.8346C34.1083 35.8346 29.3327 40.6103 29.3327 46.5013C29.3327 52.3923 34.1083 57.168 39.9993 57.168ZM39.9993 59.8346C47.3631 59.8346 53.3327 53.8651 53.3327 46.5013C53.3327 39.1375 47.3631 33.168 39.9993 33.168C32.6356 33.168 26.666 39.1375 26.666 46.5013C26.666 53.8651 32.6356 59.8346 39.9993 59.8346Z" fill="#FF0A12"/>
<path fill-rule="evenodd" clip-rule="evenodd" d="M39.9993 39.832C39.263 39.832 38.666 40.429 38.666 41.1654C38.666 41.9017 39.263 42.4987 39.9993 42.4987C40.7357 42.4987 41.3327 41.9017 41.3327 41.1654C41.3327 40.429 40.7357 39.832 39.9993 39.832ZM39.9993 45.1654C39.263 45.1654 38.666 45.7623 38.666 46.4987V51.832C38.666 52.5684 39.263 53.1654 39.9993 53.1654C40.7357 53.1654 41.3327 52.5684 41.3327 51.832V46.4987C41.3327 45.7623 40.7357 45.1654 39.9993 45.1654Z" fill="#FF0A12"/>
<path d="M70.375 29.625V41H67.6328V29.625H70.375ZM73.7969 29.625V31.7422H64.2891V29.625H73.7969ZM76.9766 34.6406V41H74.3438V32.5469H76.8047L76.9766 34.6406ZM79.4766 32.4844L79.4297 34.9297C79.3255 34.9193 79.1849 34.9062 79.0078 34.8906C78.8307 34.875 78.6823 34.8672 78.5625 34.8672C78.2552 34.8672 77.9896 34.9036 77.7656 34.9766C77.5469 35.0443 77.3646 35.1484 77.2188 35.2891C77.0781 35.4245 76.974 35.5964 76.9062 35.8047C76.8438 36.013 76.8151 36.2552 76.8203 36.5312L76.3438 36.2188C76.3438 35.651 76.3984 35.1354 76.5078 34.6719C76.6224 34.2031 76.7839 33.7995 76.9922 33.4609C77.2005 33.1172 77.4531 32.8542 77.75 32.6719C78.0469 32.4844 78.3802 32.3906 78.75 32.3906C78.8802 32.3906 79.0078 32.3984 79.1328 32.4141C79.263 32.4297 79.3776 32.4531 79.4766 32.4844ZM84.5391 38.875V35.3906C84.5391 35.151 84.5052 34.9453 84.4375 34.7734C84.3698 34.6016 84.263 34.4688 84.1172 34.375C83.9714 34.276 83.776 34.2266 83.5312 34.2266C83.3333 34.2266 83.1641 34.2604 83.0234 34.3281C82.8828 34.3958 82.776 34.4974 82.7031 34.6328C82.6302 34.7682 82.5938 34.9401 82.5938 35.1484H79.9609C79.9609 34.7578 80.0469 34.3958 80.2188 34.0625C80.3958 33.724 80.6458 33.4297 80.9688 33.1797C81.2969 32.9297 81.6875 32.737 82.1406 32.6016C82.599 32.4609 83.1094 32.3906 83.6719 32.3906C84.3438 32.3906 84.9427 32.5026 85.4688 32.7266C86 32.9505 86.4193 33.2865 86.7266 33.7344C87.0339 34.1771 87.1875 34.7344 87.1875 35.4062V38.8672C87.1875 39.4193 87.2188 39.8385 87.2812 40.125C87.3438 40.4062 87.4323 40.6536 87.5469 40.8672V41H84.9062C84.7812 40.7396 84.6875 40.4219 84.625 40.0469C84.5677 39.6667 84.5391 39.276 84.5391 38.875ZM84.8594 35.8359L84.875 37.2422H83.7109C83.4661 37.2422 83.2578 37.276 83.0859 37.3438C82.9193 37.4115 82.7839 37.5052 82.6797 37.625C82.5807 37.7396 82.5078 37.8698 82.4609 38.0156C82.4193 38.1615 82.3984 38.3151 82.3984 38.4766C82.3984 38.6328 82.4349 38.7734 82.5078 38.8984C82.5859 39.0182 82.6901 39.112 82.8203 39.1797C82.9505 39.2474 83.0964 39.2812 83.2578 39.2812C83.5495 39.2812 83.7969 39.2266 84 39.1172C84.2083 39.0026 84.3672 38.8646 84.4766 38.7031C84.5859 38.5417 84.6406 38.3906 84.6406 38.25L85.2188 39.3281C85.1146 39.5365 84.9948 39.7474 84.8594 39.9609C84.7292 40.1745 84.5651 40.3724 84.3672 40.5547C84.1745 40.7318 83.9375 40.8776 83.6562 40.9922C83.375 41.1016 83.0339 41.1562 82.6328 41.1562C82.112 41.1562 81.6328 41.0495 81.1953 40.8359C80.763 40.6224 80.4167 40.3255 80.1562 39.9453C79.8958 39.5599 79.7656 39.1172 79.7656 38.6172C79.7656 38.1797 79.8438 37.7891 80 37.4453C80.1615 37.1016 80.4036 36.8099 80.7266 36.5703C81.0495 36.3307 81.4609 36.1484 81.9609 36.0234C82.4609 35.8984 83.0495 35.8359 83.7266 35.8359H84.8594ZM91.2344 34.3516V41H88.6016V32.5469H91.0703L91.2344 34.3516ZM90.9219 36.4844L90.3047 36.5C90.3047 35.8542 90.3828 35.2786 90.5391 34.7734C90.6953 34.263 90.9167 33.8307 91.2031 33.4766C91.4896 33.1224 91.8307 32.8542 92.2266 32.6719C92.6276 32.4844 93.0729 32.3906 93.5625 32.3906C93.9531 32.3906 94.3099 32.4479 94.6328 32.5625C94.9609 32.6771 95.2422 32.862 95.4766 33.1172C95.7161 33.3724 95.8984 33.7109 96.0234 34.1328C96.1536 34.5495 96.2188 35.0651 96.2188 35.6797V41H93.5703V35.6719C93.5703 35.3333 93.5234 35.0755 93.4297 34.8984C93.3359 34.7161 93.2005 34.5911 93.0234 34.5234C92.8464 34.4557 92.6302 34.4219 92.375 34.4219C92.1042 34.4219 91.875 34.474 91.6875 34.5781C91.5 34.6823 91.349 34.8281 91.2344 35.0156C91.125 35.1979 91.0443 35.4141 90.9922 35.6641C90.9453 35.9141 90.9219 36.1875 90.9219 36.4844ZM102.109 38.625C102.109 38.4792 102.06 38.3542 101.961 38.25C101.867 38.1406 101.701 38.0417 101.461 37.9531C101.221 37.8594 100.885 37.7656 100.453 37.6719C100.042 37.5833 99.6536 37.4661 99.2891 37.3203C98.9297 37.1745 98.6146 36.9974 98.3438 36.7891C98.0729 36.5807 97.8594 36.3333 97.7031 36.0469C97.5521 35.7604 97.4766 35.4323 97.4766 35.0625C97.4766 34.7031 97.5521 34.3646 97.7031 34.0469C97.8594 33.724 98.0859 33.4401 98.3828 33.1953C98.6849 32.9453 99.0521 32.75 99.4844 32.6094C99.9167 32.4635 100.409 32.3906 100.961 32.3906C101.721 32.3906 102.378 32.5078 102.93 32.7422C103.482 32.9714 103.906 33.2943 104.203 33.7109C104.505 34.1224 104.656 34.599 104.656 35.1406H102.023C102.023 34.9271 101.987 34.7448 101.914 34.5938C101.846 34.4427 101.734 34.3281 101.578 34.25C101.422 34.1667 101.214 34.125 100.953 34.125C100.771 34.125 100.604 34.1589 100.453 34.2266C100.307 34.2943 100.19 34.388 100.102 34.5078C100.013 34.6276 99.9688 34.7682 99.9688 34.9297C99.9688 35.0443 99.9948 35.1484 100.047 35.2422C100.104 35.3307 100.19 35.4141 100.305 35.4922C100.419 35.5651 100.565 35.6328 100.742 35.6953C100.919 35.7526 101.133 35.8047 101.383 35.8516C101.951 35.9557 102.482 36.1042 102.977 36.2969C103.471 36.4896 103.872 36.763 104.18 37.1172C104.492 37.4714 104.648 37.9479 104.648 38.5469C104.648 38.9219 104.562 39.2682 104.391 39.5859C104.219 39.8984 103.971 40.1745 103.648 40.4141C103.326 40.6484 102.938 40.8307 102.484 40.9609C102.031 41.0911 101.521 41.1562 100.953 41.1562C100.146 41.1562 99.4635 41.013 98.9062 40.7266C98.349 40.4349 97.9271 40.0703 97.6406 39.6328C97.3594 39.1901 97.2188 38.7422 97.2188 38.2891H99.6719C99.6823 38.5495 99.7448 38.763 99.8594 38.9297C99.9792 39.0964 100.138 39.2188 100.336 39.2969C100.534 39.375 100.763 39.4141 101.023 39.4141C101.263 39.4141 101.461 39.3802 101.617 39.3125C101.779 39.2448 101.901 39.1536 101.984 39.0391C102.068 38.9193 102.109 38.7812 102.109 38.625ZM109.109 41H106.461V31.8594C106.461 31.2031 106.594 30.651 106.859 30.2031C107.125 29.7552 107.5 29.4167 107.984 29.1875C108.469 28.9531 109.042 28.8359 109.703 28.8359C109.932 28.8359 110.148 28.8516 110.352 28.8828C110.555 28.9141 110.753 28.9531 110.945 29L110.953 30.9375C110.859 30.9115 110.763 30.8932 110.664 30.8828C110.565 30.8724 110.443 30.8672 110.297 30.8672C110.042 30.8672 109.826 30.9062 109.648 30.9844C109.471 31.0573 109.336 31.1693 109.242 31.3203C109.154 31.4661 109.109 31.6458 109.109 31.8594V41ZM110.75 32.5469V34.375H105.242V32.5469H110.75ZM115.602 41.1562C114.914 41.1562 114.299 41.0495 113.758 40.8359C113.216 40.6172 112.758 40.3177 112.383 39.9375C112.013 39.5573 111.729 39.1198 111.531 38.625C111.339 38.1302 111.242 37.6068 111.242 37.0547V36.7578C111.242 36.138 111.328 35.5651 111.5 35.0391C111.672 34.5078 111.927 34.0443 112.266 33.6484C112.604 33.2526 113.029 32.9453 113.539 32.7266C114.049 32.5026 114.643 32.3906 115.32 32.3906C115.919 32.3906 116.456 32.487 116.93 32.6797C117.404 32.8724 117.805 33.1484 118.133 33.5078C118.466 33.8672 118.719 34.3021 118.891 34.8125C119.068 35.3229 119.156 35.8958 119.156 36.5312V37.6016H112.25V35.9531H116.586V35.75C116.591 35.4688 116.542 35.2292 116.438 35.0312C116.339 34.8333 116.193 34.6823 116 34.5781C115.807 34.474 115.573 34.4219 115.297 34.4219C115.01 34.4219 114.773 34.4844 114.586 34.6094C114.404 34.7344 114.26 34.9062 114.156 35.125C114.057 35.3385 113.987 35.5859 113.945 35.8672C113.904 36.1484 113.883 36.4453 113.883 36.7578V37.0547C113.883 37.3672 113.924 37.651 114.008 37.9062C114.096 38.1615 114.221 38.3802 114.383 38.5625C114.549 38.7396 114.747 38.8776 114.977 38.9766C115.211 39.0755 115.477 39.125 115.773 39.125C116.133 39.125 116.487 39.0573 116.836 38.9219C117.185 38.7865 117.484 38.5625 117.734 38.25L118.93 39.6719C118.758 39.9167 118.513 40.1536 118.195 40.3828C117.883 40.612 117.508 40.7995 117.07 40.9453C116.633 41.0859 116.143 41.1562 115.602 41.1562ZM122.883 34.6406V41H120.25V32.5469H122.711L122.883 34.6406ZM125.383 32.4844L125.336 34.9297C125.232 34.9193 125.091 34.9062 124.914 34.8906C124.737 34.875 124.589 34.8672 124.469 34.8672C124.161 34.8672 123.896 34.9036 123.672 34.9766C123.453 35.0443 123.271 35.1484 123.125 35.2891C122.984 35.4245 122.88 35.5964 122.812 35.8047C122.75 36.013 122.721 36.2552 122.727 36.5312L122.25 36.2188C122.25 35.651 122.305 35.1354 122.414 34.6719C122.529 34.2031 122.69 33.7995 122.898 33.4609C123.107 33.1172 123.359 32.8542 123.656 32.6719C123.953 32.4844 124.286 32.3906 124.656 32.3906C124.786 32.3906 124.914 32.3984 125.039 32.4141C125.169 32.4297 125.284 32.4531 125.383 32.4844Z" fill="#FF0A12"/>
<path d="M70.072 54.636V55.524H67.792V63H66.7V55.524H64.408V54.636H70.072ZM72.5082 57.492C72.7002 57.116 72.9722 56.824 73.3242 56.616C73.6842 56.408 74.1202 56.304 74.6322 56.304V57.432H74.3442C73.1202 57.432 72.5082 58.096 72.5082 59.424V63H71.4162V56.424H72.5082V57.492ZM75.4848 59.688C75.4848 59.016 75.6208 58.428 75.8928 57.924C76.1648 57.412 76.5368 57.016 77.0088 56.736C77.4888 56.456 78.0208 56.316 78.6048 56.316C79.1808 56.316 79.6808 56.44 80.1048 56.688C80.5288 56.936 80.8448 57.248 81.0528 57.624V56.424H82.1568V63H81.0528V61.776C80.8368 62.16 80.5128 62.48 80.0808 62.736C79.6568 62.984 79.1608 63.108 78.5928 63.108C78.0088 63.108 77.4808 62.964 77.0088 62.676C76.5368 62.388 76.1648 61.984 75.8928 61.464C75.6208 60.944 75.4848 60.352 75.4848 59.688ZM81.0528 59.7C81.0528 59.204 80.9528 58.772 80.7528 58.404C80.5528 58.036 80.2808 57.756 79.9368 57.564C79.6008 57.364 79.2288 57.264 78.8208 57.264C78.4128 57.264 78.0408 57.36 77.7048 57.552C77.3688 57.744 77.1008 58.024 76.9008 58.392C76.7008 58.76 76.6008 59.192 76.6008 59.688C76.6008 60.192 76.7008 60.632 76.9008 61.008C77.1008 61.376 77.3688 61.66 77.7048 61.86C78.0408 62.052 78.4128 62.148 78.8208 62.148C79.2288 62.148 79.6008 62.052 79.9368 61.86C80.2808 61.66 80.5528 61.376 80.7528 61.008C80.9528 60.632 81.0528 60.196 81.0528 59.7ZM87.2061 56.304C88.0061 56.304 88.6541 56.548 89.1501 57.036C89.6461 57.516 89.8941 58.212 89.8941 59.124V63H88.8141V59.28C88.8141 58.624 88.6501 58.124 88.3221 57.78C87.9941 57.428 87.5461 57.252 86.9781 57.252C86.4021 57.252 85.9421 57.432 85.5981 57.792C85.2621 58.152 85.0941 58.676 85.0941 59.364V63H84.0021V56.424H85.0941V57.36C85.3101 57.024 85.6021 56.764 85.9701 56.58C86.3461 56.396 86.7581 56.304 87.2061 56.304ZM94.0059 63.108C93.5019 63.108 93.0499 63.024 92.6499 62.856C92.2499 62.68 91.9339 62.44 91.7019 62.136C91.4699 61.824 91.3419 61.468 91.3179 61.068H92.4459C92.4779 61.396 92.6299 61.664 92.9019 61.872C93.1819 62.08 93.5459 62.184 93.9939 62.184C94.4099 62.184 94.7379 62.092 94.9779 61.908C95.2179 61.724 95.3379 61.492 95.3379 61.212C95.3379 60.924 95.2099 60.712 94.9539 60.576C94.6979 60.432 94.3019 60.292 93.7659 60.156C93.2779 60.028 92.8779 59.9 92.5659 59.772C92.2619 59.636 91.9979 59.44 91.7739 59.184C91.5579 58.92 91.4499 58.576 91.4499 58.152C91.4499 57.816 91.5499 57.508 91.7499 57.228C91.9499 56.948 92.2339 56.728 92.6019 56.568C92.9699 56.4 93.3899 56.316 93.8619 56.316C94.5899 56.316 95.1779 56.5 95.6259 56.868C96.0739 57.236 96.3139 57.74 96.3459 58.38H95.2539C95.2299 58.036 95.0899 57.76 94.8339 57.552C94.5859 57.344 94.2499 57.24 93.8259 57.24C93.4339 57.24 93.1219 57.324 92.8899 57.492C92.6579 57.66 92.5419 57.88 92.5419 58.152C92.5419 58.368 92.6099 58.548 92.7459 58.692C92.8899 58.828 93.0659 58.94 93.2739 59.028C93.4899 59.108 93.7859 59.2 94.1619 59.304C94.6339 59.432 95.0179 59.56 95.3139 59.688C95.6099 59.808 95.8619 59.992 96.0699 60.24C96.2859 60.488 96.3979 60.812 96.4059 61.212C96.4059 61.572 96.3059 61.896 96.1059 62.184C95.9059 62.472 95.6219 62.7 95.2539 62.868C94.8939 63.028 94.4779 63.108 94.0059 63.108ZM100.623 57.324H99.2434V63H98.1514V57.324H97.2994V56.424H98.1514V55.956C98.1514 55.22 98.3394 54.684 98.7154 54.348C99.0994 54.004 99.7114 53.832 100.551 53.832V54.744C100.071 54.744 99.7314 54.84 99.5314 55.032C99.3394 55.216 99.2434 55.524 99.2434 55.956V56.424H100.623V57.324ZM107.897 59.46C107.897 59.668 107.885 59.888 107.861 60.12H102.605C102.645 60.768 102.865 61.276 103.265 61.644C103.673 62.004 104.165 62.184 104.741 62.184C105.213 62.184 105.605 62.076 105.917 61.86C106.237 61.636 106.461 61.34 106.589 60.972H107.765C107.589 61.604 107.237 62.12 106.709 62.52C106.181 62.912 105.525 63.108 104.741 63.108C104.117 63.108 103.557 62.968 103.061 62.688C102.573 62.408 102.189 62.012 101.909 61.5C101.629 60.98 101.489 60.38 101.489 59.7C101.489 59.02 101.625 58.424 101.897 57.912C102.169 57.4 102.549 57.008 103.037 56.736C103.533 56.456 104.101 56.316 104.741 56.316C105.365 56.316 105.917 56.452 106.397 56.724C106.877 56.996 107.245 57.372 107.501 57.852C107.765 58.324 107.897 58.86 107.897 59.46ZM106.769 59.232C106.769 58.816 106.677 58.46 106.493 58.164C106.309 57.86 106.057 57.632 105.737 57.48C105.425 57.32 105.077 57.24 104.693 57.24C104.141 57.24 103.669 57.416 103.277 57.768C102.893 58.12 102.673 58.608 102.617 59.232H106.769ZM110.43 57.492C110.622 57.116 110.894 56.824 111.246 56.616C111.606 56.408 112.042 56.304 112.554 56.304V57.432H112.266C111.042 57.432 110.43 58.096 110.43 59.424V63H109.338V56.424H110.43V57.492ZM119.69 57.324H118.31V63H117.218V57.324H116.366V56.424H117.218V55.956C117.218 55.22 117.406 54.684 117.782 54.348C118.166 54.004 118.778 53.832 119.618 53.832V54.744C119.138 54.744 118.798 54.84 118.598 55.032C118.406 55.216 118.31 55.524 118.31 55.956V56.424H119.69V57.324ZM126.795 56.424V63H125.703V62.028C125.495 62.364 125.203 62.628 124.827 62.82C124.459 63.004 124.051 63.096 123.603 63.096C123.091 63.096 122.631 62.992 122.223 62.784C121.815 62.568 121.491 62.248 121.251 61.824C121.019 61.4 120.903 60.884 120.903 60.276V56.424H121.983V60.132C121.983 60.78 122.147 61.28 122.475 61.632C122.803 61.976 123.251 62.148 123.819 62.148C124.403 62.148 124.863 61.968 125.199 61.608C125.535 61.248 125.703 60.724 125.703 60.036V56.424H126.795ZM131.843 56.304C132.643 56.304 133.291 56.548 133.787 57.036C134.283 57.516 134.531 58.212 134.531 59.124V63H133.451V59.28C133.451 58.624 133.287 58.124 132.959 57.78C132.631 57.428 132.183 57.252 131.615 57.252C131.039 57.252 130.579 57.432 130.235 57.792C129.899 58.152 129.731 58.676 129.731 59.364V63H128.639V56.424H129.731V57.36C129.947 57.024 130.239 56.764 130.607 56.58C130.983 56.396 131.395 56.304 131.843 56.304ZM135.907 59.7C135.907 59.02 136.043 58.428 136.315 57.924C136.587 57.412 136.963 57.016 137.443 56.736C137.931 56.456 138.487 56.316 139.111 56.316C139.919 56.316 140.583 56.512 141.103 56.904C141.631 57.296 141.979 57.84 142.147 58.536H140.971C140.859 58.136 140.639 57.82 140.311 57.588C139.991 57.356 139.591 57.24 139.111 57.24C138.487 57.24 137.983 57.456 137.599 57.888C137.215 58.312 137.023 58.916 137.023 59.7C137.023 60.492 137.215 61.104 137.599 61.536C137.983 61.968 138.487 62.184 139.111 62.184C139.591 62.184 139.991 62.072 140.311 61.848C140.631 61.624 140.851 61.304 140.971 60.888H142.147C141.971 61.56 141.619 62.1 141.091 62.508C140.563 62.908 139.903 63.108 139.111 63.108C138.487 63.108 137.931 62.968 137.443 62.688C136.963 62.408 136.587 62.012 136.315 61.5C136.043 60.988 135.907 60.388 135.907 59.7ZM144.936 57.324V61.2C144.936 61.52 145.004 61.748 145.14 61.884C145.276 62.012 145.512 62.076 145.848 62.076H146.652V63H145.668C145.06 63 144.604 62.86 144.3 62.58C143.996 62.3 143.844 61.84 143.844 61.2V57.324H142.992V56.424H143.844V54.768H144.936V56.424H146.652V57.324H144.936ZM148.539 55.356C148.331 55.356 148.155 55.284 148.011 55.14C147.867 54.996 147.795 54.82 147.795 54.612C147.795 54.404 147.867 54.228 148.011 54.084C148.155 53.94 148.331 53.868 148.539 53.868C148.739 53.868 148.907 53.94 149.043 54.084C149.187 54.228 149.259 54.404 149.259 54.612C149.259 54.82 149.187 54.996 149.043 55.14C148.907 55.284 148.739 55.356 148.539 55.356ZM149.067 56.424V63H147.975V56.424H149.067ZM153.796 63.108C153.18 63.108 152.62 62.968 152.116 62.688C151.62 62.408 151.228 62.012 150.94 61.5C150.66 60.98 150.52 60.38 150.52 59.7C150.52 59.028 150.664 58.436 150.952 57.924C151.248 57.404 151.648 57.008 152.152 56.736C152.656 56.456 153.22 56.316 153.844 56.316C154.468 56.316 155.032 56.456 155.536 56.736C156.04 57.008 156.436 57.4 156.724 57.912C157.02 58.424 157.168 59.02 157.168 59.7C157.168 60.38 157.016 60.98 156.712 61.5C156.416 62.012 156.012 62.408 155.5 62.688C154.988 62.968 154.42 63.108 153.796 63.108ZM153.796 62.148C154.188 62.148 154.556 62.056 154.9 61.872C155.244 61.688 155.52 61.412 155.728 61.044C155.944 60.676 156.052 60.228 156.052 59.7C156.052 59.172 155.948 58.724 155.74 58.356C155.532 57.988 155.26 57.716 154.924 57.54C154.588 57.356 154.224 57.264 153.832 57.264C153.432 57.264 153.064 57.356 152.728 57.54C152.4 57.716 152.136 57.988 151.936 58.356C151.736 58.724 151.636 59.172 151.636 59.7C151.636 60.236 151.732 60.688 151.924 61.056C152.124 61.424 152.388 61.7 152.716 61.884C153.044 62.06 153.404 62.148 153.796 62.148ZM161.808 56.304C162.608 56.304 163.256 56.548 163.752 57.036C164.248 57.516 164.496 58.212 164.496 59.124V63H163.416V59.28C163.416 58.624 163.252 58.124 162.924 57.78C162.596 57.428 162.148 57.252 161.58 57.252C161.004 57.252 160.544 57.432 160.2 57.792C159.864 58.152 159.696 58.676 159.696 59.364V63H158.604V56.424H159.696V57.36C159.912 57.024 160.204 56.764 160.572 56.58C160.948 56.396 161.36 56.304 161.808 56.304ZM170.043 55.356C169.835 55.356 169.659 55.284 169.515 55.14C169.371 54.996 169.299 54.82 169.299 54.612C169.299 54.404 169.371 54.228 169.515 54.084C169.659 53.94 169.835 53.868 170.043 53.868C170.243 53.868 170.411 53.94 170.547 54.084C170.691 54.228 170.763 54.404 170.763 54.612C170.763 54.82 170.691 54.996 170.547 55.14C170.411 55.284 170.243 55.356 170.043 55.356ZM170.571 56.424V63H169.479V56.424H170.571ZM174.76 63.108C174.256 63.108 173.804 63.024 173.404 62.856C173.004 62.68 172.688 62.44 172.456 62.136C172.224 61.824 172.096 61.468 172.072 61.068H173.2C173.232 61.396 173.384 61.664 173.656 61.872C173.936 62.08 174.3 62.184 174.748 62.184C175.164 62.184 175.492 62.092 175.732 61.908C175.972 61.724 176.092 61.492 176.092 61.212C176.092 60.924 175.964 60.712 175.708 60.576C175.452 60.432 175.056 60.292 174.52 60.156C174.032 60.028 173.632 59.9 173.32 59.772C173.016 59.636 172.752 59.44 172.528 59.184C172.312 58.92 172.204 58.576 172.204 58.152C172.204 57.816 172.304 57.508 172.504 57.228C172.704 56.948 172.988 56.728 173.356 56.568C173.724 56.4 174.144 56.316 174.616 56.316C175.344 56.316 175.932 56.5 176.38 56.868C176.828 57.236 177.068 57.74 177.1 58.38H176.008C175.984 58.036 175.844 57.76 175.588 57.552C175.34 57.344 175.004 57.24 174.58 57.24C174.188 57.24 173.876 57.324 173.644 57.492C173.412 57.66 173.296 57.88 173.296 58.152C173.296 58.368 173.364 58.548 173.5 58.692C173.644 58.828 173.82 58.94 174.028 59.028C174.244 59.108 174.54 59.2 174.916 59.304C175.388 59.432 175.772 59.56 176.068 59.688C176.364 59.808 176.616 59.992 176.824 60.24C177.04 60.488 177.152 60.812 177.16 61.212C177.16 61.572 177.06 61.896 176.86 62.184C176.66 62.472 176.376 62.7 176.008 62.868C175.648 63.028 175.232 63.108 174.76 63.108ZM182.465 55.356C182.257 55.356 182.081 55.284 181.937 55.14C181.793 54.996 181.721 54.82 181.721 54.612C181.721 54.404 181.793 54.228 181.937 54.084C182.081 53.94 182.257 53.868 182.465 53.868C182.665 53.868 182.833 53.94 182.969 54.084C183.113 54.228 183.185 54.404 183.185 54.612C183.185 54.82 183.113 54.996 182.969 55.14C182.833 55.284 182.665 55.356 182.465 55.356ZM182.993 56.424V63H181.901V56.424H182.993ZM188.058 56.304C188.858 56.304 189.506 56.548 190.002 57.036C190.498 57.516 190.746 58.212 190.746 59.124V63H189.666V59.28C189.666 58.624 189.502 58.124 189.174 57.78C188.846 57.428 188.398 57.252 187.83 57.252C187.254 57.252 186.794 57.432 186.45 57.792C186.114 58.152 185.946 58.676 185.946 59.364V63H184.854V56.424H185.946V57.36C186.162 57.024 186.454 56.764 186.822 56.58C187.198 56.396 187.61 56.304 188.058 56.304ZM195.321 59.688C195.321 59.016 195.457 58.428 195.729 57.924C196.001 57.412 196.373 57.016 196.845 56.736C197.325 56.456 197.861 56.316 198.453 56.316C198.965 56.316 199.441 56.436 199.881 56.676C200.321 56.908 200.657 57.216 200.889 57.6V54.12H201.993V63H200.889V61.764C200.673 62.156 200.353 62.48 199.929 62.736C199.505 62.984 199.009 63.108 198.441 63.108C197.857 63.108 197.325 62.964 196.845 62.676C196.373 62.388 196.001 61.984 195.729 61.464C195.457 60.944 195.321 60.352 195.321 59.688ZM200.889 59.7C200.889 59.204 200.789 58.772 200.589 58.404C200.389 58.036 200.117 57.756 199.773 57.564C199.437 57.364 199.065 57.264 198.657 57.264C198.249 57.264 197.877 57.36 197.541 57.552C197.205 57.744 196.937 58.024 196.737 58.392C196.537 58.76 196.437 59.192 196.437 59.688C196.437 60.192 196.537 60.632 196.737 61.008C196.937 61.376 197.205 61.66 197.541 61.86C197.877 62.052 198.249 62.148 198.657 62.148C199.065 62.148 199.437 62.052 199.773 61.86C200.117 61.66 200.389 61.376 200.589 61.008C200.789 60.632 200.889 60.196 200.889 59.7ZM209.838 59.46C209.838 59.668 209.826 59.888 209.802 60.12H204.546C204.586 60.768 204.806 61.276 205.206 61.644C205.614 62.004 206.106 62.184 206.682 62.184C207.154 62.184 207.546 62.076 207.858 61.86C208.178 61.636 208.402 61.34 208.53 60.972H209.706C209.53 61.604 209.178 62.12 208.65 62.52C208.122 62.912 207.466 63.108 206.682 63.108C206.058 63.108 205.498 62.968 205.002 62.688C204.514 62.408 204.13 62.012 203.85 61.5C203.57 60.98 203.43 60.38 203.43 59.7C203.43 59.02 203.566 58.424 203.838 57.912C204.11 57.4 204.49 57.008 204.978 56.736C205.474 56.456 206.042 56.316 206.682 56.316C207.306 56.316 207.858 56.452 208.338 56.724C208.818 56.996 209.186 57.372 209.442 57.852C209.706 58.324 209.838 58.86 209.838 59.46ZM208.71 59.232C208.71 58.816 208.618 58.46 208.434 58.164C208.25 57.86 207.998 57.632 207.678 57.48C207.366 57.32 207.018 57.24 206.634 57.24C206.082 57.24 205.61 57.416 205.218 57.768C204.834 58.12 204.614 58.608 204.558 59.232H208.71ZM213.727 61.992L215.767 56.424H216.931L214.351 63H213.079L210.499 56.424H211.675L213.727 61.992ZM224.006 59.46C224.006 59.668 223.994 59.888 223.97 60.12H218.714C218.754 60.768 218.974 61.276 219.374 61.644C219.782 62.004 220.274 62.184 220.85 62.184C221.322 62.184 221.714 62.076 222.026 61.86C222.346 61.636 222.57 61.34 222.698 60.972H223.874C223.698 61.604 223.346 62.12 222.818 62.52C222.29 62.912 221.634 63.108 220.85 63.108C220.226 63.108 219.666 62.968 219.17 62.688C218.682 62.408 218.298 62.012 218.018 61.5C217.738 60.98 217.598 60.38 217.598 59.7C217.598 59.02 217.734 58.424 218.006 57.912C218.278 57.4 218.658 57.008 219.146 56.736C219.642 56.456 220.21 56.316 220.85 56.316C221.474 56.316 222.026 56.452 222.506 56.724C222.986 56.996 223.354 57.372 223.61 57.852C223.874 58.324 224.006 58.86 224.006 59.46ZM222.878 59.232C222.878 58.816 222.786 58.46 222.602 58.164C222.418 57.86 222.166 57.632 221.846 57.48C221.534 57.32 221.186 57.24 220.802 57.24C220.25 57.24 219.778 57.416 219.386 57.768C219.002 58.12 218.782 58.608 218.726 59.232H222.878ZM226.539 54.12V63H225.447V54.12H226.539ZM231.269 63.108C230.653 63.108 230.093 62.968 229.589 62.688C229.093 62.408 228.701 62.012 228.413 61.5C228.133 60.98 227.993 60.38 227.993 59.7C227.993 59.028 228.137 58.436 228.425 57.924C228.721 57.404 229.121 57.008 229.625 56.736C230.129 56.456 230.693 56.316 231.317 56.316C231.941 56.316 232.505 56.456 233.009 56.736C233.513 57.008 233.909 57.4 234.197 57.912C234.493 58.424 234.641 59.02 234.641 59.7C234.641 60.38 234.489 60.98 234.185 61.5C233.889 62.012 233.485 62.408 232.973 62.688C232.461 62.968 231.893 63.108 231.269 63.108ZM231.269 62.148C231.661 62.148 232.029 62.056 232.373 61.872C232.717 61.688 232.993 61.412 233.201 61.044C233.417 60.676 233.525 60.228 233.525 59.7C233.525 59.172 233.421 58.724 233.213 58.356C233.005 57.988 232.733 57.716 232.397 57.54C232.061 57.356 231.697 57.264 231.305 57.264C230.905 57.264 230.537 57.356 230.201 57.54C229.873 57.716 229.609 57.988 229.409 58.356C229.209 58.724 229.109 59.172 229.109 59.7C229.109 60.236 229.205 60.688 229.397 61.056C229.597 61.424 229.861 61.7 230.189 61.884C230.517 62.06 230.877 62.148 231.269 62.148ZM237.168 57.636C237.384 57.26 237.704 56.948 238.128 56.7C238.56 56.444 239.06 56.316 239.628 56.316C240.212 56.316 240.74 56.456 241.212 56.736C241.692 57.016 242.068 57.412 242.34 57.924C242.612 58.428 242.748 59.016 242.748 59.688C242.748 60.352 242.612 60.944 242.34 61.464C242.068 61.984 241.692 62.388 241.212 62.676C240.74 62.964 240.212 63.108 239.628 63.108C239.068 63.108 238.572 62.984 238.14 62.736C237.716 62.48 237.392 62.164 237.168 61.788V66.12H236.076V56.424H237.168V57.636ZM241.632 59.688C241.632 59.192 241.532 58.76 241.332 58.392C241.132 58.024 240.86 57.744 240.516 57.552C240.18 57.36 239.808 57.264 239.4 57.264C239 57.264 238.628 57.364 238.284 57.564C237.948 57.756 237.676 58.04 237.468 58.416C237.268 58.784 237.168 59.212 237.168 59.7C237.168 60.196 237.268 60.632 237.468 61.008C237.676 61.376 237.948 61.66 238.284 61.86C238.628 62.052 239 62.148 239.4 62.148C239.808 62.148 240.18 62.052 240.516 61.86C240.86 61.66 241.132 61.376 241.332 61.008C241.532 60.632 241.632 60.192 241.632 59.688ZM252.094 56.304C252.606 56.304 253.062 56.412 253.462 56.628C253.862 56.836 254.178 57.152 254.41 57.576C254.642 58 254.758 58.516 254.758 59.124V63H253.678V59.28C253.678 58.624 253.514 58.124 253.186 57.78C252.866 57.428 252.43 57.252 251.878 57.252C251.31 57.252 250.858 57.436 250.522 57.804C250.186 58.164 250.018 58.688 250.018 59.376V63H248.938V59.28C248.938 58.624 248.774 58.124 248.446 57.78C248.126 57.428 247.69 57.252 247.138 57.252C246.57 57.252 246.118 57.436 245.782 57.804C245.446 58.164 245.278 58.688 245.278 59.376V63H244.186V56.424H245.278V57.372C245.494 57.028 245.782 56.764 246.142 56.58C246.51 56.396 246.914 56.304 247.354 56.304C247.906 56.304 248.394 56.428 248.818 56.676C249.242 56.924 249.558 57.288 249.766 57.768C249.95 57.304 250.254 56.944 250.678 56.688C251.102 56.432 251.574 56.304 252.094 56.304ZM262.549 59.46C262.549 59.668 262.537 59.888 262.513 60.12H257.257C257.297 60.768 257.517 61.276 257.917 61.644C258.325 62.004 258.817 62.184 259.393 62.184C259.865 62.184 260.257 62.076 260.569 61.86C260.889 61.636 261.113 61.34 261.241 60.972H262.417C262.241 61.604 261.889 62.12 261.361 62.52C260.833 62.912 260.177 63.108 259.393 63.108C258.769 63.108 258.209 62.968 257.713 62.688C257.225 62.408 256.841 62.012 256.561 61.5C256.281 60.98 256.141 60.38 256.141 59.7C256.141 59.02 256.277 58.424 256.549 57.912C256.821 57.4 257.201 57.008 257.689 56.736C258.185 56.456 258.753 56.316 259.393 56.316C260.017 56.316 260.569 56.452 261.049 56.724C261.529 56.996 261.897 57.372 262.153 57.852C262.417 58.324 262.549 58.86 262.549 59.46ZM261.421 59.232C261.421 58.816 261.329 58.46 261.145 58.164C260.961 57.86 260.709 57.632 260.389 57.48C260.077 57.32 259.729 57.24 259.345 57.24C258.793 57.24 258.321 57.416 257.929 57.768C257.545 58.12 257.325 58.608 257.269 59.232H261.421ZM267.194 56.304C267.994 56.304 268.642 56.548 269.138 57.036C269.634 57.516 269.882 58.212 269.882 59.124V63H268.802V59.28C268.802 58.624 268.638 58.124 268.31 57.78C267.982 57.428 267.534 57.252 266.966 57.252C266.39 57.252 265.93 57.432 265.586 57.792C265.25 58.152 265.082 58.676 265.082 59.364V63H263.99V56.424H265.082V57.36C265.298 57.024 265.59 56.764 265.958 56.58C266.334 56.396 266.746 56.304 267.194 56.304ZM272.998 57.324V61.2C272.998 61.52 273.066 61.748 273.202 61.884C273.338 62.012 273.574 62.076 273.91 62.076H274.714V63H273.73C273.122 63 272.666 62.86 272.362 62.58C272.058 62.3 271.906 61.84 271.906 61.2V57.324H271.054V56.424H271.906V54.768H272.998V56.424H274.714V57.324H272.998ZM276.385 63.072C276.177 63.072 276.001 63 275.857 62.856C275.713 62.712 275.641 62.536 275.641 62.328C275.641 62.12 275.713 61.944 275.857 61.8C276.001 61.656 276.177 61.584 276.385 61.584C276.585 61.584 276.753 61.656 276.889 61.8C277.033 61.944 277.105 62.12 277.105 62.328C277.105 62.536 277.033 62.712 276.889 62.856C276.753 63 276.585 63.072 276.385 63.072Z" fill="#FF0A12"/>
</svg>
