<svg width="287" height="46" viewBox="0 0 287 46" fill="none" xmlns="http://www.w3.org/2000/svg">
<g filter="url(#filter0_d_3328_209645)">
<rect x="5.04965" y="1.04965" width="276.901" height="35.9007" rx="9.44689" fill="url(#paint0_linear_3328_209645)" stroke="url(#paint1_linear_3328_209645)" stroke-width="2.09931"/>
<path d="M109.338 13.848V15.032H106.298V25H104.842V15.032H101.786V13.848H109.338ZM112.586 17.656C112.842 17.1547 113.205 16.7653 113.674 16.488C114.154 16.2107 114.736 16.072 115.418 16.072V17.576H115.034C113.402 17.576 112.586 18.4613 112.586 20.232V25H111.13V16.232H112.586V17.656ZM124.651 16.232L119.371 29.128H117.867L119.595 24.904L116.059 16.232H117.675L120.427 23.336L123.147 16.232H124.651ZM129.836 20.584C129.836 19.688 130.018 18.904 130.38 18.232C130.743 17.5493 131.239 17.0213 131.868 16.648C132.508 16.2747 133.218 16.088 133.996 16.088C134.764 16.088 135.431 16.2533 135.996 16.584C136.562 16.9147 136.983 17.3307 137.26 17.832V16.232H138.732V25H137.26V23.368C136.972 23.88 136.54 24.3067 135.964 24.648C135.399 24.9787 134.738 25.144 133.98 25.144C133.202 25.144 132.498 24.952 131.868 24.568C131.239 24.184 130.743 23.6453 130.38 22.952C130.018 22.2587 129.836 21.4693 129.836 20.584ZM137.26 20.6C137.26 19.9387 137.127 19.3627 136.86 18.872C136.594 18.3813 136.231 18.008 135.772 17.752C135.324 17.4853 134.828 17.352 134.284 17.352C133.74 17.352 133.244 17.48 132.796 17.736C132.348 17.992 131.991 18.3653 131.724 18.856C131.458 19.3467 131.324 19.9227 131.324 20.584C131.324 21.256 131.458 21.8427 131.724 22.344C131.991 22.8347 132.348 23.2133 132.796 23.48C133.244 23.736 133.74 23.864 134.284 23.864C134.828 23.864 135.324 23.736 135.772 23.48C136.231 23.2133 136.594 22.8347 136.86 22.344C137.127 21.8427 137.26 21.2613 137.26 20.6ZM144.809 16.088C145.566 16.088 146.228 16.2533 146.793 16.584C147.369 16.9147 147.796 17.3307 148.073 17.832V16.232H149.545V25.192C149.545 25.992 149.374 26.7013 149.033 27.32C148.692 27.9493 148.201 28.44 147.561 28.792C146.932 29.144 146.196 29.32 145.353 29.32C144.201 29.32 143.241 29.048 142.473 28.504C141.705 27.96 141.252 27.2187 141.113 26.28H142.553C142.713 26.8133 143.044 27.24 143.545 27.56C144.046 27.8907 144.649 28.056 145.353 28.056C146.153 28.056 146.804 27.8053 147.305 27.304C147.817 26.8027 148.073 26.0987 148.073 25.192V23.352C147.785 23.864 147.358 24.2907 146.793 24.632C146.228 24.9733 145.566 25.144 144.809 25.144C144.03 25.144 143.321 24.952 142.681 24.568C142.052 24.184 141.556 23.6453 141.193 22.952C140.83 22.2587 140.649 21.4693 140.649 20.584C140.649 19.688 140.83 18.904 141.193 18.232C141.556 17.5493 142.052 17.0213 142.681 16.648C143.321 16.2747 144.03 16.088 144.809 16.088ZM148.073 20.6C148.073 19.9387 147.94 19.3627 147.673 18.872C147.406 18.3813 147.044 18.008 146.585 17.752C146.137 17.4853 145.641 17.352 145.097 17.352C144.553 17.352 144.057 17.48 143.609 17.736C143.161 17.992 142.804 18.3653 142.537 18.856C142.27 19.3467 142.137 19.9227 142.137 20.584C142.137 21.256 142.27 21.8427 142.537 22.344C142.804 22.8347 143.161 23.2133 143.609 23.48C144.057 23.736 144.553 23.864 145.097 23.864C145.641 23.864 146.137 23.736 146.585 23.48C147.044 23.2133 147.406 22.8347 147.673 22.344C147.94 21.8427 148.073 21.2613 148.073 20.6ZM151.461 20.584C151.461 19.688 151.643 18.904 152.005 18.232C152.368 17.5493 152.864 17.0213 153.493 16.648C154.133 16.2747 154.843 16.088 155.621 16.088C156.389 16.088 157.056 16.2533 157.621 16.584C158.187 16.9147 158.608 17.3307 158.885 17.832V16.232H160.357V25H158.885V23.368C158.597 23.88 158.165 24.3067 157.589 24.648C157.024 24.9787 156.363 25.144 155.605 25.144C154.827 25.144 154.123 24.952 153.493 24.568C152.864 24.184 152.368 23.6453 152.005 22.952C151.643 22.2587 151.461 21.4693 151.461 20.584ZM158.885 20.6C158.885 19.9387 158.752 19.3627 158.485 18.872C158.219 18.3813 157.856 18.008 157.397 17.752C156.949 17.4853 156.453 17.352 155.909 17.352C155.365 17.352 154.869 17.48 154.421 17.736C153.973 17.992 153.616 18.3653 153.349 18.856C153.083 19.3467 152.949 19.9227 152.949 20.584C152.949 21.256 153.083 21.8427 153.349 22.344C153.616 22.8347 153.973 23.2133 154.421 23.48C154.869 23.736 155.365 23.864 155.909 23.864C156.453 23.864 156.949 23.736 157.397 23.48C157.856 23.2133 158.219 22.8347 158.485 22.344C158.752 21.8427 158.885 21.2613 158.885 20.6ZM163.57 14.808C163.293 14.808 163.058 14.712 162.866 14.52C162.674 14.328 162.578 14.0933 162.578 13.816C162.578 13.5387 162.674 13.304 162.866 13.112C163.058 12.92 163.293 12.824 163.57 12.824C163.837 12.824 164.061 12.92 164.242 13.112C164.434 13.304 164.53 13.5387 164.53 13.816C164.53 14.0933 164.434 14.328 164.242 14.52C164.061 14.712 163.837 14.808 163.57 14.808ZM164.274 16.232V25H162.818V16.232H164.274ZM171.027 16.072C172.094 16.072 172.958 16.3973 173.619 17.048C174.281 17.688 174.611 18.616 174.611 19.832V25H173.171V20.04C173.171 19.1653 172.953 18.4987 172.515 18.04C172.078 17.5707 171.481 17.336 170.723 17.336C169.955 17.336 169.342 17.576 168.883 18.056C168.435 18.536 168.211 19.2347 168.211 20.152V25H166.755V16.232H168.211V17.48C168.499 17.032 168.889 16.6853 169.379 16.44C169.881 16.1947 170.43 16.072 171.027 16.072Z" fill="white"/>
</g>
<defs>
<filter id="filter0_d_3328_209645" x="0" y="0" width="287" height="46" filterUnits="userSpaceOnUse" color-interpolation-filters="sRGB">
<feFlood flood-opacity="0" result="BackgroundImageFix"/>
<feColorMatrix in="SourceAlpha" type="matrix" values="0 0 0 0 0 0 0 0 0 0 0 0 0 0 0 0 0 0 127 0" result="hardAlpha"/>
<feOffset dy="4"/>
<feGaussianBlur stdDeviation="2"/>
<feComposite in2="hardAlpha" operator="out"/>
<feColorMatrix type="matrix" values="0 0 0 0 0 0 0 0 0 0 0 0 0 0 0 0 0 0 0.25 0"/>
<feBlend mode="normal" in2="BackgroundImageFix" result="effect1_dropShadow_3328_209645"/>
<feBlend mode="normal" in="SourceGraphic" in2="effect1_dropShadow_3328_209645" result="shape"/>
</filter>
<linearGradient id="paint0_linear_3328_209645" x1="-45.5225" y1="17.5605" x2="300.354" y2="23.9604" gradientUnits="userSpaceOnUse">
<stop stop-color="#6400FF" stop-opacity="0.88"/>
<stop offset="0.523958" stop-color="#874691" stop-opacity="0.86"/>
<stop offset="1" stop-color="#FF03F5" stop-opacity="0.67"/>
</linearGradient>
<linearGradient id="paint1_linear_3328_209645" x1="4" y1="19" x2="290.208" y2="19" gradientUnits="userSpaceOnUse">
<stop stop-color="#131BB0"/>
<stop offset="0.482292" stop-color="#B84C93"/>
<stop offset="1" stop-color="#FF00F5"/>
<stop offset="1" stop-color="#DB34CA"/>
</linearGradient>
</defs>
</svg>
