<svg width="279" height="38" viewBox="0 0 279 38" fill="none" xmlns="http://www.w3.org/2000/svg">
<rect x="1.04965" y="1.04965" width="276.901" height="35.9007" rx="9.44689" fill="url(#paint0_linear_3896_225314)" stroke="url(#paint1_linear_3896_225314)" stroke-width="2.09931"/>
<path d="M50.0864 13.848V25H48.6304V13.848H50.0864ZM64.6096 16.232V25H63.1536V23.704C62.8762 24.152 62.4869 24.504 61.9856 24.76C61.4949 25.0053 60.9509 25.128 60.3536 25.128C59.6709 25.128 59.0576 24.9893 58.5136 24.712C57.9696 24.424 57.5376 23.9973 57.2176 23.432C56.9082 22.8667 56.7536 22.1787 56.7536 21.368V16.232H58.1936V21.176C58.1936 22.04 58.4122 22.7067 58.8496 23.176C59.2869 23.6347 59.8842 23.864 60.6416 23.864C61.4202 23.864 62.0336 23.624 62.4816 23.144C62.9296 22.664 63.1536 21.9653 63.1536 21.048V16.232H64.6096ZM71.3399 16.072C72.4066 16.072 73.2706 16.3973 73.9319 17.048C74.5933 17.688 74.9239 18.616 74.9239 19.832V25H73.4839V20.04C73.4839 19.1653 73.2653 18.4987 72.8279 18.04C72.3906 17.5707 71.7933 17.336 71.0359 17.336C70.2679 17.336 69.6546 17.576 69.1959 18.056C68.7479 18.536 68.5239 19.2347 68.5239 20.152V25H67.0679V16.232H68.5239V17.48C68.8119 17.032 69.2013 16.6853 69.6919 16.44C70.1933 16.1947 70.7426 16.072 71.3399 16.072ZM76.7583 20.584C76.7583 19.688 76.9396 18.904 77.3023 18.232C77.665 17.5493 78.161 17.0213 78.7903 16.648C79.4303 16.2747 80.145 16.088 80.9343 16.088C81.617 16.088 82.2516 16.248 82.8383 16.568C83.425 16.8773 83.873 17.288 84.1823 17.8V13.16H85.6543V25H84.1823V23.352C83.8943 23.8747 83.4676 24.3067 82.9023 24.648C82.337 24.9787 81.6756 25.144 80.9183 25.144C80.1396 25.144 79.4303 24.952 78.7903 24.568C78.161 24.184 77.665 23.6453 77.3023 22.952C76.9396 22.2587 76.7583 21.4693 76.7583 20.584ZM84.1823 20.6C84.1823 19.9387 84.049 19.3627 83.7823 18.872C83.5156 18.3813 83.153 18.008 82.6943 17.752C82.2463 17.4853 81.7503 17.352 81.2063 17.352C80.6623 17.352 80.1663 17.48 79.7183 17.736C79.2703 17.992 78.913 18.3653 78.6463 18.856C78.3796 19.3467 78.2463 19.9227 78.2463 20.584C78.2463 21.256 78.3796 21.8427 78.6463 22.344C78.913 22.8347 79.2703 23.2133 79.7183 23.48C80.1663 23.736 80.6623 23.864 81.2063 23.864C81.7503 23.864 82.2463 23.736 82.6943 23.48C83.153 23.2133 83.5156 22.8347 83.7823 22.344C84.049 21.8427 84.1823 21.2613 84.1823 20.6ZM96.1148 20.28C96.1148 20.5573 96.0988 20.8507 96.0668 21.16H89.0588C89.1121 22.024 89.4055 22.7013 89.9388 23.192C90.4828 23.672 91.1388 23.912 91.9068 23.912C92.5361 23.912 93.0588 23.768 93.4748 23.48C93.9015 23.1813 94.2001 22.7867 94.3708 22.296H95.9388C95.7041 23.1387 95.2348 23.8267 94.5308 24.36C93.8268 24.8827 92.9521 25.144 91.9068 25.144C91.0748 25.144 90.3281 24.9573 89.6668 24.584C89.0161 24.2107 88.5041 23.6827 88.1308 23C87.7575 22.3067 87.5708 21.5067 87.5708 20.6C87.5708 19.6933 87.7521 18.8987 88.1148 18.216C88.4775 17.5333 88.9841 17.0107 89.6348 16.648C90.2961 16.2747 91.0535 16.088 91.9068 16.088C92.7388 16.088 93.4748 16.2693 94.1148 16.632C94.7548 16.9947 95.2455 17.496 95.5868 18.136C95.9388 18.7653 96.1148 19.48 96.1148 20.28ZM94.6108 19.976C94.6108 19.4213 94.4881 18.9467 94.2428 18.552C93.9975 18.1467 93.6615 17.8427 93.2348 17.64C92.8188 17.4267 92.3548 17.32 91.8428 17.32C91.1068 17.32 90.4775 17.5547 89.9548 18.024C89.4428 18.4933 89.1495 19.144 89.0748 19.976H94.6108ZM99.4927 17.656C99.7487 17.1547 100.111 16.7653 100.581 16.488C101.061 16.2107 101.642 16.072 102.325 16.072V17.576H101.941C100.309 17.576 99.4927 18.4613 99.4927 20.232V25H98.0367V16.232H99.4927V17.656ZM107.109 25.144C106.437 25.144 105.835 25.032 105.301 24.808C104.768 24.5733 104.347 24.2533 104.037 23.848C103.728 23.432 103.557 22.9573 103.525 22.424H105.029C105.072 22.8613 105.275 23.2187 105.637 23.496C106.011 23.7733 106.496 23.912 107.093 23.912C107.648 23.912 108.085 23.7893 108.405 23.544C108.725 23.2987 108.885 22.9893 108.885 22.616C108.885 22.232 108.715 21.9493 108.373 21.768C108.032 21.576 107.504 21.3893 106.789 21.208C106.139 21.0373 105.605 20.8667 105.189 20.696C104.784 20.5147 104.432 20.2533 104.133 19.912C103.845 19.56 103.701 19.1013 103.701 18.536C103.701 18.088 103.835 17.6773 104.101 17.304C104.368 16.9307 104.747 16.6373 105.237 16.424C105.728 16.2 106.288 16.088 106.917 16.088C107.888 16.088 108.672 16.3333 109.269 16.824C109.867 17.3147 110.187 17.9867 110.229 18.84H108.773C108.741 18.3813 108.555 18.0133 108.213 17.736C107.883 17.4587 107.435 17.32 106.869 17.32C106.347 17.32 105.931 17.432 105.621 17.656C105.312 17.88 105.157 18.1733 105.157 18.536C105.157 18.824 105.248 19.064 105.429 19.256C105.621 19.4373 105.856 19.5867 106.133 19.704C106.421 19.8107 106.816 19.9333 107.317 20.072C107.947 20.2427 108.459 20.4133 108.853 20.584C109.248 20.744 109.584 20.9893 109.861 21.32C110.149 21.6507 110.299 22.0827 110.309 22.616C110.309 23.096 110.176 23.528 109.909 23.912C109.643 24.296 109.264 24.6 108.773 24.824C108.293 25.0373 107.739 25.144 107.109 25.144ZM114.141 17.432V22.6C114.141 23.0267 114.231 23.3307 114.413 23.512C114.594 23.6827 114.909 23.768 115.357 23.768H116.429V25H115.117C114.306 25 113.698 24.8133 113.293 24.44C112.887 24.0667 112.685 23.4533 112.685 22.6V17.432H111.549V16.232H112.685V14.024H114.141V16.232H116.429V17.432H114.141ZM117.649 20.584C117.649 19.688 117.83 18.904 118.193 18.232C118.556 17.5493 119.052 17.0213 119.681 16.648C120.321 16.2747 121.03 16.088 121.809 16.088C122.577 16.088 123.244 16.2533 123.809 16.584C124.374 16.9147 124.796 17.3307 125.073 17.832V16.232H126.545V25H125.073V23.368C124.785 23.88 124.353 24.3067 123.777 24.648C123.212 24.9787 122.55 25.144 121.793 25.144C121.014 25.144 120.31 24.952 119.681 24.568C119.052 24.184 118.556 23.6453 118.193 22.952C117.83 22.2587 117.649 21.4693 117.649 20.584ZM125.073 20.6C125.073 19.9387 124.94 19.3627 124.673 18.872C124.406 18.3813 124.044 18.008 123.585 17.752C123.137 17.4853 122.641 17.352 122.097 17.352C121.553 17.352 121.057 17.48 120.609 17.736C120.161 17.992 119.804 18.3653 119.537 18.856C119.27 19.3467 119.137 19.9227 119.137 20.584C119.137 21.256 119.27 21.8427 119.537 22.344C119.804 22.8347 120.161 23.2133 120.609 23.48C121.057 23.736 121.553 23.864 122.097 23.864C122.641 23.864 123.137 23.736 123.585 23.48C124.044 23.2133 124.406 22.8347 124.673 22.344C124.94 21.8427 125.073 21.2613 125.073 20.6ZM133.277 16.072C134.344 16.072 135.208 16.3973 135.869 17.048C136.531 17.688 136.861 18.616 136.861 19.832V25H135.421V20.04C135.421 19.1653 135.203 18.4987 134.765 18.04C134.328 17.5707 133.731 17.336 132.973 17.336C132.205 17.336 131.592 17.576 131.133 18.056C130.685 18.536 130.461 19.2347 130.461 20.152V25H129.005V16.232H130.461V17.48C130.749 17.032 131.139 16.6853 131.629 16.44C132.131 16.1947 132.68 16.072 133.277 16.072ZM138.696 20.584C138.696 19.688 138.877 18.904 139.24 18.232C139.602 17.5493 140.098 17.0213 140.728 16.648C141.368 16.2747 142.082 16.088 142.872 16.088C143.554 16.088 144.189 16.248 144.776 16.568C145.362 16.8773 145.81 17.288 146.12 17.8V13.16H147.592V25H146.12V23.352C145.832 23.8747 145.405 24.3067 144.84 24.648C144.274 24.9787 143.613 25.144 142.856 25.144C142.077 25.144 141.368 24.952 140.728 24.568C140.098 24.184 139.602 23.6453 139.24 22.952C138.877 22.2587 138.696 21.4693 138.696 20.584ZM146.12 20.6C146.12 19.9387 145.986 19.3627 145.72 18.872C145.453 18.3813 145.09 18.008 144.632 17.752C144.184 17.4853 143.688 17.352 143.144 17.352C142.6 17.352 142.104 17.48 141.656 17.736C141.208 17.992 140.85 18.3653 140.584 18.856C140.317 19.3467 140.184 19.9227 140.184 20.584C140.184 21.256 140.317 21.8427 140.584 22.344C140.85 22.8347 141.208 23.2133 141.656 23.48C142.104 23.736 142.6 23.864 143.144 23.864C143.688 23.864 144.184 23.736 144.632 23.48C145.09 23.2133 145.453 22.8347 145.72 22.344C145.986 21.8427 146.12 21.2613 146.12 20.6ZM151.556 22.984L149.764 27.288H148.788L149.956 22.984H151.556ZM156.946 20.6C156.946 19.6933 157.127 18.904 157.49 18.232C157.852 17.5493 158.354 17.0213 158.994 16.648C159.644 16.2747 160.386 16.088 161.218 16.088C162.295 16.088 163.18 16.3493 163.874 16.872C164.578 17.3947 165.042 18.12 165.266 19.048H163.698C163.548 18.5147 163.255 18.0933 162.818 17.784C162.391 17.4747 161.858 17.32 161.218 17.32C160.386 17.32 159.714 17.608 159.202 18.184C158.69 18.7493 158.434 19.5547 158.434 20.6C158.434 21.656 158.69 22.472 159.202 23.048C159.714 23.624 160.386 23.912 161.218 23.912C161.858 23.912 162.391 23.7627 162.818 23.464C163.244 23.1653 163.538 22.7387 163.698 22.184H165.266C165.031 23.08 164.562 23.8 163.858 24.344C163.154 24.8773 162.274 25.144 161.218 25.144C160.386 25.144 159.644 24.9573 158.994 24.584C158.354 24.2107 157.852 23.6827 157.49 23C157.127 22.3173 156.946 21.5173 156.946 20.6ZM171.033 25.144C170.211 25.144 169.465 24.9573 168.793 24.584C168.131 24.2107 167.609 23.6827 167.225 23C166.851 22.3067 166.665 21.5067 166.665 20.6C166.665 19.704 166.857 18.9147 167.241 18.232C167.635 17.5387 168.169 17.0107 168.841 16.648C169.513 16.2747 170.265 16.088 171.097 16.088C171.929 16.088 172.681 16.2747 173.353 16.648C174.025 17.0107 174.553 17.5333 174.937 18.216C175.331 18.8987 175.529 19.6933 175.529 20.6C175.529 21.5067 175.326 22.3067 174.921 23C174.526 23.6827 173.987 24.2107 173.305 24.584C172.622 24.9573 171.865 25.144 171.033 25.144ZM171.033 23.864C171.555 23.864 172.046 23.7413 172.505 23.496C172.963 23.2507 173.331 22.8827 173.609 22.392C173.897 21.9013 174.041 21.304 174.041 20.6C174.041 19.896 173.902 19.2987 173.625 18.808C173.347 18.3173 172.985 17.9547 172.537 17.72C172.089 17.4747 171.603 17.352 171.081 17.352C170.547 17.352 170.057 17.4747 169.609 17.72C169.171 17.9547 168.819 18.3173 168.553 18.808C168.286 19.2987 168.153 19.896 168.153 20.6C168.153 21.3147 168.281 21.9173 168.537 22.408C168.803 22.8987 169.155 23.2667 169.593 23.512C170.03 23.7467 170.51 23.864 171.033 23.864ZM181.715 16.072C182.782 16.072 183.646 16.3973 184.307 17.048C184.968 17.688 185.299 18.616 185.299 19.832V25H183.859V20.04C183.859 19.1653 183.64 18.4987 183.203 18.04C182.766 17.5707 182.168 17.336 181.411 17.336C180.643 17.336 180.03 17.576 179.571 18.056C179.123 18.536 178.899 19.2347 178.899 20.152V25H177.443V16.232H178.899V17.48C179.187 17.032 179.576 16.6853 180.067 16.44C180.568 16.1947 181.118 16.072 181.715 16.072ZM189.453 17.432V22.6C189.453 23.0267 189.544 23.3307 189.725 23.512C189.907 23.6827 190.221 23.768 190.669 23.768H191.741V25H190.429C189.619 25 189.011 24.8133 188.605 24.44C188.2 24.0667 187.997 23.4533 187.997 22.6V17.432H186.861V16.232H187.997V14.024H189.453V16.232H191.741V17.432H189.453ZM194.257 14.808C193.98 14.808 193.745 14.712 193.553 14.52C193.361 14.328 193.265 14.0933 193.265 13.816C193.265 13.5387 193.361 13.304 193.553 13.112C193.745 12.92 193.98 12.824 194.257 12.824C194.524 12.824 194.748 12.92 194.929 13.112C195.121 13.304 195.217 13.5387 195.217 13.816C195.217 14.0933 195.121 14.328 194.929 14.52C194.748 14.712 194.524 14.808 194.257 14.808ZM194.961 16.232V25H193.505V16.232H194.961ZM201.715 16.072C202.782 16.072 203.646 16.3973 204.307 17.048C204.968 17.688 205.299 18.616 205.299 19.832V25H203.859V20.04C203.859 19.1653 203.64 18.4987 203.203 18.04C202.766 17.5707 202.168 17.336 201.411 17.336C200.643 17.336 200.03 17.576 199.571 18.056C199.123 18.536 198.899 19.2347 198.899 20.152V25H197.443V16.232H198.899V17.48C199.187 17.032 199.576 16.6853 200.067 16.44C200.568 16.1947 201.118 16.072 201.715 16.072ZM215.453 16.232V25H213.997V23.704C213.72 24.152 213.331 24.504 212.829 24.76C212.339 25.0053 211.795 25.128 211.197 25.128C210.515 25.128 209.901 24.9893 209.357 24.712C208.813 24.424 208.381 23.9973 208.061 23.432C207.752 22.8667 207.597 22.1787 207.597 21.368V16.232H209.037V21.176C209.037 22.04 209.256 22.7067 209.693 23.176C210.131 23.6347 210.728 23.864 211.485 23.864C212.264 23.864 212.877 23.624 213.325 23.144C213.773 22.664 213.997 21.9653 213.997 21.048V16.232H215.453ZM225.912 20.28C225.912 20.5573 225.896 20.8507 225.864 21.16H218.856C218.909 22.024 219.202 22.7013 219.736 23.192C220.28 23.672 220.936 23.912 221.704 23.912C222.333 23.912 222.856 23.768 223.272 23.48C223.698 23.1813 223.997 22.7867 224.168 22.296H225.736C225.501 23.1387 225.032 23.8267 224.328 24.36C223.624 24.8827 222.749 25.144 221.704 25.144C220.872 25.144 220.125 24.9573 219.464 24.584C218.813 24.2107 218.301 23.6827 217.928 23C217.554 22.3067 217.368 21.5067 217.368 20.6C217.368 19.6933 217.549 18.8987 217.912 18.216C218.274 17.5333 218.781 17.0107 219.432 16.648C220.093 16.2747 220.85 16.088 221.704 16.088C222.536 16.088 223.272 16.2693 223.912 16.632C224.552 16.9947 225.042 17.496 225.384 18.136C225.736 18.7653 225.912 19.48 225.912 20.28ZM224.408 19.976C224.408 19.4213 224.285 18.9467 224.04 18.552C223.794 18.1467 223.458 17.8427 223.032 17.64C222.616 17.4267 222.152 17.32 221.64 17.32C220.904 17.32 220.274 17.5547 219.752 18.024C219.24 18.4933 218.946 19.144 218.872 19.976H224.408Z" fill="white"/>
<defs>
<linearGradient id="paint0_linear_3896_225314" x1="-49.5225" y1="17.5605" x2="296.354" y2="23.9604" gradientUnits="userSpaceOnUse">
<stop stop-color="#6400FF" stop-opacity="0.88"/>
<stop offset="0.523958" stop-color="#874691" stop-opacity="0.86"/>
<stop offset="1" stop-color="#FF03F5" stop-opacity="0.67"/>
</linearGradient>
<linearGradient id="paint1_linear_3896_225314" x1="0" y1="19" x2="286.208" y2="19" gradientUnits="userSpaceOnUse">
<stop stop-color="#131BB0"/>
<stop offset="0.482292" stop-color="#B84C93"/>
<stop offset="1" stop-color="#FF00F5"/>
<stop offset="1" stop-color="#DB34CA"/>
</linearGradient>
</defs>
</svg>
