<svg width="279" height="38" viewBox="0 0 279 38" fill="none" xmlns="http://www.w3.org/2000/svg">
<rect x="1.04965" y="1.04965" width="276.901" height="35.9007" rx="9.44689" fill="url(#paint0_linear_3652_225670)" stroke="url(#paint1_linear_3652_225670)" stroke-width="2.09931"/>
<path d="M104.687 13.848V20.904C104.687 21.896 104.927 22.632 105.407 23.112C105.898 23.592 106.575 23.832 107.439 23.832C108.293 23.832 108.959 23.592 109.439 23.112C109.93 22.632 110.175 21.896 110.175 20.904V13.848H111.631V20.888C111.631 21.816 111.445 22.6 111.071 23.24C110.698 23.8693 110.191 24.3387 109.551 24.648C108.922 24.9573 108.213 25.112 107.423 25.112C106.634 25.112 105.919 24.9573 105.279 24.648C104.65 24.3387 104.149 23.8693 103.775 23.24C103.413 22.6 103.231 21.816 103.231 20.888V13.848H104.687ZM115.516 17.848C115.804 17.3467 116.231 16.9307 116.796 16.6C117.372 16.2587 118.039 16.088 118.796 16.088C119.575 16.088 120.279 16.2747 120.908 16.648C121.548 17.0213 122.049 17.5493 122.412 18.232C122.775 18.904 122.956 19.688 122.956 20.584C122.956 21.4693 122.775 22.2587 122.412 22.952C122.049 23.6453 121.548 24.184 120.908 24.568C120.279 24.952 119.575 25.144 118.796 25.144C118.049 25.144 117.388 24.9787 116.812 24.648C116.247 24.3067 115.815 23.8853 115.516 23.384V29.16H114.06V16.232H115.516V17.848ZM121.468 20.584C121.468 19.9227 121.335 19.3467 121.068 18.856C120.801 18.3653 120.439 17.992 119.98 17.736C119.532 17.48 119.036 17.352 118.492 17.352C117.959 17.352 117.463 17.4853 117.004 17.752C116.556 18.008 116.193 18.3867 115.916 18.888C115.649 19.3787 115.516 19.9493 115.516 20.6C115.516 21.2613 115.649 21.8427 115.916 22.344C116.193 22.8347 116.556 23.2133 117.004 23.48C117.463 23.736 117.959 23.864 118.492 23.864C119.036 23.864 119.532 23.736 119.98 23.48C120.439 23.2133 120.801 22.8347 121.068 22.344C121.335 21.8427 121.468 21.256 121.468 20.584ZM128.489 16.088C129.246 16.088 129.907 16.2533 130.473 16.584C131.049 16.9147 131.475 17.3307 131.753 17.832V16.232H133.225V25.192C133.225 25.992 133.054 26.7013 132.713 27.32C132.371 27.9493 131.881 28.44 131.241 28.792C130.611 29.144 129.875 29.32 129.033 29.32C127.881 29.32 126.921 29.048 126.153 28.504C125.385 27.96 124.931 27.2187 124.793 26.28H126.233C126.393 26.8133 126.723 27.24 127.225 27.56C127.726 27.8907 128.329 28.056 129.033 28.056C129.833 28.056 130.483 27.8053 130.985 27.304C131.497 26.8027 131.753 26.0987 131.753 25.192V23.352C131.465 23.864 131.038 24.2907 130.473 24.632C129.907 24.9733 129.246 25.144 128.489 25.144C127.71 25.144 127.001 24.952 126.361 24.568C125.731 24.184 125.235 23.6453 124.873 22.952C124.51 22.2587 124.329 21.4693 124.329 20.584C124.329 19.688 124.51 18.904 124.873 18.232C125.235 17.5493 125.731 17.0213 126.361 16.648C127.001 16.2747 127.71 16.088 128.489 16.088ZM131.753 20.6C131.753 19.9387 131.619 19.3627 131.353 18.872C131.086 18.3813 130.723 18.008 130.265 17.752C129.817 17.4853 129.321 17.352 128.777 17.352C128.233 17.352 127.737 17.48 127.289 17.736C126.841 17.992 126.483 18.3653 126.217 18.856C125.95 19.3467 125.817 19.9227 125.817 20.584C125.817 21.256 125.95 21.8427 126.217 22.344C126.483 22.8347 126.841 23.2133 127.289 23.48C127.737 23.736 128.233 23.864 128.777 23.864C129.321 23.864 129.817 23.736 130.265 23.48C130.723 23.2133 131.086 22.8347 131.353 22.344C131.619 21.8427 131.753 21.2613 131.753 20.6ZM137.141 17.656C137.397 17.1547 137.76 16.7653 138.229 16.488C138.709 16.2107 139.29 16.072 139.973 16.072V17.576H139.589C137.957 17.576 137.141 18.4613 137.141 20.232V25H135.685V16.232H137.141V17.656ZM141.11 20.584C141.11 19.688 141.291 18.904 141.654 18.232C142.017 17.5493 142.513 17.0213 143.142 16.648C143.782 16.2747 144.491 16.088 145.27 16.088C146.038 16.088 146.705 16.2533 147.27 16.584C147.835 16.9147 148.257 17.3307 148.534 17.832V16.232H150.006V25H148.534V23.368C148.246 23.88 147.814 24.3067 147.238 24.648C146.673 24.9787 146.011 25.144 145.254 25.144C144.475 25.144 143.771 24.952 143.142 24.568C142.513 24.184 142.017 23.6453 141.654 22.952C141.291 22.2587 141.11 21.4693 141.11 20.584ZM148.534 20.6C148.534 19.9387 148.401 19.3627 148.134 18.872C147.867 18.3813 147.505 18.008 147.046 17.752C146.598 17.4853 146.102 17.352 145.558 17.352C145.014 17.352 144.518 17.48 144.07 17.736C143.622 17.992 143.265 18.3653 142.998 18.856C142.731 19.3467 142.598 19.9227 142.598 20.584C142.598 21.256 142.731 21.8427 142.998 22.344C143.265 22.8347 143.622 23.2133 144.07 23.48C144.518 23.736 145.014 23.864 145.558 23.864C146.102 23.864 146.598 23.736 147.046 23.48C147.505 23.2133 147.867 22.8347 148.134 22.344C148.401 21.8427 148.534 21.2613 148.534 20.6ZM151.922 20.584C151.922 19.688 152.104 18.904 152.466 18.232C152.829 17.5493 153.325 17.0213 153.954 16.648C154.594 16.2747 155.309 16.088 156.098 16.088C156.781 16.088 157.416 16.248 158.002 16.568C158.589 16.8773 159.037 17.288 159.346 17.8V13.16H160.818V25H159.346V23.352C159.058 23.8747 158.632 24.3067 158.066 24.648C157.501 24.9787 156.84 25.144 156.082 25.144C155.304 25.144 154.594 24.952 153.954 24.568C153.325 24.184 152.829 23.6453 152.466 22.952C152.104 22.2587 151.922 21.4693 151.922 20.584ZM159.346 20.6C159.346 19.9387 159.213 19.3627 158.946 18.872C158.68 18.3813 158.317 18.008 157.858 17.752C157.41 17.4853 156.914 17.352 156.37 17.352C155.826 17.352 155.33 17.48 154.882 17.736C154.434 17.992 154.077 18.3653 153.81 18.856C153.544 19.3467 153.41 19.9227 153.41 20.584C153.41 21.256 153.544 21.8427 153.81 22.344C154.077 22.8347 154.434 23.2133 154.882 23.48C155.33 23.736 155.826 23.864 156.37 23.864C156.914 23.864 157.41 23.736 157.858 23.48C158.317 23.2133 158.68 22.8347 158.946 22.344C159.213 21.8427 159.346 21.2613 159.346 20.6ZM171.279 20.28C171.279 20.5573 171.263 20.8507 171.231 21.16H164.223C164.276 22.024 164.57 22.7013 165.103 23.192C165.647 23.672 166.303 23.912 167.071 23.912C167.7 23.912 168.223 23.768 168.639 23.48C169.066 23.1813 169.364 22.7867 169.535 22.296H171.103C170.868 23.1387 170.399 23.8267 169.695 24.36C168.991 24.8827 168.116 25.144 167.071 25.144C166.239 25.144 165.492 24.9573 164.831 24.584C164.18 24.2107 163.668 23.6827 163.295 23C162.922 22.3067 162.735 21.5067 162.735 20.6C162.735 19.6933 162.916 18.8987 163.279 18.216C163.642 17.5333 164.148 17.0107 164.799 16.648C165.46 16.2747 166.218 16.088 167.071 16.088C167.903 16.088 168.639 16.2693 169.279 16.632C169.919 16.9947 170.41 17.496 170.751 18.136C171.103 18.7653 171.279 19.48 171.279 20.28ZM169.775 19.976C169.775 19.4213 169.652 18.9467 169.407 18.552C169.162 18.1467 168.826 17.8427 168.399 17.64C167.983 17.4267 167.519 17.32 167.007 17.32C166.271 17.32 165.642 17.5547 165.119 18.024C164.607 18.4933 164.314 19.144 164.239 19.976H169.775Z" fill="white"/>
<defs>
<linearGradient id="paint0_linear_3652_225670" x1="-49.5225" y1="17.5605" x2="296.354" y2="23.9604" gradientUnits="userSpaceOnUse">
<stop stop-color="#6400FF" stop-opacity="0.88"/>
<stop offset="0.523958" stop-color="#874691" stop-opacity="0.86"/>
<stop offset="1" stop-color="#FF03F5" stop-opacity="0.67"/>
</linearGradient>
<linearGradient id="paint1_linear_3652_225670" x1="0" y1="19" x2="286.208" y2="19" gradientUnits="userSpaceOnUse">
<stop stop-color="#131BB0"/>
<stop offset="0.482292" stop-color="#B84C93"/>
<stop offset="1" stop-color="#FF00F5"/>
<stop offset="1" stop-color="#DB34CA"/>
</linearGradient>
</defs>
</svg>
