<svg width="226" height="30" viewBox="0 0 226 30" fill="none" xmlns="http://www.w3.org/2000/svg">
<rect x="1.04965" y="1.04965" width="223.901" height="27.617" rx="9.44689" fill="url(#paint0_linear_3504_210627)" stroke="url(#paint1_linear_3504_210627)" stroke-width="2.09931"/>
<path d="M62.0919 10.545L58.1469 21H56.5719L52.6269 10.545H54.0819L57.3669 19.56L60.6519 10.545H62.0919ZM64.2936 11.445C64.0336 11.445 63.8136 11.355 63.6336 11.175C63.4536 10.995 63.3636 10.775 63.3636 10.515C63.3636 10.255 63.4536 10.035 63.6336 9.855C63.8136 9.675 64.0336 9.585 64.2936 9.585C64.5436 9.585 64.7536 9.675 64.9236 9.855C65.1036 10.035 65.1936 10.255 65.1936 10.515C65.1936 10.775 65.1036 10.995 64.9236 11.175C64.7536 11.355 64.5436 11.445 64.2936 11.445ZM64.9536 12.78V21H63.5886V12.78H64.9536ZM74.78 16.575C74.78 16.835 74.765 17.11 74.735 17.4H68.165C68.215 18.21 68.49 18.845 68.99 19.305C69.5 19.755 70.115 19.98 70.835 19.98C71.425 19.98 71.915 19.845 72.305 19.575C72.705 19.295 72.985 18.925 73.145 18.465H74.615C74.395 19.255 73.955 19.9 73.295 20.4C72.635 20.89 71.815 21.135 70.835 21.135C70.055 21.135 69.355 20.96 68.735 20.61C68.125 20.26 67.645 19.765 67.295 19.125C66.945 18.475 66.77 17.725 66.77 16.875C66.77 16.025 66.94 15.28 67.28 14.64C67.62 14 68.095 13.51 68.705 13.17C69.325 12.82 70.035 12.645 70.835 12.645C71.615 12.645 72.305 12.815 72.905 13.155C73.505 13.495 73.965 13.965 74.285 14.565C74.615 15.155 74.78 15.825 74.78 16.575ZM73.37 16.29C73.37 15.77 73.255 15.325 73.025 14.955C72.795 14.575 72.48 14.29 72.08 14.1C71.69 13.9 71.255 13.8 70.775 13.8C70.085 13.8 69.495 14.02 69.005 14.46C68.525 14.9 68.25 15.51 68.18 16.29H73.37ZM87.5318 12.78L84.9668 21H83.5568L81.5768 14.475L79.5968 21H78.1868L75.6068 12.78H77.0018L78.8918 19.68L80.9318 12.78H82.3268L84.3218 19.695L86.1818 12.78H87.5318ZM96.4705 21.135C95.7005 21.135 95.0005 20.96 94.3705 20.61C93.7505 20.26 93.2605 19.765 92.9005 19.125C92.5505 18.475 92.3755 17.725 92.3755 16.875C92.3755 16.035 92.5555 15.295 92.9155 14.655C93.2855 14.005 93.7855 13.51 94.4155 13.17C95.0455 12.82 95.7505 12.645 96.5305 12.645C97.3105 12.645 98.0155 12.82 98.6455 13.17C99.2755 13.51 99.7705 14 100.13 14.64C100.5 15.28 100.685 16.025 100.685 16.875C100.685 17.725 100.495 18.475 100.115 19.125C99.7455 19.765 99.2405 20.26 98.6005 20.61C97.9605 20.96 97.2505 21.135 96.4705 21.135ZM96.4705 19.935C96.9605 19.935 97.4205 19.82 97.8505 19.59C98.2805 19.36 98.6255 19.015 98.8855 18.555C99.1555 18.095 99.2905 17.535 99.2905 16.875C99.2905 16.215 99.1605 15.655 98.9005 15.195C98.6405 14.735 98.3005 14.395 97.8805 14.175C97.4605 13.945 97.0055 13.83 96.5155 13.83C96.0155 13.83 95.5555 13.945 95.1355 14.175C94.7255 14.395 94.3955 14.735 94.1455 15.195C93.8955 15.655 93.7705 16.215 93.7705 16.875C93.7705 17.545 93.8905 18.11 94.1305 18.57C94.3805 19.03 94.7105 19.375 95.1205 19.605C95.5305 19.825 95.9805 19.935 96.4705 19.935ZM106.485 12.63C107.485 12.63 108.295 12.935 108.915 13.545C109.535 14.145 109.845 15.015 109.845 16.155V21H108.495V16.35C108.495 15.53 108.29 14.905 107.88 14.475C107.47 14.035 106.91 13.815 106.2 13.815C105.48 13.815 104.905 14.04 104.475 14.49C104.055 14.94 103.845 15.595 103.845 16.455V21H102.48V12.78H103.845V13.95C104.115 13.53 104.48 13.205 104.94 12.975C105.41 12.745 105.925 12.63 106.485 12.63ZM117.439 11.655V15.15H121.249V16.275H117.439V19.875H121.699V21H116.074V10.53H121.699V11.655H117.439ZM128.054 21L126.104 17.94L124.229 21H122.804L125.459 16.92L122.804 12.78H124.349L126.299 15.825L128.159 12.78H129.584L126.944 16.845L129.599 21H128.054ZM132.307 14.295C132.577 13.825 132.977 13.435 133.507 13.125C134.047 12.805 134.672 12.645 135.382 12.645C136.112 12.645 136.772 12.82 137.362 13.17C137.962 13.52 138.432 14.015 138.772 14.655C139.112 15.285 139.282 16.02 139.282 16.86C139.282 17.69 139.112 18.43 138.772 19.08C138.432 19.73 137.962 20.235 137.362 20.595C136.772 20.955 136.112 21.135 135.382 21.135C134.682 21.135 134.062 20.98 133.522 20.67C132.992 20.35 132.587 19.955 132.307 19.485V24.9H130.942V12.78H132.307V14.295ZM137.887 16.86C137.887 16.24 137.762 15.7 137.512 15.24C137.262 14.78 136.922 14.43 136.492 14.19C136.072 13.95 135.607 13.83 135.097 13.83C134.597 13.83 134.132 13.955 133.702 14.205C133.282 14.445 132.942 14.8 132.682 15.27C132.432 15.73 132.307 16.265 132.307 16.875C132.307 17.495 132.432 18.04 132.682 18.51C132.942 18.97 133.282 19.325 133.702 19.575C134.132 19.815 134.597 19.935 135.097 19.935C135.607 19.935 136.072 19.815 136.492 19.575C136.922 19.325 137.262 18.97 137.512 18.51C137.762 18.04 137.887 17.49 137.887 16.86ZM142.444 9.9V21H141.079V9.9H142.444ZM148.355 21.135C147.585 21.135 146.885 20.96 146.255 20.61C145.635 20.26 145.145 19.765 144.785 19.125C144.435 18.475 144.26 17.725 144.26 16.875C144.26 16.035 144.44 15.295 144.8 14.655C145.17 14.005 145.67 13.51 146.3 13.17C146.93 12.82 147.635 12.645 148.415 12.645C149.195 12.645 149.9 12.82 150.53 13.17C151.16 13.51 151.655 14 152.015 14.64C152.385 15.28 152.57 16.025 152.57 16.875C152.57 17.725 152.38 18.475 152 19.125C151.63 19.765 151.125 20.26 150.485 20.61C149.845 20.96 149.135 21.135 148.355 21.135ZM148.355 19.935C148.845 19.935 149.305 19.82 149.735 19.59C150.165 19.36 150.51 19.015 150.77 18.555C151.04 18.095 151.175 17.535 151.175 16.875C151.175 16.215 151.045 15.655 150.785 15.195C150.525 14.735 150.185 14.395 149.765 14.175C149.345 13.945 148.89 13.83 148.4 13.83C147.9 13.83 147.44 13.945 147.02 14.175C146.61 14.395 146.28 14.735 146.03 15.195C145.78 15.655 145.655 16.215 145.655 16.875C145.655 17.545 145.775 18.11 146.015 18.57C146.265 19.03 146.595 19.375 147.005 19.605C147.415 19.825 147.865 19.935 148.355 19.935ZM155.73 14.115C155.97 13.645 156.31 13.28 156.75 13.02C157.2 12.76 157.745 12.63 158.385 12.63V14.04H158.025C156.495 14.04 155.73 14.87 155.73 16.53V21H154.365V12.78H155.73V14.115ZM167.461 16.575C167.461 16.835 167.446 17.11 167.416 17.4H160.846C160.896 18.21 161.171 18.845 161.671 19.305C162.181 19.755 162.796 19.98 163.516 19.98C164.106 19.98 164.596 19.845 164.986 19.575C165.386 19.295 165.666 18.925 165.826 18.465H167.296C167.076 19.255 166.636 19.9 165.976 20.4C165.316 20.89 164.496 21.135 163.516 21.135C162.736 21.135 162.036 20.96 161.416 20.61C160.806 20.26 160.326 19.765 159.976 19.125C159.626 18.475 159.451 17.725 159.451 16.875C159.451 16.025 159.621 15.28 159.961 14.64C160.301 14 160.776 13.51 161.386 13.17C162.006 12.82 162.716 12.645 163.516 12.645C164.296 12.645 164.986 12.815 165.586 13.155C166.186 13.495 166.646 13.965 166.966 14.565C167.296 15.155 167.461 15.825 167.461 16.575ZM166.051 16.29C166.051 15.77 165.936 15.325 165.706 14.955C165.476 14.575 165.161 14.29 164.761 14.1C164.371 13.9 163.936 13.8 163.456 13.8C162.766 13.8 162.176 14.02 161.686 14.46C161.206 14.9 160.931 15.51 160.861 16.29H166.051ZM170.627 14.115C170.867 13.645 171.207 13.28 171.647 13.02C172.097 12.76 172.642 12.63 173.282 12.63V14.04H172.922C171.392 14.04 170.627 14.87 170.627 16.53V21H169.262V12.78H170.627V14.115Z" fill="white"/>
<path d="M191.525 17.3955H181.5C181.224 17.3955 181 17.1716 181 16.8955V16.1748C181 15.8987 181.224 15.6751 181.5 15.6751H191.525C191.615 15.6751 191.659 15.5668 191.596 15.504L190.892 14.8079C190.564 14.4839 190.561 13.9558 190.885 13.6281C191.222 13.287 191.776 13.2991 192.097 13.6545L194.097 15.8642C194.441 16.2452 194.441 16.8253 194.097 17.2062L192.09 19.4236C191.768 19.779 191.214 19.791 190.877 19.45C190.553 19.1222 190.556 18.5941 190.884 18.2701L191.596 17.5666C191.659 17.5037 191.615 17.3955 191.525 17.3955Z" fill="white"/>
<defs>
<linearGradient id="paint0_linear_3504_210627" x1="-40.115" y1="13.7324" x2="240.051" y2="19.1023" gradientUnits="userSpaceOnUse">
<stop stop-color="#6400FF" stop-opacity="0.88"/>
<stop offset="0.523958" stop-color="#874691" stop-opacity="0.86"/>
<stop offset="1" stop-color="#FF03F5" stop-opacity="0.67"/>
</linearGradient>
<linearGradient id="paint1_linear_3504_210627" x1="0" y1="14.8581" x2="231.839" y2="14.8581" gradientUnits="userSpaceOnUse">
<stop stop-color="#131BB0"/>
<stop offset="0.482292" stop-color="#B84C93"/>
<stop offset="1" stop-color="#FF00F5"/>
<stop offset="1" stop-color="#DB34CA"/>
</linearGradient>
</defs>
</svg>
