<svg width="16" height="16" viewBox="0 0 16 16" fill="none" xmlns="http://www.w3.org/2000/svg">
<path fill-rule="evenodd" clip-rule="evenodd" d="M7.9987 13.332C10.9442 13.332 13.332 10.9442 13.332 7.9987C13.332 5.05318 10.9442 2.66536 7.9987 2.66536C5.05318 2.66536 2.66536 5.05318 2.66536 7.9987C2.66536 10.9442 5.05318 13.332 7.9987 13.332ZM7.9987 14.6654C11.6806 14.6654 14.6654 11.6806 14.6654 7.9987C14.6654 4.3168 11.6806 1.33203 7.9987 1.33203C4.3168 1.33203 1.33203 4.3168 1.33203 7.9987C1.33203 11.6806 4.3168 14.6654 7.9987 14.6654Z" fill="#9659FB"/>
<path fill-rule="evenodd" clip-rule="evenodd" d="M7.9987 4.66797C7.63051 4.66797 7.33203 4.96645 7.33203 5.33464C7.33203 5.70283 7.63051 6.0013 7.9987 6.0013C8.36689 6.0013 8.66536 5.70283 8.66536 5.33464C8.66536 4.96645 8.36689 4.66797 7.9987 4.66797ZM7.9987 7.33464C7.63051 7.33464 7.33203 7.63311 7.33203 8.0013V10.668C7.33203 11.0362 7.63051 11.3346 7.9987 11.3346C8.36689 11.3346 8.66536 11.0362 8.66536 10.668V8.0013C8.66536 7.63311 8.36689 7.33464 7.9987 7.33464Z" fill="#9659FB"/>
</svg>
