<svg width="368" height="93" viewBox="0 0 368 93" fill="none" xmlns="http://www.w3.org/2000/svg">
<rect width="368" height="93" rx="8" fill="#FF0000" fill-opacity="0.15"/>
<path fill-rule="evenodd" clip-rule="evenodd" d="M40.0013 57.168C45.8923 57.168 50.668 52.3923 50.668 46.5013C50.668 40.6103 45.8923 35.8346 40.0013 35.8346C34.1103 35.8346 29.3346 40.6103 29.3346 46.5013C29.3346 52.3923 34.1103 57.168 40.0013 57.168ZM40.0013 59.8346C47.3651 59.8346 53.3346 53.8651 53.3346 46.5013C53.3346 39.1375 47.3651 33.168 40.0013 33.168C32.6375 33.168 26.668 39.1375 26.668 46.5013C26.668 53.8651 32.6375 59.8346 40.0013 59.8346Z" fill="#FF0A12"/>
<path fill-rule="evenodd" clip-rule="evenodd" d="M40.0013 39.832C39.2649 39.832 38.668 40.429 38.668 41.1654C38.668 41.9017 39.2649 42.4987 40.0013 42.4987C40.7377 42.4987 41.3346 41.9017 41.3346 41.1654C41.3346 40.429 40.7377 39.832 40.0013 39.832ZM40.0013 45.1654C39.2649 45.1654 38.668 45.7623 38.668 46.4987V51.832C38.668 52.5684 39.2649 53.1654 40.0013 53.1654C40.7377 53.1654 41.3346 52.5684 41.3346 51.832V46.4987C41.3346 45.7623 40.7377 45.1654 40.0013 45.1654Z" fill="#FF0A12"/>
<path d="M74.3672 29.625V41H71.6328L67.6094 33.9219V41H64.8672V29.625H67.6094L71.6328 36.7031V29.625H74.3672ZM75.6484 36.8594V36.6953C75.6484 36.0755 75.737 35.5052 75.9141 34.9844C76.0911 34.4583 76.3516 34.0026 76.6953 33.6172C77.0391 33.2318 77.4635 32.9323 77.9688 32.7188C78.474 32.5 79.0573 32.3906 79.7188 32.3906C80.3854 32.3906 80.9714 32.5 81.4766 32.7188C81.987 32.9323 82.4141 33.2318 82.7578 33.6172C83.1016 34.0026 83.362 34.4583 83.5391 34.9844C83.7161 35.5052 83.8047 36.0755 83.8047 36.6953V36.8594C83.8047 37.474 83.7161 38.0443 83.5391 38.5703C83.362 39.0911 83.1016 39.5469 82.7578 39.9375C82.4141 40.3229 81.9896 40.6224 81.4844 40.8359C80.9792 41.0495 80.3958 41.1562 79.7344 41.1562C79.0729 41.1562 78.487 41.0495 77.9766 40.8359C77.4661 40.6224 77.0391 40.3229 76.6953 39.9375C76.3516 39.5469 76.0911 39.0911 75.9141 38.5703C75.737 38.0443 75.6484 37.474 75.6484 36.8594ZM78.2812 36.6953V36.8594C78.2812 37.1771 78.3047 37.474 78.3516 37.75C78.3984 38.026 78.4766 38.2682 78.5859 38.4766C78.6953 38.6797 78.8438 38.8385 79.0312 38.9531C79.2188 39.0677 79.4531 39.125 79.7344 39.125C80.0104 39.125 80.2396 39.0677 80.4219 38.9531C80.6094 38.8385 80.7578 38.6797 80.8672 38.4766C80.9766 38.2682 81.0547 38.026 81.1016 37.75C81.1484 37.474 81.1719 37.1771 81.1719 36.8594V36.6953C81.1719 36.388 81.1484 36.099 81.1016 35.8281C81.0547 35.5521 80.9766 35.3099 80.8672 35.1016C80.7578 34.888 80.6094 34.7214 80.4219 34.6016C80.2344 34.4818 80 34.4219 79.7188 34.4219C79.4427 34.4219 79.2109 34.4818 79.0234 34.6016C78.8411 34.7214 78.6953 34.888 78.5859 35.1016C78.4766 35.3099 78.3984 35.5521 78.3516 35.8281C78.3047 36.099 78.2812 36.388 78.2812 36.6953ZM89.4297 32.5469V34.375H84.3359V32.5469H89.4297ZM85.4062 30.4453H88.0391V38.2422C88.0391 38.4661 88.0651 38.6406 88.1172 38.7656C88.1693 38.8854 88.2578 38.9714 88.3828 39.0234C88.513 39.0703 88.6849 39.0938 88.8984 39.0938C89.0495 39.0938 89.1745 39.0911 89.2734 39.0859C89.3724 39.0755 89.4661 39.0625 89.5547 39.0469V40.9297C89.3307 41.0026 89.0964 41.0573 88.8516 41.0938C88.6068 41.1354 88.3464 41.1562 88.0703 41.1562C87.5078 41.1562 87.026 41.0677 86.625 40.8906C86.2292 40.7135 85.9271 40.4349 85.7188 40.0547C85.5104 39.6745 85.4062 39.1797 85.4062 38.5703V30.4453ZM98.5547 41.1562C97.8672 41.1562 97.2526 41.0495 96.7109 40.8359C96.1693 40.6172 95.7109 40.3177 95.3359 39.9375C94.9661 39.5573 94.6823 39.1198 94.4844 38.625C94.2917 38.1302 94.1953 37.6068 94.1953 37.0547V36.7578C94.1953 36.138 94.2812 35.5651 94.4531 35.0391C94.625 34.5078 94.8802 34.0443 95.2188 33.6484C95.5573 33.2526 95.9818 32.9453 96.4922 32.7266C97.0026 32.5026 97.5964 32.3906 98.2734 32.3906C98.8724 32.3906 99.4089 32.487 99.8828 32.6797C100.357 32.8724 100.758 33.1484 101.086 33.5078C101.419 33.8672 101.672 34.3021 101.844 34.8125C102.021 35.3229 102.109 35.8958 102.109 36.5312V37.6016H95.2031V35.9531H99.5391V35.75C99.5443 35.4688 99.4948 35.2292 99.3906 35.0312C99.2917 34.8333 99.1458 34.6823 98.9531 34.5781C98.7604 34.474 98.526 34.4219 98.25 34.4219C97.9635 34.4219 97.7266 34.4844 97.5391 34.6094C97.3568 34.7344 97.2135 34.9062 97.1094 35.125C97.0104 35.3385 96.9401 35.5859 96.8984 35.8672C96.8568 36.1484 96.8359 36.4453 96.8359 36.7578V37.0547C96.8359 37.3672 96.8776 37.651 96.9609 37.9062C97.0495 38.1615 97.1745 38.3802 97.3359 38.5625C97.5026 38.7396 97.7005 38.8776 97.9297 38.9766C98.1641 39.0755 98.4297 39.125 98.7266 39.125C99.0859 39.125 99.4401 39.0573 99.7891 38.9219C100.138 38.7865 100.438 38.5625 100.688 38.25L101.883 39.6719C101.711 39.9167 101.466 40.1536 101.148 40.3828C100.836 40.612 100.461 40.7995 100.023 40.9453C99.5859 41.0859 99.0964 41.1562 98.5547 41.1562ZM105.766 34.3516V41H103.133V32.5469H105.602L105.766 34.3516ZM105.453 36.4844L104.836 36.5C104.836 35.8542 104.914 35.2786 105.07 34.7734C105.227 34.263 105.448 33.8307 105.734 33.4766C106.021 33.1224 106.362 32.8542 106.758 32.6719C107.159 32.4844 107.604 32.3906 108.094 32.3906C108.484 32.3906 108.841 32.4479 109.164 32.5625C109.492 32.6771 109.773 32.862 110.008 33.1172C110.247 33.3724 110.43 33.7109 110.555 34.1328C110.685 34.5495 110.75 35.0651 110.75 35.6797V41H108.102V35.6719C108.102 35.3333 108.055 35.0755 107.961 34.8984C107.867 34.7161 107.732 34.5911 107.555 34.5234C107.378 34.4557 107.161 34.4219 106.906 34.4219C106.635 34.4219 106.406 34.474 106.219 34.5781C106.031 34.6823 105.88 34.8281 105.766 35.0156C105.656 35.1979 105.576 35.4141 105.523 35.6641C105.477 35.9141 105.453 36.1875 105.453 36.4844ZM111.883 36.8594V36.6953C111.883 36.0755 111.971 35.5052 112.148 34.9844C112.326 34.4583 112.586 34.0026 112.93 33.6172C113.273 33.2318 113.698 32.9323 114.203 32.7188C114.708 32.5 115.292 32.3906 115.953 32.3906C116.62 32.3906 117.206 32.5 117.711 32.7188C118.221 32.9323 118.648 33.2318 118.992 33.6172C119.336 34.0026 119.596 34.4583 119.773 34.9844C119.951 35.5052 120.039 36.0755 120.039 36.6953V36.8594C120.039 37.474 119.951 38.0443 119.773 38.5703C119.596 39.0911 119.336 39.5469 118.992 39.9375C118.648 40.3229 118.224 40.6224 117.719 40.8359C117.214 41.0495 116.63 41.1562 115.969 41.1562C115.307 41.1562 114.721 41.0495 114.211 40.8359C113.701 40.6224 113.273 40.3229 112.93 39.9375C112.586 39.5469 112.326 39.0911 112.148 38.5703C111.971 38.0443 111.883 37.474 111.883 36.8594ZM114.516 36.6953V36.8594C114.516 37.1771 114.539 37.474 114.586 37.75C114.633 38.026 114.711 38.2682 114.82 38.4766C114.93 38.6797 115.078 38.8385 115.266 38.9531C115.453 39.0677 115.688 39.125 115.969 39.125C116.245 39.125 116.474 39.0677 116.656 38.9531C116.844 38.8385 116.992 38.6797 117.102 38.4766C117.211 38.2682 117.289 38.026 117.336 37.75C117.383 37.474 117.406 37.1771 117.406 36.8594V36.6953C117.406 36.388 117.383 36.099 117.336 35.8281C117.289 35.5521 117.211 35.3099 117.102 35.1016C116.992 34.888 116.844 34.7214 116.656 34.6016C116.469 34.4818 116.234 34.4219 115.953 34.4219C115.677 34.4219 115.445 34.4818 115.258 34.6016C115.076 34.7214 114.93 34.888 114.82 35.1016C114.711 35.3099 114.633 35.5521 114.586 35.8281C114.539 36.099 114.516 36.388 114.516 36.6953ZM126.148 38.9453V32.5469H128.789V41H126.32L126.148 38.9453ZM126.398 37.2266L127.086 37.2109C127.086 37.7786 127.018 38.3047 126.883 38.7891C126.747 39.2682 126.547 39.6849 126.281 40.0391C126.021 40.3932 125.698 40.6693 125.312 40.8672C124.932 41.0599 124.492 41.1562 123.992 41.1562C123.576 41.1562 123.193 41.099 122.844 40.9844C122.5 40.8646 122.203 40.6797 121.953 40.4297C121.703 40.1745 121.508 39.849 121.367 39.4531C121.232 39.0521 121.164 38.5729 121.164 38.0156V32.5469H123.797V38.0312C123.797 38.2188 123.82 38.3802 123.867 38.5156C123.914 38.651 123.982 38.7656 124.07 38.8594C124.159 38.9479 124.268 39.0156 124.398 39.0625C124.534 39.1042 124.688 39.125 124.859 39.125C125.255 39.125 125.565 39.0417 125.789 38.875C126.013 38.7083 126.169 38.4818 126.258 38.1953C126.352 37.9089 126.398 37.5859 126.398 37.2266ZM135.555 32.5469H137.945V40.6719C137.945 41.4531 137.766 42.1146 137.406 42.6562C137.047 43.2031 136.544 43.6172 135.898 43.8984C135.258 44.1849 134.508 44.3281 133.648 44.3281C133.268 44.3281 132.88 44.2786 132.484 44.1797C132.089 44.0859 131.719 43.9453 131.375 43.7578C131.031 43.5703 130.742 43.3385 130.508 43.0625L131.609 41.5156C131.823 41.7552 132.091 41.9583 132.414 42.125C132.737 42.2969 133.117 42.3828 133.555 42.3828C133.935 42.3828 134.253 42.3151 134.508 42.1797C134.768 42.0443 134.966 41.8464 135.102 41.5859C135.237 41.3307 135.305 41.0208 135.305 40.6562V34.5469L135.555 32.5469ZM129.938 36.875V36.7109C129.938 36.0703 130.016 35.487 130.172 34.9609C130.333 34.4297 130.562 33.974 130.859 33.5938C131.161 33.2083 131.526 32.9115 131.953 32.7031C132.38 32.4948 132.862 32.3906 133.398 32.3906C133.977 32.3906 134.451 32.5026 134.82 32.7266C135.195 32.9453 135.495 33.2526 135.719 33.6484C135.948 34.0443 136.125 34.5078 136.25 35.0391C136.38 35.5651 136.49 36.1328 136.578 36.7422V36.9375C136.49 37.5104 136.367 38.0521 136.211 38.5625C136.06 39.0677 135.862 39.5156 135.617 39.9062C135.372 40.2969 135.065 40.6042 134.695 40.8281C134.331 41.0469 133.893 41.1562 133.383 41.1562C132.852 41.1562 132.372 41.0495 131.945 40.8359C131.523 40.6224 131.161 40.3229 130.859 39.9375C130.562 39.5521 130.333 39.099 130.172 38.5781C130.016 38.0573 129.938 37.4896 129.938 36.875ZM132.57 36.7109V36.875C132.57 37.1927 132.599 37.487 132.656 37.7578C132.719 38.0286 132.812 38.2682 132.938 38.4766C133.062 38.6797 133.216 38.8385 133.398 38.9531C133.586 39.0677 133.805 39.125 134.055 39.125C134.435 39.125 134.742 39.0443 134.977 38.8828C135.211 38.7214 135.38 38.4922 135.484 38.1953C135.589 37.8984 135.633 37.5495 135.617 37.1484V36.5312C135.628 36.1875 135.604 35.8854 135.547 35.625C135.49 35.3594 135.398 35.138 135.273 34.9609C135.154 34.7839 134.992 34.651 134.789 34.5625C134.591 34.4688 134.352 34.4219 134.07 34.4219C133.826 34.4219 133.609 34.4792 133.422 34.5938C133.234 34.7083 133.078 34.8698 132.953 35.0781C132.828 35.2812 132.732 35.5234 132.664 35.8047C132.602 36.0807 132.57 36.3828 132.57 36.7109ZM142.039 29V41H139.406V29H142.039ZM141.727 36.4844L141.109 36.5C141.109 35.9062 141.182 35.3594 141.328 34.8594C141.474 34.3594 141.682 33.9245 141.953 33.5547C142.224 33.1849 142.549 32.8984 142.93 32.6953C143.31 32.4922 143.732 32.3906 144.195 32.3906C144.612 32.3906 144.992 32.4505 145.336 32.5703C145.685 32.6901 145.984 32.8828 146.234 33.1484C146.49 33.4141 146.685 33.7604 146.82 34.1875C146.961 34.6146 147.031 35.1354 147.031 35.75V41H144.383V35.7344C144.383 35.3906 144.333 35.125 144.234 34.9375C144.141 34.7448 144.005 34.612 143.828 34.5391C143.651 34.4609 143.435 34.4219 143.18 34.4219C142.872 34.4219 142.622 34.474 142.43 34.5781C142.237 34.6823 142.089 34.8281 141.984 35.0156C141.885 35.1979 141.818 35.4141 141.781 35.6641C141.745 35.9141 141.727 36.1875 141.727 36.4844ZM155.703 41H153.055V31.8594C153.055 31.2031 153.188 30.651 153.453 30.2031C153.719 29.7552 154.094 29.4167 154.578 29.1875C155.062 28.9531 155.635 28.8359 156.297 28.8359C156.526 28.8359 156.742 28.8516 156.945 28.8828C157.148 28.9141 157.346 28.9531 157.539 29L157.547 30.9375C157.453 30.9115 157.357 30.8932 157.258 30.8828C157.159 30.8724 157.036 30.8672 156.891 30.8672C156.635 30.8672 156.419 30.9062 156.242 30.9844C156.065 31.0573 155.93 31.1693 155.836 31.3203C155.747 31.4661 155.703 31.6458 155.703 31.8594V41ZM157.344 32.5469V34.375H151.836V32.5469H157.344ZM163.227 38.9453V32.5469H165.867V41H163.398L163.227 38.9453ZM163.477 37.2266L164.164 37.2109C164.164 37.7786 164.096 38.3047 163.961 38.7891C163.826 39.2682 163.625 39.6849 163.359 40.0391C163.099 40.3932 162.776 40.6693 162.391 40.8672C162.01 41.0599 161.57 41.1562 161.07 41.1562C160.654 41.1562 160.271 41.099 159.922 40.9844C159.578 40.8646 159.281 40.6797 159.031 40.4297C158.781 40.1745 158.586 39.849 158.445 39.4531C158.31 39.0521 158.242 38.5729 158.242 38.0156V32.5469H160.875V38.0312C160.875 38.2188 160.898 38.3802 160.945 38.5156C160.992 38.651 161.06 38.7656 161.148 38.8594C161.237 38.9479 161.346 39.0156 161.477 39.0625C161.612 39.1042 161.766 39.125 161.938 39.125C162.333 39.125 162.643 39.0417 162.867 38.875C163.091 38.7083 163.247 38.4818 163.336 38.1953C163.43 37.9089 163.477 37.5859 163.477 37.2266ZM169.906 34.3516V41H167.273V32.5469H169.742L169.906 34.3516ZM169.594 36.4844L168.977 36.5C168.977 35.8542 169.055 35.2786 169.211 34.7734C169.367 34.263 169.589 33.8307 169.875 33.4766C170.161 33.1224 170.503 32.8542 170.898 32.6719C171.299 32.4844 171.745 32.3906 172.234 32.3906C172.625 32.3906 172.982 32.4479 173.305 32.5625C173.633 32.6771 173.914 32.862 174.148 33.1172C174.388 33.3724 174.57 33.7109 174.695 34.1328C174.826 34.5495 174.891 35.0651 174.891 35.6797V41H172.242V35.6719C172.242 35.3333 172.195 35.0755 172.102 34.8984C172.008 34.7161 171.872 34.5911 171.695 34.5234C171.518 34.4557 171.302 34.4219 171.047 34.4219C170.776 34.4219 170.547 34.474 170.359 34.5781C170.172 34.6823 170.021 34.8281 169.906 35.0156C169.797 35.1979 169.716 35.4141 169.664 35.6641C169.617 35.9141 169.594 36.1875 169.594 36.4844ZM181.211 39.0625V29H183.859V41H181.484L181.211 39.0625ZM176.023 36.875V36.7109C176.023 36.0703 176.094 35.487 176.234 34.9609C176.375 34.4297 176.583 33.974 176.859 33.5938C177.135 33.2083 177.479 32.9115 177.891 32.7031C178.302 32.4948 178.776 32.3906 179.312 32.3906C179.792 32.3906 180.211 32.5026 180.57 32.7266C180.93 32.9453 181.237 33.2526 181.492 33.6484C181.747 34.0443 181.956 34.5078 182.117 35.0391C182.279 35.5651 182.401 36.1328 182.484 36.7422V36.9375C182.401 37.5104 182.279 38.0521 182.117 38.5625C181.956 39.0677 181.747 39.5156 181.492 39.9062C181.237 40.2969 180.927 40.6042 180.562 40.8281C180.203 41.0469 179.781 41.1562 179.297 41.1562C178.76 41.1562 178.286 41.0495 177.875 40.8359C177.469 40.6224 177.128 40.3229 176.852 39.9375C176.581 39.5521 176.375 39.099 176.234 38.5781C176.094 38.0573 176.023 37.4896 176.023 36.875ZM178.656 36.7109V36.875C178.656 37.1927 178.677 37.487 178.719 37.7578C178.76 38.0286 178.831 38.2682 178.93 38.4766C179.034 38.6797 179.169 38.8385 179.336 38.9531C179.508 39.0677 179.719 39.125 179.969 39.125C180.307 39.125 180.586 39.0443 180.805 38.8828C181.029 38.7214 181.193 38.4922 181.297 38.1953C181.406 37.8984 181.453 37.5495 181.438 37.1484V36.5312C181.448 36.1875 181.424 35.8854 181.367 35.625C181.31 35.3594 181.219 35.138 181.094 34.9609C180.974 34.7839 180.82 34.651 180.633 34.5625C180.451 34.4688 180.234 34.4219 179.984 34.4219C179.74 34.4219 179.531 34.4792 179.359 34.5938C179.193 34.7083 179.057 34.8698 178.953 35.0781C178.849 35.2812 178.773 35.5234 178.727 35.8047C178.68 36.0807 178.656 36.3828 178.656 36.7109ZM189.781 38.625C189.781 38.4792 189.732 38.3542 189.633 38.25C189.539 38.1406 189.372 38.0417 189.133 37.9531C188.893 37.8594 188.557 37.7656 188.125 37.6719C187.714 37.5833 187.326 37.4661 186.961 37.3203C186.602 37.1745 186.286 36.9974 186.016 36.7891C185.745 36.5807 185.531 36.3333 185.375 36.0469C185.224 35.7604 185.148 35.4323 185.148 35.0625C185.148 34.7031 185.224 34.3646 185.375 34.0469C185.531 33.724 185.758 33.4401 186.055 33.1953C186.357 32.9453 186.724 32.75 187.156 32.6094C187.589 32.4635 188.081 32.3906 188.633 32.3906C189.393 32.3906 190.049 32.5078 190.602 32.7422C191.154 32.9714 191.578 33.2943 191.875 33.7109C192.177 34.1224 192.328 34.599 192.328 35.1406H189.695C189.695 34.9271 189.659 34.7448 189.586 34.5938C189.518 34.4427 189.406 34.3281 189.25 34.25C189.094 34.1667 188.885 34.125 188.625 34.125C188.443 34.125 188.276 34.1589 188.125 34.2266C187.979 34.2943 187.862 34.388 187.773 34.5078C187.685 34.6276 187.641 34.7682 187.641 34.9297C187.641 35.0443 187.667 35.1484 187.719 35.2422C187.776 35.3307 187.862 35.4141 187.977 35.4922C188.091 35.5651 188.237 35.6328 188.414 35.6953C188.591 35.7526 188.805 35.8047 189.055 35.8516C189.622 35.9557 190.154 36.1042 190.648 36.2969C191.143 36.4896 191.544 36.763 191.852 37.1172C192.164 37.4714 192.32 37.9479 192.32 38.5469C192.32 38.9219 192.234 39.2682 192.062 39.5859C191.891 39.8984 191.643 40.1745 191.32 40.4141C190.997 40.6484 190.609 40.8307 190.156 40.9609C189.703 41.0911 189.193 41.1562 188.625 41.1562C187.818 41.1562 187.135 41.013 186.578 40.7266C186.021 40.4349 185.599 40.0703 185.312 39.6328C185.031 39.1901 184.891 38.7422 184.891 38.2891H187.344C187.354 38.5495 187.417 38.763 187.531 38.9297C187.651 39.0964 187.81 39.2188 188.008 39.2969C188.206 39.375 188.435 39.4141 188.695 39.4141C188.935 39.4141 189.133 39.3802 189.289 39.3125C189.451 39.2448 189.573 39.1536 189.656 39.0391C189.74 38.9193 189.781 38.7812 189.781 38.625Z" fill="#FF0A12"/>
<path d="M70.516 57.084C70.516 57.78 70.276 58.36 69.796 58.824C69.324 59.28 68.6 59.508 67.624 59.508H66.016V63H64.924V54.636H67.624C68.568 54.636 69.284 54.864 69.772 55.32C70.268 55.776 70.516 56.364 70.516 57.084ZM67.624 58.608C68.232 58.608 68.68 58.476 68.968 58.212C69.256 57.948 69.4 57.572 69.4 57.084C69.4 56.052 68.808 55.536 67.624 55.536H66.016V58.608H67.624ZM72.9652 54.12V63H71.8732V54.12H72.9652ZM80.8263 59.46C80.8263 59.668 80.8143 59.888 80.7903 60.12H75.5343C75.5743 60.768 75.7943 61.276 76.1943 61.644C76.6023 62.004 77.0943 62.184 77.6703 62.184C78.1423 62.184 78.5343 62.076 78.8463 61.86C79.1663 61.636 79.3903 61.34 79.5183 60.972H80.6943C80.5183 61.604 80.1663 62.12 79.6383 62.52C79.1103 62.912 78.4543 63.108 77.6703 63.108C77.0463 63.108 76.4863 62.968 75.9903 62.688C75.5023 62.408 75.1183 62.012 74.8383 61.5C74.5583 60.98 74.4183 60.38 74.4183 59.7C74.4183 59.02 74.5543 58.424 74.8263 57.912C75.0983 57.4 75.4783 57.008 75.9663 56.736C76.4623 56.456 77.0303 56.316 77.6703 56.316C78.2943 56.316 78.8463 56.452 79.3263 56.724C79.8063 56.996 80.1743 57.372 80.4303 57.852C80.6943 58.324 80.8263 58.86 80.8263 59.46ZM79.6983 59.232C79.6983 58.816 79.6063 58.46 79.4223 58.164C79.2383 57.86 78.9863 57.632 78.6663 57.48C78.3543 57.32 78.0063 57.24 77.6223 57.24C77.0703 57.24 76.5983 57.416 76.2063 57.768C75.8223 58.12 75.6023 58.608 75.5463 59.232H79.6983ZM81.8598 59.688C81.8598 59.016 81.9958 58.428 82.2678 57.924C82.5398 57.412 82.9118 57.016 83.3838 56.736C83.8638 56.456 84.3958 56.316 84.9798 56.316C85.5558 56.316 86.0558 56.44 86.4798 56.688C86.9038 56.936 87.2198 57.248 87.4278 57.624V56.424H88.5318V63H87.4278V61.776C87.2118 62.16 86.8878 62.48 86.4558 62.736C86.0318 62.984 85.5358 63.108 84.9678 63.108C84.3838 63.108 83.8558 62.964 83.3838 62.676C82.9118 62.388 82.5398 61.984 82.2678 61.464C81.9958 60.944 81.8598 60.352 81.8598 59.688ZM87.4278 59.7C87.4278 59.204 87.3278 58.772 87.1278 58.404C86.9278 58.036 86.6558 57.756 86.3118 57.564C85.9758 57.364 85.6038 57.264 85.1958 57.264C84.7878 57.264 84.4158 57.36 84.0798 57.552C83.7438 57.744 83.4758 58.024 83.2758 58.392C83.0758 58.76 82.9758 59.192 82.9758 59.688C82.9758 60.192 83.0758 60.632 83.2758 61.008C83.4758 61.376 83.7438 61.66 84.0798 61.86C84.4158 62.052 84.7878 62.148 85.1958 62.148C85.6038 62.148 85.9758 62.052 86.3118 61.86C86.6558 61.66 86.9278 61.376 87.1278 61.008C87.3278 60.632 87.4278 60.196 87.4278 59.7ZM92.7051 63.108C92.2011 63.108 91.7491 63.024 91.3491 62.856C90.9491 62.68 90.6331 62.44 90.4011 62.136C90.1691 61.824 90.0411 61.468 90.0171 61.068H91.1451C91.1771 61.396 91.3291 61.664 91.6011 61.872C91.8811 62.08 92.2451 62.184 92.6931 62.184C93.1091 62.184 93.4371 62.092 93.6771 61.908C93.9171 61.724 94.0371 61.492 94.0371 61.212C94.0371 60.924 93.9091 60.712 93.6531 60.576C93.3971 60.432 93.0011 60.292 92.4651 60.156C91.9771 60.028 91.5771 59.9 91.2651 59.772C90.9611 59.636 90.6971 59.44 90.4731 59.184C90.2571 58.92 90.1491 58.576 90.1491 58.152C90.1491 57.816 90.2491 57.508 90.4491 57.228C90.6491 56.948 90.9331 56.728 91.3011 56.568C91.6691 56.4 92.0891 56.316 92.5611 56.316C93.2891 56.316 93.8771 56.5 94.3251 56.868C94.7731 57.236 95.0131 57.74 95.0451 58.38H93.9531C93.9291 58.036 93.7891 57.76 93.5331 57.552C93.2851 57.344 92.9491 57.24 92.5251 57.24C92.1331 57.24 91.8211 57.324 91.5891 57.492C91.3571 57.66 91.2411 57.88 91.2411 58.152C91.2411 58.368 91.3091 58.548 91.4451 58.692C91.5891 58.828 91.7651 58.94 91.9731 59.028C92.1891 59.108 92.4851 59.2 92.8611 59.304C93.3331 59.432 93.7171 59.56 94.0131 59.688C94.3091 59.808 94.5611 59.992 94.7691 60.24C94.9851 60.488 95.0971 60.812 95.1051 61.212C95.1051 61.572 95.0051 61.896 94.8051 62.184C94.6051 62.472 94.3211 62.7 93.9531 62.868C93.5931 63.028 93.1771 63.108 92.7051 63.108ZM102.647 59.46C102.647 59.668 102.635 59.888 102.611 60.12H97.3547C97.3947 60.768 97.6147 61.276 98.0147 61.644C98.4227 62.004 98.9147 62.184 99.4907 62.184C99.9627 62.184 100.355 62.076 100.667 61.86C100.987 61.636 101.211 61.34 101.339 60.972H102.515C102.339 61.604 101.987 62.12 101.459 62.52C100.931 62.912 100.275 63.108 99.4907 63.108C98.8667 63.108 98.3067 62.968 97.8107 62.688C97.3227 62.408 96.9387 62.012 96.6587 61.5C96.3787 60.98 96.2387 60.38 96.2387 59.7C96.2387 59.02 96.3747 58.424 96.6467 57.912C96.9187 57.4 97.2987 57.008 97.7867 56.736C98.2827 56.456 98.8507 56.316 99.4907 56.316C100.115 56.316 100.667 56.452 101.147 56.724C101.627 56.996 101.995 57.372 102.251 57.852C102.515 58.324 102.647 58.86 102.647 59.46ZM101.519 59.232C101.519 58.816 101.427 58.46 101.243 58.164C101.059 57.86 100.807 57.632 100.487 57.48C100.175 57.32 99.8267 57.24 99.4427 57.24C98.8907 57.24 98.4187 57.416 98.0267 57.768C97.6427 58.12 97.4227 58.608 97.3667 59.232H101.519ZM108.619 57.324V61.2C108.619 61.52 108.687 61.748 108.823 61.884C108.959 62.012 109.195 62.076 109.531 62.076H110.335V63H109.351C108.743 63 108.287 62.86 107.983 62.58C107.679 62.3 107.527 61.84 107.527 61.2V57.324H106.675V56.424H107.527V54.768H108.619V56.424H110.335V57.324H108.619ZM114.526 63.108C113.91 63.108 113.35 62.968 112.846 62.688C112.35 62.408 111.958 62.012 111.67 61.5C111.39 60.98 111.25 60.38 111.25 59.7C111.25 59.028 111.394 58.436 111.682 57.924C111.978 57.404 112.378 57.008 112.882 56.736C113.386 56.456 113.95 56.316 114.574 56.316C115.198 56.316 115.762 56.456 116.266 56.736C116.77 57.008 117.166 57.4 117.454 57.912C117.75 58.424 117.898 59.02 117.898 59.7C117.898 60.38 117.746 60.98 117.442 61.5C117.146 62.012 116.742 62.408 116.23 62.688C115.718 62.968 115.15 63.108 114.526 63.108ZM114.526 62.148C114.918 62.148 115.286 62.056 115.63 61.872C115.974 61.688 116.25 61.412 116.458 61.044C116.674 60.676 116.782 60.228 116.782 59.7C116.782 59.172 116.678 58.724 116.47 58.356C116.262 57.988 115.99 57.716 115.654 57.54C115.318 57.356 114.954 57.264 114.562 57.264C114.162 57.264 113.794 57.356 113.458 57.54C113.13 57.716 112.866 57.988 112.666 58.356C112.466 58.724 112.366 59.172 112.366 59.7C112.366 60.236 112.462 60.688 112.654 61.056C112.854 61.424 113.118 61.7 113.446 61.884C113.774 62.06 114.134 62.148 114.526 62.148ZM120.426 57.636C120.642 57.26 120.962 56.948 121.386 56.7C121.818 56.444 122.318 56.316 122.886 56.316C123.47 56.316 123.998 56.456 124.47 56.736C124.95 57.016 125.326 57.412 125.598 57.924C125.87 58.428 126.006 59.016 126.006 59.688C126.006 60.352 125.87 60.944 125.598 61.464C125.326 61.984 124.95 62.388 124.47 62.676C123.998 62.964 123.47 63.108 122.886 63.108C122.326 63.108 121.83 62.984 121.398 62.736C120.974 62.48 120.65 62.164 120.426 61.788V66.12H119.334V56.424H120.426V57.636ZM124.89 59.688C124.89 59.192 124.79 58.76 124.59 58.392C124.39 58.024 124.118 57.744 123.774 57.552C123.438 57.36 123.066 57.264 122.658 57.264C122.258 57.264 121.886 57.364 121.542 57.564C121.206 57.756 120.934 58.04 120.726 58.416C120.526 58.784 120.426 59.212 120.426 59.7C120.426 60.196 120.526 60.632 120.726 61.008C120.934 61.376 121.206 61.66 121.542 61.86C121.886 62.052 122.258 62.148 122.658 62.148C123.066 62.148 123.438 62.052 123.774 61.86C124.118 61.66 124.39 61.376 124.59 61.008C124.79 60.632 124.89 60.192 124.89 59.688ZM133.276 56.424V63H132.184V62.028C131.976 62.364 131.684 62.628 131.308 62.82C130.94 63.004 130.532 63.096 130.084 63.096C129.572 63.096 129.112 62.992 128.704 62.784C128.296 62.568 127.972 62.248 127.732 61.824C127.5 61.4 127.384 60.884 127.384 60.276V56.424H128.464V60.132C128.464 60.78 128.628 61.28 128.956 61.632C129.284 61.976 129.732 62.148 130.3 62.148C130.884 62.148 131.344 61.968 131.68 61.608C132.016 61.248 132.184 60.724 132.184 60.036V56.424H133.276ZM136.211 57.636C136.427 57.26 136.747 56.948 137.171 56.7C137.603 56.444 138.103 56.316 138.671 56.316C139.255 56.316 139.783 56.456 140.255 56.736C140.735 57.016 141.111 57.412 141.383 57.924C141.655 58.428 141.791 59.016 141.791 59.688C141.791 60.352 141.655 60.944 141.383 61.464C141.111 61.984 140.735 62.388 140.255 62.676C139.783 62.964 139.255 63.108 138.671 63.108C138.111 63.108 137.615 62.984 137.183 62.736C136.759 62.48 136.435 62.164 136.211 61.788V66.12H135.119V56.424H136.211V57.636ZM140.675 59.688C140.675 59.192 140.575 58.76 140.375 58.392C140.175 58.024 139.903 57.744 139.559 57.552C139.223 57.36 138.851 57.264 138.443 57.264C138.043 57.264 137.671 57.364 137.327 57.564C136.991 57.756 136.719 58.04 136.511 58.416C136.311 58.784 136.211 59.212 136.211 59.7C136.211 60.196 136.311 60.632 136.511 61.008C136.719 61.376 136.991 61.66 137.327 61.86C137.671 62.052 138.043 62.148 138.443 62.148C138.851 62.148 139.223 62.052 139.559 61.86C139.903 61.66 140.175 61.376 140.375 61.008C140.575 60.632 140.675 60.192 140.675 59.688ZM152.092 56.424L148.132 66.096H147.004L148.3 62.928L145.648 56.424H146.86L148.924 61.752L150.964 56.424H152.092ZM156.058 63.108C155.442 63.108 154.882 62.968 154.378 62.688C153.882 62.408 153.49 62.012 153.202 61.5C152.922 60.98 152.782 60.38 152.782 59.7C152.782 59.028 152.926 58.436 153.214 57.924C153.51 57.404 153.91 57.008 154.414 56.736C154.918 56.456 155.482 56.316 156.106 56.316C156.73 56.316 157.294 56.456 157.798 56.736C158.302 57.008 158.698 57.4 158.986 57.912C159.282 58.424 159.43 59.02 159.43 59.7C159.43 60.38 159.278 60.98 158.974 61.5C158.678 62.012 158.274 62.408 157.762 62.688C157.25 62.968 156.682 63.108 156.058 63.108ZM156.058 62.148C156.45 62.148 156.818 62.056 157.162 61.872C157.506 61.688 157.782 61.412 157.99 61.044C158.206 60.676 158.314 60.228 158.314 59.7C158.314 59.172 158.21 58.724 158.002 58.356C157.794 57.988 157.522 57.716 157.186 57.54C156.85 57.356 156.486 57.264 156.094 57.264C155.694 57.264 155.326 57.356 154.99 57.54C154.662 57.716 154.398 57.988 154.198 58.356C153.998 58.724 153.898 59.172 153.898 59.7C153.898 60.236 153.994 60.688 154.186 61.056C154.386 61.424 154.65 61.7 154.978 61.884C155.306 62.06 155.666 62.148 156.058 62.148ZM166.697 56.424V63H165.605V62.028C165.397 62.364 165.105 62.628 164.729 62.82C164.361 63.004 163.953 63.096 163.505 63.096C162.993 63.096 162.533 62.992 162.125 62.784C161.717 62.568 161.393 62.248 161.153 61.824C160.921 61.4 160.805 60.884 160.805 60.276V56.424H161.885V60.132C161.885 60.78 162.049 61.28 162.377 61.632C162.705 61.976 163.153 62.148 163.721 62.148C164.305 62.148 164.765 61.968 165.101 61.608C165.437 61.248 165.605 60.724 165.605 60.036V56.424H166.697ZM169.633 57.492C169.825 57.116 170.097 56.824 170.449 56.616C170.809 56.408 171.245 56.304 171.757 56.304V57.432H171.469C170.245 57.432 169.633 58.096 169.633 59.424V63H168.541V56.424H169.633V57.492ZM184.977 56.424L182.925 63H181.797L180.213 57.78L178.629 63H177.501L175.437 56.424H176.553L178.065 61.944L179.697 56.424H180.813L182.409 61.956L183.897 56.424H184.977ZM185.653 59.688C185.653 59.016 185.789 58.428 186.061 57.924C186.333 57.412 186.705 57.016 187.177 56.736C187.657 56.456 188.189 56.316 188.773 56.316C189.349 56.316 189.849 56.44 190.273 56.688C190.697 56.936 191.013 57.248 191.221 57.624V56.424H192.325V63H191.221V61.776C191.005 62.16 190.681 62.48 190.249 62.736C189.825 62.984 189.329 63.108 188.761 63.108C188.177 63.108 187.649 62.964 187.177 62.676C186.705 62.388 186.333 61.984 186.061 61.464C185.789 60.944 185.653 60.352 185.653 59.688ZM191.221 59.7C191.221 59.204 191.121 58.772 190.921 58.404C190.721 58.036 190.449 57.756 190.105 57.564C189.769 57.364 189.397 57.264 188.989 57.264C188.581 57.264 188.209 57.36 187.873 57.552C187.537 57.744 187.269 58.024 187.069 58.392C186.869 58.76 186.769 59.192 186.769 59.688C186.769 60.192 186.869 60.632 187.069 61.008C187.269 61.376 187.537 61.66 187.873 61.86C188.209 62.052 188.581 62.148 188.989 62.148C189.397 62.148 189.769 62.052 190.105 61.86C190.449 61.66 190.721 61.376 190.921 61.008C191.121 60.632 191.221 60.196 191.221 59.7ZM195.262 54.12V63H194.17V54.12H195.262ZM198.215 54.12V63H197.123V54.12H198.215ZM206.076 59.46C206.076 59.668 206.064 59.888 206.04 60.12H200.784C200.824 60.768 201.044 61.276 201.444 61.644C201.852 62.004 202.344 62.184 202.92 62.184C203.392 62.184 203.784 62.076 204.096 61.86C204.416 61.636 204.64 61.34 204.768 60.972H205.944C205.768 61.604 205.416 62.12 204.888 62.52C204.36 62.912 203.704 63.108 202.92 63.108C202.296 63.108 201.736 62.968 201.24 62.688C200.752 62.408 200.368 62.012 200.088 61.5C199.808 60.98 199.668 60.38 199.668 59.7C199.668 59.02 199.804 58.424 200.076 57.912C200.348 57.4 200.728 57.008 201.216 56.736C201.712 56.456 202.28 56.316 202.92 56.316C203.544 56.316 204.096 56.452 204.576 56.724C205.056 56.996 205.424 57.372 205.68 57.852C205.944 58.324 206.076 58.86 206.076 59.46ZM204.948 59.232C204.948 58.816 204.856 58.46 204.672 58.164C204.488 57.86 204.236 57.632 203.916 57.48C203.604 57.32 203.256 57.24 202.872 57.24C202.32 57.24 201.848 57.416 201.456 57.768C201.072 58.12 200.852 58.608 200.796 59.232H204.948ZM208.85 57.324V61.2C208.85 61.52 208.918 61.748 209.054 61.884C209.19 62.012 209.426 62.076 209.762 62.076H210.566V63H209.582C208.974 63 208.518 62.86 208.214 62.58C207.91 62.3 207.758 61.84 207.758 61.2V57.324H206.906V56.424H207.758V54.768H208.85V56.424H210.566V57.324H208.85Z" fill="#FF0A12"/>
</svg>
