<svg width="32" height="32" viewBox="0 0 32 32" fill="none" xmlns="http://www.w3.org/2000/svg">
<g clip-path="url(#clip0_3968_217827)">
<g clip-path="url(#clip1_3968_217827)">
<g filter="url(#filter0_d_3968_217827)">
<path d="M15.6154 6.00006C13.8237 5.9938 12.0664 6.51139 10.5439 7.49376C9.02145 8.47614 7.79512 9.88375 7.00481 11.556C6.90073 11.7923 6.88919 12.0615 6.97264 12.3064C7.05609 12.5514 7.22797 12.753 7.45186 12.8684C7.67575 12.9839 7.93407 13.0041 8.17208 12.9249C8.41009 12.8457 8.60909 12.6732 8.72692 12.444C9.54611 10.7223 10.9333 9.36422 12.6353 8.61776C14.3372 7.8713 16.2406 7.78618 17.9979 8.37794C19.7552 8.9697 21.2494 10.1989 22.2076 11.8412C23.1659 13.4834 23.5245 15.4293 23.2178 17.3237C22.9112 19.2181 21.9598 20.9346 20.5373 22.1601C19.1148 23.3855 17.316 24.0382 15.4693 23.9989C13.6225 23.9597 11.8509 23.2311 10.4777 21.9462C9.10455 20.6614 8.22139 18.9058 7.98942 17H18.0856L16.8356 18.29C16.6595 18.4778 16.5614 18.73 16.5625 18.9923C16.5635 19.2546 16.6636 19.506 16.8412 19.6922C17.0188 19.8785 17.2596 19.9847 17.5118 19.9881C17.764 19.9914 18.0074 19.8915 18.1894 19.71L21.0952 16.71C21.1853 16.6171 21.2568 16.5065 21.3057 16.3846C21.3545 16.2627 21.3796 16.132 21.3796 16C21.3796 15.868 21.3545 15.7373 21.3057 15.6154C21.2568 15.4936 21.1853 15.383 21.0952 15.29L18.1894 12.29C18.0074 12.1085 17.764 12.0087 17.5118 12.012C17.2596 12.0153 17.0188 12.1215 16.8412 12.3078C16.6636 12.4941 16.5635 12.7454 16.5625 13.0077C16.5614 13.27 16.6595 13.5222 16.8356 13.71L18.0856 15H6.96154C6.70652 15 6.46195 15.1054 6.28163 15.2929C6.1013 15.4805 6 15.7348 6 16C6 17.9778 6.56393 19.9112 7.62048 21.5557C8.67704 23.2002 10.1788 24.4819 11.9357 25.2388C13.6927 25.9957 15.626 26.1937 17.4912 25.8078C19.3565 25.422 21.0697 24.4696 22.4145 23.0711C23.7592 21.6726 24.675 19.8907 25.046 17.9509C25.417 16.0111 25.2266 14.0005 24.4988 12.1732C23.7711 10.3459 22.5386 8.78417 20.9574 7.68535C19.3762 6.58654 17.5171 6.00006 15.6154 6.00006Z" fill="#F7E5FF"/>
<path d="M15.6146 6.22733H15.6154C17.4701 6.22733 19.284 6.79928 20.8277 7.87199C22.3715 8.94478 23.5761 10.4705 24.2877 12.2573C24.9994 14.0441 25.1857 16.0108 24.8228 17.9082C24.4599 19.8056 23.5643 21.5473 22.2507 22.9135C20.9371 24.2797 19.2646 25.2089 17.4452 25.5853C15.6259 25.9616 13.74 25.7686 12.0257 25.0301C10.3112 24.2915 8.84435 23.0402 7.81169 21.4329C6.77898 19.8255 6.22727 17.9348 6.22727 16C6.22727 15.7923 6.30671 15.5947 6.44545 15.4504C6.5839 15.3065 6.76974 15.2273 6.96154 15.2273H18.0856H18.6223L18.2488 14.8419L17.0002 13.5533C16.8654 13.4089 16.7889 13.2135 16.7897 13.0086C16.7906 12.8032 16.8691 12.608 17.0057 12.4646C17.1421 12.3216 17.3251 12.2417 17.5148 12.2392C17.7039 12.2367 17.8881 12.3113 18.0277 12.4497L20.9319 15.4481L20.932 15.4482C21.0013 15.5197 21.0567 15.6051 21.0947 15.7C21.1327 15.7948 21.1523 15.8968 21.1523 16C21.1523 16.1033 21.1327 16.2053 21.0947 16.3001L21.3057 16.3846L21.0947 16.3001C21.0567 16.3949 21.0013 16.4804 20.932 16.5518L20.9319 16.5519L18.0277 19.5504C17.8881 19.6888 17.7039 19.7633 17.5148 19.7608C17.3251 19.7583 17.1421 19.6785 17.0057 19.5354C16.8691 19.3921 16.7906 19.1969 16.7897 18.9914C16.7889 18.7866 16.8654 18.5912 17.0002 18.4467L18.2488 17.1582L18.6223 16.7727H18.0856H7.98942H7.73281L7.76381 17.0275C8.00209 18.9851 8.90941 20.79 10.3224 22.1122C11.7357 23.4346 13.5606 24.1857 15.4644 24.2261C17.3683 24.2666 19.2214 23.5936 20.6856 22.3322C22.1496 21.071 23.1272 19.3059 23.4422 17.36C23.7571 15.4142 23.389 13.4149 22.4039 11.7266C21.4187 10.0382 19.8813 8.77233 18.0704 8.16255C16.2594 7.55269 14.2976 7.6405 12.544 8.40963C10.7917 9.17816 9.3655 10.5749 8.5233 12.343C8.43164 12.5195 8.27925 12.6497 8.1003 12.7093C7.92066 12.7691 7.72576 12.754 7.55602 12.6664C7.38594 12.5787 7.25285 12.4242 7.18778 12.2332C7.12295 12.0429 7.13166 11.8337 7.21165 11.6503C7.98428 10.0167 9.18197 8.64304 10.6671 7.68473C12.1531 6.72591 13.8674 6.22123 15.6146 6.22733Z" stroke="#C381F6" stroke-width="0.454545"/>
</g>
<g filter="url(#filter1_d_3968_217827)">
<path d="M15.6154 6.00006C13.8237 5.9938 12.0664 6.51139 10.5439 7.49376C9.02145 8.47614 7.79512 9.88375 7.00481 11.556C6.90073 11.7923 6.88919 12.0615 6.97264 12.3064C7.05609 12.5514 7.22797 12.753 7.45186 12.8684C7.67575 12.9839 7.93407 13.0041 8.17208 12.9249C8.41009 12.8457 8.60909 12.6732 8.72692 12.444C9.54611 10.7223 10.9333 9.36422 12.6353 8.61776C14.3372 7.8713 16.2406 7.78618 17.9979 8.37794C19.7552 8.9697 21.2494 10.1989 22.2076 11.8412C23.1659 13.4834 23.5245 15.4293 23.2178 17.3237C22.9112 19.2181 21.9598 20.9346 20.5373 22.1601C19.1148 23.3855 17.316 24.0382 15.4693 23.9989C13.6225 23.9597 11.8509 23.2311 10.4777 21.9462C9.10455 20.6614 8.22139 18.9058 7.98942 17H18.0856L16.8356 18.29C16.6595 18.4778 16.5614 18.73 16.5625 18.9923C16.5635 19.2546 16.6636 19.506 16.8412 19.6922C17.0188 19.8785 17.2596 19.9847 17.5118 19.9881C17.764 19.9914 18.0074 19.8915 18.1894 19.71L21.0952 16.71C21.1853 16.6171 21.2568 16.5065 21.3057 16.3846C21.3545 16.2627 21.3796 16.132 21.3796 16C21.3796 15.868 21.3545 15.7373 21.3057 15.6154C21.2568 15.4936 21.1853 15.383 21.0952 15.29L18.1894 12.29C18.0074 12.1085 17.764 12.0087 17.5118 12.012C17.2596 12.0153 17.0188 12.1215 16.8412 12.3078C16.6636 12.4941 16.5635 12.7454 16.5625 13.0077C16.5614 13.27 16.6595 13.5222 16.8356 13.71L18.0856 15H6.96154C6.70652 15 6.46195 15.1054 6.28163 15.2929C6.1013 15.4805 6 15.7348 6 16C6 17.9778 6.56393 19.9112 7.62048 21.5557C8.67704 23.2002 10.1788 24.4819 11.9357 25.2388C13.6927 25.9957 15.626 26.1937 17.4912 25.8078C19.3565 25.422 21.0697 24.4696 22.4145 23.0711C23.7592 21.6726 24.675 19.8907 25.046 17.9509C25.417 16.0111 25.2266 14.0005 24.4988 12.1732C23.7711 10.3459 22.5386 8.78417 20.9574 7.68535C19.3762 6.58654 17.5171 6.00006 15.6154 6.00006Z" fill="#F7E5FF"/>
<path d="M15.6147 6.20006H15.6154C17.4758 6.20006 19.2951 6.77375 20.8433 7.84959C22.3916 8.9255 23.5995 10.4556 24.313 12.2472C25.0266 14.0389 25.2134 16.0108 24.8496 17.9134C24.4857 19.8158 23.5877 21.5624 22.2703 22.9324C20.953 24.3024 19.2756 25.2345 17.4507 25.612C15.6259 25.9895 13.7343 25.7958 12.0149 25.0551C10.2953 24.3144 8.82427 23.0594 7.78875 21.4476C6.75318 19.8358 6.2 17.94 6.2 16C6.2 15.7854 6.28206 15.581 6.42579 15.4315C6.56927 15.2823 6.76215 15.2 6.96154 15.2H18.0856H18.5579L18.2292 14.8609L16.9804 13.5721C16.8407 13.4225 16.7616 13.2203 16.7625 13.0085C16.7633 12.7962 16.8444 12.5943 16.986 12.4458C17.1273 12.2976 17.3173 12.2146 17.5145 12.212C17.7111 12.2094 17.9024 12.2869 18.047 12.4305L20.9515 15.4292L20.9516 15.4292C21.0234 15.5033 21.0807 15.5918 21.12 15.6898C21.1593 15.7879 21.1796 15.8933 21.1796 16C21.1796 16.1067 21.1593 16.2122 21.12 16.3102C21.0807 16.4083 21.0234 16.4968 20.9516 16.5708L20.9515 16.5709L18.047 19.5696C17.9024 19.7131 17.7111 19.7907 17.5145 19.7881C17.3173 19.7855 17.1273 19.7025 16.986 19.5542C16.8444 19.4058 16.7633 19.2038 16.7625 18.9915C16.7616 18.7798 16.8407 18.5776 16.9804 18.4279L18.2292 17.1392L18.5579 16.8H18.0856H7.98942H7.7636L7.79089 17.0242C8.02841 18.9756 8.93282 20.7746 10.3411 22.0923C11.7495 23.4101 13.568 24.1585 15.465 24.1989C17.362 24.2392 19.2086 23.5687 20.6678 22.3116C22.1268 21.0547 23.1012 19.2954 23.4152 17.3557C23.7292 15.416 23.3623 13.4231 22.3804 11.7404C21.3984 10.0575 19.8662 8.79602 18.0617 8.1884C16.2571 7.58071 14.3024 7.6682 12.5549 8.4346C10.8087 9.20049 9.38716 10.5926 8.54772 12.3552C8.45292 12.538 8.29494 12.6732 8.10891 12.7352C7.92227 12.7973 7.71976 12.7815 7.54352 12.6907C7.36699 12.5996 7.22924 12.4395 7.16196 12.242C7.0949 12.0451 7.10394 11.8287 7.18682 11.639C7.96158 10.0008 9.1627 8.62302 10.6524 7.66181C12.1427 6.70017 13.8622 6.19394 15.6147 6.20006Z" stroke="#C381F6" stroke-width="0.4"/>
</g>
</g>
</g>
<defs>
<filter id="filter0_d_3968_217827" x="-3" y="-3" width="37.2305" height="38" filterUnits="userSpaceOnUse" color-interpolation-filters="sRGB">
<feFlood flood-opacity="0" result="BackgroundImageFix"/>
<feColorMatrix in="SourceAlpha" type="matrix" values="0 0 0 0 0 0 0 0 0 0 0 0 0 0 0 0 0 0 127 0" result="hardAlpha"/>
<feOffset/>
<feGaussianBlur stdDeviation="4.5"/>
<feComposite in2="hardAlpha" operator="out"/>
<feColorMatrix type="matrix" values="0 0 0 0 0.512333 0 0 0 0 0.129167 0 0 0 0 1 0 0 0 1 0"/>
<feBlend mode="normal" in2="BackgroundImageFix" result="effect1_dropShadow_3968_217827"/>
<feBlend mode="normal" in="SourceGraphic" in2="effect1_dropShadow_3968_217827" result="shape"/>
</filter>
<filter id="filter1_d_3968_217827" x="0" y="0" width="31.2305" height="32" filterUnits="userSpaceOnUse" color-interpolation-filters="sRGB">
<feFlood flood-opacity="0" result="BackgroundImageFix"/>
<feColorMatrix in="SourceAlpha" type="matrix" values="0 0 0 0 0 0 0 0 0 0 0 0 0 0 0 0 0 0 127 0" result="hardAlpha"/>
<feOffset/>
<feGaussianBlur stdDeviation="3"/>
<feComposite in2="hardAlpha" operator="out"/>
<feColorMatrix type="matrix" values="0 0 0 0 0.512333 0 0 0 0 0.129167 0 0 0 0 1 0 0 0 1 0"/>
<feBlend mode="normal" in2="BackgroundImageFix" result="effect1_dropShadow_3968_217827"/>
<feBlend mode="normal" in="SourceGraphic" in2="effect1_dropShadow_3968_217827" result="shape"/>
</filter>
<clipPath id="clip0_3968_217827">
<rect width="32" height="32" rx="16" fill="white"/>
</clipPath>
<clipPath id="clip1_3968_217827">
<rect width="32" height="32" rx="16" fill="white"/>
</clipPath>
</defs>
</svg>
