<svg width="115" height="45" viewBox="0 0 115 45" fill="none" xmlns="http://www.w3.org/2000/svg">
<g filter="url(#filter0_d_3649_225668)">
<rect x="3.64062" y="0.5" width="105.86" height="38" rx="14.5" fill="url(#paint0_linear_3649_225668)" stroke="url(#paint1_linear_3649_225668)"/>
</g>
<path opacity="0.7" d="M43.1335 25V14.2H44.7985L49.2835 19.54L53.7685 14.2H55.4335V25H54.2185V15.58L49.2835 21.445L44.3485 15.58V25H43.1335ZM56.9895 25V16.3H58.2195V25H56.9895ZM56.9895 14.68V13.45H58.2195V14.68H56.9895ZM59.9199 25V16.3H66.9699C67.2999 16.3 67.5999 16.385 67.8699 16.555C68.1499 16.715 68.3699 16.935 68.5299 17.215C68.6999 17.485 68.7849 17.785 68.7849 18.115V25H67.5549V18.115C67.5549 17.955 67.4949 17.82 67.3749 17.71C67.2649 17.59 67.1299 17.53 66.9699 17.53H61.7499C61.5899 17.53 61.4499 17.59 61.3299 17.71C61.2099 17.82 61.1499 17.955 61.1499 18.115V25H59.9199ZM72.1642 25C71.8242 25 71.5142 24.92 71.2342 24.76C70.9642 24.59 70.7492 24.37 70.5892 24.1C70.4292 23.82 70.3492 23.515 70.3492 23.185V13.45H71.5792V16.3H75.3442V17.53H71.5792V23.185C71.5792 23.345 71.6342 23.485 71.7442 23.605C71.8642 23.715 72.0042 23.77 72.1642 23.77H75.3442V25H72.1642Z" fill="white"/>
<defs>
<filter id="filter0_d_3649_225668" x="0.271367" y="0" width="112.598" height="44.7385" filterUnits="userSpaceOnUse" color-interpolation-filters="sRGB">
<feFlood flood-opacity="0" result="BackgroundImageFix"/>
<feColorMatrix in="SourceAlpha" type="matrix" values="0 0 0 0 0 0 0 0 0 0 0 0 0 0 0 0 0 0 127 0" result="hardAlpha"/>
<feOffset dy="2.86926"/>
<feGaussianBlur stdDeviation="1.43463"/>
<feComposite in2="hardAlpha" operator="out"/>
<feColorMatrix type="matrix" values="0 0 0 0 0 0 0 0 0 0 0 0 0 0 0 0 0 0 0.25 0"/>
<feBlend mode="normal" in2="BackgroundImageFix" result="effect1_dropShadow_3649_225668"/>
<feBlend mode="normal" in="SourceGraphic" in2="effect1_dropShadow_3649_225668" result="shape"/>
</filter>
<linearGradient id="paint0_linear_3649_225668" x1="-15.827" y1="18.0226" x2="116.687" y2="18.9377" gradientUnits="userSpaceOnUse">
<stop stop-color="#6400FF" stop-opacity="0.88"/>
<stop offset="0.523958" stop-color="#874691" stop-opacity="0.86"/>
<stop offset="1" stop-color="#FF03F5" stop-opacity="0.67"/>
</linearGradient>
<linearGradient id="paint1_linear_3649_225668" x1="3.14062" y1="19.5" x2="112.761" y2="19.5" gradientUnits="userSpaceOnUse">
<stop stop-color="#131BB0"/>
<stop offset="0.482292" stop-color="#B84C93"/>
<stop offset="1" stop-color="#FF00F5"/>
<stop offset="1" stop-color="#DB34CA"/>
</linearGradient>
</defs>
</svg>
