<svg width="509" height="77" viewBox="0 0 509 77" fill="none" xmlns="http://www.w3.org/2000/svg">
<g filter="url(#filter0_d_3311_209371)">
<path d="M14.5011 53C12.701 53 11.0583 52.5725 9.57321 51.7174C8.13309 50.8173 6.963 49.6472 6.06292 48.2071C5.20785 46.722 4.78031 45.0793 4.78031 43.2792V14.1168C4.78031 12.3166 5.20785 10.6965 6.06292 9.25636C6.963 7.77123 8.13309 6.60113 9.57321 5.74606C11.0583 4.84599 12.701 4.39595 14.5011 4.39595H53.2494V14.1843H16.7963C16.0763 14.1843 15.5137 14.3868 15.1087 14.7918C14.7036 15.1518 14.5011 15.7144 14.5011 16.4795V40.9165C14.5011 41.6366 14.7036 42.1991 15.1087 42.6041C15.5137 43.0092 16.0763 43.2117 16.7963 43.2117H53.2494V53H14.5011ZM62.043 53V23.365C62.043 21.6549 62.4706 20.0798 63.3256 18.6396C64.2257 17.1995 65.3958 16.0519 66.8359 15.1969C68.321 14.2968 69.9187 13.8467 71.6288 13.8467H93.2981V23.4325H72.0338C71.9438 23.4325 71.8538 23.4775 71.7638 23.5675C71.6738 23.6576 71.6288 23.7476 71.6288 23.8376V53H62.043ZM105.14 67.2437V57.5904H128.564C128.654 57.5904 128.744 57.5454 128.834 57.4554C128.924 57.3654 128.969 57.2754 128.969 57.1853V53H108.38C106.625 53 105.027 52.5725 103.587 51.7174C102.147 50.8173 100.977 49.6472 100.077 48.2071C99.2216 46.767 98.794 45.1918 98.794 43.4817V13.9817H108.38V43.0092C108.38 43.0992 108.425 43.1892 108.515 43.2792C108.605 43.3692 108.695 43.4142 108.785 43.4142H128.564C128.654 43.4142 128.744 43.3692 128.834 43.2792C128.924 43.1892 128.969 43.0992 128.969 43.0092V13.9817H138.555V57.7254C138.555 59.4805 138.127 61.0782 137.272 62.5183C136.462 63.9584 135.315 65.106 133.829 65.9611C132.389 66.8162 130.792 67.2437 129.037 67.2437H105.14ZM147.248 68.5263V13.8467H177.423C179.178 13.8467 180.776 14.2968 182.216 15.1969C183.656 16.0519 184.804 17.1995 185.659 18.6396C186.514 20.0798 186.942 21.6549 186.942 23.365V43.4817C186.942 45.1918 186.514 46.767 185.659 48.2071C184.804 49.6472 183.656 50.8173 182.216 51.7174C180.776 52.5725 179.178 53 177.423 53H156.834V68.5263H147.248ZM157.239 43.4142H176.951C177.086 43.4142 177.176 43.3692 177.221 43.2792C177.311 43.1892 177.356 43.0992 177.356 43.0092V23.8376C177.356 23.7476 177.311 23.6576 177.221 23.5675C177.176 23.4775 177.086 23.4325 176.951 23.4325H157.239C157.149 23.4325 157.059 23.4775 156.969 23.5675C156.879 23.6576 156.834 23.7476 156.834 23.8376V43.0092C156.834 43.0992 156.879 43.1892 156.969 43.2792C157.059 43.3692 157.149 43.4142 157.239 43.4142ZM203.62 53C201.865 53 200.267 52.5725 198.827 51.7174C197.387 50.8173 196.217 49.6472 195.317 48.2071C194.461 46.767 194.034 45.1918 194.034 43.4817V2.03325H203.62V13.8467H218.538V23.4325H203.62V43.0092C203.62 43.0992 203.665 43.1892 203.755 43.2792C203.845 43.3692 203.935 43.4142 204.025 43.4142H218.538V53H203.62ZM235.503 53C233.793 53 232.218 52.5725 230.778 51.7174C229.338 50.8173 228.168 49.6472 227.268 48.2071C226.413 46.767 225.985 45.1918 225.985 43.4817V23.365C225.985 21.6549 226.413 20.0798 227.268 18.6396C228.168 17.1995 229.338 16.0519 230.778 15.1969C232.218 14.2968 233.793 13.8467 235.503 13.8467H256.16C257.915 13.8467 259.513 14.2968 260.953 15.1969C262.393 16.0519 263.541 17.1995 264.396 18.6396C265.251 20.0798 265.678 21.6549 265.678 23.365V43.4817C265.678 45.1918 265.251 46.767 264.396 48.2071C263.541 49.6472 262.393 50.8173 260.953 51.7174C259.513 52.5725 257.915 53 256.16 53H235.503ZM235.976 43.4142H255.688C255.778 43.4142 255.868 43.3692 255.958 43.2792C256.048 43.1892 256.093 43.0992 256.093 43.0092V23.8376C256.093 23.7476 256.048 23.6576 255.958 23.5675C255.868 23.4775 255.778 23.4325 255.688 23.4325H235.976C235.886 23.4325 235.796 23.4775 235.706 23.5675C235.616 23.6576 235.571 23.7476 235.571 23.8376V43.0092C235.571 43.0992 235.616 43.1892 235.706 43.2792C235.796 43.3692 235.886 43.4142 235.976 43.4142ZM308.059 53C306.304 53 304.707 52.5725 303.266 51.7174C301.826 50.8173 300.656 49.6472 299.756 48.2071C298.901 46.767 298.474 45.1918 298.474 43.4817V33.0183C298.474 32.2083 298.586 31.4207 298.811 30.6556C299.081 29.8456 299.396 29.058 299.756 28.2929C299.396 27.5729 299.081 26.8078 298.811 25.9978C298.586 25.1877 298.474 24.3551 298.474 23.5V13.9142C298.474 12.1591 298.901 10.5615 299.756 9.12134C300.656 7.68122 301.826 6.53363 303.266 5.67856C304.707 4.82349 306.304 4.39595 308.059 4.39595H336.817C338.347 4.39595 339.787 4.75598 341.137 5.47604C342.532 6.1511 343.68 7.09617 344.58 8.31127C345.525 9.48137 346.133 10.7865 346.403 12.2266V23.5C346.403 25.1202 345.975 26.7178 345.12 28.2929C345.975 29.6881 346.403 31.2632 346.403 33.0183V43.4817C346.403 45.1918 345.953 46.767 345.052 48.2071C344.197 49.6472 343.027 50.8173 341.542 51.7174C340.102 52.5725 338.527 53 336.817 53H308.059ZM308.464 43.4142H336.412C336.502 43.4142 336.592 43.3692 336.682 43.2792C336.772 43.1892 336.817 43.0992 336.817 43.0092V33.5584C336.817 33.4234 336.772 33.3334 336.682 33.2884C336.592 33.1984 336.502 33.1533 336.412 33.1533H308.464C308.374 33.1533 308.284 33.1984 308.194 33.2884C308.104 33.3334 308.059 33.4234 308.059 33.5584V43.0092C308.059 43.0992 308.104 43.1892 308.194 43.2792C308.284 43.3692 308.374 43.4142 308.464 43.4142ZM308.464 24.1751H336.412C336.502 24.1751 336.592 24.1301 336.682 24.0401C336.772 23.9501 336.817 23.8601 336.817 23.7701V14.4543C336.817 14.3643 336.772 14.2743 336.682 14.1843C336.592 14.0943 336.502 14.0493 336.412 14.0493H308.464C308.374 14.0493 308.284 14.0943 308.194 14.1843C308.104 14.2743 308.059 14.3643 308.059 14.4543V23.7701C308.059 23.8601 308.104 23.9501 308.194 24.0401C308.284 24.1301 308.374 24.1751 308.464 24.1751ZM356.932 53V4.39595H393.925C395.681 4.39595 397.278 4.84599 398.718 5.74606C400.203 6.60113 401.396 7.77123 402.296 9.25636C403.196 10.6965 403.646 12.3166 403.646 14.1168V23.4325C403.646 24.0176 403.601 24.5801 403.511 25.1202C403.421 25.6152 403.286 26.1103 403.106 26.6053C403.826 27.5504 404.411 28.5855 404.861 29.7106C405.311 30.7906 405.536 31.8932 405.536 33.0183V43.2792C405.536 45.0793 405.086 46.722 404.186 48.2071C403.286 49.6472 402.094 50.8173 400.608 51.7174C399.168 52.5725 397.548 53 395.748 53H356.932ZM367.058 43.2117H395.276C395.411 43.2117 395.501 43.1892 395.546 43.1442C395.636 43.0542 395.681 42.9417 395.681 42.8067V33.5584C395.681 33.4684 395.636 33.3784 395.546 33.2884C395.501 33.1984 395.411 33.1533 395.276 33.1533H367.058C366.923 33.1533 366.811 33.1984 366.721 33.2884C366.676 33.3784 366.653 33.4684 366.653 33.5584V42.8067C366.653 42.9417 366.676 43.0542 366.721 43.1442C366.811 43.1892 366.923 43.2117 367.058 43.2117ZM367.058 23.365H393.385C393.475 23.365 393.565 23.3425 393.655 23.2975C393.745 23.2075 393.79 23.1175 393.79 23.0275V14.5893C393.79 14.4543 393.745 14.3643 393.655 14.3193C393.565 14.2293 393.475 14.1843 393.385 14.1843H367.058C366.923 14.1843 366.811 14.2293 366.721 14.3193C366.676 14.3643 366.653 14.4543 366.653 14.5893V23.0275C366.653 23.1175 366.676 23.2075 366.721 23.2975C366.811 23.3425 366.923 23.365 367.058 23.365ZM424.17 53C422.46 53 420.862 52.5725 419.377 51.7174C417.937 50.8173 416.789 49.6472 415.934 48.2071C415.079 46.767 414.652 45.1918 414.652 43.4817V28.563H444.759V23.8376C444.759 23.7476 444.714 23.6576 444.624 23.5675C444.534 23.4775 444.444 23.4325 444.354 23.4325H414.652V13.8467H444.827C446.582 13.8467 448.18 14.2968 449.62 15.1969C451.06 16.0519 452.207 17.1995 453.062 18.6396C453.918 20.0798 454.345 21.6549 454.345 23.365V53H424.17ZM424.643 43.4142H444.759V37.1362H424.238V43.0092C424.238 43.0992 424.283 43.1892 424.373 43.2792C424.463 43.3692 424.553 43.4142 424.643 43.4142ZM471.419 53C469.709 53 468.133 52.5725 466.693 51.7174C465.253 50.8173 464.083 49.6472 463.183 48.2071C462.328 46.767 461.9 45.1918 461.9 43.4817V0.953163H471.554V43.0092C471.554 43.0992 471.599 43.1892 471.689 43.2792C471.779 43.3692 471.869 43.4142 471.959 43.4142H479.654V53H471.419ZM496.451 53C494.741 53 493.166 52.5725 491.726 51.7174C490.286 50.8173 489.116 49.6472 488.216 48.2071C487.36 46.767 486.933 45.1918 486.933 43.4817V0.953163H496.586V43.0092C496.586 43.0992 496.631 43.1892 496.721 43.2792C496.811 43.3692 496.901 43.4142 496.991 43.4142H504.687V53H496.451Z" fill="url(#paint0_linear_3311_209371)"/>
</g>
<defs>
<filter id="filter0_d_3311_209371" x="0.562149" y="0.953125" width="508.344" height="76.0124" filterUnits="userSpaceOnUse" color-interpolation-filters="sRGB">
<feFlood flood-opacity="0" result="BackgroundImageFix"/>
<feColorMatrix in="SourceAlpha" type="matrix" values="0 0 0 0 0 0 0 0 0 0 0 0 0 0 0 0 0 0 127 0" result="hardAlpha"/>
<feOffset dy="4.2191"/>
<feGaussianBlur stdDeviation="2.10955"/>
<feComposite in2="hardAlpha" operator="out"/>
<feColorMatrix type="matrix" values="0 0 0 0 0 0 0 0 0 0 0 0 0 0 0 0 0 0 0.25 0"/>
<feBlend mode="normal" in2="BackgroundImageFix" result="effect1_dropShadow_3311_209371"/>
<feBlend mode="normal" in="SourceGraphic" in2="effect1_dropShadow_3311_209371" result="shape"/>
</filter>
<linearGradient id="paint0_linear_3311_209371" x1="-11.3661" y1="36.75" x2="429.021" y2="54.3123" gradientUnits="userSpaceOnUse">
<stop stop-color="#E9E9E9"/>
<stop offset="1" stop-color="#EB72FF"/>
</linearGradient>
</defs>
</svg>
