<svg width="287" height="50" viewBox="0 0 287 50" fill="none" xmlns="http://www.w3.org/2000/svg">
<rect x="1.5" y="1.5" width="284" height="47" rx="6.5" fill="url(#paint0_linear_4198_226759)" stroke="url(#paint1_linear_4198_226759)" stroke-width="3"/>
<path opacity="0.7" d="M85.9559 30V15.6H88.1759L94.1559 22.72L100.136 15.6H102.356V30H100.736V17.44L94.1559 25.26L87.5759 17.44V30H85.9559ZM104.711 30V15.6H106.351V30H104.711ZM108.788 30V15.6H111.008L121.568 28.16V15.6H123.188V30H120.968L110.408 17.44V30H108.788ZM131.109 30V17.22H124.709V15.6H139.109V17.22H132.729V30H131.109ZM146.054 30V15.6H148.274L158.834 28.16V15.6H160.454V30H158.234L147.674 17.44V30H146.054ZM165.054 30C164.614 30 164.208 29.8933 163.834 29.68C163.474 29.4667 163.188 29.18 162.974 28.82C162.761 28.4467 162.654 28.04 162.654 27.6V18C162.654 17.56 162.761 17.16 162.974 16.8C163.188 16.4267 163.474 16.1333 163.834 15.92C164.208 15.7067 164.614 15.6 165.054 15.6H174.654C175.094 15.6 175.494 15.7067 175.854 15.92C176.228 16.1333 176.521 16.4267 176.734 16.8C176.948 17.16 177.054 17.56 177.054 18V27.6C177.054 28.04 176.948 28.4467 176.734 28.82C176.521 29.18 176.228 29.4667 175.854 29.68C175.494 29.8933 175.094 30 174.654 30H165.054ZM165.054 28.38H174.654C174.868 28.38 175.048 28.3067 175.194 28.16C175.354 28 175.434 27.8133 175.434 27.6V18C175.434 17.7867 175.354 17.6067 175.194 17.46C175.048 17.3 174.868 17.22 174.654 17.22H165.054C164.841 17.22 164.654 17.3 164.494 17.46C164.348 17.6067 164.274 17.7867 164.274 18V27.6C164.274 27.8133 164.348 28 164.494 28.16C164.654 28.3067 164.841 28.38 165.054 28.38ZM183.53 30L178.29 15.6H180.01L184.23 27.16L188.43 15.6H190.39L194.61 27.16L198.79 15.6H200.55L195.31 30H193.89L189.41 17.7L184.93 30H183.53Z" fill="white"/>
<defs>
<linearGradient id="paint0_linear_4198_226759" x1="-50.9425" y1="23.1059" x2="304.899" y2="28.2535" gradientUnits="userSpaceOnUse">
<stop stop-color="#6400FF" stop-opacity="0.88"/>
<stop offset="0.523958" stop-color="#874691" stop-opacity="0.86"/>
<stop offset="1" stop-color="#FF03F5" stop-opacity="0.67"/>
</linearGradient>
<linearGradient id="paint1_linear_4198_226759" x1="0" y1="25" x2="294.415" y2="25" gradientUnits="userSpaceOnUse">
<stop stop-color="#131BB0"/>
<stop offset="0.482292" stop-color="#B84C93"/>
<stop offset="1" stop-color="#FF00F5"/>
<stop offset="1" stop-color="#DB34CA"/>
</linearGradient>
</defs>
</svg>
