<svg width="293" height="56" viewBox="0 0 293 56" fill="none" xmlns="http://www.w3.org/2000/svg">
<g filter="url(#filter0_d_3311_209460)">
<rect x="4.5" y="1.5" width="284" height="47" rx="13.5" fill="url(#paint0_linear_3311_209460)" stroke="url(#paint1_linear_3311_209460)" stroke-width="3"/>
</g>
<path opacity="0.7" d="M88.9559 30V15.6H91.1759L97.1559 22.72L103.136 15.6H105.356V30H103.736V17.44L97.1559 25.26L90.5759 17.44V30H88.9559ZM107.711 30V15.6H109.351V30H107.711ZM111.788 30V15.6H114.008L124.568 28.16V15.6H126.188V30H123.968L113.408 17.44V30H111.788ZM134.109 30V17.22H127.709V15.6H142.109V17.22H135.729V30H134.109ZM149.054 30V15.6H151.274L161.834 28.16V15.6H163.454V30H161.234L150.674 17.44V30H149.054ZM168.054 30C167.614 30 167.208 29.8933 166.834 29.68C166.474 29.4667 166.188 29.18 165.974 28.82C165.761 28.4467 165.654 28.04 165.654 27.6V18C165.654 17.56 165.761 17.16 165.974 16.8C166.188 16.4267 166.474 16.1333 166.834 15.92C167.208 15.7067 167.614 15.6 168.054 15.6H177.654C178.094 15.6 178.494 15.7067 178.854 15.92C179.228 16.1333 179.521 16.4267 179.734 16.8C179.948 17.16 180.054 17.56 180.054 18V27.6C180.054 28.04 179.948 28.4467 179.734 28.82C179.521 29.18 179.228 29.4667 178.854 29.68C178.494 29.8933 178.094 30 177.654 30H168.054ZM168.054 28.38H177.654C177.868 28.38 178.048 28.3067 178.194 28.16C178.354 28 178.434 27.8133 178.434 27.6V18C178.434 17.7867 178.354 17.6067 178.194 17.46C178.048 17.3 177.868 17.22 177.654 17.22H168.054C167.841 17.22 167.654 17.3 167.494 17.46C167.348 17.6067 167.274 17.7867 167.274 18V27.6C167.274 27.8133 167.348 28 167.494 28.16C167.654 28.3067 167.841 28.38 168.054 28.38ZM186.53 30L181.29 15.6H183.01L187.23 27.16L191.43 15.6H193.39L197.61 27.16L201.79 15.6H203.55L198.31 30H196.89L192.41 17.7L187.93 30H186.53Z" fill="white"/>
<defs>
<filter id="filter0_d_3311_209460" x="0.130742" y="0" width="292.739" height="55.7385" filterUnits="userSpaceOnUse" color-interpolation-filters="sRGB">
<feFlood flood-opacity="0" result="BackgroundImageFix"/>
<feColorMatrix in="SourceAlpha" type="matrix" values="0 0 0 0 0 0 0 0 0 0 0 0 0 0 0 0 0 0 127 0" result="hardAlpha"/>
<feOffset dy="2.86926"/>
<feGaussianBlur stdDeviation="1.43463"/>
<feComposite in2="hardAlpha" operator="out"/>
<feColorMatrix type="matrix" values="0 0 0 0 0 0 0 0 0 0 0 0 0 0 0 0 0 0 0.25 0"/>
<feBlend mode="normal" in2="BackgroundImageFix" result="effect1_dropShadow_3311_209460"/>
<feBlend mode="normal" in="SourceGraphic" in2="effect1_dropShadow_3311_209460" result="shape"/>
</filter>
<linearGradient id="paint0_linear_3311_209460" x1="-47.9425" y1="23.1059" x2="307.899" y2="28.2535" gradientUnits="userSpaceOnUse">
<stop stop-color="#6400FF" stop-opacity="0.88"/>
<stop offset="0.523958" stop-color="#874691" stop-opacity="0.86"/>
<stop offset="1" stop-color="#FF03F5" stop-opacity="0.67"/>
</linearGradient>
<linearGradient id="paint1_linear_3311_209460" x1="3" y1="25" x2="297.415" y2="25" gradientUnits="userSpaceOnUse">
<stop stop-color="#131BB0"/>
<stop offset="0.482292" stop-color="#B84C93"/>
<stop offset="1" stop-color="#FF00F5"/>
<stop offset="1" stop-color="#DB34CA"/>
</linearGradient>
</defs>
</svg>
