<svg width="127" height="39" viewBox="0 0 127 39" fill="none" xmlns="http://www.w3.org/2000/svg">
<rect x="0.5" y="0.5" width="126" height="38" rx="14.5" fill="#2E3140" stroke="url(#paint0_linear_3649_225669)"/>
<path opacity="0.7" d="M34.9489 14.06C36.4689 14.06 37.7823 14.3467 38.8889 14.92C40.0089 15.48 40.8623 16.2867 41.4489 17.34C42.0489 18.3933 42.3489 19.6333 42.3489 21.06C42.3489 22.4867 42.0489 23.7267 41.4489 24.78C40.8623 25.82 40.0089 26.62 38.8889 27.18C37.7823 27.7267 36.4689 28 34.9489 28H30.6089V14.06H34.9489ZM34.9489 26.5C36.7489 26.5 38.1223 26.0267 39.0689 25.08C40.0156 24.12 40.4889 22.78 40.4889 21.06C40.4889 19.3267 40.0089 17.9733 39.0489 17C38.1023 16.0267 36.7356 15.54 34.9489 15.54H32.4289V26.5H34.9489ZM54.7495 22.1C54.7495 22.4467 54.7295 22.8133 54.6895 23.2H45.9295C45.9962 24.28 46.3629 25.1267 47.0295 25.74C47.7095 26.34 48.5295 26.64 49.4895 26.64C50.2762 26.64 50.9295 26.46 51.4495 26.1C51.9829 25.7267 52.3562 25.2333 52.5695 24.62H54.5295C54.2362 25.6733 53.6495 26.5333 52.7695 27.2C51.8895 27.8533 50.7962 28.18 49.4895 28.18C48.4495 28.18 47.5162 27.9467 46.6895 27.48C45.8762 27.0133 45.2362 26.3533 44.7695 25.5C44.3029 24.6333 44.0695 23.6333 44.0695 22.5C44.0695 21.3667 44.2962 20.3733 44.7495 19.52C45.2029 18.6667 45.8362 18.0133 46.6495 17.56C47.4762 17.0933 48.4229 16.86 49.4895 16.86C50.5295 16.86 51.4495 17.0867 52.2495 17.54C53.0495 17.9933 53.6629 18.62 54.0895 19.42C54.5295 20.2067 54.7495 21.1 54.7495 22.1ZM52.8695 21.72C52.8695 21.0267 52.7162 20.4333 52.4095 19.94C52.1029 19.4333 51.6829 19.0533 51.1495 18.8C50.6295 18.5333 50.0495 18.4 49.4095 18.4C48.4895 18.4 47.7029 18.6933 47.0495 19.28C46.4095 19.8667 46.0429 20.68 45.9495 21.72H52.8695ZM59.3719 18.54V25C59.3719 25.5333 59.4852 25.9133 59.7119 26.14C59.9386 26.3533 60.3319 26.46 60.8919 26.46H62.2319V28H60.5919C59.5786 28 58.8186 27.7667 58.3119 27.3C57.8052 26.8333 57.5519 26.0667 57.5519 25V18.54H56.1319V17.04H57.5519V14.28H59.3719V17.04H62.2319V18.54H59.3719ZM63.757 22.48C63.757 21.36 63.9837 20.38 64.437 19.54C64.8904 18.6867 65.5104 18.0267 66.297 17.56C67.097 17.0933 67.9837 16.86 68.957 16.86C69.917 16.86 70.7504 17.0667 71.457 17.48C72.1637 17.8933 72.6904 18.4133 73.037 19.04V17.04H74.877V28H73.037V25.96C72.677 26.6 72.137 27.1333 71.417 27.56C70.7104 27.9733 69.8837 28.18 68.937 28.18C67.9637 28.18 67.0837 27.94 66.297 27.46C65.5104 26.98 64.8904 26.3067 64.437 25.44C63.9837 24.5733 63.757 23.5867 63.757 22.48ZM73.037 22.5C73.037 21.6733 72.8704 20.9533 72.537 20.34C72.2037 19.7267 71.7504 19.26 71.177 18.94C70.617 18.6067 69.997 18.44 69.317 18.44C68.637 18.44 68.017 18.6 67.457 18.92C66.897 19.24 66.4504 19.7067 66.117 20.32C65.7837 20.9333 65.617 21.6533 65.617 22.48C65.617 23.32 65.7837 24.0533 66.117 24.68C66.4504 25.2933 66.897 25.7667 67.457 26.1C68.017 26.42 68.637 26.58 69.317 26.58C69.997 26.58 70.617 26.42 71.177 26.1C71.7504 25.7667 72.2037 25.2933 72.537 24.68C72.8704 24.0533 73.037 23.3267 73.037 22.5ZM78.8927 15.26C78.546 15.26 78.2527 15.14 78.0127 14.9C77.7727 14.66 77.6527 14.3667 77.6527 14.02C77.6527 13.6733 77.7727 13.38 78.0127 13.14C78.2527 12.9 78.546 12.78 78.8927 12.78C79.226 12.78 79.506 12.9 79.7327 13.14C79.9727 13.38 80.0927 13.6733 80.0927 14.02C80.0927 14.3667 79.9727 14.66 79.7327 14.9C79.506 15.14 79.226 15.26 78.8927 15.26ZM79.7727 17.04V28H77.9527V17.04H79.7727ZM84.6945 13.2V28H82.8745V13.2H84.6945ZM91.6764 28.18C90.8364 28.18 90.0831 28.04 89.4164 27.76C88.7498 27.4667 88.2231 27.0667 87.8364 26.56C87.4498 26.04 87.2364 25.4467 87.1964 24.78H89.0764C89.1298 25.3267 89.3831 25.7733 89.8364 26.12C90.3031 26.4667 90.9098 26.64 91.6564 26.64C92.3498 26.64 92.8964 26.4867 93.2964 26.18C93.6964 25.8733 93.8964 25.4867 93.8964 25.02C93.8964 24.54 93.6831 24.1867 93.2564 23.96C92.8298 23.72 92.1698 23.4867 91.2764 23.26C90.4631 23.0467 89.7964 22.8333 89.2764 22.62C88.7698 22.3933 88.3298 22.0667 87.9564 21.64C87.5964 21.2 87.4164 20.6267 87.4164 19.92C87.4164 19.36 87.5831 18.8467 87.9164 18.38C88.2498 17.9133 88.7231 17.5467 89.3364 17.28C89.9498 17 90.6498 16.86 91.4364 16.86C92.6498 16.86 93.6298 17.1667 94.3764 17.78C95.1231 18.3933 95.5231 19.2333 95.5764 20.3H93.7564C93.7164 19.7267 93.4831 19.2667 93.0564 18.92C92.6431 18.5733 92.0831 18.4 91.3764 18.4C90.7231 18.4 90.2031 18.54 89.8164 18.82C89.4298 19.1 89.2364 19.4667 89.2364 19.92C89.2364 20.28 89.3498 20.58 89.5764 20.82C89.8164 21.0467 90.1098 21.2333 90.4564 21.38C90.8164 21.5133 91.3098 21.6667 91.9364 21.84C92.7231 22.0533 93.3631 22.2667 93.8564 22.48C94.3498 22.68 94.7698 22.9867 95.1164 23.4C95.4764 23.8133 95.6631 24.3533 95.6764 25.02C95.6764 25.62 95.5098 26.16 95.1764 26.64C94.8431 27.12 94.3698 27.5 93.7564 27.78C93.1564 28.0467 92.4631 28.18 91.6764 28.18Z" fill="white"/>
<defs>
<linearGradient id="paint0_linear_3649_225669" x1="0" y1="19.5" x2="130.281" y2="19.5" gradientUnits="userSpaceOnUse">
<stop stop-color="#ED1B1B"/>
<stop offset="0.489583" stop-color="#A83030"/>
<stop offset="1" stop-color="#E30909"/>
</linearGradient>
</defs>
</svg>
