<svg width="131" height="45" viewBox="0 0 131 45" fill="none" xmlns="http://www.w3.org/2000/svg">
<g filter="url(#filter0_d_3335_210670)">
<rect x="4.5" y="1.5" width="122" height="36" rx="13.5" fill="url(#paint0_linear_3335_210670)" stroke="url(#paint1_linear_3335_210670)" stroke-width="3"/>
</g>
<path opacity="0.7" d="M34.007 28.14C32.7137 28.14 31.5337 27.84 30.467 27.24C29.4004 26.6267 28.5537 25.78 27.927 24.7C27.3137 23.6067 27.007 22.38 27.007 21.02C27.007 19.66 27.3137 18.44 27.927 17.36C28.5537 16.2667 29.4004 15.42 30.467 14.82C31.5337 14.2067 32.7137 13.9 34.007 13.9C35.3137 13.9 36.5004 14.2067 37.567 14.82C38.6337 15.42 39.4737 16.26 40.087 17.34C40.7004 18.42 41.007 19.6467 41.007 21.02C41.007 22.3933 40.7004 23.62 40.087 24.7C39.4737 25.78 38.6337 26.6267 37.567 27.24C36.5004 27.84 35.3137 28.14 34.007 28.14ZM34.007 26.56C34.9804 26.56 35.8537 26.3333 36.627 25.88C37.4137 25.4267 38.027 24.78 38.4671 23.94C38.9204 23.1 39.147 22.1267 39.147 21.02C39.147 19.9 38.9204 18.9267 38.4671 18.1C38.027 17.26 37.4204 16.6133 36.647 16.16C35.8737 15.7067 34.9937 15.48 34.007 15.48C33.0204 15.48 32.1404 15.7067 31.367 16.16C30.5937 16.6133 29.9804 17.26 29.527 18.1C29.087 18.9267 28.867 19.9 28.867 21.02C28.867 22.1267 29.087 23.1 29.527 23.94C29.9804 24.78 30.5937 25.4267 31.367 25.88C32.1537 26.3333 33.0337 26.56 34.007 26.56ZM45.2297 19.06C45.5897 18.4333 46.123 17.9133 46.8297 17.5C47.5497 17.0733 48.383 16.86 49.3297 16.86C50.303 16.86 51.183 17.0933 51.9697 17.56C52.7697 18.0267 53.3964 18.6867 53.8497 19.54C54.303 20.38 54.5297 21.36 54.5297 22.48C54.5297 23.5867 54.303 24.5733 53.8497 25.44C53.3964 26.3067 52.7697 26.98 51.9697 27.46C51.183 27.94 50.303 28.18 49.3297 28.18C48.3964 28.18 47.5697 27.9733 46.8497 27.56C46.143 27.1333 45.603 26.6067 45.2297 25.98V33.2H43.4097V17.04H45.2297V19.06ZM52.6697 22.48C52.6697 21.6533 52.503 20.9333 52.1697 20.32C51.8364 19.7067 51.383 19.24 50.8097 18.92C50.2497 18.6 49.6297 18.44 48.9497 18.44C48.283 18.44 47.663 18.6067 47.0897 18.94C46.5297 19.26 46.0764 19.7333 45.7297 20.36C45.3964 20.9733 45.2297 21.6867 45.2297 22.5C45.2297 23.3267 45.3964 24.0533 45.7297 24.68C46.0764 25.2933 46.5297 25.7667 47.0897 26.1C47.663 26.42 48.283 26.58 48.9497 26.58C49.6297 26.58 50.2497 26.42 50.8097 26.1C51.383 25.7667 51.8364 25.2933 52.1697 24.68C52.503 24.0533 52.6697 23.32 52.6697 22.48ZM59.1453 18.54V25C59.1453 25.5333 59.2587 25.9133 59.4853 26.14C59.712 26.3533 60.1053 26.46 60.6653 26.46H62.0053V28H60.3653C59.352 28 58.592 27.7667 58.0853 27.3C57.5787 26.8333 57.3253 26.0667 57.3253 25V18.54H55.9053V17.04H57.3253V14.28H59.1453V17.04H62.0053V18.54H59.1453ZM65.1505 15.26C64.8038 15.26 64.5105 15.14 64.2705 14.9C64.0305 14.66 63.9105 14.3667 63.9105 14.02C63.9105 13.6733 64.0305 13.38 64.2705 13.14C64.5105 12.9 64.8038 12.78 65.1505 12.78C65.4838 12.78 65.7638 12.9 65.9905 13.14C66.2305 13.38 66.3505 13.6733 66.3505 14.02C66.3505 14.3667 66.2305 14.66 65.9905 14.9C65.7638 15.14 65.4838 15.26 65.1505 15.26ZM66.0305 17.04V28H64.2105V17.04H66.0305ZM73.9124 28.18C72.8857 28.18 71.9524 27.9467 71.1124 27.48C70.2857 27.0133 69.6324 26.3533 69.1524 25.5C68.6857 24.6333 68.4524 23.6333 68.4524 22.5C68.4524 21.38 68.6924 20.3933 69.1724 19.54C69.6657 18.6733 70.3324 18.0133 71.1724 17.56C72.0124 17.0933 72.9524 16.86 73.9924 16.86C75.0324 16.86 75.9724 17.0933 76.8124 17.56C77.6524 18.0133 78.3124 18.6667 78.7924 19.52C79.2857 20.3733 79.5324 21.3667 79.5324 22.5C79.5324 23.6333 79.279 24.6333 78.7724 25.5C78.279 26.3533 77.6057 27.0133 76.7524 27.48C75.899 27.9467 74.9524 28.18 73.9124 28.18ZM73.9124 26.58C74.5657 26.58 75.179 26.4267 75.7524 26.12C76.3257 25.8133 76.7857 25.3533 77.1324 24.74C77.4924 24.1267 77.6724 23.38 77.6724 22.5C77.6724 21.62 77.499 20.8733 77.1524 20.26C76.8057 19.6467 76.3524 19.1933 75.7924 18.9C75.2324 18.5933 74.6257 18.44 73.9724 18.44C73.3057 18.44 72.6924 18.5933 72.1324 18.9C71.5857 19.1933 71.1457 19.6467 70.8124 20.26C70.479 20.8733 70.3124 21.62 70.3124 22.5C70.3124 23.3933 70.4724 24.1467 70.7924 24.76C71.1257 25.3733 71.5657 25.8333 72.1124 26.14C72.659 26.4333 73.259 26.58 73.9124 26.58ZM87.2653 16.84C88.5987 16.84 89.6787 17.2467 90.5053 18.06C91.332 18.86 91.7453 20.02 91.7453 21.54V28H89.9453V21.8C89.9453 20.7067 89.672 19.8733 89.1253 19.3C88.5787 18.7133 87.832 18.42 86.8853 18.42C85.9253 18.42 85.1587 18.72 84.5853 19.32C84.0253 19.92 83.7453 20.7933 83.7453 21.94V28H81.9253V17.04H83.7453V18.6C84.1053 18.04 84.592 17.6067 85.2053 17.3C85.832 16.9933 86.5187 16.84 87.2653 16.84ZM98.5983 28.18C97.7583 28.18 97.005 28.04 96.3383 27.76C95.6716 27.4667 95.145 27.0667 94.7583 26.56C94.3716 26.04 94.1583 25.4467 94.1183 24.78H95.9983C96.0516 25.3267 96.305 25.7733 96.7583 26.12C97.225 26.4667 97.8316 26.64 98.5783 26.64C99.2716 26.64 99.8183 26.4867 100.218 26.18C100.618 25.8733 100.818 25.4867 100.818 25.02C100.818 24.54 100.605 24.1867 100.178 23.96C99.7516 23.72 99.0916 23.4867 98.1983 23.26C97.385 23.0467 96.7183 22.8333 96.1983 22.62C95.6916 22.3933 95.2516 22.0667 94.8783 21.64C94.5183 21.2 94.3383 20.6267 94.3383 19.92C94.3383 19.36 94.505 18.8467 94.8383 18.38C95.1716 17.9133 95.645 17.5467 96.2583 17.28C96.8716 17 97.5716 16.86 98.3583 16.86C99.5716 16.86 100.552 17.1667 101.298 17.78C102.045 18.3933 102.445 19.2333 102.498 20.3H100.678C100.638 19.7267 100.405 19.2667 99.9783 18.92C99.565 18.5733 99.005 18.4 98.2983 18.4C97.645 18.4 97.125 18.54 96.7383 18.82C96.3516 19.1 96.1583 19.4667 96.1583 19.92C96.1583 20.28 96.2716 20.58 96.4983 20.82C96.7383 21.0467 97.0316 21.2333 97.3783 21.38C97.7383 21.5133 98.2316 21.6667 98.8583 21.84C99.645 22.0533 100.285 22.2667 100.778 22.48C101.272 22.68 101.692 22.9867 102.038 23.4C102.398 23.8133 102.585 24.3533 102.598 25.02C102.598 25.62 102.432 26.16 102.098 26.64C101.765 27.12 101.292 27.5 100.678 27.78C100.078 28.0467 99.385 28.18 98.5983 28.18Z" fill="white"/>
<defs>
<filter id="filter0_d_3335_210670" x="0.130742" y="0" width="130.739" height="44.7385" filterUnits="userSpaceOnUse" color-interpolation-filters="sRGB">
<feFlood flood-opacity="0" result="BackgroundImageFix"/>
<feColorMatrix in="SourceAlpha" type="matrix" values="0 0 0 0 0 0 0 0 0 0 0 0 0 0 0 0 0 0 127 0" result="hardAlpha"/>
<feOffset dy="2.86926"/>
<feGaussianBlur stdDeviation="1.43463"/>
<feComposite in2="hardAlpha" operator="out"/>
<feColorMatrix type="matrix" values="0 0 0 0 0 0 0 0 0 0 0 0 0 0 0 0 0 0 0.25 0"/>
<feBlend mode="normal" in2="BackgroundImageFix" result="effect1_dropShadow_3335_210670"/>
<feBlend mode="normal" in="SourceGraphic" in2="effect1_dropShadow_3335_210670" result="shape"/>
</filter>
<linearGradient id="paint0_linear_3335_210670" x1="-19.1875" y1="18.0226" x2="135.818" y2="19.2747" gradientUnits="userSpaceOnUse">
<stop stop-color="#6400FF" stop-opacity="0.88"/>
<stop offset="0.523958" stop-color="#874691" stop-opacity="0.86"/>
<stop offset="1" stop-color="#FF03F5" stop-opacity="0.67"/>
</linearGradient>
<linearGradient id="paint1_linear_3335_210670" x1="3" y1="19.5" x2="131.229" y2="19.5" gradientUnits="userSpaceOnUse">
<stop stop-color="#131BB0"/>
<stop offset="0.482292" stop-color="#B84C93"/>
<stop offset="1" stop-color="#FF00F5"/>
<stop offset="1" stop-color="#DB34CA"/>
</linearGradient>
</defs>
</svg>
