<svg width="231" height="43" viewBox="0 0 231 43" fill="none" xmlns="http://www.w3.org/2000/svg">
<g filter="url(#filter0_d_4000_226742)">
<rect x="4.04965" y="1.04965" width="222.901" height="35.8892" rx="9.44689" fill="black" stroke="url(#paint0_linear_4000_226742)" stroke-width="2.09931"/>
</g>
<path opacity="0.7" d="M54.0774 24C53.6965 24 53.3444 23.9076 53.0212 23.7229C52.7095 23.5382 52.4613 23.2901 52.2766 22.9784C52.0919 22.6551 51.9995 22.3031 51.9995 21.9221V13.6106C51.9995 13.2296 52.0919 12.8833 52.2766 12.5716C52.4613 12.2484 52.7095 11.9944 53.0212 11.8097C53.3444 11.625 53.6965 11.5327 54.0774 11.5327H64.4322V12.9352H54.0774C53.8927 12.9352 53.7311 13.0045 53.5926 13.143C53.4656 13.27 53.4021 13.4259 53.4021 13.6106V21.9221C53.4021 22.1068 53.4656 22.2684 53.5926 22.407C53.7311 22.5339 53.8927 22.5974 54.0774 22.5974H64.4322V24H54.0774ZM68.2809 24C67.9 24 67.5479 23.9076 67.2247 23.7229C66.913 23.5267 66.659 23.2727 66.4628 22.9611C66.2781 22.6378 66.1857 22.2857 66.1857 21.9048V13.9569H67.6056V21.9048C67.6056 22.0895 67.6691 22.2511 67.7961 22.3896C67.9346 22.5166 68.0962 22.5801 68.2809 22.5801H74.3068C74.4915 22.5801 74.6531 22.5166 74.7916 22.3896C74.9302 22.2511 74.9994 22.0895 74.9994 21.9048V13.9569H76.4193V21.9048C76.4193 22.2857 76.3212 22.6378 76.125 22.9611C75.9403 23.2727 75.6863 23.5267 75.3631 23.7229C75.0514 23.9076 74.6993 24 74.3068 24H68.2809ZM78.2083 24V16.0521C78.2083 15.6711 78.3006 15.3248 78.4853 15.0131C78.6816 14.6899 78.9355 14.4359 79.2472 14.2512C79.5704 14.055 79.9225 13.9569 80.3035 13.9569H85.9484V15.3768H80.3035C80.1188 15.3768 79.9571 15.446 79.8186 15.5846C79.6916 15.7115 79.6281 15.8674 79.6281 16.0521V24H78.2083ZM87.069 24V16.0521C87.069 15.6711 87.1614 15.3248 87.3461 15.0131C87.5423 14.6899 87.7963 14.4359 88.108 14.2512C88.4312 14.055 88.7833 13.9569 89.1642 13.9569H94.8092V15.3768H89.1642C88.9795 15.3768 88.8179 15.446 88.6794 15.5846C88.5524 15.7115 88.4889 15.8674 88.4889 16.0521V24H87.069ZM98.0077 24C97.6268 24 97.2747 23.9076 96.9515 23.7229C96.6398 23.5267 96.3858 23.2727 96.1896 22.9611C96.0049 22.6378 95.9125 22.2857 95.9125 21.9048V16.0521C95.9125 15.6711 96.0049 15.3248 96.1896 15.0131C96.3858 14.6899 96.6398 14.4359 96.9515 14.2512C97.2747 14.055 97.6268 13.9569 98.0077 13.9569H104.034C104.426 13.9569 104.778 14.055 105.09 14.2512C105.413 14.4359 105.667 14.6899 105.852 15.0131C106.048 15.3248 106.146 15.6711 106.146 16.0521V19.6884H97.3324V21.9048C97.3324 22.0895 97.3959 22.2511 97.5229 22.3896C97.6614 22.5166 97.823 22.5801 98.0077 22.5801H106.146V24H98.0077ZM97.3324 18.2685H104.709V16.0521C104.709 15.8674 104.64 15.7115 104.501 15.5846C104.374 15.446 104.218 15.3768 104.034 15.3768H98.0077C97.823 15.3768 97.6614 15.446 97.5229 15.5846C97.3959 15.7115 97.3324 15.8674 97.3324 16.0521V18.2685ZM107.954 24V13.9569H116.092C116.473 13.9569 116.819 14.055 117.131 14.2512C117.454 14.4359 117.708 14.6899 117.893 15.0131C118.089 15.3248 118.187 15.6711 118.187 16.0521V24H116.767V16.0521C116.767 15.8674 116.698 15.7115 116.559 15.5846C116.433 15.446 116.277 15.3768 116.092 15.3768H110.066C109.881 15.3768 109.72 15.446 109.581 15.5846C109.443 15.7115 109.373 15.8674 109.373 16.0521V24H107.954ZM124.78 24V11.5154H126.183V22.5974H137.247V24H124.78ZM140.266 24C139.885 24 139.533 23.9076 139.209 23.7229C138.898 23.5267 138.644 23.2727 138.447 22.9611C138.263 22.6378 138.17 22.2857 138.17 21.9048V16.0521C138.17 15.6711 138.263 15.3248 138.447 15.0131C138.644 14.6899 138.898 14.4359 139.209 14.2512C139.533 14.055 139.885 13.9569 140.266 13.9569H146.291C146.684 13.9569 147.036 14.055 147.348 14.2512C147.671 14.4359 147.925 14.6899 148.11 15.0131C148.306 15.3248 148.404 15.6711 148.404 16.0521V19.6884H139.59V21.9048C139.59 22.0895 139.654 22.2511 139.781 22.3896C139.919 22.5166 140.081 22.5801 140.266 22.5801H148.404V24H140.266ZM139.59 18.2685H146.967V16.0521C146.967 15.8674 146.897 15.7115 146.759 15.5846C146.632 15.446 146.476 15.3768 146.291 15.3768H140.266C140.081 15.3768 139.919 15.446 139.781 15.5846C139.654 15.7115 139.59 15.8674 139.59 16.0521V18.2685ZM154.843 24L149.302 13.9569H150.964L155.674 22.6147L160.384 13.9569H162.046L156.488 24H154.843ZM165.072 24C164.691 24 164.339 23.9076 164.016 23.7229C163.704 23.5267 163.45 23.2727 163.254 22.9611C163.07 22.6378 162.977 22.2857 162.977 21.9048V16.0521C162.977 15.6711 163.07 15.3248 163.254 15.0131C163.45 14.6899 163.704 14.4359 164.016 14.2512C164.339 14.055 164.691 13.9569 165.072 13.9569H171.098C171.491 13.9569 171.843 14.055 172.155 14.2512C172.478 14.4359 172.732 14.6899 172.916 15.0131C173.113 15.3248 173.211 15.6711 173.211 16.0521V19.6884H164.397V21.9048C164.397 22.0895 164.461 22.2511 164.588 22.3896C164.726 22.5166 164.888 22.5801 165.072 22.5801H173.211V24H165.072ZM164.397 18.2685H171.774V16.0521C171.774 15.8674 171.704 15.7115 171.566 15.5846C171.439 15.446 171.283 15.3768 171.098 15.3768H165.072C164.888 15.3768 164.726 15.446 164.588 15.5846C164.461 15.7115 164.397 15.8674 164.397 16.0521V18.2685ZM176.741 24C176.36 24 176.008 23.9076 175.684 23.7229C175.373 23.5267 175.119 23.2727 174.922 22.9611C174.738 22.6378 174.645 22.2857 174.645 21.9048V10.6669H176.065V21.9048C176.065 22.0895 176.129 22.2511 176.256 22.3896C176.394 22.5166 176.556 22.5801 176.741 22.5801H178.438V24H176.741Z" fill="white"/>
<defs>
<filter id="filter0_d_4000_226742" x="0.992181" y="0" width="229.016" height="42.0039" filterUnits="userSpaceOnUse" color-interpolation-filters="sRGB">
<feFlood flood-opacity="0" result="BackgroundImageFix"/>
<feColorMatrix in="SourceAlpha" type="matrix" values="0 0 0 0 0 0 0 0 0 0 0 0 0 0 0 0 0 0 127 0" result="hardAlpha"/>
<feOffset dy="2.00782"/>
<feGaussianBlur stdDeviation="1.00391"/>
<feComposite in2="hardAlpha" operator="out"/>
<feColorMatrix type="matrix" values="0 0 0 0 0 0 0 0 0 0 0 0 0 0 0 0 0 0 0.25 0"/>
<feBlend mode="normal" in2="BackgroundImageFix" result="effect1_dropShadow_4000_226742"/>
<feBlend mode="normal" in="SourceGraphic" in2="effect1_dropShadow_4000_226742" result="shape"/>
</filter>
<linearGradient id="paint0_linear_4000_226742" x1="3" y1="18.9942" x2="233.813" y2="18.9942" gradientUnits="userSpaceOnUse">
<stop stop-color="#131BB0"/>
<stop offset="0.482292" stop-color="#B84C93"/>
<stop offset="1" stop-color="#FF00F5"/>
<stop offset="1" stop-color="#DB34CA"/>
</linearGradient>
</defs>
</svg>
