<svg width="225" height="38" viewBox="0 0 225 38" fill="none" xmlns="http://www.w3.org/2000/svg">
<rect x="1.04965" y="1.04965" width="222.901" height="35.8892" rx="9.44689" fill="url(#paint0_linear_3770_225314)" stroke="url(#paint1_linear_3770_225314)" stroke-width="2.09931"/>
<path d="M58.067 25C57.737 25 57.432 24.92 57.152 24.76C56.882 24.6 56.667 24.385 56.507 24.115C56.347 23.835 56.267 23.53 56.267 23.2V14.2H57.482V23.2C57.482 23.36 57.537 23.5 57.647 23.62C57.767 23.73 57.907 23.785 58.067 23.785H65.267C65.427 23.785 65.562 23.73 65.672 23.62C65.792 23.5 65.852 23.36 65.852 23.2V14.2H67.067V23.2C67.067 23.53 66.987 23.835 66.827 24.115C66.667 24.385 66.447 24.6 66.167 24.76C65.897 24.92 65.597 25 65.267 25H58.067ZM68.6889 28.45V16.3H75.7389C76.0689 16.3 76.3689 16.385 76.6389 16.555C76.9189 16.715 77.1389 16.935 77.2989 17.215C77.4689 17.485 77.5539 17.785 77.5539 18.115V23.185C77.5539 23.515 77.4689 23.82 77.2989 24.1C77.1389 24.37 76.9189 24.59 76.6389 24.76C76.3689 24.92 76.0689 25 75.7389 25H69.9189V28.45H68.6889ZM70.5189 23.77H75.7389C75.8989 23.77 76.0339 23.715 76.1439 23.605C76.2639 23.485 76.3239 23.345 76.3239 23.185V18.115C76.3239 17.955 76.2639 17.82 76.1439 17.71C76.0339 17.59 75.8989 17.53 75.7389 17.53H70.5189C70.3589 17.53 70.2189 17.59 70.0989 17.71C69.9789 17.82 69.9189 17.955 69.9189 18.115V23.185C69.9189 23.345 69.9789 23.485 70.0989 23.605C70.2189 23.715 70.3589 23.77 70.5189 23.77ZM80.0598 28.435V27.19H85.4898C85.6498 27.19 85.7848 27.13 85.8948 27.01C86.0148 26.9 86.0748 26.765 86.0748 26.605V25H80.2698C79.9398 25 79.6348 24.92 79.3548 24.76C79.0848 24.59 78.8648 24.37 78.6948 24.1C78.5348 23.82 78.4548 23.515 78.4548 23.185V18.115C78.4548 17.785 78.5348 17.485 78.6948 17.215C78.8648 16.935 79.0848 16.715 79.3548 16.555C79.6348 16.385 79.9398 16.3 80.2698 16.3H85.4898C85.8298 16.3 86.1348 16.385 86.4048 16.555C86.6848 16.715 86.9048 16.935 87.0648 17.215C87.2248 17.485 87.3048 17.785 87.3048 18.115V26.605C87.3048 26.945 87.2248 27.25 87.0648 27.52C86.9048 27.8 86.6848 28.02 86.4048 28.18C86.1348 28.35 85.8298 28.435 85.4898 28.435H80.0598ZM80.2698 23.77H85.4898C85.6498 23.77 85.7848 23.715 85.8948 23.605C86.0148 23.485 86.0748 23.345 86.0748 23.185V18.115C86.0748 17.955 86.0148 17.82 85.8948 17.71C85.7848 17.59 85.6498 17.53 85.4898 17.53H80.2698C80.1098 17.53 79.9698 17.59 79.8498 17.71C79.7398 17.82 79.6848 17.955 79.6848 18.115V23.185C79.6848 23.345 79.7398 23.485 79.8498 23.605C79.9698 23.715 80.1098 23.77 80.2698 23.77ZM88.6394 25V18.115C88.6394 17.785 88.7194 17.485 88.8794 17.215C89.0494 16.935 89.2694 16.715 89.5394 16.555C89.8194 16.385 90.1244 16.3 90.4544 16.3H95.3444V17.53H90.4544C90.2944 17.53 90.1544 17.59 90.0344 17.71C89.9244 17.82 89.8694 17.955 89.8694 18.115V25H88.6394ZM98.1302 25C97.8002 25 97.4952 24.92 97.2152 24.76C96.9452 24.59 96.7252 24.37 96.5552 24.1C96.3952 23.82 96.3152 23.515 96.3152 23.185V20.035H103.935V18.115C103.935 17.955 103.875 17.82 103.755 17.71C103.645 17.59 103.51 17.53 103.35 17.53H96.3152V16.3H103.35C103.69 16.3 103.995 16.385 104.265 16.555C104.545 16.715 104.765 16.935 104.925 17.215C105.095 17.485 105.18 17.785 105.18 18.115V25H98.1302ZM98.1302 23.77H103.935V21.265H97.5452V23.185C97.5452 23.345 97.6002 23.485 97.7102 23.605C97.8302 23.715 97.9702 23.77 98.1302 23.77ZM108.125 25C107.785 25 107.475 24.92 107.195 24.76C106.925 24.59 106.705 24.37 106.535 24.1C106.375 23.82 106.295 23.515 106.295 23.185V18.115C106.295 17.785 106.375 17.485 106.535 17.215C106.705 16.935 106.925 16.715 107.195 16.555C107.475 16.385 107.785 16.3 108.125 16.3H113.93V13.45H115.16V25H108.125ZM108.125 23.77H113.345C113.505 23.77 113.64 23.715 113.75 23.605C113.87 23.485 113.93 23.345 113.93 23.185V18.115C113.93 17.955 113.87 17.82 113.75 17.71C113.64 17.59 113.505 17.53 113.345 17.53H108.125C107.965 17.53 107.825 17.59 107.705 17.71C107.595 17.82 107.54 17.955 107.54 18.115V23.185C107.54 23.345 107.595 23.485 107.705 23.605C107.825 23.715 107.965 23.77 108.125 23.77ZM118.242 25C117.912 25 117.607 24.92 117.327 24.76C117.057 24.59 116.837 24.37 116.667 24.1C116.507 23.82 116.427 23.515 116.427 23.185V18.115C116.427 17.785 116.507 17.485 116.667 17.215C116.837 16.935 117.057 16.715 117.327 16.555C117.607 16.385 117.912 16.3 118.242 16.3H123.462C123.802 16.3 124.107 16.385 124.377 16.555C124.657 16.715 124.877 16.935 125.037 17.215C125.207 17.485 125.292 17.785 125.292 18.115V21.265H117.657V23.185C117.657 23.345 117.712 23.485 117.822 23.605C117.942 23.715 118.082 23.77 118.242 23.77H125.292V25H118.242ZM117.657 20.035H124.047V18.115C124.047 17.955 123.987 17.82 123.867 17.71C123.757 17.59 123.622 17.53 123.462 17.53H118.242C118.082 17.53 117.942 17.59 117.822 17.71C117.712 17.82 117.657 17.955 117.657 18.115V20.035ZM130.975 25V14.2H132.64L140.56 23.62V14.2H141.775V25H140.11L132.19 15.58V25H130.975ZM145.195 25C144.865 25 144.56 24.92 144.28 24.76C144.01 24.59 143.79 24.37 143.62 24.1C143.46 23.82 143.38 23.515 143.38 23.185V18.115C143.38 17.785 143.46 17.485 143.62 17.215C143.79 16.935 144.01 16.715 144.28 16.555C144.56 16.385 144.865 16.3 145.195 16.3H150.415C150.755 16.3 151.06 16.385 151.33 16.555C151.61 16.715 151.83 16.935 151.99 17.215C152.16 17.485 152.245 17.785 152.245 18.115V23.185C152.245 23.515 152.16 23.82 151.99 24.1C151.83 24.37 151.61 24.59 151.33 24.76C151.06 24.92 150.755 25 150.415 25H145.195ZM145.195 23.77H150.415C150.575 23.77 150.71 23.715 150.82 23.605C150.94 23.485 151 23.345 151 23.185V18.115C151 17.955 150.94 17.82 150.82 17.71C150.71 17.59 150.575 17.53 150.415 17.53H145.195C145.035 17.53 144.895 17.59 144.775 17.71C144.665 17.82 144.61 17.955 144.61 18.115V23.185C144.61 23.345 144.665 23.485 144.775 23.605C144.895 23.715 145.035 23.77 145.195 23.77ZM156.419 25L152.999 16.3H154.319L156.959 22.78L159.764 16.3H161.384L164.369 22.765L166.829 16.3H168.164L164.879 25H163.814L160.574 17.815L157.499 25H156.419Z" fill="white"/>
<defs>
<linearGradient id="paint0_linear_3770_225314" x1="-39.9375" y1="17.5552" x2="239.029" y2="21.7192" gradientUnits="userSpaceOnUse">
<stop stop-color="#6400FF" stop-opacity="0.88"/>
<stop offset="0.523958" stop-color="#874691" stop-opacity="0.86"/>
<stop offset="1" stop-color="#FF03F5" stop-opacity="0.67"/>
</linearGradient>
<linearGradient id="paint1_linear_3770_225314" x1="0" y1="18.9942" x2="230.813" y2="18.9942" gradientUnits="userSpaceOnUse">
<stop stop-color="#131BB0"/>
<stop offset="0.482292" stop-color="#B84C93"/>
<stop offset="1" stop-color="#FF00F5"/>
<stop offset="1" stop-color="#DB34CA"/>
</linearGradient>
</defs>
</svg>
