<svg width="231" height="43" viewBox="0 0 231 43" fill="none" xmlns="http://www.w3.org/2000/svg">
<g filter="url(#filter0_d_4212_226758)">
<rect x="4.04965" y="1.04965" width="222.901" height="35.8892" rx="9.44689" fill="black" stroke="url(#paint0_linear_4212_226758)" stroke-width="2.09931"/>
</g>
<path opacity="0.7" d="M73.3209 24C72.9399 24 72.5879 23.9076 72.2646 23.7229C71.9529 23.5382 71.7048 23.2901 71.5201 22.9784C71.3354 22.6551 71.243 22.3031 71.243 21.9221V13.6106C71.243 13.2296 71.3354 12.8833 71.5201 12.5716C71.7048 12.2484 71.9529 11.9944 72.2646 11.8097C72.5879 11.625 72.9399 11.5327 73.3209 11.5327H83.6757V12.9352H73.3209C73.1362 12.9352 72.9746 13.0045 72.8361 13.143C72.7091 13.27 72.6456 13.4259 72.6456 13.6106V21.9221C72.6456 22.1068 72.7091 22.2684 72.8361 22.407C72.9746 22.5339 73.1362 22.5974 73.3209 22.5974H83.6757V24H73.3209ZM87.5244 24C87.1434 24 86.7914 23.9076 86.4681 23.7229C86.1565 23.5382 85.9083 23.2901 85.7236 22.9784C85.5389 22.6551 85.4465 22.3031 85.4465 21.9221V13.6106C85.4465 13.2296 85.5389 12.8833 85.7236 12.5716C85.9083 12.2484 86.1565 11.9944 86.4681 11.8097C86.7914 11.625 87.1434 11.5327 87.5244 11.5327H95.8359C96.2169 11.5327 96.5632 11.625 96.8749 11.8097C97.1981 11.9944 97.4521 12.2484 97.6368 12.5716C97.8215 12.8833 97.9138 13.2296 97.9138 13.6106V21.9221C97.9138 22.3031 97.8215 22.6551 97.6368 22.9784C97.4521 23.2901 97.1981 23.5382 96.8749 23.7229C96.5632 23.9076 96.2169 24 95.8359 24H87.5244ZM87.5244 22.5974H95.8359C96.0206 22.5974 96.1765 22.5339 96.3035 22.407C96.442 22.2684 96.5113 22.1068 96.5113 21.9221V13.6106C96.5113 13.4259 96.442 13.27 96.3035 13.143C96.1765 13.0045 96.0206 12.9352 95.8359 12.9352H87.5244C87.3397 12.9352 87.1781 13.0045 87.0396 13.143C86.9126 13.27 86.8491 13.4259 86.8491 13.6106V21.9221C86.8491 22.1068 86.9126 22.2684 87.0396 22.407C87.1781 22.5339 87.3397 22.5974 87.5244 22.5974ZM99.8207 24V11.5327H101.743L106.92 17.6971L112.098 11.5327H114.02V24H112.617V13.1257L106.92 19.8962L101.223 13.1257V24H99.8207ZM115.885 24V11.5327H117.807L122.985 17.6971L128.162 11.5327H130.084V24H128.681V13.1257L122.985 19.8962L117.288 13.1257V24H115.885ZM133.993 24C133.612 24 133.26 23.9076 132.937 23.7229C132.625 23.5382 132.377 23.2901 132.192 22.9784C132.007 22.6551 131.915 22.3031 131.915 21.9221V13.6106C131.915 13.2296 132.007 12.8833 132.192 12.5716C132.377 12.2484 132.625 11.9944 132.937 11.8097C133.26 11.625 133.612 11.5327 133.993 11.5327H142.304C142.685 11.5327 143.032 11.625 143.343 11.8097C143.667 11.9944 143.92 12.2484 144.105 12.5716C144.29 12.8833 144.382 13.2296 144.382 13.6106V21.9221C144.382 22.3031 144.29 22.6551 144.105 22.9784C143.92 23.2901 143.667 23.5382 143.343 23.7229C143.032 23.9076 142.685 24 142.304 24H133.993ZM133.993 22.5974H142.304C142.489 22.5974 142.645 22.5339 142.772 22.407C142.91 22.2684 142.98 22.1068 142.98 21.9221V13.6106C142.98 13.4259 142.91 13.27 142.772 13.143C142.645 13.0045 142.489 12.9352 142.304 12.9352H133.993C133.808 12.9352 133.646 13.0045 133.508 13.143C133.381 13.27 133.317 13.4259 133.317 13.6106V21.9221C133.317 22.1068 133.381 22.2684 133.508 22.407C133.646 22.5339 133.808 22.5974 133.993 22.5974ZM146.289 24V11.5327H148.211L157.354 22.407V11.5327H158.756V24H156.834L147.692 13.1257V24H146.289Z" fill="white"/>
<defs>
<filter id="filter0_d_4212_226758" x="0.992181" y="0" width="229.016" height="42.0039" filterUnits="userSpaceOnUse" color-interpolation-filters="sRGB">
<feFlood flood-opacity="0" result="BackgroundImageFix"/>
<feColorMatrix in="SourceAlpha" type="matrix" values="0 0 0 0 0 0 0 0 0 0 0 0 0 0 0 0 0 0 127 0" result="hardAlpha"/>
<feOffset dy="2.00782"/>
<feGaussianBlur stdDeviation="1.00391"/>
<feComposite in2="hardAlpha" operator="out"/>
<feColorMatrix type="matrix" values="0 0 0 0 0 0 0 0 0 0 0 0 0 0 0 0 0 0 0.25 0"/>
<feBlend mode="normal" in2="BackgroundImageFix" result="effect1_dropShadow_4212_226758"/>
<feBlend mode="normal" in="SourceGraphic" in2="effect1_dropShadow_4212_226758" result="shape"/>
</filter>
<linearGradient id="paint0_linear_4212_226758" x1="3" y1="18.9942" x2="233.813" y2="18.9942" gradientUnits="userSpaceOnUse">
<stop stop-color="#131BB0"/>
<stop offset="0.482292" stop-color="#B84C93"/>
<stop offset="1" stop-color="#FF00F5"/>
<stop offset="1" stop-color="#DB34CA"/>
</linearGradient>
</defs>
</svg>
