<svg width="231" height="43" viewBox="0 0 231 43" fill="none" xmlns="http://www.w3.org/2000/svg">
<g filter="url(#filter0_d_4212_226759)">
<rect x="4.04965" y="1.04965" width="222.901" height="35.8892" rx="9.44689" fill="black" stroke="url(#paint0_linear_4212_226759)" stroke-width="2.09931"/>
</g>
<path opacity="0.7" d="M52.9549 24V11.5327H54.877L60.0544 17.6971L65.2318 11.5327H67.1539V24H65.7513V13.1257L60.0544 19.8962L54.3575 13.1257V24H52.9549ZM71.0453 24C70.6643 24 70.3123 23.9076 69.989 23.7229C69.6773 23.5267 69.4234 23.2727 69.2271 22.9611C69.0424 22.6378 68.9501 22.2857 68.9501 21.9048V18.2685H77.7465V16.0521C77.7465 15.8674 77.6772 15.7115 77.5387 15.5846C77.4117 15.446 77.2559 15.3768 77.0712 15.3768H68.9501V13.9569H77.0712C77.4637 13.9569 77.8157 14.055 78.1274 14.2512C78.4507 14.4359 78.7046 14.6899 78.8893 15.0131C79.0856 15.3248 79.1837 15.6711 79.1837 16.0521V24H71.0453ZM71.0453 22.5801H77.7465V19.6884H70.37V21.9048C70.37 22.0895 70.4335 22.2511 70.5605 22.3896C70.699 22.5166 70.8606 22.5801 71.0453 22.5801ZM80.6155 24V23.9827L84.8059 18.8919L80.6155 13.9742V13.9569H82.4856L85.7409 17.7663L89.0136 13.9569H90.8664V13.9742L86.676 18.8919L90.8837 23.9827V24H89.0136L85.7409 19.9827L82.4856 24H80.6155ZM99.5389 24C99.1579 24 98.8058 23.9076 98.4826 23.7229C98.1709 23.5382 97.9227 23.2901 97.738 22.9784C97.5533 22.6551 97.461 22.3031 97.461 21.9221V11.5327H98.8636V21.9221C98.8636 22.1068 98.9271 22.2684 99.054 22.407C99.1926 22.5339 99.3542 22.5974 99.5389 22.5974H107.85C108.035 22.5974 108.191 22.5339 108.318 22.407C108.456 22.2684 108.526 22.1068 108.526 21.9221V11.5327H109.928V21.9221C109.928 22.3031 109.836 22.6551 109.651 22.9784C109.467 23.2901 109.213 23.5382 108.889 23.7229C108.578 23.9076 108.231 24 107.85 24H99.5389ZM111.801 27.9826V13.9569H119.939C120.32 13.9569 120.666 14.055 120.978 14.2512C121.301 14.4359 121.555 14.6899 121.74 15.0131C121.936 15.3248 122.034 15.6711 122.034 16.0521V21.9048C122.034 22.2857 121.936 22.6378 121.74 22.9611C121.555 23.2727 121.301 23.5267 120.978 23.7229C120.666 23.9076 120.32 24 119.939 24H113.22V27.9826H111.801ZM113.913 22.5801H119.939C120.124 22.5801 120.28 22.5166 120.407 22.3896C120.545 22.2511 120.614 22.0895 120.614 21.9048V16.0521C120.614 15.8674 120.545 15.7115 120.407 15.5846C120.28 15.446 120.124 15.3768 119.939 15.3768H113.913C113.728 15.3768 113.567 15.446 113.428 15.5846C113.29 15.7115 113.22 15.8674 113.22 16.0521V21.9048C113.22 22.0895 113.29 22.2511 113.428 22.3896C113.567 22.5166 113.728 22.5801 113.913 22.5801ZM124.927 27.9653V26.5281H131.195C131.38 26.5281 131.536 26.4588 131.663 26.3203C131.801 26.1933 131.871 26.0375 131.871 25.8528V24H125.169C124.788 24 124.436 23.9076 124.113 23.7229C123.801 23.5267 123.547 23.2727 123.351 22.9611C123.167 22.6378 123.074 22.2857 123.074 21.9048V16.0521C123.074 15.6711 123.167 15.3248 123.351 15.0131C123.547 14.6899 123.801 14.4359 124.113 14.2512C124.436 14.055 124.788 13.9569 125.169 13.9569H131.195C131.588 13.9569 131.94 14.055 132.252 14.2512C132.575 14.4359 132.829 14.6899 133.013 15.0131C133.198 15.3248 133.29 15.6711 133.29 16.0521V25.8528C133.29 26.2453 133.198 26.5974 133.013 26.909C132.829 27.2323 132.575 27.4862 132.252 27.6709C131.94 27.8672 131.588 27.9653 131.195 27.9653H124.927ZM125.169 22.5801H131.195C131.38 22.5801 131.536 22.5166 131.663 22.3896C131.801 22.2511 131.871 22.0895 131.871 21.9048V16.0521C131.871 15.8674 131.801 15.7115 131.663 15.5846C131.536 15.446 131.38 15.3768 131.195 15.3768H125.169C124.985 15.3768 124.823 15.446 124.685 15.5846C124.558 15.7115 124.494 15.8674 124.494 16.0521V21.9048C124.494 22.0895 124.558 22.2511 124.685 22.3896C124.823 22.5166 124.985 22.5801 125.169 22.5801ZM134.831 24V16.0521C134.831 15.6711 134.923 15.3248 135.108 15.0131C135.304 14.6899 135.558 14.4359 135.87 14.2512C136.193 14.055 136.545 13.9569 136.926 13.9569H142.571V15.3768H136.926C136.742 15.3768 136.58 15.446 136.441 15.5846C136.314 15.7115 136.251 15.8674 136.251 16.0521V24H134.831ZM145.787 24C145.406 24 145.054 23.9076 144.731 23.7229C144.419 23.5267 144.165 23.2727 143.969 22.9611C143.784 22.6378 143.692 22.2857 143.692 21.9048V18.2685H152.488V16.0521C152.488 15.8674 152.419 15.7115 152.28 15.5846C152.153 15.446 151.998 15.3768 151.813 15.3768H143.692V13.9569H151.813C152.205 13.9569 152.557 14.055 152.869 14.2512C153.192 14.4359 153.446 14.6899 153.631 15.0131C153.827 15.3248 153.925 15.6711 153.925 16.0521V24H145.787ZM145.787 22.5801H152.488V19.6884H145.112V21.9048C145.112 22.0895 145.175 22.2511 145.302 22.3896C145.441 22.5166 145.602 22.5801 145.787 22.5801ZM157.325 24C156.933 24 156.575 23.9076 156.252 23.7229C155.94 23.5267 155.686 23.2727 155.49 22.9611C155.305 22.6378 155.213 22.2857 155.213 21.9048V16.0521C155.213 15.6711 155.305 15.3248 155.49 15.0131C155.686 14.6899 155.94 14.4359 156.252 14.2512C156.575 14.055 156.933 13.9569 157.325 13.9569H164.026V10.6669H165.446V24H157.325ZM157.325 22.5801H163.351C163.536 22.5801 163.692 22.5166 163.819 22.3896C163.957 22.2511 164.026 22.0895 164.026 21.9048V16.0521C164.026 15.8674 163.957 15.7115 163.819 15.5846C163.692 15.446 163.536 15.3768 163.351 15.3768H157.325C157.14 15.3768 156.979 15.446 156.84 15.5846C156.713 15.7115 156.65 15.8674 156.65 16.0521V21.9048C156.65 22.0895 156.713 22.2511 156.84 22.3896C156.979 22.5166 157.14 22.5801 157.325 22.5801ZM169.004 24C168.623 24 168.271 23.9076 167.948 23.7229C167.636 23.5267 167.382 23.2727 167.186 22.9611C167.001 22.6378 166.909 22.2857 166.909 21.9048V16.0521C166.909 15.6711 167.001 15.3248 167.186 15.0131C167.382 14.6899 167.636 14.4359 167.948 14.2512C168.271 14.055 168.623 13.9569 169.004 13.9569H175.03C175.422 13.9569 175.774 14.055 176.086 14.2512C176.409 14.4359 176.663 14.6899 176.848 15.0131C177.044 15.3248 177.142 15.6711 177.142 16.0521V19.6884H168.329V21.9048C168.329 22.0895 168.392 22.2511 168.519 22.3896C168.658 22.5166 168.819 22.5801 169.004 22.5801H177.142V24H169.004ZM168.329 18.2685H175.705V16.0521C175.705 15.8674 175.636 15.7115 175.497 15.5846C175.37 15.446 175.214 15.3768 175.03 15.3768H169.004C168.819 15.3768 168.658 15.446 168.519 15.5846C168.392 15.7115 168.329 15.8674 168.329 16.0521V18.2685Z" fill="white"/>
<defs>
<filter id="filter0_d_4212_226759" x="0.992181" y="0" width="229.016" height="42.0039" filterUnits="userSpaceOnUse" color-interpolation-filters="sRGB">
<feFlood flood-opacity="0" result="BackgroundImageFix"/>
<feColorMatrix in="SourceAlpha" type="matrix" values="0 0 0 0 0 0 0 0 0 0 0 0 0 0 0 0 0 0 127 0" result="hardAlpha"/>
<feOffset dy="2.00782"/>
<feGaussianBlur stdDeviation="1.00391"/>
<feComposite in2="hardAlpha" operator="out"/>
<feColorMatrix type="matrix" values="0 0 0 0 0 0 0 0 0 0 0 0 0 0 0 0 0 0 0.25 0"/>
<feBlend mode="normal" in2="BackgroundImageFix" result="effect1_dropShadow_4212_226759"/>
<feBlend mode="normal" in="SourceGraphic" in2="effect1_dropShadow_4212_226759" result="shape"/>
</filter>
<linearGradient id="paint0_linear_4212_226759" x1="3" y1="18.9942" x2="233.813" y2="18.9942" gradientUnits="userSpaceOnUse">
<stop stop-color="#131BB0"/>
<stop offset="0.482292" stop-color="#B84C93"/>
<stop offset="1" stop-color="#FF00F5"/>
<stop offset="1" stop-color="#DB34CA"/>
</linearGradient>
</defs>
</svg>
