<svg width="129" height="36" viewBox="0 0 129 36" fill="none" xmlns="http://www.w3.org/2000/svg">
<rect x="0.5" y="0.5" width="128" height="34.0543" rx="14.5" fill="url(#paint0_linear_3630_219291)" stroke="url(#paint1_linear_3630_219291)"/>
<path d="M11.8866 23C11.5566 23 11.2516 22.92 10.9716 22.76C10.7016 22.6 10.4866 22.385 10.3266 22.115C10.1666 21.835 10.0866 21.53 10.0866 21.2V14C10.0866 13.67 10.1666 13.37 10.3266 13.1C10.4866 12.82 10.7016 12.6 10.9716 12.44C11.2516 12.28 11.5566 12.2 11.8866 12.2H20.8566V13.415H11.8866C11.7266 13.415 11.5866 13.475 11.4666 13.595C11.3566 13.705 11.3016 13.84 11.3016 14V21.2C11.3016 21.36 11.3566 21.5 11.4666 21.62C11.5866 21.73 11.7266 21.785 11.8866 21.785H20.8566V23H11.8866ZM24.1606 23C23.8306 23 23.5256 22.92 23.2456 22.76C22.9756 22.59 22.7556 22.37 22.5856 22.1C22.4256 21.82 22.3456 21.515 22.3456 21.185V16.115C22.3456 15.785 22.4256 15.485 22.5856 15.215C22.7556 14.935 22.9756 14.715 23.2456 14.555C23.5256 14.385 23.8306 14.3 24.1606 14.3H29.3806C29.7206 14.3 30.0256 14.385 30.2956 14.555C30.5756 14.715 30.7956 14.935 30.9556 15.215C31.1256 15.485 31.2106 15.785 31.2106 16.115V21.185C31.2106 21.515 31.1256 21.82 30.9556 22.1C30.7956 22.37 30.5756 22.59 30.2956 22.76C30.0256 22.92 29.7206 23 29.3806 23H24.1606ZM24.1606 21.77H29.3806C29.5406 21.77 29.6756 21.715 29.7856 21.605C29.9056 21.485 29.9656 21.345 29.9656 21.185V16.115C29.9656 15.955 29.9056 15.82 29.7856 15.71C29.6756 15.59 29.5406 15.53 29.3806 15.53H24.1606C24.0006 15.53 23.8606 15.59 23.7406 15.71C23.6306 15.82 23.5756 15.955 23.5756 16.115V21.185C23.5756 21.345 23.6306 21.485 23.7406 21.605C23.8606 21.715 24.0006 21.77 24.1606 21.77ZM32.7763 23V14.3H44.2663C44.6063 14.3 44.9113 14.385 45.1813 14.555C45.4613 14.715 45.6813 14.935 45.8413 15.215C46.0013 15.485 46.0813 15.785 46.0813 16.115V23H44.8663V16.115C44.8663 15.955 44.8063 15.82 44.6863 15.71C44.5663 15.59 44.4263 15.53 44.2663 15.53H40.6513C40.4913 15.53 40.3513 15.59 40.2313 15.71C40.1213 15.82 40.0663 15.955 40.0663 16.115V23H38.8213V16.115C38.8213 15.955 38.7613 15.82 38.6413 15.71C38.5313 15.59 38.3963 15.53 38.2363 15.53H34.6063C34.4463 15.53 34.3063 15.59 34.1863 15.71C34.0763 15.82 34.0213 15.955 34.0213 16.115V23H32.7763ZM47.4094 23V14.3H48.6394V23H47.4094ZM47.4094 12.68V11.45H48.6394V12.68H47.4094ZM50.3398 23V14.3H57.3898C57.7198 14.3 58.0198 14.385 58.2898 14.555C58.5698 14.715 58.7898 14.935 58.9498 15.215C59.1198 15.485 59.2048 15.785 59.2048 16.115V23H57.9748V16.115C57.9748 15.955 57.9148 15.82 57.7948 15.71C57.6848 15.59 57.5498 15.53 57.3898 15.53H52.1698C52.0098 15.53 51.8698 15.59 51.7498 15.71C51.6298 15.82 51.5698 15.955 51.5698 16.115V23H50.3398ZM62.1941 26.435V25.19H67.6241C67.7841 25.19 67.9191 25.13 68.0291 25.01C68.1491 24.9 68.2091 24.765 68.2091 24.605V23H62.4041C62.0741 23 61.7691 22.92 61.4891 22.76C61.2191 22.59 60.9991 22.37 60.8291 22.1C60.6691 21.82 60.5891 21.515 60.5891 21.185V16.115C60.5891 15.785 60.6691 15.485 60.8291 15.215C60.9991 14.935 61.2191 14.715 61.4891 14.555C61.7691 14.385 62.0741 14.3 62.4041 14.3H67.6241C67.9641 14.3 68.2691 14.385 68.5391 14.555C68.8191 14.715 69.0391 14.935 69.1991 15.215C69.3591 15.485 69.4391 15.785 69.4391 16.115V24.605C69.4391 24.945 69.3591 25.25 69.1991 25.52C69.0391 25.8 68.8191 26.02 68.5391 26.18C68.2691 26.35 67.9641 26.435 67.6241 26.435H62.1941ZM62.4041 21.77H67.6241C67.7841 21.77 67.9191 21.715 68.0291 21.605C68.1491 21.485 68.2091 21.345 68.2091 21.185V16.115C68.2091 15.955 68.1491 15.82 68.0291 15.71C67.9191 15.59 67.7841 15.53 67.6241 15.53H62.4041C62.2441 15.53 62.1041 15.59 61.9841 15.71C61.8741 15.82 61.8191 15.955 61.8191 16.115V21.185C61.8191 21.345 61.8741 21.485 61.9841 21.605C62.1041 21.715 62.2441 21.77 62.4041 21.77ZM76.8653 23C76.5353 23 76.2303 22.92 75.9503 22.76C75.6803 22.6 75.4653 22.385 75.3053 22.115C75.1453 21.835 75.0653 21.53 75.0653 21.2V20.78H76.2803V21.2C76.2803 21.36 76.3353 21.5 76.4453 21.62C76.5653 21.73 76.7053 21.785 76.8653 21.785H84.0653C84.2253 21.785 84.3603 21.73 84.4703 21.62C84.5903 21.5 84.6503 21.36 84.6503 21.2V18.785C84.6503 18.625 84.5903 18.49 84.4703 18.38C84.3603 18.27 84.2253 18.215 84.0653 18.215H76.8653C76.5353 18.215 76.2303 18.135 75.9503 17.975C75.6803 17.805 75.4653 17.585 75.3053 17.315C75.1453 17.045 75.0653 16.745 75.0653 16.415V14C75.0653 13.67 75.1453 13.37 75.3053 13.1C75.4653 12.82 75.6803 12.6 75.9503 12.44C76.2303 12.28 76.5353 12.2 76.8653 12.2H84.0653C84.3953 12.2 84.6953 12.28 84.9653 12.44C85.2453 12.6 85.4653 12.82 85.6253 13.1C85.7853 13.37 85.8653 13.67 85.8653 14V14.42H84.6503V14C84.6503 13.84 84.5903 13.705 84.4703 13.595C84.3603 13.475 84.2253 13.415 84.0653 13.415H76.8653C76.7053 13.415 76.5653 13.475 76.4453 13.595C76.3353 13.705 76.2803 13.84 76.2803 14V16.415C76.2803 16.575 76.3353 16.71 76.4453 16.82C76.5653 16.93 76.7053 16.985 76.8653 16.985H84.0653C84.3953 16.985 84.6953 17.07 84.9653 17.24C85.2453 17.4 85.4653 17.615 85.6253 17.885C85.7853 18.155 85.8653 18.455 85.8653 18.785V21.2C85.8653 21.53 85.7853 21.835 85.6253 22.115C85.4653 22.385 85.2453 22.6 84.9653 22.76C84.6953 22.92 84.3953 23 84.0653 23H76.8653ZM89.2143 23C88.8843 23 88.5793 22.92 88.2993 22.76C88.0293 22.59 87.8093 22.37 87.6393 22.1C87.4793 21.82 87.3993 21.515 87.3993 21.185V16.115C87.3993 15.785 87.4793 15.485 87.6393 15.215C87.8093 14.935 88.0293 14.715 88.2993 14.555C88.5793 14.385 88.8843 14.3 89.2143 14.3H94.4343C94.7743 14.3 95.0793 14.385 95.3493 14.555C95.6293 14.715 95.8493 14.935 96.0093 15.215C96.1793 15.485 96.2643 15.785 96.2643 16.115V21.185C96.2643 21.515 96.1793 21.82 96.0093 22.1C95.8493 22.37 95.6293 22.59 95.3493 22.76C95.0793 22.92 94.7743 23 94.4343 23H89.2143ZM89.2143 21.77H94.4343C94.5943 21.77 94.7293 21.715 94.8393 21.605C94.9593 21.485 95.0193 21.345 95.0193 21.185V16.115C95.0193 15.955 94.9593 15.82 94.8393 15.71C94.7293 15.59 94.5943 15.53 94.4343 15.53H89.2143C89.0543 15.53 88.9143 15.59 88.7943 15.71C88.6843 15.82 88.6293 15.955 88.6293 16.115V21.185C88.6293 21.345 88.6843 21.485 88.7943 21.605C88.9143 21.715 89.0543 21.77 89.2143 21.77ZM99.3071 23C98.9771 23 98.6721 22.92 98.3921 22.76C98.1221 22.59 97.9021 22.37 97.7321 22.1C97.5721 21.82 97.4921 21.515 97.4921 21.185V16.115C97.4921 15.785 97.5721 15.485 97.7321 15.215C97.9021 14.935 98.1221 14.715 98.3921 14.555C98.6721 14.385 98.9771 14.3 99.3071 14.3H104.527C104.867 14.3 105.172 14.385 105.442 14.555C105.722 14.715 105.942 14.935 106.102 15.215C106.272 15.485 106.357 15.785 106.357 16.115V21.185C106.357 21.515 106.272 21.82 106.102 22.1C105.942 22.37 105.722 22.59 105.442 22.76C105.172 22.92 104.867 23 104.527 23H99.3071ZM99.3071 21.77H104.527C104.687 21.77 104.822 21.715 104.932 21.605C105.052 21.485 105.112 21.345 105.112 21.185V16.115C105.112 15.955 105.052 15.82 104.932 15.71C104.822 15.59 104.687 15.53 104.527 15.53H99.3071C99.1471 15.53 99.0071 15.59 98.8871 15.71C98.7771 15.82 98.7221 15.955 98.7221 16.115V21.185C98.7221 21.345 98.7771 21.485 98.8871 21.605C99.0071 21.715 99.1471 21.77 99.3071 21.77ZM107.703 23V14.3H114.753C115.083 14.3 115.383 14.385 115.653 14.555C115.933 14.715 116.153 14.935 116.313 15.215C116.483 15.485 116.568 15.785 116.568 16.115V23H115.338V16.115C115.338 15.955 115.278 15.82 115.158 15.71C115.048 15.59 114.913 15.53 114.753 15.53H109.533C109.373 15.53 109.233 15.59 109.113 15.71C108.993 15.82 108.933 15.955 108.933 16.115V23H107.703ZM118.147 23V21.77H119.377V23H118.147ZM121.355 23V21.77H122.585V23H121.355Z" fill="white"/>
<defs>
<linearGradient id="paint0_linear_3630_219291" x1="-22.8975" y1="16.1993" x2="137.065" y2="17.6828" gradientUnits="userSpaceOnUse">
<stop stop-color="#6400FF" stop-opacity="0.88"/>
<stop offset="0.523958" stop-color="#874691" stop-opacity="0.86"/>
<stop offset="1" stop-color="#FF03F5" stop-opacity="0.67"/>
</linearGradient>
<linearGradient id="paint1_linear_3630_219291" x1="0" y1="17.5272" x2="132.333" y2="17.5272" gradientUnits="userSpaceOnUse">
<stop stop-color="#131BB0"/>
<stop offset="0.482292" stop-color="#B84C93"/>
<stop offset="1" stop-color="#FF00F5"/>
<stop offset="1" stop-color="#DB34CA"/>
</linearGradient>
</defs>
</svg>
