<svg width="129" height="36" viewBox="0 0 129 36" fill="none" xmlns="http://www.w3.org/2000/svg">
<rect x="0.5" y="0.5" width="128" height="34.0543" rx="14.5" fill="url(#paint0_linear_3630_219281)" stroke="url(#paint1_linear_3630_219281)"/>
<path d="M50.1335 23V12.2H51.7985L56.2835 17.54L60.7685 12.2H62.4335V23H61.2185V13.58L56.2835 19.445L51.3485 13.58V23H50.1335ZM63.9895 23V14.3H65.2195V23H63.9895ZM63.9895 12.68V11.45H65.2195V12.68H63.9895ZM66.9199 23V14.3H73.9699C74.2999 14.3 74.5999 14.385 74.8699 14.555C75.1499 14.715 75.3699 14.935 75.5299 15.215C75.6999 15.485 75.7849 15.785 75.7849 16.115V23H74.5549V16.115C74.5549 15.955 74.4949 15.82 74.3749 15.71C74.2649 15.59 74.1299 15.53 73.9699 15.53H68.7499C68.5899 15.53 68.4499 15.59 68.3299 15.71C68.2099 15.82 68.1499 15.955 68.1499 16.115V23H66.9199ZM79.1642 23C78.8242 23 78.5142 22.92 78.2342 22.76C77.9642 22.59 77.7492 22.37 77.5892 22.1C77.4292 21.82 77.3492 21.515 77.3492 21.185V11.45H78.5792V14.3H82.3442V15.53H78.5792V21.185C78.5792 21.345 78.6342 21.485 78.7442 21.605C78.8642 21.715 79.0042 21.77 79.1642 21.77H82.3442V23H79.1642Z" fill="white"/>
<defs>
<linearGradient id="paint0_linear_3630_219281" x1="-22.8975" y1="16.1993" x2="137.065" y2="17.6828" gradientUnits="userSpaceOnUse">
<stop stop-color="#6400FF" stop-opacity="0.88"/>
<stop offset="0.523958" stop-color="#874691" stop-opacity="0.86"/>
<stop offset="1" stop-color="#FF03F5" stop-opacity="0.67"/>
</linearGradient>
<linearGradient id="paint1_linear_3630_219281" x1="0" y1="17.5272" x2="132.333" y2="17.5272" gradientUnits="userSpaceOnUse">
<stop stop-color="#131BB0"/>
<stop offset="0.482292" stop-color="#B84C93"/>
<stop offset="1" stop-color="#FF00F5"/>
<stop offset="1" stop-color="#DB34CA"/>
</linearGradient>
</defs>
</svg>
