<svg width="129" height="36" viewBox="0 0 129 36" fill="none" xmlns="http://www.w3.org/2000/svg">
<rect x="0.5" y="0.5" width="128" height="34.0543" rx="7.5" fill="url(#paint0_linear_4047_226744)" stroke="url(#paint1_linear_4047_226744)"/>
<path d="M40.6135 27V9.72H43.2775L50.4535 18.264L57.6295 9.72H60.2935V27H58.3495V11.928L50.4535 21.312L42.5575 11.928V27H40.6135ZM62.7832 27V13.08H64.7512V27H62.7832ZM62.7832 10.488V8.52H64.7512V10.488H62.7832ZM67.4718 27V13.08H78.7518C79.2798 13.08 79.7598 13.216 80.1918 13.488C80.6398 13.744 80.9918 14.096 81.2478 14.544C81.5198 14.976 81.6558 15.456 81.6558 15.984V27H79.6878V15.984C79.6878 15.728 79.5918 15.512 79.3998 15.336C79.2238 15.144 79.0078 15.048 78.7518 15.048H70.3998C70.1438 15.048 69.9198 15.144 69.7278 15.336C69.5358 15.512 69.4398 15.728 69.4398 15.984V27H67.4718ZM87.0627 27C86.5187 27 86.0227 26.872 85.5747 26.616C85.1427 26.344 84.7987 25.992 84.5427 25.56C84.2867 25.112 84.1587 24.624 84.1587 24.096V8.52H86.1267V13.08H92.1507V15.048H86.1267V24.096C86.1267 24.352 86.2147 24.576 86.3907 24.768C86.5827 24.944 86.8067 25.032 87.0627 25.032H92.1507V27H87.0627Z" fill="white"/>
<defs>
<linearGradient id="paint0_linear_4047_226744" x1="-22.8975" y1="16.1993" x2="137.065" y2="17.6828" gradientUnits="userSpaceOnUse">
<stop stop-color="#5D21BA" stop-opacity="0.88"/>
<stop offset="0.523958" stop-color="#874691" stop-opacity="0.86"/>
<stop offset="1" stop-color="#FF03F5" stop-opacity="0.67"/>
</linearGradient>
<linearGradient id="paint1_linear_4047_226744" x1="0" y1="17.5272" x2="132.333" y2="17.5272" gradientUnits="userSpaceOnUse">
<stop stop-color="#131BB0"/>
<stop offset="0.482292" stop-color="#B84C93"/>
<stop offset="1" stop-color="#FF00F5"/>
<stop offset="1" stop-color="#DB34CA"/>
</linearGradient>
</defs>
</svg>
