<svg width="143" height="56" viewBox="0 0 143 56" fill="none" xmlns="http://www.w3.org/2000/svg">
<g filter="url(#filter0_d_3302_288426)">
<rect x="4.5" y="1.5" width="134" height="47" rx="13.5" fill="url(#paint0_linear_3302_288426)" stroke="url(#paint1_linear_3302_288426)" stroke-width="3"/>
</g>
<path opacity="0.7" d="M25.3954 30V15.6H27.6154L33.5954 22.72L39.5754 15.6H41.7954V30H40.1754V17.44L33.5954 25.26L27.0154 17.44V30H25.3954ZM45.8101 34.6V32.94H53.0501C53.2634 32.94 53.4434 32.86 53.5901 32.7C53.7501 32.5533 53.8301 32.3733 53.8301 32.16V30H46.0901C45.6501 30 45.2434 29.8933 44.8701 29.68C44.5101 29.4533 44.2167 29.16 43.9901 28.8C43.7767 28.4267 43.6701 28.02 43.6701 27.58V18.44H45.3101V27.58C45.3101 27.7933 45.3834 27.98 45.5301 28.14C45.6901 28.2867 45.8767 28.36 46.0901 28.36H53.0501C53.2634 28.36 53.4434 28.2867 53.5901 28.14C53.7501 27.98 53.8301 27.7933 53.8301 27.58V18.44H55.4701V32.16C55.4701 32.6133 55.3634 33.02 55.1501 33.38C54.9367 33.7533 54.6434 34.0467 54.2701 34.26C53.9101 34.4867 53.5034 34.6 53.0501 34.6H45.8101ZM63.0907 30V15.6H65.3107L75.8707 28.16V15.6H77.4907V30H75.2707L64.7107 17.44V30H63.0907ZM79.7713 30V15.6H92.9113V17.22H81.3913V21.98H90.6513V23.62H81.3913V30H79.7713ZM100.06 30V17.22H93.6598V15.6H108.06V17.22H101.68V30H100.06ZM109.394 30C108.954 30 108.547 29.8933 108.174 29.68C107.814 29.4533 107.52 29.16 107.294 28.8C107.08 28.4267 106.974 28.02 106.974 27.58V27.42H108.614V27.58C108.614 27.7933 108.687 27.98 108.834 28.14C108.994 28.2867 109.18 28.36 109.394 28.36H116.354C116.567 28.36 116.747 28.2867 116.894 28.14C117.054 27.98 117.134 27.7933 117.134 27.58V25.8C117.134 25.5867 117.054 25.4067 116.894 25.26C116.747 25.1 116.567 25.02 116.354 25.02H109.394C108.954 25.02 108.547 24.9133 108.174 24.7C107.814 24.4733 107.52 24.18 107.294 23.82C107.08 23.4467 106.974 23.04 106.974 22.6V20.82C106.974 20.38 107.08 19.98 107.294 19.62C107.52 19.2467 107.814 18.9533 108.174 18.74C108.547 18.5133 108.954 18.4 109.394 18.4H116.354C116.807 18.4 117.214 18.5133 117.574 18.74C117.947 18.9533 118.24 19.2467 118.454 19.62C118.68 19.98 118.794 20.38 118.794 20.82V20.98H117.134V20.82C117.134 20.6067 117.054 20.4267 116.894 20.28C116.747 20.12 116.567 20.04 116.354 20.04H109.394C109.18 20.04 108.994 20.12 108.834 20.28C108.687 20.4267 108.614 20.6067 108.614 20.82V22.6C108.614 22.8133 108.687 23 108.834 23.16C108.994 23.3067 109.18 23.38 109.394 23.38H116.354C116.807 23.38 117.214 23.4933 117.574 23.72C117.947 23.9333 118.24 24.2267 118.454 24.6C118.68 24.96 118.794 25.36 118.794 25.8V27.58C118.794 28.02 118.68 28.4267 118.454 28.8C118.24 29.16 117.947 29.4533 117.574 29.68C117.214 29.8933 116.807 30 116.354 30H109.394Z" fill="white"/>
<defs>
<filter id="filter0_d_3302_288426" x="0.130742" y="0" width="142.739" height="55.7385" filterUnits="userSpaceOnUse" color-interpolation-filters="sRGB">
<feFlood flood-opacity="0" result="BackgroundImageFix"/>
<feColorMatrix in="SourceAlpha" type="matrix" values="0 0 0 0 0 0 0 0 0 0 0 0 0 0 0 0 0 0 127 0" result="hardAlpha"/>
<feOffset dy="2.86926"/>
<feGaussianBlur stdDeviation="1.43463"/>
<feComposite in2="hardAlpha" operator="out"/>
<feColorMatrix type="matrix" values="0 0 0 0 0 0 0 0 0 0 0 0 0 0 0 0 0 0 0.25 0"/>
<feBlend mode="normal" in2="BackgroundImageFix" result="effect1_dropShadow_3302_288426"/>
<feBlend mode="normal" in="SourceGraphic" in2="effect1_dropShadow_3302_288426" result="shape"/>
</filter>
<linearGradient id="paint0_linear_3302_288426" x1="-21.3175" y1="23.1059" x2="148.572" y2="24.2791" gradientUnits="userSpaceOnUse">
<stop stop-color="#6400FF" stop-opacity="0.88"/>
<stop offset="0.523958" stop-color="#874691" stop-opacity="0.86"/>
<stop offset="1" stop-color="#FF03F5" stop-opacity="0.67"/>
</linearGradient>
<linearGradient id="paint1_linear_3302_288426" x1="3" y1="25" x2="143.54" y2="25" gradientUnits="userSpaceOnUse">
<stop stop-color="#131BB0"/>
<stop offset="0.482292" stop-color="#B84C93"/>
<stop offset="1" stop-color="#FF00F5"/>
<stop offset="1" stop-color="#DB34CA"/>
</linearGradient>
</defs>
</svg>
