<svg width="135" height="42" viewBox="0 0 135 42" fill="none" xmlns="http://www.w3.org/2000/svg">
<g filter="url(#filter0_d_4047_226743)">
<rect x="3.5" y="1.44531" width="128" height="34.0543" rx="7.5" fill="url(#paint0_linear_4047_226743)" stroke="url(#paint1_linear_4047_226743)"/>
</g>
<path opacity="0.7" d="M42.516 28L32.508 10.72H34.788L43.644 26.104L52.476 10.72H54.756L44.772 28H42.516ZM56.9863 28V14.08H58.9543V28H56.9863ZM56.9863 11.488V9.52H58.9543V11.488H56.9863ZM64.8585 28C64.3305 28 63.8425 27.872 63.3945 27.616C62.9625 27.344 62.6105 26.992 62.3385 26.56C62.0825 26.112 61.9545 25.624 61.9545 25.096V16.984C61.9545 16.456 62.0825 15.976 62.3385 15.544C62.6105 15.096 62.9625 14.744 63.3945 14.488C63.8425 14.216 64.3305 14.08 64.8585 14.08H73.2105C73.7545 14.08 74.2425 14.216 74.6745 14.488C75.1225 14.744 75.4745 15.096 75.7305 15.544C76.0025 15.976 76.1385 16.456 76.1385 16.984V22.024H63.9225V25.096C63.9225 25.352 64.0105 25.576 64.1865 25.768C64.3785 25.944 64.6025 26.032 64.8585 26.032H76.1385V28H64.8585ZM63.9225 20.056H74.1465V16.984C74.1465 16.728 74.0505 16.512 73.8585 16.336C73.6825 16.144 73.4665 16.048 73.2105 16.048H64.8585C64.6025 16.048 64.3785 16.144 64.1865 16.336C64.0105 16.512 63.9225 16.728 63.9225 16.984V20.056ZM82.9331 28L77.4611 14.08H79.5731L83.7971 24.448L88.2851 14.08H90.8771L95.6531 24.424L99.5891 14.08H101.725L96.4691 28H94.7651L89.5811 16.504L84.6611 28H82.9331Z" fill="white"/>
<defs>
<filter id="filter0_d_4047_226743" x="0.130742" y="0.945312" width="134.739" height="40.7932" filterUnits="userSpaceOnUse" color-interpolation-filters="sRGB">
<feFlood flood-opacity="0" result="BackgroundImageFix"/>
<feColorMatrix in="SourceAlpha" type="matrix" values="0 0 0 0 0 0 0 0 0 0 0 0 0 0 0 0 0 0 127 0" result="hardAlpha"/>
<feOffset dy="2.86926"/>
<feGaussianBlur stdDeviation="1.43463"/>
<feComposite in2="hardAlpha" operator="out"/>
<feColorMatrix type="matrix" values="0 0 0 0 0 0 0 0 0 0 0 0 0 0 0 0 0 0 0.25 0"/>
<feBlend mode="normal" in2="BackgroundImageFix" result="effect1_dropShadow_4047_226743"/>
<feBlend mode="normal" in="SourceGraphic" in2="effect1_dropShadow_4047_226743" result="shape"/>
</filter>
<linearGradient id="paint0_linear_4047_226743" x1="-19.8975" y1="17.1446" x2="140.065" y2="18.6281" gradientUnits="userSpaceOnUse">
<stop stop-color="#6400FF" stop-opacity="0.88"/>
<stop offset="0.523958" stop-color="#874691" stop-opacity="0.86"/>
<stop offset="1" stop-color="#FF03F5" stop-opacity="0.67"/>
</linearGradient>
<linearGradient id="paint1_linear_4047_226743" x1="3" y1="18.4725" x2="135.333" y2="18.4725" gradientUnits="userSpaceOnUse">
<stop stop-color="#131BB0"/>
<stop offset="0.482292" stop-color="#B84C93"/>
<stop offset="1" stop-color="#FF00F5"/>
<stop offset="1" stop-color="#DB34CA"/>
</linearGradient>
</defs>
</svg>
